<svg width="79" height="44" viewBox="0 0 79 44" fill="none" xmlns="http://www.w3.org/2000/svg">
<g clip-path="url(#clip0_499_366)">
<path d="M76.3087 35.1103C76.3625 35.3778 76.3373 35.7209 76.3394 35.9755C76.3421 36.2518 76.3516 36.5604 76.3121 36.8414C76.3053 36.8691 76.2965 36.9103 76.2924 36.9333C76.2761 37.0224 76.2631 37.1116 76.2461 37.2007C76.2189 37.3419 76.1869 37.4824 76.1502 37.6208C76.1107 37.7708 76.0624 37.9153 76.0154 38.0619C75.9725 38.1591 75.9297 38.2557 75.8827 38.3503C75.8201 38.4766 75.7514 38.5995 75.6779 38.719C75.6588 38.7494 75.6377 38.7873 75.6146 38.8224C75.5948 38.8447 75.573 38.8703 75.5594 38.8872C75.4723 38.9973 75.3804 39.1027 75.2838 39.204C75.2416 39.2486 75.1981 39.2925 75.1538 39.335C75.1477 39.3404 75.1341 39.3539 75.1178 39.3701C75.1048 39.3782 74.9898 39.4809 74.9803 39.4883C74.932 39.5255 74.883 39.5619 74.8333 39.5977C74.7339 39.6687 74.6325 39.7362 74.5291 39.8004C74.412 39.8733 74.2929 39.9408 74.1718 40.005C74.1221 40.0314 74.0717 40.0557 74.0221 40.0813C74.0016 40.0901 73.9819 40.0996 73.9615 40.1077C73.4647 40.3191 72.9488 40.4724 72.4261 40.5832C72.2927 40.6115 72.158 40.6372 72.0233 40.6608C71.9756 40.6689 71.928 40.6764 71.8803 40.6845C71.8728 40.6845 71.8654 40.6858 71.8572 40.6872C71.5931 40.7162 71.3298 40.7473 71.065 40.7648C70.5362 40.8013 70.0047 40.804 69.4746 40.7757C69.2391 40.7628 69.0036 40.7439 68.7688 40.7189C68.6429 40.7054 68.517 40.6885 68.3911 40.673C68.3162 40.6608 68.2414 40.6487 68.1665 40.6358C67.9882 40.6041 67.8099 40.5676 67.6323 40.5285C66.8034 40.3481 65.988 40.0908 65.1986 39.7578C65.1795 39.7497 65.1605 39.7423 65.1421 39.7342C65.0468 39.6936 64.9475 39.6572 64.8542 39.6106C64.8849 39.6275 64.9046 39.6383 64.9148 39.6443C64.8699 39.6214 64.6943 39.5282 64.6569 39.5099C64.403 39.3823 64.1526 39.2472 63.9062 39.104C63.453 38.8406 63.0126 38.5509 62.5887 38.2341C62.5356 38.1949 62.0571 37.7822 61.9911 37.7573C61.9898 37.7566 61.9884 37.7559 61.987 37.7559C61.9864 37.7552 61.9857 37.7552 61.9857 37.7552C61.9516 37.7248 61.9169 37.6951 61.8829 37.6641C61.7693 37.5627 61.6583 37.4587 61.5481 37.3534C61.152 36.9731 60.7777 36.5658 60.4272 36.1343C60.2645 35.9337 60.1101 35.725 59.9556 35.5156C59.9528 35.5122 59.9508 35.5088 59.9481 35.5048C59.9141 35.4521 59.878 35.4008 59.844 35.3481C59.7548 35.213 59.6677 35.0759 59.5833 34.9368C59.2505 34.389 58.9531 33.8142 58.6904 33.2219C58.6224 33.0699 58.5577 32.9166 58.4944 32.762C58.4822 32.7316 58.4699 32.7012 58.4583 32.6708C58.4583 32.6708 58.4556 32.6606 58.4508 32.6505L58.4488 32.6465C58.4488 32.6465 58.4468 32.6404 58.4454 32.637C58.4434 32.6323 58.4413 32.6269 58.4386 32.6208C58.4345 32.6107 58.4297 32.5992 58.4243 32.5864C58.4229 32.583 58.4216 32.5789 58.4202 32.5755C58.4182 32.5695 58.4161 32.5634 58.4141 32.5587C58.2998 32.2439 58.1902 31.9265 58.0908 31.6057C58.0636 31.5165 58.0384 31.4274 58.0126 31.3389C57.8485 30.7796 57.7077 30.2123 57.5913 29.6389C57.5328 29.3518 57.4804 29.0628 57.4327 28.773L57.4184 28.6899C57.3912 28.5218 57.366 28.3536 57.3429 28.1847C57.332 28.1091 57.3225 28.0341 57.3123 27.9591C57.3102 27.9423 57.3082 27.9288 57.3062 27.9159C57.3048 27.9004 57.3027 27.8815 57.3007 27.8592C57.2286 27.1797 57.1755 26.4989 57.1489 25.8147C57.0264 22.6822 57.366 19.5584 57.7165 16.4556C57.8023 15.7005 57.8894 14.9447 57.9792 14.1896C57.9799 14.1849 57.9806 14.1815 57.9806 14.1768C57.9819 14.1694 57.9826 14.1626 57.984 14.1538C57.9976 14.0458 58.0105 13.9384 58.0241 13.8303C58.0459 13.6581 58.0684 13.4859 58.0908 13.3136C58.1412 12.926 58.1943 12.5389 58.2508 12.1526C58.444 10.8167 58.6571 9.47396 59.0218 8.1792C59.0981 7.91039 59.1811 7.64293 59.2716 7.37952C59.2981 7.3032 59.3267 7.22755 59.3533 7.15191C59.4193 6.99657 59.4819 6.84055 59.5513 6.68791C59.6718 6.4245 59.8024 6.16717 59.946 5.91862C60.0134 5.80177 60.0835 5.68695 60.1563 5.57416C60.1584 5.57146 60.2189 5.48366 60.2502 5.43705C60.2781 5.39991 60.3081 5.36006 60.3163 5.34925C60.5014 5.10881 60.7015 4.88254 60.9145 4.67182C60.9887 4.59887 61.0656 4.52931 61.1425 4.46042C61.1602 4.44556 61.1799 4.42867 61.1928 4.41854C61.2711 4.35911 61.3487 4.29832 61.4283 4.24023C61.6542 4.07679 61.8897 3.9282 62.1306 3.79379C62.2484 3.72828 62.3675 3.66884 62.4866 3.60873C62.4913 3.6067 62.4954 3.60535 62.5002 3.60333C62.59 3.5655 62.6798 3.527 62.7704 3.49188C63.3019 3.28318 63.8518 3.13324 64.4085 3.03328C64.4357 3.02856 64.4867 3.0191 64.5221 3.01302C64.5534 3.00897 64.5854 3.00492 64.6167 3.00154C64.744 2.986 64.8726 2.9725 65.0006 2.96237C65.3442 2.934 65.6886 2.92252 66.033 2.92454C66.736 2.92927 67.4363 2.99478 68.1345 3.08664C68.1604 3.09002 68.1801 3.09272 68.1978 3.09475C68.2836 3.10758 68.3693 3.12109 68.4558 3.13527C68.6109 3.16026 68.7654 3.18728 68.9206 3.21429C69.2881 3.27981 69.6549 3.3514 70.0217 3.42434C70.6553 3.55132 71.2916 3.67222 71.9171 3.84242C72.2124 3.92279 72.5051 4.01465 72.7909 4.12812C72.829 4.14298 72.8671 4.15919 72.9053 4.1754C72.9291 4.1862 73.0175 4.2247 73.0489 4.24091C73.1911 4.31385 73.3306 4.39355 73.4667 4.48135C73.5811 4.55497 73.6933 4.634 73.8029 4.71707C73.8124 4.7245 73.8471 4.75017 73.8798 4.77448C73.8893 4.78326 73.8995 4.79339 73.9125 4.80555C74.1132 4.99872 74.3079 5.19526 74.4862 5.41476C74.5257 5.46339 74.5624 5.51472 74.6026 5.56268C74.6101 5.57213 74.6155 5.57821 74.6216 5.58564C74.6944 5.69776 74.7673 5.80853 74.8346 5.9247C74.9708 6.15839 75.0878 6.40288 75.196 6.65414C75.1967 6.66697 75.2137 6.70952 75.2273 6.73924C75.2416 6.77976 75.2559 6.82164 75.2593 6.83244C75.3042 6.97023 75.3437 7.10936 75.3791 7.25052C75.4138 7.391 75.4437 7.53351 75.4689 7.6767C75.475 7.7098 75.4819 7.81854 75.4941 7.85703C75.4955 7.87257 75.4975 7.8881 75.4982 7.90364C75.5179 8.16164 75.5206 8.42167 75.505 8.68035C75.5016 8.73979 75.4961 8.79787 75.4921 8.85663C75.4608 9.01265 75.4376 9.16867 75.4009 9.32334C75.3682 9.46315 75.3301 9.60093 75.2872 9.73736C75.2729 9.78262 75.2579 9.82787 75.243 9.87245H75.2423C75.2246 9.88528 75.2117 9.91162 75.2028 9.93661C75.1613 10.0264 75.1143 10.1771 75.0967 10.2156C75.0286 10.3574 74.9558 10.4965 74.8775 10.6316C74.8149 10.739 74.7482 10.8423 74.6808 10.9463H74.6802C74.6305 11.0065 74.5862 11.0699 74.5379 11.1294C74.3691 11.3361 74.1854 11.5252 73.9935 11.7048C73.9935 11.7048 73.993 11.705 73.9921 11.7055C73.9921 11.7055 73.9887 11.7082 73.9873 11.7096C73.9513 11.7372 73.8791 11.7953 73.8655 11.8055C73.7573 11.8858 73.6464 11.9615 73.5327 12.0324C73.4184 12.1033 73.3013 12.1655 73.1843 12.2289C73.1679 12.2377 73.1537 12.2478 73.1414 12.2566C73.0754 12.283 72.9999 12.2999 72.9454 12.3188C72.7004 12.4052 72.4486 12.4701 72.1941 12.5146C72.2247 12.5045 71.8946 12.5403 71.8477 12.543C71.6687 12.5518 71.4897 12.5525 71.3107 12.545C71.1487 12.5389 70.9881 12.5214 70.8268 12.5079C70.8112 12.5065 70.7792 12.5025 70.7526 12.4984C70.7057 12.4903 70.658 12.4822 70.6104 12.4734C70.2912 12.4126 69.9748 12.3309 69.6631 12.2323C69.3759 12.1411 69.0921 12.0358 68.8124 11.9183C68.745 11.8899 68.4449 11.742 68.6034 11.825C68.4673 11.7555 68.3299 11.6893 68.1951 11.6157C67.6643 11.3266 67.1552 10.9889 66.674 10.6073C66.6189 10.5634 66.378 10.352 66.4794 10.4465C66.3923 10.3682 66.3045 10.2905 66.2181 10.2101C65.9806 9.98591 65.7519 9.75087 65.5334 9.50502C65.2918 9.23284 65.0707 8.92282 64.7644 8.73304C64.3554 8.48043 63.8695 8.40209 63.4155 8.5446C62.6513 8.78572 62.1735 9.59621 61.9489 10.3885C61.7393 11.1294 61.6876 11.9696 61.6107 12.7362C61.5406 13.4339 61.4725 14.1525 61.5066 14.8556C61.5501 15.7478 61.7761 16.5617 62.3028 17.2513C62.6941 17.7646 63.2284 18.0942 63.7905 18.3279C64.8052 18.7486 65.8969 18.675 66.9592 18.6892C67.1858 18.6926 67.4125 18.702 67.6384 18.7243C67.6438 18.725 67.6656 18.725 67.6929 18.7263C67.7214 18.7311 67.75 18.7358 67.7786 18.7412C67.914 18.7669 68.0481 18.7979 68.1808 18.8378C68.2019 18.8439 68.319 18.8756 68.4102 18.9067C68.4217 18.9141 68.4347 18.9222 68.453 18.9337C68.4979 18.9614 68.5449 18.9857 68.5905 19.0147C68.6334 19.0424 68.6749 19.0735 68.7178 19.1019C68.7538 19.141 68.7974 19.1897 68.8056 19.1985C68.8219 19.2147 68.8341 19.2261 68.845 19.2363C68.8627 19.2673 68.8791 19.2984 68.8845 19.3092C68.9301 19.3916 68.9362 19.5409 68.9274 19.3734C68.9294 19.3849 68.9308 19.3957 68.9335 19.4045C68.9417 19.4409 68.9505 19.4767 68.9594 19.5132C68.9417 19.5753 68.9607 19.6408 68.9757 19.6625C68.9757 19.7097 68.973 19.7563 68.973 19.8029C68.9498 19.9036 68.9308 20.0035 68.9008 20.1021C68.8811 20.169 68.8723 20.3649 68.8797 20.1798C68.8797 20.1677 68.8804 20.1582 68.8811 20.1487C68.8852 20.0724 68.8913 20.0994 68.8811 20.1487C68.877 20.169 68.8695 20.1926 68.8587 20.2149C68.8015 20.3277 68.7395 20.4365 68.6803 20.5479C68.6654 20.5756 68.6572 20.5925 68.6538 20.6026C68.6211 20.6384 68.5871 20.6715 68.5742 20.687C68.502 20.7721 68.4231 20.8485 68.3475 20.9288C68.3414 20.9356 68.3373 20.9396 68.3319 20.9451C68.3074 20.9626 68.2849 20.9781 68.2768 20.9836C68.1835 21.0511 68.0808 21.1004 67.9862 21.1632C67.9841 21.1639 67.9828 21.1646 67.9807 21.1652C67.897 21.1916 67.8147 21.2253 67.7303 21.2503C67.6826 21.2652 67.3703 21.3287 67.3995 21.3327C67.2913 21.3442 67.1824 21.3523 67.0735 21.355C66.934 21.3591 66.7945 21.3557 66.655 21.3469C66.5672 21.3415 66.4801 21.328 66.3923 21.3233C66.3841 21.3233 66.378 21.3233 66.3726 21.3233C66.3637 21.3213 66.3549 21.3192 66.3433 21.3172C65.7077 21.1882 65.0952 20.9944 64.4854 20.758C63.8157 20.4986 63.1154 20.3217 62.4056 20.4844C61.6073 20.6681 61.0186 21.3523 60.7634 22.1824C60.5483 22.8821 60.6334 23.6298 60.726 24.3423C60.9158 25.8093 61.2541 27.2533 61.7434 28.6346C61.9265 29.1499 62.1286 29.649 62.3668 30.1204C62.7874 30.9559 63.3196 31.7029 64.0539 32.2912C64.8018 32.8896 65.7015 33.1598 66.5876 33.0787C67.0286 33.0382 67.4655 32.9105 67.8786 32.6931C67.9896 32.635 68.0849 32.5519 68.1665 32.4526C68.2979 32.3061 68.3938 32.1217 68.4306 31.9028C68.4544 31.763 68.4952 31.632 68.5259 31.4956C68.551 31.4409 68.5755 31.3855 68.6041 31.3328C68.6252 31.2923 68.6484 31.2538 68.6715 31.2146C68.6831 31.2105 68.6953 31.1964 68.7062 31.1802C68.7838 31.0998 68.9342 30.9059 68.9628 30.8756L68.9675 30.8708L68.9723 30.8661C68.9723 30.8661 68.9757 30.8627 68.9771 30.8614L68.9791 30.8593C69.0152 30.8316 69.0553 30.7992 69.0655 30.7918C69.1785 30.7107 69.2956 30.6385 69.4167 30.573C69.431 30.5649 69.4841 30.5399 69.5222 30.5223C69.5814 30.5 69.6678 30.4663 69.6678 30.4663C69.8359 30.4061 70.0067 30.3575 70.1789 30.3177C70.2402 30.3028 70.4981 30.2596 70.4682 30.2596C70.5818 30.2461 70.6955 30.2339 70.8091 30.2251C71.1487 30.1988 71.4897 30.1914 71.83 30.2008C71.9919 30.2055 72.1546 30.2143 72.3166 30.2292C72.3887 30.2359 72.4609 30.244 72.5323 30.2521C72.5344 30.2521 72.5371 30.2528 72.5398 30.2528C72.5418 30.2535 72.5446 30.2535 72.5466 30.2542C72.5663 30.2582 72.5868 30.263 72.6065 30.267C72.8998 30.3298 73.1897 30.3953 73.4742 30.5007C73.4688 30.4987 73.5715 30.5392 73.6328 30.5628C73.6675 30.579 73.7117 30.5993 73.7267 30.6074C73.8444 30.6695 73.9601 30.7378 74.0731 30.8107C74.1725 30.8755 74.2698 30.9444 74.3644 31.0167C74.393 31.039 74.4311 31.0647 74.4644 31.0924C74.4896 31.12 74.5155 31.1484 74.5291 31.1606C74.7135 31.3382 74.8857 31.53 75.0456 31.734C75.0674 31.7617 75.0939 31.7907 75.1191 31.8211C75.1273 31.8346 75.1388 31.8529 75.1552 31.8785C75.2382 32.0102 75.3219 32.1413 75.3988 32.2777C75.5234 32.4972 75.6363 32.7248 75.7391 32.9578C75.7691 33.0254 75.7963 33.0943 75.8255 33.1618C75.8745 33.3057 75.9249 33.4482 75.9691 33.5934C76.0494 33.8575 76.1182 34.1256 76.1753 34.3964C76.2019 34.5234 76.2257 34.6517 76.2475 34.7801C76.2611 34.8598 76.2733 34.9401 76.2849 35.0205C76.3026 35.1482 76.3169 35.1603 76.3094 35.111L76.3087 35.1103Z" fill="#0D7601"/>
<path d="M60.4585 39.7744C60.9873 40.2269 61.542 40.6409 62.1163 41.0165C61.9972 41.0165 61.8775 41.0138 61.7577 41.0097C61.5923 41.0036 61.4181 41.007 61.2548 40.98C61.2908 40.9861 61.3187 40.9908 61.3398 40.9942C61.2874 40.9861 61.2132 40.9753 61.1887 40.9726C61.0887 40.9618 60.988 40.9496 60.8879 40.9375C60.4143 40.8787 59.9433 40.803 59.4724 40.7254C58.4801 40.5619 57.4919 40.3755 56.5085 40.1661C55.5585 39.9642 54.6118 39.744 53.6733 39.4955C53.2868 39.3935 52.9016 39.2847 52.5198 39.1665C52.3115 39.1024 52.104 39.0348 51.8977 38.9639C51.8685 38.9538 51.6936 38.8883 51.6909 38.8883C51.5942 38.8518 51.4976 38.8146 51.4016 38.7761C51.0348 38.6296 50.6734 38.4682 50.3216 38.2892C50.131 38.1926 49.9425 38.0899 49.7581 37.9825C49.6662 37.9285 49.5743 37.8738 49.4845 37.8171C49.4498 37.7955 49.2245 37.6401 49.2293 37.6469C48.9428 37.4368 48.6671 37.2153 48.4099 36.9728C48.2697 36.8404 48.139 36.7013 48.0056 36.5628C47.9947 36.552 47.9866 36.5433 47.9784 36.5352C47.9736 36.5298 47.9689 36.523 47.9627 36.5162C47.8838 36.4176 47.8028 36.3197 47.7266 36.2184C47.5156 35.9415 47.323 35.651 47.1474 35.3518C47.0583 35.1999 46.963 35.0439 46.8895 34.8831C46.8739 34.846 46.8575 34.8081 46.8507 34.7933C46.7976 34.6785 46.7473 34.5623 46.6989 34.4454C46.5656 34.1233 46.4485 33.795 46.3471 33.4621C46.292 33.2804 46.2409 33.0967 46.1947 32.913C46.1715 32.8204 46.1497 32.7279 46.1286 32.6354C46.1171 32.584 46.1062 32.5327 46.0953 32.4807C46.0245 32.0707 45.9701 31.6601 45.9326 31.2487C45.8952 30.8374 45.8748 30.4248 45.8714 30.0101C45.868 29.5731 45.8809 29.1361 45.9068 28.7004L45.919 28.514C45.9204 28.5073 45.9354 28.3047 45.9374 28.2851C45.9612 28.0196 45.9891 27.7549 46.0204 27.4901C46.2396 25.6354 46.588 23.7956 46.897 21.9545C47.1461 20.4753 47.3945 18.9962 47.6429 17.5171C47.713 17.0997 47.7831 16.6829 47.8532 16.2655C48.1717 14.3737 48.4861 12.4812 48.8073 10.5901C48.9564 9.71545 49.1156 8.84148 49.3205 7.97831C49.4205 7.55686 49.5314 7.1381 49.6573 6.72408C49.6893 6.62007 49.722 6.51606 49.7553 6.41204C49.788 6.31073 49.822 6.2101 49.8567 6.10946C49.8649 6.0865 49.9187 5.93993 49.9289 5.90954C49.9554 5.842 49.9813 5.77446 50.0085 5.70759C50.3393 4.88833 50.7517 4.10486 51.2437 3.36596C51.2458 3.36258 51.2471 3.35988 51.2499 3.35718C51.2737 3.32881 51.2968 3.29977 51.322 3.27276C51.3513 3.24101 51.3826 3.21129 51.4139 3.18158C51.4676 3.15523 51.5724 3.06811 51.6037 3.04987C51.6521 3.0215 51.7017 2.99449 51.7521 2.96882C51.8726 2.91006 51.8535 2.91817 51.6949 2.99179C51.746 2.92897 51.9039 2.88575 52.0495 2.854C52.0543 2.86616 52.0597 2.87832 52.0645 2.8898C52.2088 3.22615 52.3211 3.57399 52.4061 3.92722C52.4177 3.97585 52.4313 4.02516 52.4422 4.07446C52.4463 4.11364 52.4517 4.15484 52.4544 4.17442C52.4817 4.348 52.5034 4.52226 52.5198 4.69719C52.5552 5.08217 52.564 5.4685 52.5531 5.85348C52.549 6.0041 52.5402 6.15471 52.5327 6.30533C52.532 6.31073 52.532 6.31614 52.5313 6.32154C52.5313 6.32829 52.53 6.33572 52.5293 6.34383C52.5198 6.43433 52.5116 6.52551 52.5014 6.61669C52.4572 7.0145 52.3973 7.41029 52.3272 7.80405C52.1972 8.53552 52.0311 9.25955 51.8576 9.98156C50.9838 13.6038 50.2685 17.253 49.9942 20.9772C49.8717 22.6387 49.9126 24.3103 50.357 25.9387C50.8259 27.6596 51.8263 29.3995 53.529 30.2397C54.1143 30.5288 54.7418 30.7152 55.3788 30.855C55.5768 31.7033 55.8259 32.5415 56.1363 33.3668C57.0802 35.8766 58.5019 38.1001 60.4585 39.7744Z" fill="#0D7601"/>
<path d="M33.8901 10.6384C33.6322 11.9243 34.3257 13.0428 35.337 13.5723C35.4711 13.6432 35.6106 13.7034 35.7549 13.752C37.3773 14.2997 39.1325 13.9377 40.5474 12.9422C41.9262 11.9716 43.4227 10.1737 43.354 8.24878C43.3247 7.45247 42.7531 6.9108 42.1453 6.56229C41.9466 6.44882 41.7452 6.34886 41.541 6.26308C40.1166 5.6667 38.5826 5.76733 37.2174 6.62172C36.5797 7.02089 35.8855 7.54095 35.2914 8.16368C34.6211 8.86677 34.0787 9.70022 33.8901 10.6384ZM35.4044 3.62022C38.6132 1.99654 42.7776 3.99372 45.4855 5.93686C46.0293 6.32725 46.5016 6.77774 46.8929 7.2843C46.4152 9.2011 46.1504 11.1881 45.8265 13.1144C45.6734 14.0248 45.5195 14.9353 45.3651 15.8457C43.5616 16.9899 41.2545 17.0723 39.2291 17.2324C38.8902 17.2594 38.5425 17.2844 38.2314 17.4343C37.2991 17.8821 37.3787 19.2788 37.6291 20.1575C38.6738 23.8223 38.8256 27.6647 39.0114 31.4881C39.1305 33.9459 39.3938 36.5125 38.4479 38.8325C38.1259 39.6227 37.5053 40.7784 36.6178 40.2684C35.9808 39.9024 35.5412 39.0399 35.1601 38.4036C31.8879 32.9362 31.726 25.7965 31.4272 19.4855C31.4136 19.1978 31.3993 18.9101 31.385 18.6217C31.3306 17.5275 31.2761 16.4306 31.2577 15.3338C31.2339 13.9242 31.2707 12.5153 31.4469 11.1159C31.5722 10.1251 31.7818 9.06534 32.1118 8.05156C32.4521 7.0067 32.9203 6.01048 33.5567 5.18784C34.0603 4.53539 34.6694 3.99237 35.4044 3.62022Z" fill="#0D7601"/>
<path d="M20.6492 14.0559C22.2717 14.6036 24.0275 14.2416 25.4417 13.246C26.8205 12.2755 28.3178 10.4775 28.2483 8.55264C28.2198 7.75634 27.6474 7.21466 27.0404 6.86615C26.8416 6.75268 26.6395 6.65272 26.436 6.56695C25.0109 5.97056 23.4769 6.0712 22.1117 6.92559C20.7533 7.77592 19.1397 9.17401 18.7852 10.9422C18.4925 12.3991 19.4208 13.6412 20.6492 14.0559ZM29.8973 5.90505C28.4464 9.34084 28.2769 13.2021 28.4321 16.9493C27.0322 17.3532 25.5118 17.4268 24.1235 17.5362C23.7846 17.5632 23.4368 17.5882 23.1258 17.7382C22.1941 18.186 22.273 19.5827 22.5235 20.4614C23.5681 24.1262 23.7199 27.9685 23.9057 31.792C24.0248 34.2498 24.2882 36.8164 23.3422 39.1364C23.0203 39.9266 22.3996 41.0822 21.5122 40.5723C20.8752 40.2062 20.4355 39.3437 20.0544 38.7075C19.416 37.6397 18.8961 36.5084 18.4701 35.3325C17.0368 31.3726 16.672 26.9021 16.4556 22.6295C16.4386 22.2891 16.4223 21.95 16.4066 21.613C16.3773 20.999 16.3501 20.3905 16.3222 19.7894C16.1902 17.0053 15.9921 14.1936 16.342 11.4197C16.4645 10.4465 16.6686 9.40636 16.9885 8.40878C17.5962 6.51562 18.6205 4.77307 20.2987 3.92408C23.3231 2.39361 27.1948 4.07943 29.8973 5.90505Z" fill="#0D7601"/>
<path d="M6.04913 21.3862C6.06682 21.809 6.10561 22.2723 6.40438 22.5742C6.69022 22.8633 7.1319 22.9207 7.53819 22.9619C8.4025 23.0497 9.26749 23.1375 10.1325 23.2253C10.9335 23.3064 11.904 23.4712 12.56 22.8782C12.8649 22.6019 13.0303 22.2001 13.097 21.7962C13.1637 21.3916 13.1419 20.9789 13.1283 20.5696C13.0922 19.5052 13.112 18.4387 13.0861 17.3736C13.0691 16.6867 13.0337 16.0005 12.952 15.317C12.7499 13.6224 12.1524 12.0352 11.397 10.5108C11.0335 9.77801 10.5905 9.01209 9.84257 8.67034C8.58898 8.09759 7.47762 9.03168 6.99579 10.1198C6.48196 11.2794 6.33837 12.5809 6.22743 13.8311C6.00421 16.3423 5.945 18.8676 6.04913 21.3862ZM10.4932 2.97396C10.566 2.99693 10.6381 3.02124 10.7096 3.04758C10.7273 3.05434 10.745 3.06177 10.7627 3.0692C10.8478 3.12661 11.2023 3.2914 11.2357 3.31167C11.3765 3.39609 11.514 3.48795 11.6474 3.58521C11.6794 3.60885 11.7971 3.70408 11.8257 3.72502C11.8693 3.76351 11.9196 3.80877 11.936 3.82362C12.2415 4.10459 12.5219 4.41528 12.7778 4.7469C12.7928 4.76649 12.8084 4.78675 12.8234 4.80702C12.8785 4.89144 12.9378 4.97384 12.9929 5.05827C13.1263 5.26291 13.2522 5.47297 13.3699 5.68775C13.5856 6.07881 13.7776 6.48472 13.9518 6.89807C13.9695 6.94062 13.9953 7.00479 14.009 7.04058C14.0117 7.04464 14.0124 7.04801 14.013 7.05004C14.0137 7.05274 14.0151 7.05477 14.0158 7.05747V7.05612C14.043 7.12636 14.0702 7.1966 14.0961 7.26752C14.1492 7.41003 14.1995 7.55322 14.2485 7.69708C13.1916 11.0836 13.1807 14.7882 13.3801 18.3415C13.4591 19.7538 13.5795 21.1633 13.6993 22.5722C13.7592 23.2767 13.8232 23.9798 13.8878 24.6835C14.2499 28.6124 14.6582 32.5365 15.9009 36.258C15.7839 37.009 15.6586 37.7587 15.5429 38.5084C15.513 38.7043 15.481 38.9056 15.3776 39.0751C15.2748 39.2439 15.0822 39.3757 14.8848 39.3473C14.601 39.3061 14.4636 38.9853 14.3887 38.7104C14.0226 37.3683 13.9375 35.9817 13.8381 34.6012C13.7347 33.1714 13.6619 31.7388 13.5632 30.3083C13.5237 29.7248 13.521 29.0885 13.229 28.5692C13.0031 28.1666 12.6077 27.8701 12.1694 27.808C11.8332 27.76 11.5161 27.8262 11.1846 27.8836C10.6865 27.9701 10.1876 28.0471 9.6874 28.12C9.64589 28.1261 9.52883 28.143 9.49208 28.1484C9.40088 28.1612 9.30901 28.174 9.21781 28.1869C8.95376 28.224 8.68902 28.2605 8.42496 28.297C7.38915 28.4415 6.35266 28.586 5.32161 28.7704C5.0487 28.8197 4.81731 29.0109 4.6601 29.2608C4.51787 29.456 4.4328 29.6944 4.43892 29.9591C4.43552 30.0314 4.43824 30.1037 4.44777 30.1739C4.6077 31.3451 4.52331 32.604 4.51379 33.784C4.50562 34.7451 4.54169 35.7048 4.47159 36.6619C4.39741 37.6716 4.36951 38.6847 4.38788 39.6971C4.39265 39.9909 4.40149 40.2895 4.3314 40.5752C4.32051 40.6198 4.30689 40.665 4.27491 40.6988C4.19528 40.7832 4.04828 40.7454 3.96049 40.6691C3.83186 40.5563 3.77129 40.3867 3.72025 40.224C3.10707 38.2747 3.00226 36.1952 2.85186 34.1716C2.77087 33.0849 2.71779 31.9955 2.6824 30.9054C2.61162 28.7029 2.61162 26.4984 2.61298 24.2952C2.61298 22.2136 2.62796 20.1313 2.73276 18.0531C2.78448 17.0285 2.85798 16.0052 2.96619 14.9854C2.99001 14.7584 3.01655 14.5308 3.0431 14.3039C3.04514 14.2911 3.04582 14.2803 3.04718 14.2695C3.0533 14.2242 3.05943 14.1796 3.06555 14.1344C3.08257 14.0033 3.10094 13.873 3.12 13.742C3.19214 13.2435 3.27449 12.7464 3.3684 12.252C3.54807 11.3064 3.77061 10.3697 4.05101 9.45178C4.18984 8.99926 4.34569 8.55349 4.5131 8.11245C4.51446 8.10908 4.51583 8.10502 4.51719 8.10165C4.51923 8.09557 4.52195 8.09017 4.52399 8.08544C4.53897 8.04829 4.55394 8.01047 4.56959 7.97332C4.60974 7.87674 4.65126 7.78083 4.69277 7.68492C4.78873 7.46541 4.88945 7.24793 4.99494 7.03248C5.18278 6.64817 5.38626 6.27197 5.60608 5.90725C5.71157 5.73165 5.82046 5.55942 5.93411 5.38922C5.97835 5.3237 6.02327 5.25886 6.06818 5.19402C6.09745 5.17646 6.15189 5.07718 6.16959 5.05421C6.39758 4.75704 6.63985 4.47201 6.89915 4.20455C7.02301 4.07758 7.15027 3.95465 7.28162 3.83646C7.29115 3.82768 7.34491 3.77837 7.39596 3.73312C7.39732 3.73312 7.39868 3.73109 7.40004 3.72974C7.44223 3.7007 7.48171 3.66693 7.52322 3.63586C7.78864 3.43797 8.06903 3.26101 8.36303 3.11377C8.42224 3.09959 8.49029 3.05771 8.54542 3.03678C8.7108 2.97599 8.88026 2.92533 9.05108 2.88616C9.10212 2.87468 9.20897 2.87535 9.25933 2.84834C9.26613 2.84766 9.27294 2.84699 9.27906 2.84631C9.44988 2.83213 9.62139 2.82943 9.79221 2.83753C9.86026 2.84023 9.92764 2.84699 9.99501 2.85239C10.1577 2.90237 10.3298 2.92331 10.4932 2.97396Z" fill="#0D7601"/>
<path d="M75.2419 9.87305C75.2302 9.88324 75.2165 9.90634 75.2021 9.93692C75.211 9.91178 75.2241 9.88528 75.2419 9.87305Z" fill="#0B5C01"/>
<path d="M75.2269 6.73942C75.2132 6.70952 75.1961 6.66672 75.1954 6.65381C75.1982 6.65992 75.2016 6.66672 75.2043 6.67283C75.2098 6.68982 75.2187 6.71428 75.2269 6.73942Z" fill="#0B5C01"/>
<path d="M68.9751 19.6624C68.9601 19.6408 68.9411 19.5753 68.9588 19.5132L68.9669 19.5476C68.9697 19.5909 68.9758 19.6408 68.9758 19.6469C68.9758 19.6523 68.9751 19.6577 68.9751 19.6624Z" fill="#0B5C01"/>
<path d="M68.8805 20.1481C68.8845 20.0728 68.8906 20.0994 68.8805 20.1481V20.1481Z" fill="#0B5C01"/>
<path d="M68.6735 31.2084C68.6813 31.2031 68.6917 31.1931 68.7041 31.1792C68.6937 31.1951 68.682 31.209 68.6709 31.213C68.6715 31.2117 68.6728 31.2097 68.6735 31.2084Z" fill="#0B5C01"/>
<path d="M64.2619 15.6618C64.2469 15.6516 64.2304 15.6394 64.2154 15.6285C64.2051 15.6176 64.1948 15.6068 64.1846 15.5952C64.2051 15.6007 64.2387 15.6346 64.2619 15.6618Z" fill="#0B5C01"/>
<path d="M64.0472 15.4519C64.0472 15.4519 64.0445 15.4458 64.0431 15.4424C64.0623 15.46 64.0951 15.494 64.1116 15.5192C64.1081 15.5151 64.104 15.511 64.1006 15.5069C64.0753 15.4818 64.0581 15.4641 64.0472 15.4519Z" fill="#0B5C01"/>
<path d="M64.0439 12.4448C64.0439 12.4448 64.0431 12.4488 64.0431 12.4504C64.0431 12.4488 64.0431 12.4472 64.0439 12.4448Z" fill="#0B5C01"/>
<path d="M64.0424 12.4565C64.0424 12.4565 64.0424 12.4518 64.0431 12.4497C64.0424 12.4565 64.0417 12.4613 64.0417 12.4647C64.0417 12.462 64.0417 12.4593 64.0424 12.4565Z" fill="#0B5C01"/>
<path d="M61.9871 37.7559C61.9871 37.7559 61.9908 37.7568 61.9927 37.7577C61.9899 37.7568 61.988 37.7568 61.9871 37.7559Z" fill="#0B5C01"/>
<path d="M58.4583 32.6715C58.4553 32.6642 58.4524 32.6577 58.4502 32.6504C58.4553 32.6613 58.4575 32.6686 58.4583 32.6715Z" fill="#0B5C01"/>
<path d="M58.438 32.6206C58.4407 32.6267 58.4428 32.6322 58.4449 32.637C58.4435 32.6349 58.4428 32.6336 58.4421 32.6322C58.4408 32.6281 58.4394 32.624 58.438 32.6206Z" fill="#0B5C01"/>
<path d="M58.4381 32.621C58.4381 32.621 58.4367 32.6183 58.436 32.6176C58.4319 32.6068 58.4278 32.5966 58.4237 32.5864C58.4292 32.5993 58.434 32.6108 58.4381 32.621Z" fill="#0B5C01"/>
<path d="M37.1548 11.0004C37.945 11.1632 38.7651 10.7634 39.3925 10.2622C39.6117 10.0873 39.9941 9.74757 40.1364 9.40108C40.2344 9.16266 40.2187 8.92154 39.9587 8.72905C39.2333 8.19143 38.4098 8.87832 37.7871 9.28491C37.393 9.54224 36.1646 10.7971 37.1548 11.0004ZM42.1454 6.56235C42.7531 6.91086 43.3248 7.45253 43.3541 8.24884C43.4228 10.1737 41.9262 11.9717 40.5474 12.9422C39.1326 13.9378 37.3774 14.2998 35.7549 13.752C35.6107 13.7034 35.4711 13.6433 35.3371 13.5724C34.3258 13.0429 33.6323 11.9244 33.8902 10.6384C34.0787 9.70028 34.6211 8.86684 35.2915 8.16374C35.8856 7.54101 36.5798 7.02095 37.2175 6.62179C38.5827 5.7674 40.1166 5.66676 41.541 6.26314C41.7452 6.34892 41.9467 6.44888 42.1454 6.56235Z" fill="#0B5C01"/>
<path d="M22.0491 11.3042C22.8392 11.4669 23.6593 11.0671 24.2875 10.5659C24.5066 10.391 24.8891 10.0513 25.0313 9.70479C25.1293 9.46637 25.1137 9.22525 24.853 9.03276C24.1275 8.49514 23.3041 9.18203 22.6813 9.58862C22.2873 9.84595 21.0589 11.1009 22.0491 11.3042ZM22.1117 6.9255C23.4769 6.07111 25.0109 5.97047 26.436 6.56685C26.6395 6.65263 26.8416 6.75259 27.0403 6.86606C27.6474 7.21457 28.2197 7.75624 28.2483 8.55255C28.3177 10.4775 26.8205 12.2754 25.4417 13.2459C24.0275 14.2415 22.2717 14.6035 20.6492 14.0558C19.4208 13.6411 18.4925 12.399 18.7851 10.9421C19.1397 9.17392 20.7533 7.77583 22.1117 6.9255Z" fill="#0B5C01"/>
<path d="M14.0165 7.05739V7.05907C14.0165 7.05907 14.0139 7.05317 14.0131 7.0498C14.0148 7.05233 14.0156 7.05486 14.0165 7.05739Z" fill="#0B5C01"/>
<path d="M10.7266 20.7423C10.824 20.7437 10.632 15.8767 10.5667 15.4309C10.5708 15.4532 10.5749 15.4748 10.579 15.4971C10.4565 14.7271 10.2448 13.9741 9.9719 13.2439C9.83511 12.8779 9.68334 12.5179 9.51865 12.164C9.47713 12.0748 9.08105 11.4453 9.12052 11.3663C9.11644 11.3744 9.11371 11.3798 9.11303 11.3798C8.60806 12.7718 8.55497 14.4482 8.47126 15.9138C8.44744 16.3218 8.25281 20.4762 8.42158 20.4992C9.10963 20.593 9.79631 20.7018 10.4898 20.7349C10.5687 20.7383 10.6477 20.7403 10.7266 20.7423ZM13.1283 20.5694C13.1419 20.9787 13.1637 21.3914 13.097 21.7959C13.0303 22.1998 12.865 22.6017 12.5601 22.8779C11.904 23.4709 10.9335 23.3061 10.1325 23.2251C9.26752 23.1373 8.40253 23.0495 7.53822 22.9617C7.13192 22.9205 6.69024 22.8631 6.4044 22.574C6.10564 22.2721 6.06685 21.8088 6.04915 21.386C5.94503 18.8674 6.00424 16.342 6.22746 13.8309C6.33839 12.5807 6.48199 11.2792 6.99581 10.1195C7.47765 9.03144 8.589 8.09735 9.84259 8.6701C10.5905 9.01185 11.0336 9.77776 11.397 10.5106C12.1524 12.035 12.7499 13.6222 12.9521 15.3168C13.0337 16.0003 13.0691 16.6865 13.0861 17.3734C13.112 18.4385 13.0923 19.505 13.1283 20.5694Z" fill="#0B5C01"/>
<path d="M6.0723 5.18824C6.09476 5.16325 6.14444 5.08896 6.14852 5.08018C6.1458 5.08153 6.13015 5.10382 6.09067 5.16123C6.08387 5.17001 6.07842 5.17946 6.0723 5.18824ZM61.3446 40.9949C61.3569 40.9969 61.3685 40.9989 61.3766 41.0003C61.3691 40.9989 61.3582 40.9969 61.3446 40.9949ZM21.7946 40.7112C21.8198 40.7261 21.8409 40.7362 21.847 40.7335C21.8273 40.7247 21.8096 40.718 21.7946 40.7112ZM36.9003 40.4073C36.9255 40.4221 36.9466 40.4323 36.952 40.4296C36.9323 40.4208 36.9153 40.414 36.9003 40.4073ZM68.3578 20.9259C68.3837 20.907 68.4054 20.8894 68.4054 20.8847C68.4054 20.8813 68.383 20.9016 68.3578 20.9259ZM67.8065 18.743C67.7943 18.7328 67.7433 18.7288 67.7004 18.7268L67.8065 18.743ZM68.4231 18.9111C68.466 18.9355 68.5239 18.9679 68.5232 18.9611C68.5225 18.9496 68.4789 18.9307 68.4231 18.9111ZM7.41164 3.71923C7.44771 3.69154 7.49399 3.65575 7.49126 3.65372C7.48922 3.65169 7.45315 3.68209 7.41164 3.71923ZM63.0399 23.0358C63.0399 23.0358 63.0426 23.0352 63.044 23.0352C63.0426 23.0345 63.0413 23.0345 63.0406 23.0345C63.0406 23.0345 63.0406 23.0352 63.0406 23.0358H63.0399ZM62.882 23.0851C62.9018 23.0966 62.9419 23.0764 62.9684 23.0581H62.9596C62.9596 23.0581 62.9542 23.0608 62.9508 23.0629C62.9446 23.0669 62.9385 23.071 62.931 23.0764C62.9351 23.073 62.9378 23.0703 62.9419 23.0669C62.9174 23.0797 62.8949 23.0899 62.882 23.0851ZM69.0227 30.8131C69.0159 30.8192 69.0057 30.83 68.9907 30.8462C69.0037 30.8341 69.0152 30.8219 69.0227 30.8131C69.0254 30.8111 69.0268 30.8091 69.0282 30.8077C69.0268 30.8077 69.0254 30.8098 69.0227 30.8131ZM66.1963 30.468C66.1773 30.4653 66.1575 30.4619 66.1385 30.4586C66.1446 30.4646 66.1684 30.4673 66.1963 30.468ZM66.214 30.4687C66.2562 30.4687 66.2998 30.468 66.3127 30.4673C66.7469 29.3246 67.6861 28.4904 68.7314 28.0339C70.0694 27.4496 71.6599 27.4523 73.0652 27.682C74.3685 27.8947 75.5819 28.5458 76.5089 29.5819C78.2116 31.4859 78.9793 34.4448 78.6819 37.0688C78.507 38.6046 77.9748 40.0777 76.9179 41.1408C75.9876 42.0769 74.8156 42.6699 73.6002 43.0042C71.3291 43.6283 68.8893 43.5567 66.6156 42.9934C66.2515 42.9029 65.8914 42.7962 65.5355 42.6773C65.2327 42.8482 64.9074 42.9927 64.5603 43.1076C62.8031 43.6864 60.8723 43.4054 59.0736 43.1123C57.083 42.7874 55.1012 42.3781 53.1507 41.8614C51.3424 41.3826 49.5192 40.772 47.9696 39.7197C46.3839 38.6438 45.2385 37.218 44.4586 35.518C42.9008 32.1228 43.2921 28.3229 43.8651 24.7953C44.1741 22.8954 44.4926 20.9968 44.8138 19.0989C43.7842 19.4717 42.7027 19.6899 41.637 19.7797C41.3716 19.802 41.0932 19.8202 40.8659 19.9722C40.3167 20.3396 40.6999 21.4189 40.7734 21.9518C40.9061 22.9082 41.017 23.8673 41.1164 24.8284C41.3096 26.6992 41.4546 28.5755 41.6186 30.4498C41.9317 34.0382 42.2182 37.6732 40.448 40.9044C39.7641 42.1532 38.6446 43.3507 37.2515 43.4378C34.1093 43.6351 32.2602 39.3874 31.2816 36.7392C29.8218 32.786 29.3808 28.585 28.9935 24.3792C28.9282 23.6755 28.8642 22.9724 28.805 22.2679C28.7336 21.4264 28.6614 20.5848 28.5988 19.7419C27.9149 19.9141 27.22 20.0256 26.5313 20.0836C26.2659 20.1059 25.9875 20.1242 25.7602 20.2761C25.211 20.6436 25.5942 21.7229 25.6683 22.2558C25.8004 23.2121 25.9113 24.1712 26.0107 25.1323C26.2039 27.0032 26.3489 28.8795 26.5129 30.7537C26.8266 34.3421 27.1132 37.9772 25.3423 41.2083C24.6584 42.4571 23.5395 43.6546 22.1464 43.7418C19.9666 43.8789 18.4095 41.877 17.3335 39.7542C17.2811 39.8663 17.2274 39.9777 17.1709 40.0871C16.7421 40.9213 16.0486 41.8297 15.1197 42.0289C14.0988 42.2478 13.2427 41.6953 12.6805 40.8274C12.2525 40.1655 12.0292 39.3327 11.8768 38.554C11.6951 37.6206 11.5991 36.6655 11.5324 35.7159C11.4548 34.6049 11.38 33.4938 11.3038 32.3835C11.2663 31.8384 11.2289 31.2934 11.1915 30.7483L11.1711 30.4423C11.02 30.466 10.8696 30.491 10.7185 30.5133C10.1244 30.6031 9.52954 30.6862 8.93473 30.7692C8.65162 30.8084 8.36919 30.8476 8.08607 30.8868C8.05613 30.8915 7.93159 30.9091 7.88259 30.9158C7.75668 30.934 7.63078 30.9523 7.50488 30.9712C7.29867 31.0016 7.09382 31.034 6.88829 31.0671C6.91211 31.7844 6.923 32.5017 6.92164 33.2196C6.91891 34.3077 6.89305 35.3951 6.86379 36.4832C6.8352 37.5274 6.84065 38.5796 6.76511 39.6218C6.68684 40.7065 6.51602 41.8871 5.78987 42.7185C5.04874 43.5682 3.79582 43.683 2.9145 43.0056C1.25802 41.7311 1.00757 39.1821 0.755764 37.1964C0.474693 34.9858 0.333137 32.7624 0.269165 30.5335C0.207234 28.3567 0.208594 26.1785 0.210635 24.001C0.213358 21.9201 0.232415 19.8378 0.346068 17.7603C0.568611 13.695 1.10829 9.50949 2.87639 5.84001C4.23342 3.02289 6.81002 -0.0900556 10.1216 0.323293C12.6588 0.640058 14.3955 2.46298 15.5661 4.68574C17.486 1.53497 20.6397 0.119996 24.2194 0.728536C24.6951 0.809585 25.1695 0.903466 25.6411 1.01153C27.6025 1.46135 29.6503 2.16783 31.4075 3.33155C33.3478 0.923053 36.1707 -0.111669 39.3244 0.424604C39.8008 0.505652 40.2752 0.599533 40.7461 0.707598C43.2717 1.28642 45.9402 2.29075 47.9458 4.14947C48.2439 3.48149 48.5923 2.83378 49.0054 2.2124C49.3845 1.62345 49.8799 1.14053 50.5326 0.837952C51.2016 0.527941 51.8869 0.384079 52.6246 0.292899C53.0602 0.238866 53.5264 0.518485 53.7564 0.861592C54.1947 1.51471 54.539 2.24212 54.7439 2.99182C55.6327 6.23647 54.5179 9.523 53.8102 12.6657C53.38 14.573 53.037 16.5006 52.7818 18.4397C52.7138 18.9544 52.6525 19.4697 52.5974 19.9857C52.5756 20.1904 52.5545 20.395 52.5355 20.5997C52.5259 20.6989 52.5178 20.7989 52.5083 20.8982C52.5076 20.9124 52.5062 20.9239 52.5048 20.9353C52.5042 20.9461 52.5035 20.9583 52.5028 20.9732C52.4497 21.8059 52.4211 22.6401 52.479 23.4749C52.5082 23.9044 52.5634 24.3292 52.6362 24.7541C52.6382 24.7649 52.6396 24.7743 52.641 24.7831C52.6444 24.796 52.6484 24.8122 52.6539 24.8311C52.6777 24.927 52.6988 25.0236 52.7233 25.1188C52.773 25.3099 52.8295 25.4991 52.8921 25.6868C52.9663 25.9056 53.0493 26.1224 53.1418 26.3352C53.1677 26.394 53.1956 26.4527 53.2235 26.5115C53.2419 26.5459 53.2997 26.6587 53.3127 26.681C53.41 26.8559 53.5155 27.0261 53.6305 27.1909C53.6883 27.2733 53.7516 27.351 53.8108 27.4321C53.8204 27.4449 53.8279 27.455 53.8347 27.4652C53.8442 27.4733 53.8544 27.4827 53.8666 27.4942C54.0136 27.6333 54.1566 27.7718 54.3172 27.8947C54.3424 27.9069 54.4764 27.9913 54.4989 28.0041C54.5928 28.0561 54.6881 28.1041 54.7854 28.1493C54.8303 28.1703 54.8766 28.1905 54.9229 28.2095C54.4179 23.8835 54.9719 19.3839 55.4694 15.0951C55.6606 13.4471 55.862 11.7984 56.1322 10.1633C56.3446 8.87731 56.61 7.59471 57.0605 6.38236C57.5573 5.0437 58.2256 3.77462 59.2158 2.80068C60.2081 1.82472 61.4052 1.14526 62.6826 0.746772C65.475 -0.125177 68.3864 0.407043 71.1794 0.978436C72.48 1.24455 73.8234 1.55321 74.9415 2.3772C75.9699 3.13636 76.8226 4.19877 77.3242 5.44962C77.8679 6.80516 78.0442 8.23905 77.7849 9.6986C77.5522 11.0109 76.9084 12.2651 76.0556 13.2094C74.0282 15.4544 70.9909 15.58 68.4048 14.5636C67.1103 14.0543 65.9398 13.3269 64.8631 12.3908C64.6181 12.178 64.3758 11.9545 64.1438 11.7181C64.1281 11.8214 64.1132 11.9254 64.0989 12.0281C64.0839 12.1321 64.0703 12.2354 64.056 12.3394C64.0539 12.3509 64.0512 12.3739 64.0485 12.3975C64.0478 12.4063 64.0465 12.4144 64.0458 12.4232C64.0451 12.4279 64.0451 12.432 64.0444 12.4353V12.4387C64.0444 12.4387 64.0444 12.4435 64.0444 12.4448C64.0437 12.4468 64.0437 12.4482 64.0437 12.4495C64.0431 12.4516 64.0431 12.4543 64.0431 12.4563C64.0424 12.4603 64.0417 12.4637 64.0417 12.4664C64.041 12.4711 64.041 12.4725 64.0417 12.4678C64.0056 12.8068 63.973 13.1466 63.9491 13.487C63.9246 13.8469 63.9015 14.209 63.9022 14.5696C63.9022 14.6649 63.9042 14.7601 63.909 14.8553C63.9103 14.8911 63.9192 14.9681 63.9226 15.0066C63.9464 15.116 63.9777 15.2227 63.9975 15.3328C63.9845 15.2619 63.9791 15.2315 63.9791 15.2275C63.9832 15.2342 64.0111 15.3511 64.0437 15.4423C64.0274 15.4274 64.0226 15.4254 64.0478 15.4517C64.071 15.5138 64.0968 15.5605 64.1193 15.5469C64.1254 15.5436 64.1213 15.5321 64.1118 15.5186C64.1363 15.5436 64.1608 15.5692 64.1853 15.5949C64.1798 15.5935 64.1751 15.5935 64.1717 15.5969C64.1717 15.5969 64.1914 15.6111 64.2159 15.628C64.2227 15.6354 64.2295 15.6435 64.2363 15.651C64.303 15.7225 64.2921 15.6976 64.2622 15.6611C64.2792 15.6739 64.2942 15.6841 64.299 15.6874C64.3425 15.7165 64.3874 15.7435 64.433 15.7698C64.4541 15.782 64.4759 15.7928 64.4977 15.8043C64.4997 15.8049 64.5011 15.8056 64.5031 15.8063C64.5406 15.8212 64.578 15.8353 64.6161 15.8482C64.6794 15.8705 64.744 15.8907 64.8087 15.9096C64.9142 15.94 65.0203 15.965 65.1272 15.9866C65.1292 15.9873 65.1646 15.9968 65.2027 16.0055C65.2177 16.0055 65.2367 16.0062 65.2606 16.0089C65.3851 16.0231 65.5103 16.0332 65.6356 16.04C66.7421 16.1001 67.8562 15.9562 68.9363 16.323C70.2654 16.7748 71.2672 17.921 71.3713 19.4859C71.4557 20.7604 70.8323 22.0835 69.9551 22.8832C68.7593 23.9726 67.2444 24.1293 65.7574 23.8761C65.1027 23.7653 64.4705 23.5492 63.8471 23.3087C63.6994 23.2513 63.5517 23.1939 63.4013 23.1466C63.3407 23.127 63.2788 23.1088 63.2175 23.0926C63.2121 23.0912 63.1481 23.077 63.0971 23.0656C63.0726 23.0629 63.0481 23.0602 63.0351 23.0595C63.0277 23.0919 63.0222 23.1162 63.0174 23.1331C63.0174 23.2317 63.0297 23.3661 63.0311 23.4006C63.0324 23.4499 63.0556 23.7329 63.0549 23.7531C63.1325 24.4495 63.2795 25.1472 63.4401 25.8239C63.6136 26.5554 63.826 27.2774 64.0778 27.9805C64.0927 28.0217 64.1077 28.0622 64.1227 28.1034C64.1513 28.1743 64.1798 28.2459 64.2098 28.3168C64.2649 28.4486 64.3234 28.5796 64.3847 28.7079C64.5072 28.9646 64.6467 29.2057 64.7944 29.4441L64.7903 29.436C64.7903 29.436 64.8883 29.5778 64.908 29.6028C64.9509 29.6569 64.9952 29.7095 65.0407 29.7609C65.0857 29.8129 65.1326 29.8629 65.1803 29.9122C65.1816 29.9135 65.2109 29.9432 65.2422 29.975C65.2708 29.9973 65.3735 30.0884 65.381 30.0932C65.4321 30.131 65.4852 30.1675 65.5382 30.2019C65.5798 30.2289 65.69 30.2965 65.7376 30.3275C65.867 30.3863 66.0146 30.4241 66.1467 30.4545C66.1691 30.4606 66.1923 30.464 66.2147 30.4687H66.214ZM73.9459 4.83095C73.9459 4.82757 73.9248 4.81001 73.8989 4.78908C73.9234 4.81204 73.9459 4.8323 73.9459 4.83095ZM9.13482 2.86012C9.15319 2.85944 9.17497 2.85742 9.19607 2.85471C9.20287 2.85471 9.209 2.85336 9.21512 2.85269C9.20832 2.85336 9.20219 2.85404 9.19607 2.85471L9.16953 2.85674C9.15591 2.85809 9.14434 2.85877 9.13482 2.86012C9.12052 2.86012 9.11032 2.86214 9.10419 2.86282C9.11168 2.86282 9.12257 2.86147 9.13482 2.86012ZM68.6634 19.0516C68.66 19.055 68.6817 19.0732 68.709 19.0928C68.6852 19.0678 68.6654 19.0489 68.6634 19.0516ZM76.0413 38.0015C76.0386 38.0069 76.0359 38.013 76.0338 38.0191C76.0366 38.0123 76.0393 38.0069 76.0413 38.0015ZM76.0474 37.9873C76.0522 37.9772 76.0549 37.9704 76.057 37.9657C76.0543 37.9711 76.0508 37.9785 76.0474 37.9873ZM76.3088 35.1101C76.3163 35.1594 76.302 35.1472 76.2843 35.0196C76.2727 34.9392 76.2605 34.8588 76.2468 34.7791C76.2251 34.6508 76.2013 34.5225 76.1747 34.3955C76.1175 34.1247 76.0488 33.8565 75.9685 33.5924C75.9243 33.4472 75.8739 33.3047 75.8249 33.1609C75.7956 33.0933 75.7684 33.0244 75.7385 32.9569C75.6357 32.7239 75.5227 32.4963 75.3982 32.2768C75.3213 32.1403 75.2376 32.0093 75.1545 31.8776C75.1382 31.8519 75.1267 31.8337 75.1185 31.8202C75.0933 31.7898 75.0668 31.7607 75.045 31.733C74.885 31.5291 74.7129 31.3373 74.5284 31.1596C74.5148 31.1475 74.489 31.1191 74.4638 31.0914C74.4304 31.0637 74.3923 31.0381 74.3637 31.0158C74.2691 30.9435 74.1718 30.8746 74.0725 30.8098C73.9595 30.7368 73.8438 30.6686 73.7261 30.6065C73.7111 30.5984 73.6668 30.5781 73.6321 30.5619C73.5709 30.5383 73.4681 30.4977 73.4736 30.4998C73.1891 30.3944 72.8992 30.3289 72.6059 30.2661C72.6249 30.2701 72.6365 30.2721 72.6419 30.2728C72.6276 30.2688 72.5779 30.258 72.546 30.2532C72.5439 30.2526 72.5412 30.2526 72.5392 30.2519C72.5364 30.2519 72.5337 30.2512 72.5317 30.2512C72.4602 30.2431 72.3881 30.235 72.3159 30.2282C72.154 30.2134 71.9913 30.2046 71.8293 30.1999C71.4891 30.1904 71.1481 30.1979 70.8085 30.2242C70.6948 30.233 70.5812 30.2451 70.4675 30.2586C70.4975 30.2586 70.2395 30.3019 70.1783 30.3167C70.0061 30.3566 69.8353 30.4052 69.6672 30.4653C69.6672 30.4653 69.5808 30.4991 69.5216 30.5214C69.4835 30.5389 69.4304 30.5639 69.4161 30.572C69.2949 30.6375 69.1779 30.7098 69.0649 30.7909C69.0547 30.7983 69.0145 30.8307 68.9785 30.8584L68.9764 30.8604C68.9479 30.8827 68.9227 30.9016 68.922 30.9009C68.9261 30.9043 68.9424 30.8915 68.9621 30.8746C68.9336 30.905 68.7832 31.0988 68.7056 31.1792C68.741 31.1292 68.7627 31.0543 68.6947 31.1725C68.6879 31.1846 68.6804 31.1968 68.6736 31.2089C68.6695 31.2116 68.6647 31.2143 68.6627 31.2143C68.6654 31.215 68.6681 31.2143 68.6709 31.2137C68.6477 31.2528 68.6246 31.2913 68.6035 31.3319C68.5749 31.3845 68.5504 31.4399 68.5252 31.4946C68.4946 31.6311 68.4538 31.7621 68.4299 31.9019C68.3932 32.1207 68.2972 32.3051 68.1659 32.4517C68.0842 32.551 67.9889 32.634 67.878 32.6921C67.4649 32.9096 67.028 33.0373 66.587 33.0778C65.7009 33.1588 64.8012 32.8887 64.0533 32.2903C63.3189 31.702 62.7867 30.955 62.3662 30.1195C62.128 29.6481 61.9258 29.1489 61.7428 28.6336C61.2534 27.2524 60.9152 25.8084 60.7253 24.3414C60.6328 23.6289 60.5477 22.8812 60.7628 22.1815C61.018 21.3514 61.6066 20.6672 62.4049 20.4835C63.1148 20.3207 63.8151 20.4977 64.4847 20.757C65.0945 20.9934 65.707 21.1873 66.3427 21.3163C66.3542 21.3183 66.3631 21.3203 66.3719 21.3223C66.3774 21.3223 66.3835 21.3223 66.3917 21.3223C66.4795 21.3271 66.5666 21.3406 66.6544 21.346C66.7939 21.3548 66.9334 21.3581 67.0729 21.3541C67.1818 21.3514 67.2907 21.3433 67.3989 21.3318C67.3696 21.3277 67.682 21.2643 67.7296 21.2494C67.814 21.2244 67.8964 21.1906 67.9801 21.1643C67.9821 21.1636 67.9835 21.1629 67.9855 21.1623C68.0801 21.0995 68.1829 21.0502 68.2761 20.9826C68.2843 20.9772 68.3068 20.9617 68.3313 20.9441C68.3367 20.9387 68.3408 20.9347 68.3469 20.9279C68.4225 20.8475 68.5014 20.7712 68.5735 20.6861C68.5865 20.6706 68.6205 20.6375 68.6532 20.6017C68.6566 20.5916 68.6647 20.5747 68.6797 20.547C68.7389 20.4355 68.8008 20.3268 68.858 20.214C68.8689 20.1917 68.8764 20.1681 68.8805 20.1478C68.8798 20.1573 68.8791 20.1667 68.8791 20.1789C68.8716 20.3639 68.8805 20.1681 68.9002 20.1012C68.9302 20.0026 68.9492 19.9026 68.9723 19.802C68.9723 19.7554 68.9751 19.7088 68.9751 19.6615C68.988 19.6798 68.9968 19.6683 68.9791 19.5987C68.9751 19.5818 68.971 19.5643 68.9669 19.5467C68.9649 19.5224 68.9649 19.5001 68.9669 19.4893C68.9635 19.4967 68.9608 19.5041 68.9587 19.5123C68.9499 19.4758 68.941 19.44 68.9329 19.4035C68.9302 19.3947 68.9288 19.3839 68.9268 19.3724C68.9356 19.5399 68.9295 19.3907 68.8839 19.3083C68.8784 19.2975 68.8621 19.2664 68.8444 19.2353C68.8335 19.2252 68.8213 19.2137 68.8049 19.1975C68.7968 19.1887 68.7532 19.1401 68.7171 19.1009C68.6743 19.0726 68.6327 19.0415 68.5899 19.0138C68.5443 18.9848 68.4973 18.9604 68.4524 18.9328C68.434 18.9213 68.4211 18.9132 68.4095 18.9057C68.3183 18.8747 68.2013 18.8429 68.1802 18.8368C68.0475 18.797 67.9134 18.7659 67.778 18.7403C67.7494 18.7349 67.7208 18.7301 67.6922 18.7254C67.665 18.7241 67.6432 18.7241 67.6378 18.7234C67.4118 18.7011 67.1852 18.6916 66.9586 18.6883C65.8962 18.6741 64.8046 18.7477 63.7899 18.3269C63.2277 18.0932 62.6935 17.7636 62.3022 17.2503C61.7754 16.5607 61.5495 15.7469 61.5059 14.8547C61.4719 14.1516 61.54 13.4329 61.6101 12.7352C61.687 11.9686 61.7387 11.1284 61.9483 10.3875C62.1729 9.59527 62.6506 8.78478 63.4149 8.54366C63.8688 8.40115 64.3548 8.4795 64.7638 8.7321C65.07 8.92189 65.2912 9.2319 65.5328 9.50409C65.7513 9.74994 65.9799 9.98497 66.2174 10.2092C66.3039 10.2896 66.3917 10.3673 66.4788 10.4456C66.3774 10.351 66.6183 10.5624 66.6734 10.6063C67.1546 10.988 67.6636 11.3257 68.1945 11.6147C68.3292 11.6883 68.4667 11.7545 68.6028 11.8241C68.4442 11.741 68.7444 11.8889 68.8117 11.9173C69.0914 12.0348 69.3752 12.1402 69.6624 12.2314C69.9741 12.33 70.2906 12.4117 70.6098 12.4725C70.6574 12.4813 70.7051 12.4894 70.752 12.4975C70.7786 12.5015 70.8105 12.5056 70.8262 12.5069C70.9875 12.5204 71.1481 12.538 71.3101 12.5441C71.4891 12.5515 71.668 12.5508 71.847 12.5421C71.894 12.5394 72.2241 12.5036 72.1934 12.5137C72.448 12.4691 72.6998 12.4043 72.9448 12.3178C72.9992 12.2989 73.0748 12.282 73.1408 12.2557C73.153 12.2469 73.1673 12.2368 73.1836 12.228C73.3007 12.1645 73.4178 12.1024 73.5321 12.0315C73.6458 11.9605 73.7567 11.8849 73.8649 11.8045C73.8785 11.7944 73.9506 11.7363 73.9867 11.7086C73.9568 11.7343 73.903 11.7843 73.8955 11.793C73.9003 11.789 73.9221 11.7694 73.9704 11.7248L73.9867 11.7086C73.9867 11.7086 73.9901 11.7059 73.9915 11.7046C73.9915 11.7046 73.9919 11.7043 73.9928 11.7039C74.1848 11.5242 74.3685 11.3351 74.5373 11.1284C74.5856 11.069 74.6298 11.0055 74.6795 10.9461H74.6802C74.7476 10.8414 74.8143 10.7381 74.8769 10.6307C74.9551 10.4956 75.028 10.3564 75.096 10.2146C75.1137 10.1761 75.1607 10.0255 75.2022 9.93567C75.1852 9.98768 75.1893 10.0329 75.2267 9.91744C75.2321 9.90258 75.2369 9.88704 75.2417 9.87218H75.2423C75.2573 9.82693 75.2723 9.78168 75.2866 9.73642C75.3295 9.59999 75.3676 9.46221 75.4002 9.3224C75.437 9.16774 75.4601 9.01172 75.4914 8.8557C75.4955 8.79694 75.501 8.73885 75.5044 8.67941C75.52 8.42073 75.5173 8.1607 75.4976 7.9027C75.4969 7.88716 75.4948 7.87163 75.4935 7.8561C75.4812 7.8176 75.4744 7.70886 75.4683 7.67576C75.4431 7.53258 75.4132 7.39007 75.3785 7.24958C75.3431 7.10842 75.3036 6.96929 75.2587 6.8315C75.2553 6.8207 75.241 6.77882 75.2267 6.7383C75.2458 6.77882 75.258 6.79773 75.2144 6.69575C75.211 6.68764 75.2076 6.68021 75.2042 6.67211C75.1995 6.6586 75.1967 6.64914 75.1967 6.64914C75.1961 6.64914 75.1954 6.65117 75.1954 6.6532C75.0872 6.40195 74.9701 6.15745 74.834 5.92376C74.7666 5.80759 74.6938 5.69682 74.621 5.5847C74.6149 5.57728 74.6094 5.5712 74.6019 5.56174C74.5618 5.51379 74.525 5.46246 74.4856 5.41383C74.3073 5.19432 74.1126 4.99778 73.9119 4.80461C73.8989 4.79245 73.8887 4.78232 73.8792 4.77354C73.8465 4.74923 73.8118 4.72356 73.8023 4.71613C73.6927 4.63306 73.5804 4.55404 73.4661 4.48042C73.33 4.39261 73.1905 4.31292 73.0482 4.23997C73.0169 4.22376 72.9284 4.18526 72.9046 4.17446C72.8665 4.15825 72.8284 4.14204 72.7903 4.12718C72.5044 4.01371 72.2118 3.92186 71.9165 3.84148C71.291 3.67128 70.6547 3.55038 70.0211 3.42341C69.6543 3.35046 69.2874 3.27887 68.9199 3.21335C68.7648 3.18634 68.6103 3.15932 68.4551 3.13433C68.3687 3.12015 68.2829 3.10664 68.1972 3.09381C68.1795 3.09178 68.1598 3.08908 68.1339 3.0857C67.4356 2.99385 66.7354 2.92833 66.0323 2.92361C65.688 2.92158 65.3436 2.93306 64.9999 2.96143C64.872 2.97156 64.7433 2.98507 64.6161 3.0006C64.5848 3.00398 64.5528 3.00803 64.5215 3.01208C64.4861 3.01816 64.4351 3.02762 64.4078 3.03235C63.8511 3.13231 63.3012 3.28225 62.7697 3.49095C62.6792 3.52607 62.5894 3.56457 62.4995 3.60239C62.4948 3.60441 62.4907 3.60577 62.4859 3.60779C62.3668 3.6679 62.2477 3.72734 62.13 3.79285C61.8891 3.92726 61.6536 4.07585 61.4277 4.2393C61.348 4.29738 61.2705 4.35817 61.1922 4.4176C61.1793 4.42773 61.1595 4.44462 61.1418 4.45948C61.0649 4.52837 60.988 4.59794 60.9138 4.67088C60.7008 4.88161 60.5007 5.10787 60.3156 5.34831C60.3075 5.35912 60.2775 5.39897 60.2496 5.43612C60.2183 5.48272 60.1577 5.57052 60.1557 5.57322C60.0829 5.68602 60.0128 5.80084 59.9454 5.91768C59.8018 6.16623 59.6711 6.42356 59.5507 6.68697C59.4813 6.83961 59.4187 6.99563 59.3526 7.15097C59.3261 7.22662 59.2975 7.30226 59.271 7.37858C59.1805 7.64199 59.0974 7.90945 59.0212 8.17826C58.6564 9.47302 58.4434 10.8157 58.2501 12.1517C58.1936 12.538 58.1406 12.925 58.0902 13.3127C58.0677 13.4849 58.0453 13.6572 58.0235 13.8294C58.0099 13.9375 57.997 14.0448 57.9833 14.1529C57.982 14.1617 57.9813 14.1684 57.9799 14.1759C57.9799 14.1806 57.9793 14.184 57.9786 14.1887C57.8887 14.9438 57.8016 15.6996 57.7159 16.4547C57.3654 19.5575 57.0258 22.6813 57.1483 25.8138C57.1748 26.498 57.2279 27.1788 57.3001 27.8582C57.3021 27.8805 57.3042 27.8994 57.3055 27.915C57.3076 27.9278 57.3096 27.9413 57.3116 27.9582C57.3218 28.0332 57.3314 28.1081 57.3423 28.1838C57.3654 28.3526 57.3906 28.5208 57.4178 28.689L57.4321 28.7721C57.4797 29.0618 57.5321 29.3509 57.5907 29.6379C57.707 30.2114 57.8479 30.7787 58.0119 31.3379C58.0378 31.4264 58.063 31.5156 58.0902 31.6047C58.1896 31.9255 58.2991 32.243 58.4135 32.5577C58.4155 32.5624 58.4175 32.5685 58.4196 32.5746C58.421 32.578 58.4223 32.582 58.4237 32.5854C58.4278 32.5955 58.4318 32.6057 58.4359 32.6165C58.438 32.6212 58.44 32.6266 58.442 32.6313C58.4441 32.6361 58.4461 32.6415 58.4482 32.6455L58.4502 32.6496C58.4523 32.6563 58.455 32.6624 58.4577 32.6692C58.4693 32.7002 58.4815 32.7306 58.4938 32.761C58.5571 32.9157 58.6217 33.069 58.6898 33.221C58.9525 33.8133 59.2499 34.3881 59.5827 34.9358C59.6671 35.075 59.7542 35.2121 59.8433 35.3471C59.8773 35.3998 59.9134 35.4512 59.9474 35.5038C59.9502 35.5079 59.9522 35.5113 59.9549 35.5146C60.1094 35.724 60.2639 35.9327 60.4266 36.1333C60.7771 36.5649 61.1514 36.9722 61.5474 37.3524C61.6577 37.4578 61.7686 37.5618 61.8823 37.6631C61.9163 37.6942 61.951 37.7239 61.985 37.7543H61.983C61.983 37.7543 61.985 37.755 61.9864 37.755C61.9973 37.7651 62.0075 37.7746 62.0184 37.784C62.1504 37.9009 62.0252 37.7725 61.9905 37.7563C62.0565 37.7813 62.5349 38.194 62.588 38.2332C63.012 38.5499 63.4523 38.8397 63.9056 39.1031C64.1519 39.2463 64.4024 39.3813 64.6562 39.509C64.6937 39.5272 64.8693 39.6204 64.9142 39.6434C64.904 39.6373 64.8842 39.6265 64.8536 39.6096C64.9468 39.6562 65.0462 39.6927 65.1415 39.7332C65.1599 39.7413 65.1789 39.7488 65.198 39.7569C65.9874 40.0898 66.8027 40.3472 67.6316 40.5275C67.8093 40.5667 67.9876 40.6032 68.1659 40.6349C68.2407 40.6477 68.3156 40.6599 68.3905 40.672C68.5164 40.6876 68.6423 40.7045 68.7682 40.718C69.003 40.743 69.2384 40.7619 69.4739 40.7747C70.0041 40.8031 70.5356 40.8004 71.0644 40.7639C71.3291 40.7463 71.5925 40.7153 71.8566 40.6862C71.8647 40.6849 71.8722 40.6842 71.8797 40.6835C71.9273 40.6754 71.975 40.668 72.0226 40.6599C72.1574 40.6363 72.2921 40.6106 72.4255 40.5822C72.9482 40.4715 73.464 40.3181 73.9609 40.1067C73.9813 40.0986 74.001 40.0892 74.0214 40.0804C74.0711 40.0547 74.1215 40.0304 74.1711 40.0041C74.2923 39.9399 74.4114 39.8724 74.5284 39.7994C74.6319 39.7353 74.7333 39.6677 74.8326 39.5968C74.8823 39.561 74.9313 39.5245 74.9796 39.4874C74.9892 39.48 75.1042 39.3773 75.1171 39.3692C75.1335 39.353 75.1471 39.3395 75.1532 39.3341C75.1974 39.2915 75.241 39.2476 75.2832 39.203C75.3798 39.1017 75.4717 38.9964 75.5588 38.8863C75.5724 38.8694 75.5942 38.8437 75.6139 38.8214C75.6371 38.7863 75.6582 38.7485 75.6772 38.7181C75.7507 38.5986 75.8195 38.4756 75.8821 38.3493C75.929 38.2548 75.9719 38.1582 76.0148 38.0609C76.0617 37.9144 76.1101 37.7698 76.1495 37.6199C76.1863 37.4814 76.2183 37.3409 76.2455 37.1998C76.2625 37.1106 76.2754 37.0215 76.2918 36.9323C76.2959 36.9094 76.3047 36.8682 76.3115 36.8405C76.351 36.5595 76.3414 36.2508 76.3387 35.9746C76.3367 35.72 76.3619 35.3769 76.3081 35.1094L76.3088 35.1101ZM4.13202 40.7983C4.13202 40.7983 4.13542 40.8038 4.13747 40.8065C4.13747 40.8058 4.13747 40.8051 4.13815 40.8051C4.13611 40.8031 4.13406 40.8004 4.13202 40.7983ZM35.1601 38.4034C35.5412 39.0396 35.9809 39.9021 36.6179 40.2682C37.5053 40.7781 38.126 39.6225 38.4479 38.8322C39.3939 36.5122 39.1305 33.9457 39.0114 31.4879C38.8256 27.6644 38.6738 23.822 37.6292 20.1573C37.3787 19.2786 37.2991 17.8818 38.2315 17.434C38.5425 17.2841 38.8902 17.2591 39.2292 17.2321C41.2545 17.072 43.5616 16.9896 45.3651 15.8455C45.5196 14.935 45.6734 14.0246 45.8265 13.1141C46.1505 11.1879 46.4152 9.20083 46.8929 7.28403C46.5016 6.77747 46.0293 6.32698 45.4855 5.93659C42.7776 3.99345 38.6133 1.99627 35.4044 3.61995C34.6694 3.9921 34.0603 4.53512 33.5567 5.18757C32.9204 6.01021 32.4522 7.00643 32.1119 8.05129C31.7818 9.06507 31.5722 10.1248 31.447 11.1156C31.2707 12.515 31.234 13.9239 31.2578 15.3335C31.2761 16.4304 31.3306 17.5272 31.385 18.6214C31.3993 18.9098 31.4136 19.1975 31.4272 19.4852C31.726 25.7962 31.888 32.9359 35.1601 38.4034ZM49.4845 37.8171C49.5744 37.8738 49.6662 37.9285 49.7581 37.9826C49.9425 38.09 50.1311 38.1926 50.3216 38.2892C50.6735 38.4682 51.0348 38.6296 51.4017 38.7762C51.4976 38.8147 51.5943 38.8518 51.6909 38.8883C51.6936 38.8883 51.8685 38.9538 51.8978 38.9639C52.104 39.0349 52.3116 39.1024 52.5198 39.1666C52.9016 39.2848 53.2868 39.3935 53.6734 39.4955C54.6119 39.744 55.5585 39.9642 56.5086 40.1662C57.492 40.3755 58.4802 40.562 59.4724 40.7254C59.9434 40.8031 60.4143 40.8787 60.888 40.9375C60.988 40.9496 61.0887 40.9618 61.1888 40.9726C61.2133 40.9753 61.2875 40.9861 61.3399 40.9942C61.3188 40.9908 61.2909 40.9861 61.2548 40.98C61.4181 41.007 61.5924 41.0037 61.7577 41.0098C61.8775 41.0138 61.9973 41.0165 62.1164 41.0165C61.542 40.641 60.9873 40.227 60.4585 39.7744C58.5019 38.1001 57.0802 35.8767 56.1363 33.3669C55.826 32.5415 55.5769 31.7033 55.3788 30.855C54.7418 30.7152 54.1144 30.5288 53.5291 30.2397C51.8263 29.3995 50.8259 27.6597 50.357 25.9387C49.9126 24.3103 49.8718 22.6387 49.9943 20.9772C50.2685 17.253 50.9838 13.6038 51.8576 9.9816C52.0312 9.25959 52.1972 8.53555 52.3272 7.80409C52.3973 7.41033 52.4572 7.01454 52.5014 6.61673C52.5116 6.52555 52.5198 6.43437 52.5293 6.34386C52.53 6.33576 52.5307 6.32833 52.5314 6.32157C52.5321 6.31617 52.5321 6.31077 52.5327 6.30536C52.5402 6.15475 52.5491 6.00413 52.5532 5.85352C52.5641 5.46853 52.5552 5.0822 52.5198 4.69722C52.5035 4.52229 52.4817 4.34804 52.4545 4.17446C52.4518 4.15487 52.4463 4.11367 52.4422 4.0745C52.4313 4.02519 52.4177 3.97589 52.4062 3.92726C52.3211 3.57402 52.2088 3.22619 52.0645 2.88984C52.0598 2.87835 52.0543 2.8662 52.0495 2.85404C51.9039 2.88578 51.746 2.92901 51.695 2.99182C51.8535 2.9182 51.8726 2.9101 51.7521 2.96886C51.7018 2.99452 51.6521 3.02154 51.6038 3.04991C51.5725 3.06814 51.4677 3.15527 51.4139 3.18161C51.3826 3.21133 51.3513 3.24105 51.322 3.27279C51.2969 3.29981 51.2737 3.32885 51.2499 3.35722C51.2472 3.35992 51.2458 3.36262 51.2438 3.366C50.7517 4.10489 50.3393 4.88836 50.0086 5.70763C49.9813 5.77449 49.9555 5.84203 49.9289 5.90958C49.9187 5.93997 49.865 6.08653 49.8568 6.1095C49.8221 6.21013 49.788 6.31077 49.7554 6.41208C49.722 6.51609 49.6894 6.6201 49.6574 6.72411C49.5315 7.13814 49.4205 7.55689 49.3205 7.97834C49.1157 8.84151 48.9564 9.71549 48.8074 10.5901C48.4861 12.4813 48.1717 14.3738 47.8532 16.2656C47.7831 16.683 47.713 17.0997 47.6429 17.5171C47.3945 18.9962 47.1461 20.4754 46.897 21.9545C46.5881 23.7957 46.2396 25.6355 46.0205 27.4901C45.9892 27.7549 45.9613 28.0197 45.9374 28.2851C45.9354 28.3047 45.9204 28.5073 45.9191 28.5141L45.9068 28.7005C45.881 29.1361 45.868 29.5731 45.8714 30.0101C45.8748 30.4248 45.8952 30.8375 45.9327 31.2488C45.9701 31.6601 46.0246 32.0708 46.0953 32.4807C46.1062 32.5327 46.1171 32.5841 46.1287 32.6354C46.1498 32.7279 46.1716 32.8205 46.1947 32.913C46.241 33.0967 46.292 33.2804 46.3471 33.4621C46.4485 33.7951 46.5656 34.1233 46.699 34.4455C46.7473 34.5623 46.7977 34.6785 46.8508 34.7933C46.8576 34.8082 46.8739 34.846 46.8895 34.8831C46.963 35.0439 47.0583 35.1999 47.1475 35.3519C47.3231 35.6511 47.5157 35.9415 47.7266 36.2184C47.8029 36.3197 47.8838 36.4177 47.9628 36.5163C47.9689 36.523 47.9737 36.5298 47.9784 36.5352C47.9866 36.5433 47.9948 36.5521 48.0057 36.5629C48.1391 36.7013 48.2697 36.8405 48.4099 36.9728C48.6672 37.2153 48.9428 37.4369 49.2293 37.6469C49.2245 37.6401 49.4498 37.7955 49.4845 37.8171ZM20.0544 38.7073C20.4355 39.3435 20.8752 40.206 21.5122 40.5721C22.3996 41.082 23.0203 39.9264 23.3422 39.1362C24.2882 36.8162 24.0248 34.2496 23.9057 31.7918C23.7199 27.9683 23.5681 24.1259 22.5235 20.4612C22.273 19.5825 22.1941 18.1858 23.1258 17.738C23.4368 17.588 23.7845 17.563 24.1235 17.536C25.5118 17.4266 27.0322 17.353 28.4321 16.9491C28.2769 13.2019 28.4464 9.34064 29.8973 5.90485C27.1948 4.07923 23.3231 2.39341 20.2987 3.92388C18.6205 4.77287 17.5962 6.51542 16.9885 8.40858C16.6686 9.40615 16.4644 10.4463 16.3419 11.4195C15.9921 14.1934 16.1902 17.0051 16.3222 19.7892C16.3501 20.3903 16.3773 20.9988 16.4066 21.6128C16.4223 21.9498 16.4386 22.2888 16.4556 22.6293C16.672 26.9019 17.0368 31.3724 18.4701 35.3323C18.8961 36.5082 19.416 37.6395 20.0544 38.7073ZM12.1694 27.8076C12.6077 27.8697 13.0031 28.1662 13.2291 28.5688C13.521 29.0882 13.5237 29.7244 13.5632 30.3079C13.6619 31.7385 13.7347 33.171 13.8382 34.6008C13.9375 35.9814 14.0226 37.368 14.3887 38.71C14.4636 38.9849 14.6011 39.3057 14.8849 39.3469C15.0822 39.3753 15.2748 39.2436 15.3776 39.0747C15.481 38.9052 15.513 38.7039 15.543 38.508C15.6587 37.7583 15.7839 37.0086 15.9009 36.2576C14.6582 32.5361 14.2499 28.612 13.8878 24.6832C13.8232 23.9794 13.7592 23.2763 13.6993 22.5718C13.5796 21.1629 13.4591 19.7534 13.3801 18.3411C13.1807 14.7878 13.1916 11.0832 14.2485 7.6967C14.1995 7.55284 14.1492 7.40965 14.0961 7.26714C14.0702 7.19622 14.043 7.12598 14.0158 7.05574C14.0117 7.04358 14.0069 7.0321 14.0022 7.01994C14.0049 7.02805 14.0076 7.0348 14.009 7.04021C13.9954 7.00441 13.9695 6.94025 13.9518 6.89769C13.7776 6.48435 13.5857 6.07843 13.3699 5.68737C13.2522 5.47259 13.1263 5.26254 12.9929 5.05789C12.9378 4.97346 12.8786 4.89106 12.8235 4.80664C12.8085 4.78638 12.7928 4.76611 12.7779 4.74653C12.522 4.4149 12.2416 4.10422 11.936 3.82325C11.9197 3.80839 11.8693 3.76314 11.8257 3.72464C11.7972 3.7037 11.6794 3.60847 11.6474 3.58483C11.5141 3.48757 11.3766 3.39571 11.2357 3.31129C11.2024 3.29103 10.8478 3.12623 10.7627 3.06882C10.745 3.06139 10.7273 3.05396 10.7096 3.04721C10.6382 3.02086 10.566 2.99655 10.4932 2.97359C10.3299 2.92293 10.1577 2.90199 9.99504 2.85201C9.92767 2.84661 9.86029 2.83986 9.79224 2.83715C9.62142 2.82905 9.44991 2.83175 9.27909 2.84593C9.27297 2.84593 9.26616 2.84728 9.25936 2.84796C9.209 2.87498 9.10215 2.8743 9.05111 2.88578C8.88029 2.92496 8.71083 2.97561 8.54545 3.0364C8.49032 3.05734 8.42227 3.09921 8.36306 3.11339C8.06906 3.26063 7.78867 3.43759 7.52325 3.63548C7.48174 3.66655 7.44226 3.70032 7.40007 3.72936C7.39871 3.73072 7.39735 3.73207 7.39599 3.73274C7.34494 3.77799 7.29118 3.8273 7.28165 3.83608C7.1503 3.95428 7.02304 4.0772 6.89918 4.20418C6.63988 4.47164 6.39761 4.75666 6.16962 5.05384C6.15192 5.0768 6.09748 5.17608 6.06821 5.19365C6.0233 5.25848 5.97838 5.32332 5.93414 5.38884C5.82049 5.55904 5.7116 5.73127 5.60611 5.90687C5.38629 6.27159 5.18281 6.64779 4.99497 7.0321C4.88948 7.24756 4.78876 7.46503 4.6928 7.68454C4.65129 7.78045 4.60977 7.87636 4.56962 7.97294C4.55397 8.01009 4.539 8.04791 4.52402 8.08506C4.52198 8.08979 4.51926 8.09519 4.51722 8.10127C4.51586 8.10464 4.5145 8.1087 4.51313 8.11207C4.34572 8.55311 4.18987 8.99888 4.05104 9.45141C3.77064 10.3693 3.5481 11.3061 3.36843 12.2516C3.27452 12.746 3.19217 13.2431 3.12003 13.7416C3.10097 13.8726 3.0826 14.003 3.06558 14.134C3.05946 14.1792 3.05333 14.2238 3.04721 14.2691C3.04585 14.2799 3.04517 14.2907 3.04313 14.3035C3.01658 14.5305 2.99004 14.7581 2.96622 14.985C2.85801 16.0049 2.78451 17.0281 2.73279 18.0527C2.62799 20.1309 2.61369 22.2132 2.61301 24.2948C2.61165 26.498 2.61165 28.7025 2.68243 30.905C2.71782 31.9951 2.7709 33.0845 2.85189 34.1713C3.00229 36.1948 3.1071 38.2744 3.72028 40.2236C3.77132 40.3863 3.83189 40.5559 3.96052 40.6687C4.04831 40.745 4.19531 40.7828 4.27494 40.6984C4.30692 40.6646 4.32054 40.6194 4.33143 40.5748C4.40152 40.2891 4.39268 39.9906 4.38791 39.6968C4.36954 38.6843 4.39744 37.6712 4.47162 36.6615C4.54172 35.7044 4.50565 34.7447 4.51382 33.7836C4.52334 32.6036 4.60773 31.3447 4.4478 30.1735C4.43827 30.1033 4.43555 30.031 4.43895 29.9588C4.43283 29.694 4.5179 29.4556 4.66014 29.2604C4.81734 29.0105 5.04873 28.8193 5.32164 28.77C6.35269 28.5857 7.38918 28.4411 8.42499 28.2966C8.68905 28.2601 8.95379 28.2236 9.21784 28.1865C9.30904 28.1737 9.40092 28.1608 9.49211 28.148C9.52886 28.1426 9.64592 28.1257 9.68743 28.1196C10.1876 28.0467 10.6865 27.9697 11.1847 27.8832C11.5161 27.8258 11.8332 27.7596 12.1694 27.8076Z" fill="#0B5C01"/>
</g>
<defs>
<clipPath id="clip0_499_366">
<rect width="79" height="44" fill="white"/>
</clipPath>
</defs>
</svg>
