<?xml version="1.0" encoding="UTF-8"?>
<svg xmlns="http://www.w3.org/2000/svg" viewBox="510 230 350 280">
  <defs>
    <style>
       .st0 {

        fill: #2c2c2c;

      } 
    </style>
  </defs>
  <path class="st0" d="M681.1,474.41c-1.39-2.12-3.92-3.09-6.36-3.52-6.73-1.18-13.95.99-18.94,5.88-2.95,2.9-5.06,6.59-7.51,9.96-3.33,4.59-8.59,10.18-14.48,6.86-2.42-1.37-4.1-3.81-5.46-6.31-2.71-5.01-4.39-10.51-5.65-16.08-.98-4.33-3.46-11.32-2.01-15.73.39-1.18,1.12-2.11,2.05-2.82,1.94-1.47,4.77-1.94,7.23-1.48,5.65,1.06,10.56,5.06,16.3,5.77,12.02,1.5,27.01-5.48,33.51-16.27,2.92-4.84,3.57-11.07-.05-15.67-1.75-2.22-4.41-3.79-7.16-3.68-1.77.07-3.46.8-5,1.72-4.46,2.66-7.97,6.77-12.79,8.81-5.3,2.24-11.48,3.11-17.14,2.53-3.03-.31-6.13-1.08-8.56-2.99-2.93-2.3-4.58-6.04-5.1-9.81-1.1-8,3.19-13.41,10.56-14.83,12.39-2.37,25.01.25,37.22-3.89,6.2-2.1,9.53-6.22,9.9-13.13.19-3.49-.31-6.98-.5-10.47-.42-7.93-.5-14.88-8.43-18.29-10.07-4.33-20.87-2.12-31.08-5.22-6.47-1.97-12.63-6.26-15.33-12.7-3.86-9.18.65-19.62,8.96-23.93,5.87-3.05,13.52-2.98,18.51,1.45,5.19,4.6,7,15.83,14.44,17.27,3.63.7,7.26-1.93,8.99-5.32,3.27-6.44,1.4-14.05,1.55-20.95.06-2.7.36-5.52-.67-8-3.2-7.65-14.26-8.61-20.97-7.7-7.32.99-14.3,3.91-21.6,5.05-9.06,1.41-14.13-4.18-15.07-13.35-.36-3.53-.18-7.17.95-10.51,1.13-3.35,3.28-6.39,6.24-8.15,8.39-4.98,19.19.72,25.88,6.26,3.85,3.19,6.89,7.87,11.65,9.66,2.52.95,5.31,1,7.91.36,1.61-.39,3.19-1.06,4.43-2.19,5.49-4.99,4.01-17.08,3.55-23.74-.2-2.86-.91-5.95-3.1-7.67-5.31-4.16-18.68-1.15-24.87-1.04-9.78.17-19.58.21-29.35-.29-3.57-.18-7.37-.36-10.46,1.51-7.73,4.68-7.43,17.78-7.28,25.75.38,19.69,3.33,39.23,3.02,58.95-.33,21.08-.79,42.14-1.47,63.21-.51,15.81.14,31.63-.44,47.44-.49,13.51-3.62,27.51-1.49,40.97,2.67,16.87,16.36,23.03,31.05,26.14,11.02,2.33,22.37,3.56,33.51,4.92,2.45.3,5.18.52,7.13-1.05,3.68-2.96,3.59-12.19,4.18-16.63,1-7.54,1.74-15.22.91-22.82-.16-1.49-.5-3.01-1.32-4.25Z"/>
  <path class="st0" d="M600.47,427.84c-.33-54.44.46-108.89-.13-163.33-.05-4.99.28-10.25-.34-15.17-7.16-.53-13.18,5.9-15.69,12.82-2.53,6.95-2.52,14.63-2.95,22.1-.44,7.46-1.22,16.21-6.3,21.77-3.98,4.35-10.36,5.72-15.61,3.53-9.51-3.97-10.97-14.04-10.24-24.14.46-6.37,1.57-12.75.93-19.1-.35-3.45-1.26-6.93-3.23-9.64-2.94-4.04-7.82-5.81-12.52-6.25-10.34-.97-10.06,10.71-9.99,19.21,0,77.85.88,155.74.09,233.59-.02,2.34-.03,4.76.86,6.89.89,2.12,2.94,3.85,5.04,3.43,3.01-.61,4.01-4.73,4.3-8.07,1.98-22.27-.3-44.02-.35-66.23,0-2.37.07-4.88,1.2-6.9,1.13-2.02,3.7-3.26,5.53-2,5.53,3.81,3.04,26.73,3.82,33.52,1.34,11.69,4.98,29.04,12.32,37.97,1.53,1.86,3.82,3.16,6.07,2.73,10.12-1.95,11.64-30.18,12.86-38.78,2.39-16.81,4.78-33.62,7.17-50.44.16-1.1.37-2.3,1.17-2.99,5.19-4.41,7.47,17.11,7.67,19.27.9,9.64.29,19.39-.82,28.98-1.89,16.34-9.1,34.02-3.72,50.39.98,2.99,2.54,5.96,5.09,7.45,2.63,1.54,6.47.9,7.83-2.26.76-1.77.75-3.81.72-5.77-.37-27.52-.62-55.03-.79-82.54ZM577.13,419.2c-1.18,3.15-2.62,6.11-4.36,8.8-1.62,2.5-3.62,4.82-6.15,6.12-3.87,2-7.9.63-11.13-2.11-3.15-2.68-5.01-6.8-6.32-10.93-2.29-7.2-3.25-14.9-4.99-22.29-3.4-14.37-10.86-29.64-9.67-44.78.69-8.74,5.13-17.54,12.88-20.77,7.72-3.22,16.18.45,20.6,7.89,6.7,11.28,10.04,24.99,12.25,38.11,2.21,13.11,1.53,27.56-3.1,39.96Z"/>
  <path class="st0" d="M763.85,465.06c.04-19.05-.02-38.09-.19-57.14-.09-9.15-1.28-18.23-1.29-27.42,0-5.56-1.34-10.94-2.49-16.45-2.55-12.21-5.37-24.36-8.3-36.48-5.56-24.23-12.17-48.33-17.75-72.64-1.53-6.67-8.69-6.18-13.35-4.39-9.45,3.61-8.96,21.07-10.47,29.4-3.73,20.66-9.39,40.84-14.47,61.16-7.32,29.25-9.41,59.61-9.77,89.75-.18,14.98.07,29.97.33,44.95.17,9.62-.63,19.24-.41,28.86.06,2.75-.74,10.96,1.08,13.11,1.74,2.03,10.15,2.8,11.99.66,2.92-3.39.44-19.46.43-24.14-.02-14.92-.04-29.85-.07-44.77-.01-5.97.02-12.7,2.67-18.12.48-.99,1.08-1.98,1.99-2.55,1.63-1.03,3.84-.39,5.25.96,4.37,4.19,6.26,13.07,8.58,18.57,3.28,7.79,6.66,15.53,10.15,23.22,4.65,10.27,9.48,20.45,14.48,30.54,3.93,7.93,6.56,15.34,15.92,17.17,1.51.29,3.19.41,4.48-.47,3.42-2.33,1.05-20.41,1.08-24.52.07-9.76.12-19.51.14-29.27ZM716.49,300.57c2.49-8.13,2.86-18.81,7.06-25.88.31-.52.69-1.05,1.22-1.14,3.16-.54,6.86,21.45,7.07,24.42.4,5.61-1.71,12.06-4.82,16.78-.97,1.47-2.04,2.78-3.15,3.84-.87.83-1.84,1.58-2.94,1.78-8.37,1.53-5.94-14.86-4.43-19.79ZM751.52,461.69c-.48,4.1-.88,13.72-4.89,15.87-1.68.91-3.83-.01-5.03-1.55-.02-.03-.05-.06-.07-.09-1.19-1.59-1.64-3.65-2.1-5.62-1.57-6.78-3.68-13.39-6.3-19.79-5.08-12.41-11.69-24.03-17.1-36.27-4.86-11.01-10.73-23.39-11.14-35.69-.32-9.46,2.19-18.63,4.04-27.79,1.41-6.96,5.05-14.39,13.19-13.19,2.57.38,4.97,1.64,7.07,3.25,9.2,7.12,14.48,20.49,15.74,32.13,1.64,15.21-1.65,30.11,1.07,45.32,2.56,14.34,7.27,28.6,5.53,43.41Z"/>
  <path class="st0" d="M823.77,259.87c-13.82-11.47-31.17-11.26-47.82-9.73-3.63.33-7.89,1.17-9.41,4.68-.65,1.5-.64,3.22-.62,4.88.37,25.97.68,52.54.85,78.75.09,13.28.15,26.56.16,39.84.01,8.63-1.15,20.53,10.29,19.7,5.81-.42,11.27.71,15.25,5.62,3.43,4.22,4.7,10.03,4.56,15.6-.36,14.2-5.59,29.88-9.54,43.37-4.2,14.35-9.36,28.42-15.81,41.81-2.47,5.12-4.11,11.36,3.09,11.92,18.06,1.4,36.15,2.13,54.23,3,2.12.09,4.3.18,6.28-.59,4.15-1.61,4.56-6.34,4.14-10.37-1.09-10.43-5.53-19.89-9.53-29.34-6.99-16.53-17.55-31.98-18.01-50.67-.36-14.4,6.78-28.81,21-31.17.42-.07.83-.12,1.25-.17,2.49-.26,5.45-.35,6.81-2.57.63-1.02.75-2.29.84-3.5.2-2.72.31-5.45.37-8.19.13-5.87.03-11.76.1-17.61.25-19.95.31-39.89.31-59.79-1.54-16.87-5.78-34.64-18.82-45.46ZM829.62,321.53c-2.46,17.55-11.75,42.95-29.82,48.04-2.82.79-5.76.96-8.62.28-8.5-2.03-14.05-10.67-15.18-19.44-1.6-12.39-1.41-24.96-.58-37.41.57-8.58.62-18.47,2.55-27.28.55-2.51,1.25-4.94,2.16-7.22,6.66-16.74,25.02-16.67,36.46-5.23,12.12,12.12,15.39,31.45,13.03,48.27Z"/>
</svg>
