<svg width="233" height="193" viewBox="0 0 233 193" fill="none" xmlns="http://www.w3.org/2000/svg">
<path d="M114.543 159.962C113.527 158.462 111.676 157.772 109.892 157.472C104.976 156.632 99.689 158.172 96.0444 161.652C93.8899 163.712 92.3429 166.332 90.5585 168.732C88.1288 171.992 84.2754 175.962 79.976 173.612C78.2106 172.642 76.9768 170.902 75.9802 169.132C73.9966 165.572 72.7722 161.662 71.8516 157.702C71.1398 154.622 69.3175 149.662 70.3805 146.522C70.6652 145.682 71.1967 145.022 71.8801 144.522C73.2942 143.482 75.3633 143.142 77.1666 143.472C81.2952 144.222 84.8829 147.072 89.0874 147.572C97.8762 148.642 108.829 143.682 113.584 136.012C115.719 132.572 116.194 128.142 113.546 124.872C112.265 123.292 110.319 122.182 108.316 122.252C107.026 122.302 105.782 122.822 104.662 123.472C101.397 125.362 98.8348 128.282 95.3136 129.732C91.4412 131.322 86.9235 131.942 82.7853 131.532C80.5739 131.312 78.3055 130.762 76.5307 129.412C74.3857 127.782 73.1804 125.122 72.8007 122.442C71.994 116.752 75.1355 112.912 80.517 111.902C89.5715 110.222 98.7968 112.082 107.728 109.142C112.265 107.652 114.694 104.722 114.97 99.8122C115.112 97.3322 114.742 94.8522 114.599 92.3722C114.296 86.7322 114.229 81.8022 108.44 79.3722C101.075 76.2922 93.1781 77.8622 85.7181 75.6622C80.9915 74.2622 76.4832 71.2122 74.5091 66.6322C71.6902 60.1122 74.9837 52.6922 81.058 49.6222C85.3479 47.4522 90.9382 47.5022 94.5923 50.6522C98.3887 53.9222 99.708 61.9021 105.146 62.9221C107.804 63.4221 110.452 61.5522 111.714 59.1422C114.106 54.5621 112.739 49.1622 112.844 44.2522C112.891 42.3322 113.109 40.3322 112.35 38.5622C110.015 33.1222 101.929 32.4422 97.022 33.0922C91.669 33.7922 86.5723 35.8722 81.2288 36.6822C74.604 37.6822 70.9025 33.7122 70.2096 27.1922C69.9439 24.6822 70.0768 22.0922 70.9025 19.7222C71.7282 17.3422 73.3037 15.1822 75.4677 13.9322C81.5989 10.3922 89.4955 14.4422 94.3835 18.3822C97.2023 20.6522 99.4232 23.9722 102.897 25.2522C104.738 25.9322 106.779 25.9621 108.677 25.5121C109.854 25.2321 111.012 24.7621 111.914 23.9521C115.928 20.4021 114.846 11.8122 114.505 7.08215C114.362 5.05215 113.84 2.85217 112.236 1.63217C108.354 -1.32783 98.5785 0.81215 94.0513 0.89215C86.9045 1.01215 79.7387 1.04216 72.5919 0.682159C69.9818 0.552159 67.201 0.422166 64.9421 1.75217C59.2949 5.08217 59.5132 14.3922 59.6176 20.0522C59.8928 34.0422 62.0473 47.9322 61.829 61.9422C61.5917 76.9222 61.25 91.8922 60.7565 106.862C60.3864 118.102 60.8609 129.342 60.4338 140.572C60.0732 150.172 57.7858 160.122 59.3423 169.692C61.2975 181.682 71.3011 186.062 82.045 188.272C90.103 189.932 98.3982 190.802 106.542 191.772C108.335 191.982 110.329 192.142 111.752 191.022C114.438 188.922 114.381 182.362 114.808 179.202C115.539 173.842 116.08 168.382 115.473 162.982C115.359 161.922 115.103 160.842 114.505 159.962H114.543Z" fill="#FAEFC3"/>
<path d="M55.6028 126.902V126.872C55.3656 88.1822 55.9445 49.4921 55.5174 10.8021C55.4795 7.25215 55.7262 3.52215 55.2706 0.0221461C50.0316 -0.357854 45.6372 4.21216 43.7959 9.13216C41.9452 14.0722 41.9546 19.5322 41.6414 24.8422C41.3187 30.1422 40.7493 36.3622 37.0383 40.3122C34.1245 43.4022 29.4644 44.3822 25.63 42.8222C18.673 40.0022 17.61 32.8422 18.1415 25.6622C18.4737 21.1322 19.2899 16.6022 18.8249 12.0922C18.5686 9.64215 17.9042 7.17215 16.4616 5.24215C14.3166 2.37215 10.7479 1.11214 7.31215 0.802145C-0.242758 0.112145 -0.0434407 8.41214 0.0135058 14.4521C0.0135058 69.7822 0.6589 125.132 0.0799432 180.462C0.060961 182.122 0.0609572 183.842 0.706352 185.362C1.36124 186.872 2.85134 188.102 4.38889 187.802C6.59083 187.372 7.32165 184.442 7.53045 182.062C8.98259 166.232 7.31215 150.782 7.27419 134.992C7.27419 133.312 7.32165 131.522 8.14737 130.092C8.9731 128.662 10.8523 127.772 12.1906 128.672C16.2338 131.382 14.4115 147.672 14.981 152.492C15.9585 160.802 18.6255 173.132 23.988 179.472C25.108 180.792 26.7784 181.722 28.4298 181.412C35.8234 180.022 36.9434 159.962 37.8355 153.852C39.5819 141.902 41.3282 129.962 43.0746 118.002C43.1885 117.222 43.3403 116.372 43.9288 115.882C47.7252 112.752 49.3862 128.042 49.538 129.572C50.1929 136.422 49.7468 143.352 48.9401 150.172C47.5544 161.782 42.2868 174.352 46.2162 185.982C46.928 188.102 48.0764 190.222 49.9367 191.272C51.8634 192.362 54.6632 191.912 55.6598 189.662C56.2198 188.402 56.2103 186.952 56.1818 185.562C55.916 166.002 55.7262 146.452 55.6028 126.902ZM38.5568 120.732C37.6931 122.972 36.6396 125.072 35.3678 126.982C34.1814 128.762 32.7198 130.412 30.869 131.332C28.0407 132.752 25.0985 131.782 22.7352 129.832C20.4288 127.932 19.0716 125.002 18.113 122.062C16.4426 116.942 15.7402 111.472 14.4684 106.222C11.9818 96.0122 6.53389 85.1622 7.39758 74.4022C7.9006 68.1922 11.1466 61.9321 16.8127 59.6421C22.4599 57.3521 28.6386 59.9622 31.8751 65.2522C36.7725 73.2722 39.2117 83.0122 40.8347 92.3322C42.4482 101.652 41.9546 111.922 38.5663 120.732H38.5568Z" fill="#FAEFC3"/>
<path d="M175.058 153.312C175.086 139.782 175.039 126.252 174.915 112.712C174.849 106.212 173.976 99.7522 173.976 93.2222C173.976 89.2722 172.998 85.4522 172.153 81.5322C170.293 72.8522 168.224 64.2222 166.089 55.6022C161.808 38.3822 157.196 21.2521 153.114 3.98214C151.994 -0.757856 146.765 -0.407851 143.357 0.862149C136.448 3.43215 136.809 15.8322 135.708 21.7522C132.984 36.4322 128.846 50.7722 125.125 65.2122C119.772 86.0022 118.244 107.572 117.978 128.992C117.845 139.642 118.026 150.292 118.216 160.932C118.339 167.772 117.751 174.602 117.912 181.442C117.959 183.392 117.371 189.232 118.7 190.762C119.971 192.202 126.122 192.752 127.469 191.232C129.605 188.822 127.792 177.402 127.783 174.072C127.764 163.472 127.754 152.862 127.735 142.252C127.735 138.012 127.754 133.222 129.69 129.372C130.041 128.672 130.478 127.962 131.142 127.562C132.338 126.832 133.952 127.282 134.977 128.242C138.175 131.222 139.552 137.532 141.25 141.442C143.652 146.982 146.119 152.482 148.673 157.942C152.07 165.242 155.601 172.472 159.255 179.642C162.131 185.282 164.048 190.542 170.891 191.842C171.992 192.052 173.226 192.132 174.166 191.512C176.662 189.852 174.934 177.012 174.953 174.082C175.001 167.142 175.039 160.212 175.058 153.282V153.312ZM140.425 36.4221C142.247 30.6421 142.513 23.0522 145.588 18.0322C145.816 17.6622 146.091 17.2822 146.48 17.2222C148.786 16.8422 151.491 32.4622 151.653 34.5722C151.947 38.5622 150.4 43.1422 148.132 46.4922C147.42 47.5322 146.641 48.4722 145.825 49.2222C145.189 49.8122 144.477 50.3421 143.68 50.4821C137.558 51.5721 139.333 39.9221 140.444 36.4221H140.425ZM166.041 150.922C165.69 153.842 165.396 160.682 162.463 162.212C161.239 162.862 159.663 162.212 158.79 161.112C158.771 161.092 158.752 161.072 158.743 161.052C157.869 159.922 157.547 158.462 157.205 157.062C156.057 152.242 154.519 147.542 152.602 143.002C148.891 134.182 144.06 125.922 140.102 117.222C136.552 109.402 132.262 100.602 131.959 91.8622C131.721 85.1422 133.563 78.6222 134.91 72.1122C135.945 67.1622 138.602 61.8822 144.553 62.7422C146.433 63.0122 148.188 63.9122 149.726 65.0522C156.455 70.1122 160.309 79.6122 161.229 87.8822C162.425 98.6922 160.024 109.282 162.007 120.092C163.877 130.282 167.322 140.422 166.051 150.942L166.041 150.922Z" fill="#FAEFC3"/>
<path d="M218.831 7.50216H218.85C208.751 -0.657835 196.062 -0.507849 183.894 0.582151C181.236 0.812151 178.123 1.41217 177.013 3.91217C176.538 4.98217 176.548 6.20217 176.557 7.38217C176.823 25.8422 177.051 44.7222 177.174 63.3522C177.241 72.7922 177.288 82.2322 177.288 91.6622C177.288 97.7922 176.443 106.252 184.815 105.662C189.067 105.362 193.053 106.162 195.967 109.652C198.472 112.652 199.402 116.782 199.298 120.742C199.032 130.832 195.207 141.972 192.322 151.562C189.247 161.762 185.479 171.762 180.762 181.272C178.959 184.912 177.753 189.342 183.021 189.742C196.223 190.732 209.444 191.252 222.665 191.872C224.212 191.932 225.807 192.002 227.259 191.452C230.296 190.312 230.59 186.942 230.286 184.082C229.489 176.672 226.243 169.942 223.32 163.232C218.214 151.482 210.488 140.502 210.156 127.222C209.89 116.992 215.11 106.752 225.512 105.072C225.816 105.022 226.12 104.982 226.424 104.952C228.246 104.772 230.41 104.702 231.406 103.122C231.871 102.402 231.957 101.492 232.023 100.632C232.166 98.7022 232.251 96.7622 232.289 94.8122C232.384 90.6422 232.308 86.4522 232.365 82.3022C232.545 68.1222 232.593 53.9522 232.593 39.8122C231.463 27.8222 228.369 15.1922 218.831 7.50216ZM223.13 51.3321C221.336 63.8022 214.541 81.8522 201.329 85.4622C199.27 86.0222 197.115 86.1422 195.027 85.6622C188.81 84.2222 184.758 78.0822 183.932 71.8422C182.765 63.0322 182.897 54.1022 183.505 45.2522C183.922 39.1522 183.96 32.1222 185.365 25.8622C185.764 24.0821 186.276 22.3521 186.941 20.7321C191.81 8.83215 205.23 8.88214 213.592 17.0121C222.456 25.6221 224.839 39.3622 223.121 51.3122L223.13 51.3321Z" fill="#FAEFC3"/>
</svg>
