<svg width="333" height="177" viewBox="0 0 333 177" fill="none" xmlns="http://www.w3.org/2000/svg">
<g>
<path d="M320.77 108.207C320.501 105.029 320.288 103.147 319.791 100.178C319.338 97.4913 318.77 94.8204 318.04 92.2006C317.661 90.8464 317.244 89.5083 316.773 88.1863C316.273 86.7838 316.215 86.6363 315.626 85.3411C315.073 84.1291 314.468 82.9438 313.8 81.7988C313.506 81.2947 313.198 80.7959 312.878 80.3079C312.702 80.037 312.517 79.7742 312.338 79.5088C312.312 79.4712 312.218 79.3452 312.159 79.2621C311.427 78.3074 310.638 77.3984 309.788 76.5564C308.835 75.6178 308.362 75.2209 307.414 74.5613C306.285 73.7729 305.095 73.1052 303.866 72.5072C303.791 72.4697 303.727 72.4402 303.676 72.416C303.674 72.4134 303.669 72.4134 303.666 72.4107C303.646 72.4026 303.622 72.3946 303.602 72.3839C303.318 72.2659 303.031 72.1506 302.744 72.0406C302.181 71.8261 301.61 71.6277 301.036 71.4453C298.594 70.665 296.082 70.185 293.56 69.7908C293.404 69.7667 293.312 69.7506 293.261 69.7425C293.222 69.7372 293.143 69.7291 292.974 69.7077C292.638 69.6621 292.303 69.6192 291.968 69.5763C291.363 69.5012 290.756 69.4288 290.152 69.3591C288.946 69.2169 287.74 69.0855 286.534 68.9407C284.076 68.6431 281.616 68.3267 279.194 67.7823C270.012 65.7229 260.987 60.4214 257.11 51.0467C255.182 46.3808 254.412 39.7654 258.017 35.6787C259.901 33.5442 262.881 32.7424 265.521 33.6944C268.192 34.6597 270.048 36.9766 271.369 39.5026C273.343 41.6237 275.417 43.6376 277.458 45.689C279.416 47.6599 281.211 49.8347 283.257 51.7064C283.923 52.3178 283.802 52.232 284.604 52.7415C284.883 52.9211 285.167 53.0927 285.462 53.2375C285.295 53.1571 284.903 53.0767 285.613 53.2858C285.776 53.3314 285.938 53.3797 286.099 53.4253C286.158 53.4253 286.534 53.4816 286.657 53.4816C286.801 53.4789 287.223 53.3931 287.215 53.4038C287.382 53.3582 287.546 53.31 287.71 53.2617C287.797 53.2295 287.863 53.2027 287.92 53.1812C288.027 53.1249 288.132 53.0686 288.237 53.0096C288.526 52.8219 288.821 52.6557 289.105 52.4599C289.22 52.3794 289.269 52.35 289.282 52.35C289.338 52.3017 289.399 52.2427 289.484 52.1676C289.699 51.9772 289.909 51.7788 290.111 51.5723C290.552 51.1325 290.961 50.6579 291.353 50.1699C291.276 50.253 291.796 49.5585 291.911 49.3815C292.556 48.3893 293.117 47.3381 293.606 46.2494C293.606 46.2494 293.742 45.9169 293.826 45.7238C293.901 45.52 294.026 45.1768 294.026 45.1768C294.19 44.7129 294.341 44.2463 294.479 43.7743C294.833 42.573 295.107 41.3475 295.311 40.1113C295.317 40.0738 295.365 39.7654 295.396 39.5536C295.419 39.339 295.473 38.8966 295.473 38.9046C295.521 38.3951 295.56 37.8856 295.585 37.3735C295.655 36.0836 295.655 34.7911 295.585 33.504C295.552 32.855 295.488 32.2142 295.434 31.5706C295.429 31.5196 295.414 31.3963 295.404 31.2997C295.365 31.0423 295.329 30.7849 295.286 30.5275C295.089 29.3261 294.833 28.1355 294.515 26.9637C294.349 26.3523 294.167 25.7462 293.967 25.1456C293.888 24.9096 293.806 24.6709 293.721 24.435C293.706 24.3974 293.565 24.0274 293.496 23.8397C293.409 23.6385 293.235 23.2256 293.202 23.1505C293.076 22.8716 292.946 22.5927 292.81 22.3192C292.597 21.8821 292.372 21.4504 292.137 21.0267C291.799 20.4233 291.443 19.8334 291.069 19.2542C290.92 19.0263 290.764 18.8037 290.613 18.5758C290.554 18.4873 290.511 18.4202 290.472 18.3612C290.452 18.3344 290.426 18.3022 290.385 18.2486C289.594 17.1948 288.721 16.2079 287.797 15.2828C287.387 14.8752 286.965 14.4783 286.534 14.0949C286.396 13.9742 286.258 13.8562 286.117 13.7382C286.04 13.6766 285.769 13.4567 285.695 13.3977C284.699 12.6415 283.656 11.955 282.576 11.3382C282.095 11.0647 281.606 10.8046 281.109 10.5606C280.963 10.4882 280.817 10.4211 280.668 10.3514C280.579 10.3112 280.284 10.1798 280.192 10.1423C279.071 9.6864 277.924 9.30561 276.756 8.99992C276.236 8.86316 275.712 8.74249 275.181 8.63791C274.89 8.57892 274.595 8.52797 274.303 8.47702C274.242 8.46629 274.201 8.45825 274.173 8.45289C274.145 8.4502 274.119 8.44752 274.088 8.44216C271.963 8.21691 269.853 8.20618 267.731 8.44216C267.616 8.45825 267.329 8.49847 267.173 8.52797C266.952 8.56551 266.73 8.60841 266.507 8.65132C265.954 8.76394 265.401 8.89266 264.853 9.03746C263.862 9.29757 262.881 9.61132 261.916 9.97065C261.593 10.0913 261.276 10.2281 260.953 10.3514C260.907 10.3675 260.805 10.4104 260.725 10.4453C260.259 10.6598 259.796 10.8824 259.34 11.1184C258.398 11.6037 257.476 12.1347 256.58 12.7058C255.945 13.1107 255.328 13.5398 254.721 13.9823C254.12 14.2397 253.541 14.5561 252.996 14.9503C252.348 15.4169 251.81 15.9854 251.308 16.5834C250.917 16.8891 250.55 17.2189 250.22 17.5755C250.02 17.7713 249.831 17.9751 249.644 18.1869C249.416 18.4122 249.206 18.6562 249.012 18.9163C248.141 19.466 247.345 20.1686 246.666 20.8926C244.551 23.1424 242.969 25.9608 241.727 28.8193C240.329 32.0318 239.272 35.432 238.783 38.9341C238.458 41.2671 238.304 43.7743 238.801 46.1127C238.711 47.1424 238.803 48.2123 239.093 49.1777C239.474 52.0148 240.357 54.6829 241.955 57.2063C242.142 57.5012 242.337 57.7908 242.536 58.0751C242.585 58.1314 242.849 58.4746 242.905 58.5443C243.287 59.0136 243.683 59.4668 244.096 59.9066C244.551 60.3893 245.025 60.8532 245.512 61.2983C245.647 61.4217 246.333 62.0116 246.333 62.0223C248.264 63.5803 250.415 64.8514 252.589 65.983C257.461 68.5224 262.953 70.2842 268.43 71.81C279.263 74.8294 290.882 76.9988 300.532 83.3112C305.131 86.3226 309.235 90.471 311.542 95.6759C313.856 100.902 314.827 106.788 314.187 112.524C313.524 118.466 311.455 124.004 307.604 128.49C304.086 132.59 299.224 135.282 293.98 135.808C282.125 136.996 273.443 125.892 265.204 118.815C263.437 117.297 261.33 115.723 259.007 114.487C258.644 114.294 258.278 114.106 257.904 113.937C257.837 113.905 257.791 113.884 257.761 113.868C257.697 113.846 257.615 113.819 257.515 113.782C256.944 113.583 256.378 113.374 255.794 113.213C255.29 113.071 254.783 112.967 254.268 112.87C254.621 112.945 254.074 112.881 253.682 112.846C253.649 112.867 253.615 112.889 253.582 112.91C252.076 112.937 250.292 113.626 249.309 114.085C248.215 114.592 246.17 115.737 245.222 117.131C245.209 117.136 245.199 117.142 245.186 117.147C244.907 117.603 244.623 118.051 244.382 118.533C244.316 118.662 244.257 118.796 244.195 118.928C244.147 119.04 244.062 119.241 244.034 119.335C243.875 119.85 243.719 120.36 243.604 120.888C243.604 120.896 243.548 121.21 243.509 121.421C243.489 121.639 243.448 122.03 243.445 122.03C243.358 123.556 243.458 124.476 243.714 125.607C244.021 126.978 244.395 128.056 244.825 128.992C247.099 133.947 250.187 137.607 253.884 141.53C257.561 145.429 260.813 148.205 265.078 151.037C267.137 152.404 269.27 153.651 271.461 154.764C272.091 155.083 272.724 155.391 273.364 155.689C273.627 155.812 273.891 155.933 274.155 156.051C274.211 156.073 274.28 156.102 274.367 156.137C275.422 156.574 276.477 156.998 277.55 157.381C279.793 158.183 282.082 158.845 284.402 159.36C285.613 159.628 286.834 159.854 288.06 160.044C288.117 160.052 288.165 160.06 288.209 160.065C288.201 160.065 288.193 160.065 288.183 160.06C288.209 160.063 288.237 160.068 288.263 160.071C288.588 160.114 288.918 160.154 289.246 160.189C289.735 160.242 290.226 160.288 290.721 160.328C293.053 160.519 295.398 160.553 297.739 160.427C298.97 160.36 300.199 160.24 301.426 160.095C301.474 160.087 301.518 160.084 301.559 160.079C301.59 160.073 301.63 160.065 301.692 160.057C301.997 160.009 302.304 159.961 302.609 159.907C303.105 159.821 303.602 159.728 304.096 159.628C305.407 159.36 306.708 159.033 307.98 158.607C309.383 158.137 309.814 157.952 310.973 157.293C313.088 156.089 314.619 154.614 315.784 152.723C317.246 150.35 317.848 148.655 318.596 145.883C319.328 143.166 319.814 140.38 320.181 137.586C321.008 131.292 321.346 124.594 321.256 118.12C321.21 114.811 321.049 111.502 320.77 108.207Z" fill="#0D7601"/>
<path d="M160.214 121.869C160.063 121.303 159.003 118.643 158.798 118.013C158.11 115.892 156.642 112.993 155.168 110.671C154.4 109.459 154.144 109.1 153.183 107.847C152.466 106.914 151.721 106.008 150.958 105.123C149.079 102.951 147.113 100.87 145.082 98.8776C141.19 95.0537 137.327 91.8385 132.831 88.7387C128.452 85.7219 123.787 82.976 119.053 81.0775C113.95 79.0314 108.906 77.9508 103.893 79.3666C101.875 79.9351 99.7298 78.6507 99.1691 76.3821C98.5725 73.9633 99.9346 72.0031 101.852 71.1262C107.063 68.7396 112.586 67.4176 117.898 65.3528C120.29 64.425 122.397 63.4409 124.655 61.9204C125.101 61.6201 125.541 61.3064 125.971 60.9792C126.263 60.7566 126.547 60.526 126.834 60.2954C126.865 60.2713 126.939 60.2069 127.006 60.1506C127.817 59.4212 128.596 58.6489 129.336 57.8311C130.078 57.0105 130.775 56.1417 131.43 55.2353C131.44 55.2219 131.448 55.2112 131.458 55.2004C131.474 55.1763 131.492 55.1495 131.512 55.1146C131.622 54.9457 131.735 54.7794 131.842 54.6078C132.132 54.152 132.408 53.688 132.675 53.2161C133.279 52.1381 133.811 51.0172 134.288 49.8642C134.303 49.8293 134.349 49.7059 134.385 49.604C134.467 49.3707 134.546 49.1348 134.623 48.8988C134.715 48.6172 134.8 48.333 134.884 48.0461C128.898 47.7672 125.846 41.4789 126.307 35.2684C126.622 30.9994 127.915 26.8644 129.863 23.0808C129.494 22.4989 129.121 21.925 128.734 21.3619C128.67 21.2761 128.263 20.6995 128.263 20.6995C128.094 20.4663 127.925 20.233 127.753 20.0023C127.456 19.6028 127.154 19.2059 126.85 18.8117C126.133 17.8866 125.398 16.9776 124.65 16.0846C123.06 14.1887 121.365 12.2902 119.663 11.054C117.786 9.6864 116.173 9.08305 114.124 9.04819C111.83 9.01065 109.925 9.60863 107.616 10.5338C107.57 10.5525 107.542 10.5633 107.524 10.5686C107.501 10.582 107.478 10.5928 107.449 10.6089C107.245 10.7161 107.04 10.818 106.835 10.928C106.425 11.1478 106.023 11.3811 105.624 11.6278C105.155 11.9148 104.697 12.2232 104.244 12.5423C101.212 14.1244 98.7568 16.5485 96.8801 19.6377C95.9506 21.1715 95.1697 22.7885 94.4451 24.435C93.6002 25.4969 92.8909 26.7384 92.3891 28.0524C92.0972 28.519 91.8463 28.999 91.6466 29.5031C91.6261 29.5192 91.6082 29.538 91.5877 29.5567C89.9772 33.2036 88.8045 36.8827 87.8802 41.133C87.4526 52.4626 87.1249 63.8056 87.404 75.1459C87.532 80.3052 87.7829 85.4591 88.2208 90.597C88.336 91.9485 88.464 93.2946 88.6048 94.6408C88.6637 95.1932 88.7252 95.7456 88.7866 96.2953C88.8173 96.5554 88.8481 96.8155 88.8788 97.0756C88.8916 97.1802 88.93 97.4805 88.9325 97.51C89.2577 99.9905 89.6187 102.463 90.0489 104.925C90.8887 109.719 91.9641 114.468 93.3544 119.105C93.7154 120.311 94.0969 121.507 94.504 122.695C94.6679 123.181 94.8368 123.663 95.0109 124.146C95.0468 124.24 95.4385 125.294 95.4385 125.299C96.2553 127.407 97.131 129.514 98.1551 131.509C99.2919 133.722 100.081 134.733 101.747 136.508C101.816 136.58 101.863 136.631 101.893 136.666C101.909 136.674 101.932 136.69 101.978 136.725C102.17 136.875 102.364 137.023 102.564 137.16C102.731 137.275 103.291 137.586 103.235 137.586C103.399 137.648 103.56 137.699 103.729 137.747C103.755 137.747 103.898 137.768 104.011 137.784C104.003 137.79 103.995 137.792 103.985 137.798C103.995 137.795 104.006 137.79 104.016 137.784C104.029 137.787 104.041 137.79 104.054 137.79C104.09 137.795 104.123 137.795 104.154 137.795C104.17 137.782 104.221 137.744 104.282 137.704C104.246 137.704 104.187 137.715 104.1 137.747C104.198 137.707 104.305 137.664 104.379 137.637C104.418 137.61 104.456 137.583 104.487 137.562C104.502 137.538 104.533 137.5 104.587 137.438C104.659 137.347 104.735 137.264 104.807 137.176C104.707 137.253 105.194 136.476 105.306 136.267C105.34 136.208 105.365 136.159 105.388 136.114C105.473 135.872 105.55 135.623 105.619 135.376C106.333 132.904 106.348 131.633 106.402 128.954C106.604 118.989 104.333 109.207 99.2254 100.926C97.1028 97.4859 101.379 92.6028 104.479 95.0806C108.614 98.3815 112.885 101.463 117.297 104.284C129.492 112.076 142.57 117.726 156.363 120.909L160.214 121.869ZM103.629 34.1127C103.926 32.6834 104.198 31.2434 104.674 29.8705C105.34 27.9478 106.279 26.4113 107.465 24.8345C109.513 22.1101 112.565 20.4582 115.755 21.5201C121.503 23.4294 123.421 31.1174 122.51 36.982C121.662 42.4202 118.088 48.2418 113.715 50.9234C111.167 52.4867 107.593 53.0203 105.327 50.564C104.111 49.2474 103.501 47.2684 103.184 45.4557C102.585 42.0313 102.165 37.4244 103.629 34.1127Z" fill="#0D7601"/>
<path d="M326.423 94.0106C324.039 83.086 319.064 71.7778 309.189 66.3048C304.129 63.4999 298.591 62.4112 292.974 61.663C291.676 61.4887 290.378 61.3332 289.077 61.183C291.66 60.5153 293.962 58.9466 295.847 56.9488C303.149 49.2099 304.554 36.8961 302.373 26.6848C299.997 15.5697 292.464 6.62138 282.402 2.45424C273.197 -1.35893 262.812 -0.0396095 254.225 4.8435C250.755 6.81445 247.626 9.31366 244.866 12.2017C241.031 8.01579 236.243 4.71211 231.058 2.54542C224.124 -0.356027 216.118 -0.565193 209.016 1.84553C201.601 4.36351 195.497 9.32707 190.785 15.5992C189.677 17.0768 188.663 18.6053 187.728 20.1766C188.023 19.4955 188.304 18.8117 188.578 18.1199C189.764 15.1139 191.29 11.7619 191.08 8.38048C190.89 5.31814 189.495 2.45156 186.919 1.151C184.341 -0.149551 181.504 0.204416 178.749 0.322404C175.653 0.4538 172.561 0.684411 169.475 1.01424C160.386 1.9796 151.007 3.34451 142.965 8.53064C139.979 10.456 137.124 12.9794 134.643 15.9291C132.242 12.4082 129.535 9.04014 126.555 6.22183C124.343 4.12753 121.957 2.37112 119.171 1.37358C116.183 0.300955 112.99 0.349219 109.928 0.941843C106.428 1.6176 103.189 3.2024 100.229 5.3101C98.9668 2.45961 96.729 0.810444 93.9356 0.276814C91.0295 -0.278268 87.9161 0.0193877 85.0663 1.00888C79.0059 3.11122 74.1104 8.03992 69.4351 13.0437C68.3111 14.2477 67.1973 15.4571 66.063 16.645C64.9928 17.7632 64.2119 18.7527 62.9854 19.3668C62.9521 19.3775 62.8523 19.4124 62.7703 19.4419C62.6449 19.4365 62.3146 19.4473 62.1456 19.4526C62.0278 19.4044 61.6617 19.2917 61.6002 19.2676C61.2751 19.1389 60.9576 18.986 60.6401 18.8278C59.2856 18.1494 58.2871 17.4897 56.9864 16.5431C52.0755 12.9767 48.2093 7.64574 43.2524 4.18117C40.4948 2.25581 36.9999 1.00084 33.7558 1.40307C32.7547 0.738045 31.6409 0.317043 30.4222 0.215144C25.2706 -0.213905 20.5313 4.47882 17.1234 9.08841C10.4997 18.0555 6.45935 30.1225 4.88983 42.4094C3.03097 56.9676 4.28301 71.7751 6.81269 86.0571C9.09913 98.9715 12.292 112.06 17.9837 123.103C23.3017 133.419 30.5425 144.566 40.1133 145.429C50.2116 146.339 80.2093 151.814 83.3688 134.891C84.3674 129.533 84.7258 122.738 82.6903 116.983C81.1796 112.714 77.9535 110.269 74.6199 108.451C74.8247 96.1693 74.5226 83.8904 73.7391 71.6598C73.2834 64.5376 72.4717 57.941 73.4165 50.6767C73.734 48.2552 74.5661 45.2706 75.9539 42.9967C75.9539 42.9967 76.2099 42.6105 76.3302 42.4175C76.4634 42.2459 76.7143 41.9107 76.7143 41.9107C77.1009 41.4333 77.508 40.9855 77.9305 40.5565C78.2787 40.2052 78.6372 39.8754 79.0007 39.5536C79.0724 39.5026 79.477 39.1674 79.5205 39.1352C79.7842 38.9288 80.0505 38.7277 80.3168 38.5292C80.409 38.4622 80.5012 38.3925 80.5908 38.3254C80.5114 38.6794 80.4346 39.0333 80.3603 39.3873C80.3219 39.567 80.2989 39.7493 80.281 39.9317C80.2528 40.1247 80.2298 40.3205 80.2221 40.5243C79.3695 62.8777 78.7882 85.5905 82.7236 107.652C83.6556 112.881 84.8718 118.051 86.472 123.076C88.0415 127.999 89.8338 133.194 92.4864 137.538C95.0929 141.809 99.2689 146.676 104.349 146.322C110.079 145.923 112.97 139.911 113.687 134.231C114.66 126.522 113.999 118.297 111.879 110.647C123.311 118.163 135.65 123.996 148.511 127.664C145.894 131.129 143.943 135.282 142.478 139.434C142.043 140.67 142.483 142.182 143.167 143.169C143.966 144.325 144.926 144.676 146.183 144.856C158.473 146.633 170.878 146.314 183.107 144.099C188.107 143.193 192.957 141.801 197.578 139.447C199.849 138.288 201.992 136.857 203.982 135.175C206.179 133.32 208.734 131.182 210.045 128.404C211.538 125.24 211.412 121.282 209.735 118.228C209.656 118.083 209.574 117.941 209.487 117.801C211.975 119.056 214.638 119.976 217.434 120.478C223.623 121.593 229.903 121.062 236.018 119.743C235.751 121.215 235.667 122.735 235.797 124.277C236.335 130.759 239.553 136.154 243.32 141.136C246.618 145.499 250.379 149.481 254.532 152.951C262.671 159.754 272.132 164.849 282.358 167.118C287.274 168.209 292.346 168.724 297.367 168.491C302.821 168.236 308.387 167.335 313.396 164.986C325.099 159.497 327.224 145.169 328.338 133.258C329.549 120.284 329.203 106.753 326.423 94.0106ZM177.901 38.6177C177.863 38.1109 177.848 37.588 177.886 37.0785C177.901 37.0785 177.999 36.518 178.024 36.4081C178.053 36.2821 178.065 36.215 178.068 36.1829C178.078 36.1587 178.086 36.1373 178.099 36.1051C178.229 35.7833 178.406 35.4803 178.585 35.1907C178.475 35.3489 178.242 35.6144 178.708 35.0271C179.123 34.5042 179.55 33.992 179.96 33.4638C181.553 31.4204 183.004 29.2484 184.315 26.9798C181.906 32.7612 180.467 38.9341 179.876 45.2143C179.453 44.1363 179.166 43.4445 178.841 42.4577C178.618 41.7819 178.414 41.0955 178.242 40.4009C178.168 40.0899 178.096 39.7788 178.035 39.4651C178.037 39.4678 177.889 38.3469 177.901 38.6177ZM183.406 8.59232C183.406 8.60573 183.406 8.61646 183.406 8.62987V8.654C182.979 7.98361 183.289 8.36707 183.406 8.59232ZM29.9562 62.6364C30.4632 54.2887 31.6281 45.7935 33.3385 37.462C37.1177 42.8385 41.8851 47.1316 47.2005 50.32C48.3245 50.9931 49.4614 51.634 50.6059 52.2481C49.9402 67.8869 48.1812 83.4882 48.2733 99.1538C48.2836 100.685 48.3092 102.219 48.3501 103.753C46.0944 103.468 44.3252 103.206 43.4495 102.964C41.4652 102.415 39.527 101.712 37.6272 100.776C37.5555 100.741 37.5043 100.717 37.4607 100.696C37.4198 100.669 37.3711 100.637 37.3071 100.597C37.1305 100.484 36.9538 100.379 36.7771 100.264C36.3444 99.9824 35.9194 99.6794 35.5072 99.3496C35.1077 99.0305 34.7185 98.6872 34.3422 98.3252C34.3242 98.3038 34.3063 98.285 34.2858 98.2609C34.0733 98.0061 33.8531 97.7648 33.6457 97.502C32.3194 95.818 31.5078 93.957 30.9292 91.2111C30.2481 87.9878 30.1149 85.6656 29.9152 82.3592C29.5184 75.7975 29.5568 69.1955 29.9562 62.6364ZM75.1064 118.533C75.132 118.558 75.1601 118.579 75.1832 118.598C75.1883 118.603 75.1909 118.609 75.196 118.614C75.3727 118.802 75.5468 118.995 75.7183 119.196C76.0537 119.593 76.3763 120.008 76.6785 120.451C76.8014 120.625 76.914 120.807 77.0318 120.984C77.06 121.027 77.0805 121.059 77.1009 121.089C77.1214 121.135 77.1445 121.188 77.1752 121.255C77.357 121.663 77.5592 122.049 77.7308 122.465C77.8358 122.727 77.9356 122.993 78.0278 123.264C78.038 123.309 78.0483 123.363 78.0611 123.422C78.184 124.023 78.3274 124.604 78.4247 125.213C78.4323 125.27 78.44 125.318 78.4477 125.363C78.4707 125.709 78.4835 126.053 78.4861 126.398C78.4887 126.752 78.4682 127.101 78.4656 127.452C78.4656 127.519 78.4426 127.763 78.4349 127.852C78.3555 128.458 78.2429 129.056 78.1072 129.64C78.0432 129.911 77.9715 130.179 77.9023 130.445C77.8691 130.568 77.846 130.657 77.8306 130.724C77.8025 130.783 77.7666 130.871 77.7129 131.003C76.7834 133.303 75.8028 134.961 74.3639 136.226C73.926 136.615 73.4703 136.969 73.0017 137.294C72.7303 137.481 72.5588 137.597 72.4103 137.69C72.418 137.661 72.4256 137.631 72.4333 137.602C72.3514 137.656 72.2694 137.707 72.1824 137.755C70.1725 138.905 67.8118 139.224 65.5586 139.366C62.1098 139.586 58.6507 139.597 55.1941 139.597C50.0682 139.597 44.1357 139.643 39.76 136.422C39.7267 136.398 39.6985 136.374 39.6704 136.35C39.655 136.342 39.6396 136.336 39.6243 136.328C38.0445 135.561 36.37 134.465 34.5956 133.033C32.6574 131.464 31.4361 130.249 29.8794 128.415C23.2991 120.673 19.1129 110.159 16.2785 99.2504C13.0626 86.8696 10.8095 73.722 10.4126 60.7164C10.0439 48.6521 11.4265 36.7272 15.5898 26.2557C17.6304 21.1232 19.7811 17.235 22.9919 13.344C23.6499 12.5476 24.4488 11.7056 25.2758 10.9709C24.5281 15.9827 25.9594 21.6998 27.47 26.0037C27.8157 26.9905 28.1895 27.9532 28.5889 28.8944C24.1133 47.3489 22.1137 67.0502 23.8112 86.2153C24.3694 92.5116 25.4883 98.765 29.0268 103.356C31.9584 107.158 35.8861 109.253 39.8086 110.545C41.1016 110.969 44.6171 111.419 48.7752 111.886C48.7777 111.921 48.7803 111.956 48.7828 111.99C52.6107 111.51 56.377 112.513 60.1536 113.117C61.4492 113.154 62.7499 113.283 64.0454 113.522C64.5985 113.624 65.1413 113.741 65.6764 113.878C65.7097 113.884 65.7455 113.889 65.7788 113.894C67.6428 114.125 69.4658 114.541 71.2069 115.23C72.9223 115.906 74.1949 117.083 75.1064 118.533ZM84.9742 25.049C83.0334 26.6553 81.0337 28.1435 79.0468 29.5728C77.0779 30.9914 75.0859 32.4072 73.3141 34.1958C71.1966 36.3357 69.5631 39.0092 68.3776 42.0179C66.0528 47.9173 65.8403 54.75 66.0912 61.1294C66.3728 68.2704 67.036 75.2799 67.3253 82.3271C67.6274 89.755 67.7426 97.1963 67.671 104.64C67.6658 105.15 67.6582 105.662 67.653 106.171C64.2375 105.598 59.6646 105.061 55.3733 104.573C54.9099 90.5782 56.1901 76.5724 57.0734 62.6069C57.3064 58.9064 57.5113 55.2058 57.6547 51.4999C57.6572 51.465 57.6547 51.4302 57.6547 51.3953C57.7161 51.2398 57.7699 51.0789 57.8108 50.9126C58.3818 48.5636 57.4703 46.3728 55.655 45.4905C54.7614 45.0561 53.8729 44.611 52.9922 44.1444C52.5441 43.9057 52.1011 43.6644 51.6582 43.415C51.479 43.3158 50.7544 42.8867 50.6852 42.8519C48.9595 41.79 47.2722 40.645 45.6591 39.3471C44.8475 38.6955 44.0538 38.009 43.2831 37.285C42.9144 36.939 42.5508 36.5851 42.1924 36.2204C42.154 36.1828 41.7597 35.7565 41.7238 35.7216C41.5523 35.5339 41.3833 35.3462 41.2143 35.1558C39.6192 33.319 38.2237 31.2971 36.9179 29.1491C36.8718 29.074 36.836 29.0151 36.8053 28.9668C36.6542 28.6906 36.5083 28.4117 36.3623 28.1328C36.1677 27.7547 35.9783 27.3713 35.7939 26.9851C35.7939 26.9824 35.7965 26.9771 35.7965 26.9744C33.7328 23.1478 30.837 19.82 31.6768 15.0576C31.7536 14.6366 31.8586 14.1807 31.9968 13.7329C32.0199 13.3494 32.0941 12.9686 32.2145 12.5959C32.2324 12.4055 32.2529 12.2151 32.281 12.0274C32.2938 11.9818 32.3092 11.9335 32.3297 11.8719C32.3297 11.8719 32.4398 11.5179 32.4961 11.298C32.5115 11.2685 32.5243 11.239 32.5396 11.2068C32.5806 11.2953 32.6216 11.3865 32.66 11.4777C32.6677 11.5018 32.6805 11.5367 32.6958 11.5769C33.6073 10.1584 35.2383 9.41288 36.8232 10.0806C37.3404 10.2978 37.7936 10.6089 38.2084 10.9709C38.4721 10.9869 38.7435 11.0379 39.0277 11.1478C39.6985 11.4026 40.2516 11.8692 40.7176 12.4404C41.7341 13.2636 42.7096 14.1592 43.6646 15.0844C45.7283 17.0741 47.6998 19.2113 49.8198 21.1152C52.2291 23.2819 54.8382 25.0839 57.5702 26.5829C60.5351 28.2106 63.6486 28.6718 66.6417 26.6499C69.2046 24.9176 71.3784 22.2709 73.5701 19.9219C75.6236 17.7177 77.6873 15.5134 79.8943 13.5425C83.6556 10.1825 88.4077 7.82808 93.1419 8.78271C92.9217 8.75053 93.5566 8.94629 93.6693 8.98115H93.6719C93.6719 8.98115 93.6591 8.9597 93.6642 8.94897C93.6872 8.96506 93.7077 8.98383 93.7308 8.99992C93.764 9.01064 93.7922 9.02137 93.8152 9.02942C93.8229 9.03746 93.8306 9.0455 93.8383 9.05891C93.8204 9.05355 93.8024 9.04819 93.782 9.04014C93.8178 9.06696 93.8537 9.09646 93.8895 9.12327C93.91 9.15009 93.9305 9.1769 93.951 9.20372C93.9279 9.1474 93.9074 9.1045 93.8921 9.06964C93.8844 9.06696 93.869 9.06428 93.8485 9.06159C93.8409 9.05087 93.8332 9.04283 93.8255 9.0321C93.8588 9.04283 93.8767 9.05355 93.8895 9.05891C93.8716 9.02137 93.8613 8.99724 93.8588 8.98651C93.8639 8.99724 93.8767 9.02137 93.8946 9.06159C93.8921 9.06159 93.8921 9.05891 93.8895 9.05891C93.8895 9.06159 93.8895 9.06427 93.8895 9.06964C93.8921 9.06964 93.8946 9.06695 93.8946 9.06695C93.9253 9.13399 93.9689 9.23589 94.0329 9.37802C94.0585 9.41019 94.0739 9.43433 94.0918 9.46114C94.1712 9.80438 94.2121 10.153 94.2787 10.5016C94.2812 10.515 94.2838 10.5364 94.2864 10.5606C90.4765 14.6714 87.3707 19.6698 84.9716 25.049H84.9742ZM104.167 137.795C104.19 137.784 104.236 137.757 104.318 137.712C104.321 137.712 104.323 137.712 104.326 137.709C104.359 137.728 104.295 137.784 104.167 137.795ZM117.297 104.284C112.885 101.463 108.614 98.3815 104.479 95.0806C101.379 92.6028 97.1028 97.4859 99.2254 100.926C104.333 109.207 106.604 118.989 106.402 128.954C106.348 131.633 106.333 132.904 105.619 135.376C105.55 135.623 105.473 135.872 105.388 136.114C105.365 136.159 105.34 136.208 105.306 136.267C105.194 136.476 104.707 137.253 104.807 137.176C104.735 137.264 104.659 137.347 104.587 137.438C104.533 137.5 104.502 137.538 104.487 137.562C104.456 137.583 104.418 137.61 104.379 137.637C104.305 137.664 104.198 137.707 104.1 137.747C104.187 137.715 104.246 137.704 104.282 137.704C104.221 137.744 104.17 137.782 104.154 137.795C104.123 137.795 104.09 137.795 104.054 137.79C104.041 137.79 104.029 137.787 104.016 137.784C104.006 137.79 103.995 137.795 103.985 137.798C103.975 137.803 103.967 137.806 103.96 137.811C103.96 137.811 103.978 137.8 103.985 137.798C103.995 137.792 104.003 137.79 104.011 137.784C103.898 137.768 103.755 137.747 103.729 137.747C103.56 137.699 103.399 137.648 103.235 137.586C103.291 137.586 102.731 137.275 102.564 137.16C102.364 137.023 102.17 136.875 101.978 136.725C101.932 136.69 101.909 136.674 101.893 136.666C101.863 136.631 101.816 136.58 101.747 136.508C100.081 134.733 99.2919 133.722 98.1551 131.509C97.131 129.514 96.2553 127.407 95.4385 125.299C95.4385 125.294 95.0468 124.24 95.0109 124.146C94.8368 123.663 94.6679 123.181 94.504 122.695C94.0969 121.507 93.7154 120.311 93.3544 119.105C91.9641 114.468 90.8887 109.719 90.0489 104.925C89.6187 102.463 89.2577 99.9905 88.9325 97.51C88.93 97.4805 88.8916 97.1802 88.8788 97.0756C88.8481 96.8155 88.8173 96.5554 88.7866 96.2953C88.7252 95.7456 88.6637 95.1932 88.6048 94.6408C88.464 93.2946 88.336 91.9485 88.2208 90.597C87.7829 85.4591 87.532 80.3052 87.404 75.1459C87.1249 63.8056 87.4526 52.4626 87.8802 41.133C88.8045 36.8827 89.9772 33.2036 91.5877 29.5567C91.6082 29.538 91.6261 29.5192 91.6466 29.5031C91.8463 28.999 92.0972 28.519 92.3891 28.0524C92.8909 26.7384 93.6002 25.4969 94.4451 24.435C95.1697 22.7885 95.9506 21.1715 96.8801 19.6377C98.7568 16.5485 101.212 14.1244 104.244 12.5423C104.697 12.2232 105.155 11.9148 105.624 11.6278C106.023 11.3811 106.425 11.1478 106.835 10.928C107.04 10.818 107.245 10.7161 107.449 10.6089C107.478 10.5928 107.501 10.582 107.524 10.5686C107.542 10.5633 107.57 10.5525 107.616 10.5338C109.925 9.60863 111.83 9.01065 114.124 9.04819C116.173 9.08305 117.786 9.6864 119.663 11.054C121.365 12.2902 123.06 14.1887 124.65 16.0846C125.398 16.9776 126.133 17.8866 126.85 18.8117C127.154 19.2059 127.456 19.6028 127.753 20.0023C127.925 20.233 128.094 20.4663 128.263 20.6995C128.263 20.6995 128.67 21.2761 128.734 21.3619C129.121 21.925 129.494 22.4989 129.863 23.0808C127.915 26.8644 126.622 30.9994 126.307 35.2684C125.846 41.4789 128.898 47.7672 134.884 48.0461C134.8 48.333 134.715 48.6172 134.623 48.8988C134.546 49.1348 134.467 49.3707 134.385 49.604C134.349 49.7059 134.303 49.8293 134.288 49.8642C133.811 51.0172 133.279 52.1381 132.675 53.2161C132.408 53.688 132.132 54.152 131.842 54.6078C131.735 54.7794 131.622 54.9457 131.512 55.1146C131.492 55.1495 131.474 55.1763 131.458 55.2004C131.448 55.2112 131.44 55.2219 131.43 55.2353C130.775 56.1417 130.078 57.0105 129.336 57.8311C128.596 58.6489 127.817 59.4212 127.006 60.1506C126.939 60.2069 126.865 60.2713 126.834 60.2954C126.547 60.526 126.263 60.7566 125.971 60.9792C125.541 61.3064 125.101 61.6201 124.655 61.9204C122.397 63.4409 120.29 64.425 117.898 65.3528C112.586 67.4176 107.063 68.7396 101.852 71.1262C99.9346 72.0031 98.5725 73.9633 99.1691 76.3821C99.7298 78.6507 101.875 79.9351 103.893 79.3666C108.906 77.9508 113.95 79.0314 119.053 81.0775C123.787 82.976 128.452 85.7219 132.831 88.7387C137.327 91.8385 141.19 95.0537 145.082 98.8776C147.113 100.87 149.079 102.951 150.958 105.123C151.721 106.008 152.466 106.914 153.183 107.847C154.144 109.1 154.4 109.459 155.168 110.671C156.642 112.993 158.11 115.892 158.798 118.013C159.003 118.643 160.063 121.303 160.214 121.869L156.363 120.909C142.57 117.726 129.492 112.076 117.297 104.284ZM142.914 47.1451C144.893 47.1451 146.864 47.3596 148.841 47.4561C149.942 47.5124 151.035 47.499 152.126 47.432C152.313 61.4458 155.214 75.2558 157.631 88.9559C158.504 93.9114 159.3 98.7141 159.876 103.568C157.592 100.374 155.004 97.4189 152.372 94.7025C143.748 85.8077 133.806 78.4442 122.866 73.5852C122.394 73.376 121.921 73.1749 121.445 72.9818C125.703 71.1852 129.669 68.8576 133.166 65.5218C138.261 60.6601 141.638 54.1841 142.914 47.1451ZM203.467 123.677C203.454 123.634 203.444 123.583 203.426 123.513C203.436 123.604 203.416 123.883 203.421 123.931C203.398 124.047 203.367 124.165 203.337 124.277C203.337 124.178 203.042 124.731 203.162 124.596C201.811 126.514 199.972 127.97 198.369 129.158C197.45 129.842 196.498 130.472 195.522 131.048C195.043 131.33 194.557 131.601 194.068 131.858C193.387 132.215 193.115 132.346 192.775 132.488C190.68 133.368 188.56 134.108 186.382 134.682C176.104 137.385 165.222 137.94 154.656 137.202C153.765 137.141 152.876 137.066 151.988 136.98C152.233 136.516 152.487 136.057 152.753 135.607C152.971 135.24 153.201 134.883 153.424 134.518C153.511 134.373 153.555 134.301 153.573 134.263C153.606 134.223 153.662 134.151 153.757 134.019C154.609 132.869 155.518 131.78 156.532 130.804C156.632 130.708 156.732 130.619 156.832 130.525C156.832 130.536 157.318 130.12 157.375 130.078C157.467 130.008 157.559 129.941 157.651 129.874C159.382 130.22 161.121 130.525 162.864 130.794C165.371 131.18 167.619 129.726 167.726 126.675C167.775 125.272 167.726 123.899 167.593 122.55C168.469 120.003 168.492 117.018 168.402 114.382C167.872 98.5934 164.155 83.2468 161.722 67.7555C160.422 59.4775 159.561 51.1969 159.853 42.6105C159.874 42.0018 159.746 41.4065 159.515 40.8541C159.269 40.2427 158.916 39.7359 158.481 39.3471C157.792 38.6847 156.916 38.2798 156.013 38.3254C155.798 38.3361 155.588 38.3683 155.385 38.4112C155.255 38.4273 155.122 38.4488 154.991 38.4783C153.759 38.7464 152.431 38.8832 151.045 38.9154C149.238 39.1755 147.412 39.3149 145.576 39.4463C142.898 39.6367 140.274 40.2964 137.601 39.9531C137.091 40.0363 136.577 40.0765 136.044 40.0309C135.601 39.9933 135.276 39.7654 135.074 39.4597C135.02 39.4597 134.966 39.4597 134.917 39.4678C134.825 39.4302 134.723 39.398 134.62 39.3739C134.577 39.3095 134.495 39.1916 134.431 39.1058C134.375 38.9878 134.305 38.843 134.267 38.7652C134.208 38.5775 134.157 38.3871 134.113 38.194C134.103 38.1404 134.052 37.9098 134.016 37.7462C133.998 37.5773 133.965 37.3064 133.962 37.2474C133.932 36.6602 133.939 36.0756 133.973 35.491C133.978 35.4401 134.006 35.1236 134.021 34.944C134.049 34.7616 134.098 34.4479 134.106 34.3969C134.211 33.8016 134.346 33.217 134.495 32.6325C134.505 32.6673 134.515 32.6995 134.526 32.7344C134.554 32.6137 134.582 32.4957 134.61 32.3804C135.527 28.822 137.25 25.1429 139.713 22.4774C139.757 22.4291 139.8 22.3889 139.846 22.3514C140.256 21.8312 140.678 21.3217 141.116 20.8309C141.836 20.0238 142.588 19.2596 143.377 18.5355C143.533 18.3934 143.692 18.2513 143.851 18.1118C143.887 18.0823 143.93 18.0502 143.981 18.0099C144.404 17.6801 144.821 17.3422 145.254 17.0258C146.844 15.8567 148.526 14.8645 150.267 14.0037C150.29 13.993 150.303 13.9849 150.321 13.9769C150.352 13.9635 150.377 13.9528 150.416 13.9367C150.618 13.8482 150.823 13.757 151.027 13.6685C151.435 13.4942 151.844 13.328 152.256 13.1697C153.181 12.8131 154.113 12.494 155.055 12.2044C158.811 11.054 162.657 10.4185 166.472 9.9331C172.033 9.22517 177.651 8.78272 183.253 8.77199H183.368C183.381 8.77199 183.399 8.78271 183.414 8.78808C183.419 8.96506 183.419 9.14472 183.406 9.32439C183.388 9.40484 183.36 9.52014 183.322 9.67567C183.245 9.98405 183.166 10.2897 183.074 10.5954C182.889 11.2202 182.669 11.8343 182.449 12.4457C182.029 13.6176 181.56 14.7867 180.994 16.09C178.895 20.9221 176.447 24.9713 173.521 28.6584C171.531 31.1683 170.312 33.9196 170.195 37.3198C170.095 40.232 170.85 43.1683 171.818 45.8391C172.829 48.6306 173.72 50.7115 174.652 53.3207C175.582 55.9298 176.452 58.5658 177.264 61.2205C178.967 66.7848 180.421 72.4429 181.647 78.1599C182.894 83.9789 183.908 89.8622 184.694 95.7804C185.329 100.543 185.816 105.673 186.932 110.559C187.887 114.734 189.311 119.4 192.47 122.14C194.47 123.875 196.866 124.449 199.353 123.816C200.4 123.548 201.362 123.017 202.371 122.626C202.568 122.548 202.768 122.483 202.968 122.416C203.004 122.451 203.047 122.497 203.104 122.55C203.134 122.583 203.221 122.762 203.27 122.856C203.321 123.033 203.365 123.215 203.408 123.387C203.421 123.433 203.449 123.559 203.47 123.661C203.485 123.725 203.495 123.779 203.498 123.8C203.493 123.787 203.485 123.746 203.467 123.677ZM196.626 114.758C196.641 114.785 196.659 114.811 196.674 114.838C196.613 114.755 196.551 114.669 196.485 114.592C196.536 114.651 196.58 114.701 196.618 114.747C196.354 114.24 196.073 113.758 195.837 113.232C195.732 112.999 195.635 112.765 195.538 112.529C195.535 112.521 195.532 112.516 195.53 112.508C195.376 112.044 195.22 111.583 195.079 111.114C194.703 109.859 194.393 108.574 194.122 107.284C193.663 105.11 193.315 102.903 193.013 100.693C194.583 103.466 196.334 106.126 198.339 108.622C199.849 110.505 201.531 112.232 203.362 113.758C203.201 113.758 203.037 113.76 202.873 113.776C201.416 113.905 200.169 114.447 198.82 115.015C198.41 115.187 197.996 115.361 197.571 115.482C197.55 115.479 197.44 115.495 197.338 115.509C197.276 115.455 197.197 115.401 197.122 115.358C197.033 115.24 196.897 115.109 196.815 115.018C196.808 115.013 196.805 115.005 196.8 114.999C196.843 115.042 196.823 114.999 196.626 114.758ZM196.777 114.972C196.754 114.948 196.731 114.916 196.703 114.878C196.726 114.911 196.751 114.943 196.777 114.972ZM239.702 111.599C237.695 112.184 235.659 112.674 233.621 113.093C230.124 113.814 226.977 114.208 223.141 114.085C222.276 114.055 221.41 113.996 220.548 113.905C219.733 113.817 219.436 113.766 218.353 113.535C217.506 113.355 216.666 113.138 215.836 112.881C215.419 112.752 215.007 112.613 214.595 112.462C214.418 112.398 214.244 112.331 214.067 112.264C213.988 112.232 213.581 112.063 213.558 112.057C211.924 111.331 210.367 110.406 208.918 109.349C208.829 109.285 208.345 108.907 208.294 108.874C208.03 108.655 207.769 108.435 207.51 108.209C206.867 107.644 206.245 107.048 205.646 106.434C205.078 105.85 204.527 105.244 203.997 104.622C203.728 104.305 203.465 103.986 203.206 103.664C203.055 103.477 202.906 103.289 202.76 103.101C202.74 103.074 202.725 103.053 202.709 103.034C202.691 103.01 202.673 102.983 202.645 102.948C201.588 101.514 200.607 100.023 199.693 98.4888C195.694 91.7742 193.115 85.014 190.783 77.5566C188.248 69.4556 186.512 61.2661 186.369 52.846C186.333 50.7464 186.389 48.6467 186.556 46.5551C186.714 44.552 186.848 43.5223 187.211 41.5191C187.867 37.8991 188.855 34.3379 190.168 30.9082C190.258 30.6749 190.35 30.4443 190.44 30.2137C190.45 30.1896 190.527 30.0019 190.563 29.9134C190.691 29.6077 190.824 29.3047 190.957 29.0016C191.354 28.1087 191.776 27.2265 192.219 26.3576C193.01 24.8157 193.876 23.3114 194.821 21.858C195.266 21.1715 195.73 20.4984 196.211 19.8361C196.28 19.7422 196.352 19.6457 196.421 19.5492C196.472 19.4821 196.585 19.3346 196.61 19.3025C196.895 18.9458 197.179 18.5892 197.473 18.2379C198.515 16.9936 199.627 15.8084 200.812 14.7063C203.101 12.5744 206.076 10.5901 208.903 9.34316C210.106 8.8149 212.034 8.18741 213.583 7.8254C215.545 7.36686 216.236 7.27836 218.241 7.21132C221.82 7.09333 224.263 7.48216 227.717 8.71836C230.136 9.58182 232.989 11.2095 235.449 13.0088C235.616 13.1295 235.777 13.2555 235.943 13.3762C235.954 13.3843 236.012 13.4272 236.069 13.4728C236.184 13.5693 236.599 13.9018 236.694 13.9823C237.329 14.5159 237.946 15.071 238.542 15.6475C239.195 16.2777 239.822 16.9346 240.424 17.6158C237.933 21.15 235.887 25.0383 234.325 29.1143C233.268 31.8682 232.446 34.7643 231.911 37.7113C230.52 36.6897 229.161 35.5956 227.873 34.6061C224.849 32.2812 221.659 30.034 217.98 28.9319C211.714 27.0575 205.006 28.8086 200.08 33.0588C194.378 37.9768 192.209 45.9571 192.209 53.3207C192.209 61.1857 194.327 68.9649 196.884 76.3231C198.111 79.8574 199.422 83.4292 201.25 86.6926C202.901 89.637 205.149 92.5921 208.171 94.1688C212.083 96.2175 216.43 95.7241 220.491 94.3994C224.288 93.1632 227.875 91.2861 231.265 89.165C234.589 87.0868 237.759 84.7753 240.972 82.5282C244.037 80.3856 247.337 77.8462 250.742 76.9774C251.667 76.7414 251.802 76.736 252.842 76.7762C252.914 76.7789 252.962 76.7789 252.993 76.7789C253.014 76.7816 253.031 76.7843 253.057 76.7896C253.244 76.8245 253.433 76.8674 253.62 76.9184C253.823 76.9747 254.015 77.0471 254.214 77.1088C254.516 77.2965 254.842 77.444 255.141 77.6424C255.262 77.7228 255.438 77.8703 255.507 77.9293C255.984 78.3691 256.439 78.833 256.846 79.3425C256.857 79.3774 257.169 79.8279 257.243 79.9458C257.443 80.2623 257.63 80.5841 257.809 80.9166C257.991 81.2518 258.16 81.5977 258.319 81.9463C258.362 82.0401 258.403 82.1367 258.447 82.2305C258.462 82.2842 258.559 82.5443 258.605 82.6676C258.874 83.4265 259.1 84.2015 259.284 84.9899C259.376 85.3867 259.461 85.789 259.53 86.1939C259.56 86.3655 259.589 86.5398 259.614 86.7168C259.622 86.7704 259.627 86.7999 259.632 86.816C259.635 86.8589 259.637 86.9206 259.642 87.0144C259.696 87.843 259.753 88.6609 259.737 89.4949C259.729 89.9132 259.706 90.3315 259.673 90.7472C259.658 90.9429 259.64 91.136 259.619 91.3291C259.612 91.4229 259.604 91.5007 259.599 91.5623C259.591 91.5865 259.584 91.6401 259.566 91.7367C259.281 93.5118 258.808 95.2495 258.16 96.9201C258.129 96.9737 257.881 97.561 257.825 97.687C257.643 98.0705 257.456 98.4539 257.256 98.8294C256.811 99.6767 256.319 100.5 255.786 101.294C255.607 101.557 255.423 101.819 255.236 102.077C255.226 102.077 254.719 102.726 254.642 102.82C254.097 103.468 253.518 104.093 252.911 104.683C252.878 104.715 252.845 104.745 252.811 104.777C247.66 104.841 242.887 107.539 239.702 111.599ZM214.948 88.5456C214.746 88.5617 214.543 88.5751 214.344 88.5805C214.075 88.5912 213.806 88.5912 213.54 88.5805C213.476 88.5778 212.994 88.5241 212.977 88.5322C212.567 88.4491 212.18 88.2962 211.778 88.1836C211.776 88.1836 211.776 88.1836 211.771 88.1782C211.668 88.0951 211.504 88.0415 211.386 87.9744C211.105 87.8135 210.833 87.6339 210.567 87.4462C210.57 87.4488 210.575 87.4515 210.577 87.4488C210.559 87.4193 210.086 87.0359 209.955 86.9099C209.658 86.6229 209.374 86.3172 209.1 86.0062C208.995 85.8855 208.895 85.7595 208.793 85.6388C208.76 85.5986 208.736 85.5718 208.719 85.553C208.227 84.8826 207.779 84.1773 207.364 83.456C206.924 82.6918 206.519 81.9061 206.138 81.107C205.956 80.7262 205.782 80.3454 205.61 79.9593C205.513 79.7367 205.416 79.5141 205.321 79.2915C205.259 79.1441 205.229 79.0797 205.218 79.0556C205.218 79.0556 205.218 79.0529 205.216 79.0475C205.213 79.0475 205.213 79.0422 205.213 79.0422C205.208 79.0261 205.198 78.9966 205.178 78.9456C203.739 75.3309 202.489 71.6223 201.432 67.8735C200.884 65.9374 200.4 63.9852 200.005 62.0116C199.821 61.0945 199.66 60.1721 199.519 59.2496C199.386 58.3727 199.317 57.7801 199.225 56.6351C199.071 54.7044 199.038 52.7575 199.176 50.8241C199.255 49.6764 199.273 49.5263 199.447 48.5609C199.621 47.5768 199.852 46.6061 200.139 45.6487C200.653 43.9299 201.081 42.9082 202.108 41.2698C202.282 40.9882 202.469 40.7147 202.661 40.4412C202.576 40.5779 203.114 39.8619 203.196 39.7681C203.741 39.1379 204.343 38.5855 204.947 38.017C204.957 38.0063 205.019 37.9554 205.078 37.9044C205.167 37.8347 205.28 37.7489 205.313 37.7248C205.595 37.5236 205.882 37.3252 206.173 37.1375C206.76 36.7674 207.372 36.4349 208.002 36.1453C208.025 36.1453 208.462 35.971 208.621 35.9147C208.936 35.8074 209.256 35.7055 209.576 35.617C209.942 35.5151 210.314 35.4293 210.685 35.3543C210.821 35.3274 210.972 35.3194 211.105 35.2792C211.113 35.2765 211.118 35.2738 211.123 35.2738C211.141 35.2711 211.153 35.2711 211.174 35.2684C211.881 35.2175 212.58 35.1746 213.291 35.1987C213.622 35.2121 213.949 35.2443 214.28 35.2684H214.282C214.282 35.2684 214.29 35.2684 214.293 35.2684C214.587 35.3274 214.625 35.3301 214.569 35.3167C214.487 35.3033 214.408 35.2872 214.326 35.2738C214.41 35.2845 214.52 35.3033 214.569 35.3167C214.633 35.3274 214.7 35.3408 214.766 35.3516C215.468 35.491 216.159 35.6814 216.832 35.9201C216.94 35.9576 217.424 36.1534 217.452 36.1587C217.926 36.3759 218.389 36.6119 218.845 36.864C222.399 38.8269 225.435 41.5916 228.726 43.9513C229.53 44.5279 230.364 45.0829 231.225 45.6005C231.296 52.2454 233.104 58.7428 237.346 64.0764C239.684 67.0127 242.644 69.3644 245.816 71.3005C243.156 72.5045 240.685 74.2609 238.332 75.8913C234.942 78.2404 231.616 80.6913 228.132 82.8956C224.747 85.0381 221.544 86.7865 217.933 87.8645C217.071 88.1219 216.185 88.3606 215.294 88.5054C215.45 88.4893 215.639 88.4893 214.948 88.5456ZM320.181 137.586C319.814 140.38 319.328 143.166 318.596 145.883C317.848 148.655 317.246 150.35 315.784 152.723C314.619 154.614 313.088 156.089 310.973 157.293C309.814 157.952 309.383 158.137 307.98 158.607C306.708 159.033 305.407 159.36 304.096 159.628C303.602 159.728 303.105 159.821 302.609 159.907C302.304 159.961 301.997 160.009 301.692 160.057C301.63 160.065 301.59 160.073 301.559 160.079C301.518 160.084 301.474 160.087 301.426 160.095C300.199 160.24 298.97 160.36 297.739 160.427C295.398 160.553 293.053 160.519 290.721 160.328C290.226 160.288 289.735 160.242 289.246 160.189C288.918 160.154 288.588 160.114 288.263 160.071C288.442 160.098 288.649 160.132 288.209 160.065C288.165 160.06 288.117 160.052 288.06 160.044C286.834 159.854 285.613 159.628 284.402 159.36C282.082 158.845 279.793 158.183 277.55 157.381C276.477 156.998 275.422 156.574 274.367 156.137C274.28 156.102 274.211 156.073 274.155 156.051C273.891 155.933 273.627 155.812 273.364 155.689C272.724 155.391 272.091 155.083 271.461 154.764C269.27 153.651 267.137 152.404 265.078 151.037C260.813 148.205 257.561 145.429 253.884 141.53C250.187 137.607 247.099 133.947 244.825 128.992C244.395 128.056 244.021 126.978 243.714 125.607C243.458 124.476 243.358 123.556 243.445 122.03C243.448 122.03 243.489 121.639 243.509 121.421C243.548 121.21 243.604 120.896 243.604 120.888C243.719 120.36 243.875 119.85 244.034 119.335C244.062 119.241 244.147 119.04 244.195 118.928C244.257 118.796 244.316 118.662 244.382 118.533C244.623 118.051 244.907 117.603 245.186 117.147C245.199 117.142 245.209 117.136 245.222 117.131C246.17 115.737 248.215 114.592 249.309 114.085C250.292 113.626 252.076 112.937 253.582 112.91C253.615 112.889 253.649 112.867 253.682 112.846C254.074 112.881 254.621 112.945 254.268 112.87C254.783 112.967 255.29 113.071 255.794 113.213C256.378 113.374 256.944 113.583 257.515 113.782C257.615 113.819 257.697 113.846 257.761 113.868C257.791 113.884 257.837 113.905 257.904 113.937C258.278 114.106 258.644 114.294 259.007 114.487C261.33 115.723 263.437 117.297 265.204 118.815C273.443 125.892 282.125 136.996 293.98 135.808C299.224 135.282 304.086 132.59 307.604 128.49C311.455 124.004 313.524 118.466 314.187 112.524C314.827 106.788 313.856 100.902 311.542 95.6759C309.235 90.471 305.131 86.3226 300.532 83.3112C290.882 76.9988 279.263 74.8294 268.43 71.81C262.953 70.2842 257.461 68.5224 252.589 65.983C250.415 64.8514 248.264 63.5803 246.333 62.0223C246.333 62.0116 245.647 61.4217 245.512 61.2983C245.025 60.8532 244.551 60.3893 244.096 59.9066C243.683 59.4668 243.287 59.0136 242.905 58.5443C242.849 58.4746 242.585 58.1314 242.536 58.0751C242.337 57.7908 242.142 57.5012 241.955 57.2063C240.357 54.6829 239.474 52.0148 239.093 49.1777C238.803 48.2123 238.711 47.1424 238.801 46.1127C238.304 43.7743 238.458 41.2671 238.783 38.9341C239.272 35.432 240.329 32.0318 241.727 28.8193C242.969 25.9608 244.551 23.1424 246.666 20.8926C247.345 20.1686 248.141 19.466 249.012 18.9163C249.206 18.6562 249.416 18.4122 249.644 18.1869C249.831 17.9751 250.02 17.7713 250.22 17.5755C250.55 17.2189 250.917 16.8891 251.308 16.5834C251.81 15.9854 252.348 15.4169 252.996 14.9503C253.541 14.5561 254.12 14.2397 254.721 13.9823C255.328 13.5398 255.945 13.1107 256.58 12.7058C257.476 12.1347 258.398 11.6037 259.34 11.1184C259.796 10.8824 260.259 10.6598 260.725 10.4453C260.805 10.4104 260.907 10.3675 260.953 10.3514C261.276 10.2281 261.593 10.0913 261.916 9.97065C262.881 9.61132 263.862 9.29757 264.853 9.03746C265.401 8.89266 265.954 8.76394 266.507 8.65132C266.73 8.60841 266.952 8.56551 267.173 8.52797C267.329 8.49847 267.616 8.45825 267.731 8.44216C269.853 8.20618 271.963 8.21691 274.088 8.44216C274.119 8.44752 274.145 8.4502 274.173 8.45289C274.201 8.45825 274.242 8.46629 274.303 8.47702C274.595 8.52797 274.89 8.57892 275.181 8.63791C275.712 8.74249 276.236 8.86316 276.756 8.99992C277.924 9.30561 279.071 9.6864 280.192 10.1423C280.284 10.1798 280.579 10.3112 280.668 10.3514C280.817 10.4211 280.963 10.4882 281.109 10.5606C281.606 10.8046 282.095 11.0647 282.576 11.3382C283.656 11.955 284.699 12.6415 285.695 13.3977C285.769 13.4567 286.04 13.6766 286.117 13.7382C286.258 13.8562 286.396 13.9742 286.534 14.0949C286.965 14.4783 287.387 14.8752 287.797 15.2828C288.721 16.2079 289.594 17.1948 290.385 18.2486C290.426 18.3022 290.452 18.3344 290.472 18.3612C290.511 18.4202 290.554 18.4873 290.613 18.5758C290.764 18.8037 290.92 19.0263 291.069 19.2542C291.443 19.8334 291.799 20.4233 292.137 21.0267C292.372 21.4504 292.597 21.8821 292.81 22.3192C292.946 22.5927 293.076 22.8716 293.202 23.1505C293.235 23.2256 293.409 23.6385 293.496 23.8397C293.565 24.0274 293.706 24.3974 293.721 24.435C293.806 24.6709 293.888 24.9096 293.967 25.1456C294.167 25.7462 294.349 26.3523 294.515 26.9637C294.833 28.1355 295.089 29.3261 295.286 30.5275C295.329 30.7849 295.365 31.0423 295.404 31.2997C295.414 31.3963 295.429 31.5196 295.434 31.5706C295.488 32.2142 295.552 32.855 295.585 33.504C295.655 34.7911 295.655 36.0836 295.585 37.3735C295.56 37.8856 295.521 38.3951 295.473 38.9046C295.473 38.8966 295.419 39.339 295.396 39.5536C295.365 39.7654 295.317 40.0738 295.311 40.1113C295.107 41.3475 294.833 42.573 294.479 43.7743C294.341 44.2463 294.19 44.7129 294.026 45.1768C294.026 45.1768 293.901 45.52 293.826 45.7238C293.742 45.9169 293.606 46.2494 293.606 46.2494C293.117 47.3381 292.556 48.3893 291.911 49.3815C291.796 49.5585 291.276 50.253 291.353 50.1699C290.961 50.6579 290.552 51.1325 290.111 51.5723C289.909 51.7788 289.699 51.9772 289.484 52.1676C289.399 52.2427 289.338 52.3017 289.282 52.35C289.269 52.35 289.22 52.3794 289.105 52.4599C288.821 52.6557 288.526 52.8219 288.237 53.0096C288.132 53.0686 288.027 53.1249 287.92 53.1812C287.863 53.2027 287.797 53.2295 287.71 53.2617C287.546 53.31 287.382 53.3582 287.215 53.4038C287.223 53.3931 286.801 53.4789 286.657 53.4816C286.534 53.4816 286.158 53.4253 286.099 53.4253C285.938 53.3797 285.776 53.3314 285.613 53.2858C284.903 53.0767 285.295 53.1571 285.462 53.2375C285.167 53.0927 284.883 52.9211 284.604 52.7415C283.802 52.232 283.923 52.3178 283.257 51.7064C281.211 49.8347 279.416 47.6599 277.458 45.689C275.417 43.6376 273.343 41.6237 271.369 39.5026C270.048 36.9766 268.192 34.6597 265.521 33.6944C262.881 32.7424 259.901 33.5442 258.017 35.6787C254.412 39.7654 255.182 46.3808 257.11 51.0467C260.987 60.4214 270.012 65.7229 279.194 67.7823C281.616 68.3267 284.076 68.6431 286.534 68.9407C287.74 69.0855 288.946 69.2169 290.152 69.3591C290.756 69.4288 291.363 69.5012 291.968 69.5763C292.303 69.6192 292.638 69.6621 292.974 69.7077C293.143 69.7291 293.222 69.7372 293.261 69.7425C293.312 69.7506 293.404 69.7667 293.56 69.7908C296.082 70.185 298.594 70.665 301.036 71.4453C301.61 71.6277 302.181 71.8261 302.744 72.0406C303.031 72.1506 303.318 72.2659 303.602 72.3839C303.551 72.3597 303.497 72.3329 303.466 72.3168C303.497 72.3275 303.559 72.357 303.666 72.4107C303.666 72.4134 303.674 72.4134 303.676 72.416C303.727 72.4402 303.791 72.4697 303.866 72.5072C305.095 73.1052 306.285 73.7729 307.414 74.5613C308.362 75.2209 308.835 75.6178 309.788 76.5564C310.638 77.3984 311.427 78.3074 312.159 79.2621C312.218 79.3452 312.312 79.4712 312.338 79.5088C312.517 79.7742 312.702 80.037 312.878 80.3079C313.198 80.7959 313.506 81.2947 313.8 81.7988C314.468 82.9438 315.073 84.1291 315.626 85.3411C316.215 86.6363 316.273 86.7838 316.773 88.1863C317.244 89.5083 317.661 90.8464 318.04 92.2006C318.77 94.8204 319.338 97.4913 319.791 100.178C320.288 103.147 320.501 105.029 320.77 108.207C321.049 111.502 321.21 114.811 321.256 118.12C321.346 124.594 321.008 131.292 320.181 137.586ZM265.88 82.9546C265.562 81.6379 265.129 80.3186 264.576 79.0475C265.682 79.372 266.794 79.6831 267.907 79.9861C273.563 81.5226 279.271 82.8875 284.829 84.786C289.786 86.4781 294.518 88.4115 298.778 91.7742C298.822 91.8144 299.165 92.0986 299.234 92.1576C299.49 92.3802 299.741 92.6055 299.987 92.8388C300.435 93.2598 300.868 93.6942 301.285 94.1474C302.419 95.3782 302.78 95.8528 303.599 97.2124C305.01 99.5614 305.561 101.082 306.168 103.881C306.301 104.501 306.413 105.128 306.506 105.756C306.513 105.86 306.562 106.265 306.57 106.365C306.603 106.716 306.628 107.07 306.649 107.424C306.728 108.842 306.71 110.266 306.59 111.679C306.572 111.886 306.549 112.095 306.526 112.302C306.511 112.377 306.401 113.127 306.401 113.127C306.306 113.68 306.193 114.23 306.065 114.774C305.904 115.45 305.717 116.117 305.504 116.777C305.399 117.104 305.284 117.429 305.166 117.75C305.141 117.812 305.125 117.86 305.113 117.893C305.051 118.035 304.99 118.179 304.926 118.322C304.383 119.518 303.735 120.633 303.021 121.722C302.975 121.794 302.936 121.851 302.903 121.901C302.67 122.21 302.424 122.51 302.173 122.802C301.751 123.293 301.305 123.765 300.842 124.213C300.612 124.436 300.376 124.647 300.138 124.859C300.069 124.921 300.03 124.956 300.012 124.975C299.977 125.001 299.938 125.031 299.892 125.063C299.395 125.433 298.891 125.787 298.363 126.106C297.946 126.361 297.516 126.578 297.088 126.809C297.006 126.854 296.945 126.889 296.896 126.916C296.845 126.932 296.779 126.956 296.697 126.986C296.361 127.101 296.031 127.23 295.693 127.337C295.191 127.493 294.679 127.621 294.164 127.723C294.034 127.747 293.675 127.785 293.64 127.79C293.645 127.79 293.66 127.79 293.691 127.787C293.558 127.801 293.422 127.812 293.289 127.82C292.687 127.852 292.093 127.83 291.494 127.796C291.374 127.787 291.284 127.782 291.215 127.779C290.78 127.712 290.344 127.611 289.917 127.503C287.384 126.86 285.5 125.798 283.132 124.138C280.817 122.516 278.889 120.762 276.69 118.7C274.634 116.774 272.608 114.809 270.468 112.983C267.426 110.387 264.159 107.979 260.551 106.445C260.779 106.155 261.005 105.86 261.222 105.557C265.839 99.1619 267.749 90.7016 265.88 82.9546ZM293.816 127.777C293.785 127.779 293.757 127.782 293.727 127.785C293.757 127.785 293.785 127.779 293.816 127.777ZM263.212 44.485C263.191 44.1417 263.183 43.7958 263.189 43.4525C263.194 43.2273 263.214 42.9994 263.217 42.7741V42.6803C263.322 42.3424 263.388 41.9777 263.47 41.6211C263.57 41.7283 263.667 41.8383 263.767 41.9482C263.816 42.0045 263.849 42.034 263.867 42.0501C263.893 42.093 263.921 42.1386 263.954 42.1922C264.307 42.7661 264.635 43.3453 264.937 43.9513C265.145 44.3643 265.429 44.7129 265.759 44.9998C267.895 47.3113 270.158 49.4861 272.368 51.7198C274.454 53.8329 276.352 56.1899 278.625 58.0885C279.509 58.8286 280.453 59.5124 281.452 60.0702C280.717 59.9093 279.987 59.7323 279.26 59.5338C278.162 59.2308 277.076 58.8849 276.006 58.4827C275.525 58.303 275.046 58.1099 274.572 57.9088C274.557 57.9008 274.549 57.8981 274.539 57.8927C274.495 57.8713 274.449 57.8471 274.393 57.8203C274.086 57.6648 273.773 57.52 273.469 57.3618C272.552 56.8898 271.661 56.3669 270.801 55.7931C270.322 55.4713 269.858 55.1307 269.4 54.7848C269.375 54.766 269.357 54.7526 269.336 54.7365C269.316 54.7178 269.287 54.691 269.236 54.648C268.975 54.4174 268.714 54.1895 268.46 53.9508C267.646 53.1839 266.904 52.3553 266.202 51.4811C266.184 51.457 266.169 51.4382 266.151 51.4195C265.946 51.1218 265.744 50.8242 265.552 50.5185C265.222 49.9955 264.912 49.4566 264.628 48.9068C264.371 48.4134 264.126 47.9066 263.911 47.3918C263.888 47.3247 263.795 47.078 263.777 47.0217C263.68 46.7133 263.575 46.4103 263.493 46.0966C263.414 45.7909 263.35 45.4825 263.294 45.1714C263.309 45.2251 263.219 44.6029 263.212 44.485ZM263.544 41.3475C263.573 41.2778 263.596 41.2269 263.619 41.184C263.66 41.1384 263.698 41.0955 263.731 41.0606C263.747 41.1062 263.685 41.2885 263.544 41.3475Z" fill="#0B5C01"/>
<path d="M288.209 160.065C288.227 160.065 288.245 160.068 288.263 160.071C288.237 160.068 288.209 160.063 288.183 160.06C288.193 160.063 288.201 160.063 288.209 160.065Z" fill="#0B5C01"/>
<path d="M252.911 104.683C253.518 104.093 254.097 103.468 254.642 102.82C254.719 102.726 255.226 102.077 255.236 102.077C255.423 101.819 255.607 101.557 255.786 101.294C256.319 100.5 256.811 99.6767 257.256 98.8294C257.456 98.4539 257.643 98.0705 257.825 97.687C257.881 97.561 258.129 96.9737 258.16 96.9201C258.808 95.2495 259.281 93.5118 259.566 91.7367C259.584 91.6401 259.591 91.5865 259.599 91.5623C259.604 91.5007 259.612 91.4229 259.619 91.3291C259.64 91.136 259.658 90.9429 259.673 90.7472C259.706 90.3315 259.729 89.9132 259.737 89.4949C259.753 88.6609 259.696 87.843 259.642 87.0144C259.637 86.9206 259.635 86.8589 259.632 86.816C259.627 86.7999 259.622 86.7704 259.614 86.7168C259.589 86.5398 259.56 86.3655 259.53 86.1939C259.461 85.789 259.376 85.3867 259.284 84.9899C259.1 84.2015 258.874 83.4265 258.605 82.6676C258.559 82.5443 258.462 82.2842 258.447 82.2305C258.403 82.1367 258.362 82.0401 258.319 81.9463C258.16 81.5977 257.991 81.2518 257.809 80.9166C257.63 80.5841 257.443 80.2623 257.243 79.9458C257.169 79.8279 256.857 79.3774 256.846 79.3425C256.439 78.833 255.984 78.3691 255.507 77.9293C255.438 77.8703 255.262 77.7228 255.141 77.6424C254.842 77.444 254.516 77.2965 254.214 77.1088C254.015 77.0471 253.823 76.9747 253.62 76.9184C253.433 76.8674 253.244 76.8245 253.057 76.7896C253.031 76.7843 253.014 76.7816 252.993 76.7789C252.962 76.7789 252.914 76.7789 252.842 76.7762C251.802 76.736 251.667 76.7414 250.742 76.9774C247.337 77.8462 244.037 80.3856 240.972 82.5282C237.759 84.7753 234.589 87.0868 231.265 89.165C227.875 91.2861 224.288 93.1632 220.491 94.3994C216.43 95.7241 212.083 96.2175 208.171 94.1688C205.149 92.5921 202.901 89.637 201.25 86.6926C199.422 83.4292 198.111 79.8574 196.884 76.3231C194.327 68.9649 192.209 61.1857 192.209 53.3207C192.209 45.9571 194.378 37.9768 200.08 33.0588C205.006 28.8086 211.714 27.0575 217.98 28.9319C221.659 30.034 224.849 32.2812 227.873 34.6061C229.161 35.5956 230.52 36.6897 231.911 37.7113C232.446 34.7643 233.268 31.8682 234.325 29.1143C235.887 25.0383 237.933 21.15 240.424 17.6158C239.822 16.9346 239.195 16.2777 238.542 15.6475C237.946 15.071 237.329 14.5159 236.694 13.9823C236.599 13.9018 236.184 13.5693 236.069 13.4728C236.012 13.4272 235.954 13.3843 235.943 13.3762C235.777 13.2555 235.616 13.1295 235.449 13.0088C232.989 11.2095 230.136 9.58182 227.717 8.71836C224.263 7.48216 221.82 7.09333 218.241 7.21132C216.236 7.27836 215.545 7.36686 213.583 7.8254C212.034 8.18741 210.106 8.8149 208.903 9.34316C206.076 10.5901 203.101 12.5744 200.812 14.7063C199.627 15.8084 198.515 16.9936 197.473 18.2379C197.179 18.5892 196.895 18.9458 196.61 19.3025C196.585 19.3346 196.472 19.4821 196.421 19.5492C196.352 19.6457 196.28 19.7422 196.211 19.8361C195.73 20.4984 195.266 21.1715 194.821 21.858C193.876 23.3114 193.01 24.8157 192.219 26.3576C191.776 27.2265 191.354 28.1087 190.957 29.0016C190.824 29.3047 190.691 29.6077 190.563 29.9134C190.527 30.0019 190.45 30.1896 190.44 30.2137C190.35 30.4443 190.258 30.6749 190.168 30.9082C188.855 34.3379 187.867 37.8991 187.211 41.5191C186.848 43.5223 186.714 44.552 186.556 46.5551C186.389 48.6467 186.333 50.7464 186.369 52.846C186.512 61.2661 188.248 69.4556 190.783 77.5566C193.115 85.014 195.694 91.7742 199.693 98.4888C200.607 100.023 201.588 101.514 202.645 102.948C202.673 102.983 202.691 103.01 202.709 103.034C202.725 103.053 202.74 103.074 202.76 103.101C202.906 103.289 203.055 103.477 203.206 103.664C203.465 103.986 203.728 104.305 203.997 104.622C204.527 105.244 205.078 105.85 205.646 106.434C206.245 107.048 206.867 107.644 207.51 108.209C207.769 108.435 208.03 108.655 208.294 108.874C208.345 108.907 208.829 109.285 208.918 109.349C210.367 110.406 211.924 111.331 213.558 112.057C213.581 112.063 213.988 112.232 214.067 112.264C214.244 112.331 214.418 112.398 214.595 112.462C215.007 112.613 215.419 112.752 215.836 112.881C216.666 113.138 217.506 113.355 218.353 113.535C219.436 113.766 219.733 113.817 220.548 113.905C221.41 113.996 222.276 114.055 223.141 114.085C226.977 114.208 230.124 113.814 233.621 113.093C235.659 112.674 237.695 112.184 239.702 111.599C242.887 107.539 247.66 104.841 252.811 104.777C252.845 104.745 252.878 104.715 252.911 104.683Z" fill="#0D7601"/>
<path d="M203.408 123.387C203.365 123.215 203.321 123.033 203.27 122.856C203.221 122.762 203.134 122.583 203.104 122.55C203.047 122.497 203.004 122.451 202.968 122.416C202.768 122.483 202.568 122.548 202.371 122.626C201.362 123.017 200.4 123.548 199.353 123.816C196.866 124.449 194.47 123.875 192.47 122.14C189.311 119.4 187.887 114.734 186.932 110.559C185.816 105.673 185.329 100.543 184.694 95.7804C183.908 89.8622 182.894 83.9789 181.647 78.1599C180.421 72.4429 178.967 66.7848 177.264 61.2205C176.452 58.5658 175.582 55.9298 174.652 53.3207C173.72 50.7115 172.829 48.6306 171.818 45.8391C170.85 43.1683 170.095 40.232 170.195 37.3198C170.312 33.9196 171.531 31.1683 173.521 28.6584C176.447 24.9713 178.895 20.9221 180.994 16.09C181.56 14.7867 182.029 13.6176 182.449 12.4457C182.669 11.8343 182.889 11.2202 183.074 10.5954C183.166 10.2897 183.245 9.98405 183.322 9.67567C183.36 9.52014 183.388 9.40484 183.406 9.32439C183.419 9.14472 183.419 8.96506 183.414 8.78808C183.399 8.78271 183.381 8.77467 183.368 8.77199H183.253C177.651 8.78272 172.033 9.22517 166.472 9.9331C162.657 10.4185 158.811 11.054 155.055 12.2044C154.113 12.494 153.181 12.8131 152.256 13.1697C151.844 13.328 151.435 13.4942 151.027 13.6685C150.823 13.757 150.618 13.8482 150.416 13.9367C150.377 13.9528 150.352 13.9635 150.321 13.9769C150.303 13.9849 150.29 13.993 150.267 14.0037C148.526 14.8645 146.844 15.8567 145.254 17.0258C144.821 17.3422 144.404 17.6801 143.981 18.0099C143.93 18.0502 143.887 18.0823 143.851 18.1118C143.692 18.2513 143.533 18.3934 143.377 18.5355C142.588 19.2596 141.836 20.0238 141.116 20.8309C140.678 21.3217 140.256 21.8312 139.846 22.3514C139.8 22.3889 139.757 22.4291 139.713 22.4774C137.25 25.1429 135.527 28.822 134.61 32.3804C134.582 32.4957 134.554 32.6137 134.526 32.7344C134.515 32.6995 134.505 32.6673 134.495 32.6325C134.346 33.217 134.211 33.8016 134.106 34.3969C134.098 34.4479 134.049 34.7616 134.021 34.944C134.006 35.1236 133.978 35.4401 133.973 35.491C133.939 36.0756 133.932 36.6602 133.962 37.2474C133.965 37.3064 133.998 37.5773 134.016 37.7462C134.052 37.9098 134.103 38.1404 134.113 38.194C134.157 38.3871 134.208 38.5775 134.267 38.7652C134.305 38.843 134.375 38.9878 134.431 39.1058C134.495 39.1916 134.577 39.3095 134.62 39.3739C134.723 39.398 134.825 39.4302 134.917 39.4678C134.966 39.4597 135.02 39.4597 135.074 39.4597C135.276 39.7654 135.601 39.9933 136.044 40.0309C136.577 40.0765 137.091 40.0363 137.601 39.9531C140.274 40.2964 142.898 39.6367 145.576 39.4463C147.412 39.3149 149.238 39.1755 151.045 38.9154C152.431 38.8832 153.759 38.7464 154.991 38.4783C155.122 38.4488 155.255 38.4273 155.385 38.4112C155.588 38.3683 155.798 38.3361 156.013 38.3254C156.916 38.2798 157.792 38.6847 158.481 39.3471C158.916 39.7359 159.269 40.2427 159.515 40.8541C159.746 41.4065 159.874 42.0018 159.853 42.6105C159.561 51.1969 160.422 59.4775 161.722 67.7555C164.155 83.2468 167.872 98.5934 168.402 114.382C168.492 117.018 168.469 120.003 167.593 122.55C167.724 123.899 167.775 125.272 167.726 126.675C167.619 129.726 165.371 131.18 162.864 130.794C161.121 130.525 159.382 130.22 157.651 129.874C157.559 129.941 157.467 130.008 157.375 130.078C157.318 130.12 156.832 130.536 156.832 130.525C156.732 130.619 156.632 130.708 156.532 130.804C155.518 131.78 154.609 132.869 153.757 134.019C153.662 134.151 153.606 134.223 153.573 134.263C153.555 134.301 153.511 134.373 153.424 134.518C153.201 134.883 152.971 135.24 152.753 135.607C152.487 136.057 152.233 136.516 151.988 136.98C152.876 137.066 153.765 137.141 154.656 137.202C165.222 137.94 176.104 137.385 186.382 134.682C188.56 134.108 190.68 133.368 192.775 132.488C193.115 132.346 193.387 132.215 194.068 131.858C194.557 131.601 195.043 131.33 195.522 131.048C196.498 130.472 197.45 129.842 198.369 129.158C199.972 127.97 201.811 126.514 203.162 124.596C203.042 124.731 203.337 124.178 203.337 124.277C203.367 124.165 203.398 124.047 203.421 123.931C203.416 123.883 203.436 123.604 203.426 123.513C203.444 123.583 203.454 123.634 203.467 123.677C203.467 123.671 203.47 123.666 203.47 123.661C203.449 123.559 203.421 123.433 203.408 123.387Z" fill="#0D7601"/>
<path d="M94.2812 10.5016C94.2147 10.153 94.1737 9.80438 94.0943 9.46114C94.0764 9.43433 94.061 9.41019 94.0354 9.37802C93.9714 9.23589 93.9279 9.13399 93.8972 9.06696C93.8972 9.06696 93.8946 9.06964 93.8921 9.06964C93.9074 9.1045 93.9279 9.1474 93.951 9.20372C93.9305 9.1769 93.91 9.15009 93.8895 9.12327C93.8537 9.09646 93.8178 9.06696 93.782 9.04014C93.8024 9.04819 93.8204 9.05355 93.8383 9.05891C93.8306 9.0455 93.8229 9.03746 93.8152 9.02942C93.7922 9.02137 93.764 9.01064 93.7308 8.99992C93.7077 8.98383 93.6872 8.96506 93.6642 8.94897C93.6591 8.9597 93.6616 8.97042 93.6719 8.98115H93.6693C93.5566 8.94629 92.9217 8.75053 93.1419 8.78271C88.4077 7.82808 83.6556 10.1825 79.8943 13.5425C77.6873 15.5134 75.6236 17.7177 73.5701 19.9219C71.3784 22.2709 69.2046 24.9176 66.6417 26.6499C63.6486 28.6718 60.5351 28.2106 57.5702 26.5829C54.8382 25.0839 52.2291 23.2819 49.8198 21.1152C47.6998 19.2113 45.7283 17.0741 43.6646 15.0844C42.7096 14.1592 41.7341 13.2636 40.7176 12.4404C40.2516 11.8692 39.6985 11.4026 39.0277 11.1478C38.7435 11.0379 38.4721 10.9869 38.2084 10.9709C37.7936 10.6089 37.3404 10.2978 36.8232 10.0806C35.2383 9.41288 33.6073 10.1584 32.6958 11.5769C32.6805 11.5367 32.6677 11.5018 32.66 11.4777C32.6216 11.3865 32.5806 11.2953 32.5396 11.2068C32.5243 11.239 32.5115 11.2685 32.4961 11.298C32.4398 11.5179 32.3297 11.8719 32.3297 11.8719C32.3092 11.9335 32.2938 11.9818 32.281 12.0274C32.2529 12.2151 32.2324 12.4055 32.2145 12.5959C32.0941 12.9686 32.0199 13.3494 31.9968 13.7329C31.8586 14.1807 31.7536 14.6366 31.6768 15.0576C30.837 19.82 33.7328 23.1478 35.7965 26.9744C35.7965 26.9744 35.7939 26.9824 35.7939 26.9851C35.9783 27.3713 36.1677 27.7547 36.3623 28.1328C36.5083 28.4117 36.6542 28.6906 36.8053 28.9668C36.836 29.0151 36.8718 29.074 36.9179 29.1491C38.2237 31.2971 39.6192 33.319 41.2143 35.1558C41.3833 35.3462 41.5523 35.5339 41.7238 35.7216C41.7597 35.7565 42.154 36.1828 42.1924 36.2204C42.5508 36.5851 42.9144 36.939 43.2831 37.285C44.0538 38.009 44.8475 38.6955 45.6591 39.3471C47.2722 40.645 48.9595 41.79 50.6852 42.8519C50.7544 42.8867 51.479 43.3158 51.6582 43.415C52.1011 43.6644 52.5441 43.9057 52.9922 44.1444C53.8729 44.611 54.7614 45.0561 55.655 45.4905C57.4703 46.3728 58.3818 48.5636 57.8108 50.9126C57.7699 51.0789 57.7161 51.2398 57.6547 51.3953C57.6547 51.4302 57.6572 51.465 57.6547 51.4999C57.5113 55.2058 57.3064 58.9064 57.0734 62.6069C56.1901 76.5724 54.9099 90.5782 55.3733 104.573C59.6646 105.061 64.2375 105.598 67.653 106.171C67.6582 105.662 67.6658 105.15 67.671 104.64C67.7426 97.1963 67.6274 89.755 67.3253 82.3271C67.036 75.2799 66.3728 68.2704 66.0912 61.1294C65.8403 54.75 66.0528 47.9173 68.3776 42.0179C69.5631 39.0092 71.1966 36.3357 73.3141 34.1958C75.0859 32.4072 77.0779 30.9914 79.0468 29.5728C81.0337 28.1435 83.0334 26.6553 84.9742 25.049C87.3733 19.6698 90.479 14.6714 94.2889 10.5606C94.2864 10.5364 94.2838 10.515 94.2812 10.5016Z" fill="#0D7601"/>
<path d="M65.7788 113.894C65.7455 113.889 65.7097 113.884 65.6764 113.878C65.1413 113.741 64.5985 113.624 64.0454 113.522C62.7499 113.283 61.4492 113.154 60.1536 113.117C56.377 112.513 52.6107 111.51 48.7828 111.99C48.7803 111.956 48.7777 111.921 48.7752 111.886C44.6171 111.419 41.1016 110.969 39.8086 110.545C35.8861 109.253 31.9584 107.158 29.0268 103.356C25.4883 98.765 24.3694 92.5116 23.8112 86.2153C22.1137 67.0502 24.1133 47.3489 28.5889 28.8944C28.1895 27.9532 27.8157 26.9905 27.47 26.0037C25.9594 21.6998 24.5281 15.9827 25.2758 10.9709C24.4488 11.7056 23.6499 12.5476 22.9919 13.344C19.7811 17.235 17.6304 21.1232 15.5898 26.2557C11.4265 36.7272 10.0439 48.6521 10.4126 60.7164C10.8095 73.722 13.0626 86.8696 16.2785 99.2504C19.1129 110.159 23.2991 120.673 29.8794 128.415C31.4361 130.249 32.6574 131.464 34.5956 133.033C36.37 134.465 38.0445 135.561 39.6243 136.328C39.6396 136.336 39.655 136.342 39.6704 136.35C39.6985 136.374 39.7267 136.398 39.76 136.422C44.1357 139.643 50.0682 139.597 55.1941 139.597C58.6507 139.597 62.1098 139.586 65.5586 139.366C67.8118 139.224 70.1725 138.905 72.1824 137.755C72.2694 137.707 72.3514 137.656 72.4333 137.602C72.4256 137.631 72.418 137.661 72.4103 137.69C72.5588 137.597 72.7303 137.481 73.0017 137.294C73.4703 136.969 73.926 136.615 74.3639 136.226C75.8028 134.961 76.7834 133.303 77.7129 131.003C77.7666 130.871 77.8025 130.783 77.8306 130.724C77.846 130.657 77.8691 130.568 77.9023 130.445C77.9715 130.179 78.0432 129.911 78.1072 129.64C78.2429 129.056 78.3555 128.458 78.4349 127.852C78.4426 127.763 78.4656 127.519 78.4656 127.452C78.4682 127.101 78.4887 126.752 78.4861 126.398C78.4835 126.053 78.4707 125.709 78.4477 125.363C78.44 125.318 78.4323 125.27 78.4247 125.213C78.3274 124.604 78.184 124.023 78.0611 123.422C78.0483 123.363 78.038 123.309 78.0278 123.264C77.9356 122.993 77.8358 122.727 77.7308 122.465C77.5592 122.049 77.357 121.663 77.1752 121.255C77.1445 121.188 77.1214 121.135 77.1009 121.089C77.0805 121.059 77.06 121.027 77.0318 120.984C76.914 120.807 76.8014 120.625 76.6785 120.451C76.3763 120.008 76.0537 119.593 75.7183 119.196C75.5468 118.995 75.3727 118.802 75.196 118.614C75.1909 118.609 75.1883 118.603 75.1832 118.598C75.1601 118.579 75.132 118.558 75.1064 118.533C74.1949 117.083 72.9223 115.906 71.2069 115.23C69.4658 114.541 67.6428 114.125 65.7788 113.894Z" fill="#0D7601"/>
<path d="M105.327 50.564C107.593 53.0203 111.165 52.4867 113.715 50.9234C118.088 48.2418 121.662 42.4202 122.51 36.982C123.421 31.1201 121.503 23.4294 115.755 21.5201C112.565 20.4609 109.513 22.1101 107.465 24.8345C106.279 26.4113 105.337 27.9478 104.674 29.8705C104.2 31.2434 103.926 32.6834 103.629 34.1127C102.165 37.4244 102.585 42.0313 103.184 45.4557C103.501 47.2684 104.111 49.2447 105.327 50.564ZM109.731 35.6224C110.107 33.6354 110.755 31.1388 112.619 30.1359C112.762 30.0582 112.911 29.9965 113.059 29.9509C113.384 29.7498 113.735 29.7418 114.045 29.8651C114.557 29.9482 115.018 30.2512 115.305 30.8224C115.776 31.7636 115.553 32.9623 115.394 33.9572C114.895 37.108 113.927 40.2213 112.015 42.7419C111.907 42.8814 111.784 42.9806 111.651 43.0476C111.193 44.1658 109.242 43.9674 109.185 42.4684C109.101 40.1918 109.308 37.8561 109.731 35.6224Z" fill="#0B5C01"/>
</g>

</svg>
