<svg width="393" height="852" viewBox="0 0 393 852" fill="none" xmlns="http://www.w3.org/2000/svg">
<path d="M132.448 477.878C134.408 462.578 133.929 444.252 132.651 428.967C123.576 429.314 114.493 429.474 105.411 429.517C105.324 434.89 105.215 437.598 104.794 443.065C106.885 443.014 107.923 442.992 109.977 442.934C109.745 447.163 109.571 449.299 109.084 453.593C108.605 457.807 107.785 460.703 106.812 462.216C105.839 463.737 104.3 464.57 102.231 464.685C100.343 464.794 99.2032 464.2 98.833 462.911C98.47 461.615 98.7168 458.864 99.3702 454.722C101.294 440.422 102.093 426.23 101.723 411.792C101.614 407.324 101.737 404.573 102.165 403.508C102.594 402.451 103.465 401.944 104.779 401.98C106.296 402.024 107.291 402.668 107.792 403.928C108.286 405.188 108.743 408.287 109.026 413.254C109.208 416.411 109.28 417.99 109.389 421.161C116.824 421.19 124.265 421.089 131.693 420.835C131.497 419.358 131.395 418.62 131.184 417.143C130.19 410.148 128.643 404.841 126.85 401.184C125.057 397.527 122.044 394.392 117.891 391.684C113.738 388.976 108.925 387.535 103.16 387.267C97.3011 386.992 92.5093 388.194 88.5307 391.076C84.5521 393.958 81.8078 397.281 80.6171 401.09C79.4264 404.898 78.439 411.089 77.3427 419.814C76.1738 429.133 74.5766 438.401 72.4203 447.547C70.8594 454.136 69.6397 459.204 69.1823 462.578C68.7249 465.953 69.1387 469.167 70.5109 472.151C71.8831 475.141 74.5548 477.531 78.5334 479.29C81.2415 480.485 84.2835 481.144 87.6014 481.303C87.6014 481.303 92.9014 481.296 94.7309 480.955C100.808 479.819 102.623 478.827 104.198 478.037C107.661 476.314 110.66 473.939 113.128 470.949C113.484 472.715 113.971 475.706 113.571 478.269L132.44 477.864L132.448 477.878Z" fill="#FAEFC3"/>
<path d="M176.742 474.584L175.69 454.947C169.816 455.866 166.687 456.286 160.32 457.032C159.891 449.733 159.448 446.084 158.287 438.749C163.478 438.235 166.004 437.953 170.956 437.301C169.722 431.045 168.988 427.895 167.384 421.552C162.628 422.139 160.211 422.392 155.259 422.834C153.865 416.469 153.081 413.276 151.44 406.868C156.494 406.426 158.977 406.166 163.855 405.55C161.91 398.795 160.871 395.391 158.81 388.542C148.754 389.845 138.684 390.526 128.564 391.003C134.285 418.924 138.829 449.212 136.027 477.798L176.75 474.562L176.742 474.584Z" fill="#FAEFC3"/>
<path d="M185.113 431.588C184.068 428.344 178.862 407.078 178.187 404.739C179.24 406.412 188.758 415.752 190.239 417.852L203.249 386.282L201.427 380.975C201.427 380.975 193.695 383.169 188.155 384.255L194.13 403.552C186.899 395.674 183.901 393.849 176.321 386.101C170.673 387.05 160.726 387.933 160.886 388.23C162.527 391.329 177.069 454.968 176.401 454.737L185.113 431.588Z" fill="#FAEFC3"/>
<path d="M259.777 439.922C259.451 438.901 259.211 437.858 258.892 436.837C258.543 435.722 258.202 434.607 257.846 433.492C256.917 430.567 255.944 427.649 254.949 424.738C253.955 421.827 252.924 418.931 251.878 416.042C250.833 413.153 249.758 410.264 248.676 407.389C247.595 404.507 246.498 401.64 245.395 398.766C244.291 395.898 243.18 393.031 242.07 390.164C241.46 388.585 240.85 387.014 240.24 385.435C243.885 383.886 245.693 383.068 249.272 381.366C246.774 375.182 245.613 372.257 243.013 365.813C232.022 370.577 214.996 376.783 203.503 380.157L205.188 386.666C205.231 386.789 213.043 394.646 213.087 394.776C215.715 394.045 219.171 393.074 221.414 392.3C223.52 398.041 227.179 405.159 229.488 410.858" fill="#FAEFC3"/>
<path d="M300.326 403.653C300.326 403.653 300.347 403.675 300.362 403.682C300.362 403.682 300.362 403.682 300.369 403.689L316.639 387.463C316.639 387.463 316.603 387.419 316.588 387.398L316.53 387.455C312.704 385.037 310.468 382.698 306.047 377.253C302.591 363.822 298.699 350.622 294.234 337.487C289.174 340.803 286.626 342.411 281.478 345.503C284.527 354.343 287.504 363.221 290.982 371.91C285.449 364.481 279.663 357.24 274.131 349.804C268.925 352.765 266.297 354.191 260.983 356.914C270.196 368.912 279.569 381.221 291.628 390.562C295.621 396.579 297.509 399.801 300.101 403.479C300.173 403.537 300.253 403.595 300.318 403.653H300.326Z" fill="#FAEFC3"/>
<path d="M296.754 407.216L296.681 407.288C295.541 405.594 294.583 404.022 293.029 401.408C289.188 404.877 287.286 406.52 283.467 409.641C275.031 392.459 267.698 375.132 259.944 357.638C254.252 360.911 250.303 362.381 244.683 364.806C253.846 387.325 263.415 409.286 271.851 432.095L271.771 432.174C271.771 432.174 271.786 432.182 271.793 432.189L296.775 407.273C296.775 407.273 296.761 407.237 296.754 407.216Z" fill="#FAEFC3"/>
<path d="M146.598 350.694C146.017 349.145 145.073 347.486 143.803 345.698C142.532 343.91 140.55 342.606 137.878 341.723C140.521 340.977 142.082 339.319 142.561 336.821C143.04 334.323 142.59 329.609 141.654 322.6C140.63 314.925 139.664 309.349 138.408 305.925C137.152 302.5 135.802 300.414 134.176 299.683C132.549 298.952 129.449 298.792 125.173 298.756C122.61 298.734 121.369 298.677 118.987 298.43C114.849 328.957 118.167 358 123.053 388.216C129.246 388.187 132.295 388.1 138.307 387.803C135.374 374.806 132.607 361.823 130.335 348.688C132.092 348.587 133.275 349.072 133.9 350.166C134.517 351.259 135.265 354.162 136.23 358.84C138.234 368.456 140.521 378.006 142.852 387.542C148.377 387.188 150.199 386.854 155.579 386.275C153.415 378.701 152.181 371.214 150.17 363.604C148.319 356.581 147.193 352.251 146.612 350.701L146.598 350.694ZM131.272 330.862C130.662 331.564 129.5 331.897 127.801 331.825C127.082 323.809 126.908 319.769 127.191 311.63C128.731 311.703 129.798 312.195 130.386 313.115C130.974 314.034 131.286 315.946 131.395 318.828C131.475 320.826 131.526 321.825 131.664 323.824C131.94 327.821 131.874 330.159 131.264 330.869L131.272 330.862Z" fill="#FAEFC3"/>
<path d="M143.411 298.43C143.585 328.834 151.368 356.559 157.314 386.275C163.289 385.609 166.229 385.211 172.023 384.277C170.39 378.057 169.555 374.922 167.928 368.622C169.867 368.289 170.84 368.115 172.764 367.753C175.065 373.951 176.249 377.036 178.586 383.154C184.242 382.112 187.023 381.533 192.519 380.244C179.944 352.113 168.008 324.048 161.293 293.883C154.911 295.266 149.458 297.46 143.411 298.445V298.43ZM162.28 353.156C157.764 338.993 154.678 324.685 152.29 310.24C156.9 324.461 162.287 338.472 169.155 352.193C166.411 352.591 165.032 352.787 162.28 353.156Z" fill="#FAEFC3"/>
<path d="M189.128 287.482C184.99 288.424 182.913 288.916 178.761 289.886C179.733 301.681 181.592 313.448 184.082 325.011C180.22 313.781 176.227 302.659 172.88 291.255C168.749 292.218 166.687 292.696 162.614 293.586C168.364 312.572 176.161 330.225 185.012 347.957C188.533 358.485 192.17 368.955 195.873 379.425C200.817 378.202 203.257 377.543 208.085 376.131C204.273 365.719 200.512 355.285 196.853 344.822C193.673 325.757 190.943 306.728 189.121 287.49L189.128 287.482Z" fill="#FAEFC3"/>
<path d="M189.898 287.301C197.477 316.482 207.794 344.692 218.372 372.902C223.476 371.2 225.996 370.295 230.969 368.383C220.26 340.803 209.74 313.194 201.057 284.897C196.635 285.788 194.392 286.288 189.891 287.301H189.898Z" fill="#FAEFC3"/>
<path d="M219.28 281.871C223.919 293.268 228.624 304.643 233.343 316.004C226.482 305.012 219.81 293.934 213.399 282.674C209.842 283.217 208.027 283.543 204.367 284.246C213.377 312.209 223.948 339.587 234.693 366.928C238.824 365.277 240.872 364.423 244.923 362.634C239.884 350.339 234.889 338.037 229.945 325.699C236.85 337.176 243.914 348.536 251.188 359.789C255.385 357.826 257.469 356.813 261.592 354.706C250.419 330.123 239.391 305.483 227.738 281.125C224.449 281.299 222.75 281.458 219.287 281.871H219.28Z" fill="#FAEFC3"/>
<path d="M291.337 337.711C284.324 327.437 277.354 317.148 270.101 307.032C265.607 308.017 263.262 308.604 258.427 309.885C260.699 313.897 261.832 315.938 264.09 320.022C264.954 319.711 265.382 319.559 266.239 319.248C268.018 322.368 268.903 323.932 270.66 327.06C272.388 330.13 273.39 332.252 273.688 333.447C273.986 334.649 273.724 335.452 272.911 335.858C272.171 336.227 271.415 335.995 270.653 335.148C269.891 334.301 268.707 332.346 267.074 329.276C261.316 318.473 255.545 307.662 249.359 297.091C247.457 293.84 246.382 291.885 246.135 291.117C245.881 290.35 246.048 289.966 246.622 289.951C247.29 289.937 247.979 290.35 248.706 291.197C249.432 292.044 250.898 294.144 253.091 297.663C254.477 299.9 255.174 301.03 256.561 303.332C260.54 302.572 262.471 302.246 266.166 301.776C265.448 300.834 265.085 300.364 264.366 299.444C261.578 294.462 259.4 291.407 257.171 288.858C255.08 286.469 252.437 283.768 249.569 281.9C246.709 280.032 243.986 278.931 241.213 279.003C238.614 279.076 235.833 280.785 235.303 283.051C234.773 285.317 234.969 288.054 236.044 291.045C237.111 294.035 239.267 298.886 242.578 305.794C246.063 313.086 249.504 320.399 252.924 327.719C255.32 332.853 257.222 336.654 258.63 339.109C260.039 341.564 261.723 343.729 263.676 345.568C265.636 347.407 267.829 348.616 270.254 349.174C272.679 349.731 274.871 349.398 276.803 348.276C278.429 347.334 279.554 345.995 280.186 344.315C280.817 342.635 280.948 340.615 280.578 338.255C282.044 339.819 282.778 340.586 284.244 342.085C287.09 340.369 288.506 339.493 291.323 337.711H291.337Z" fill="#FAEFC3"/>
<path d="M104.242 352.577C107.044 352.823 109.302 352.265 110.943 350.962C112.591 349.659 113.622 347.704 114.101 345.112C114.58 342.519 114.631 338.378 114.588 332.571C114.566 329.406 114.58 327.813 114.682 324.606C114.864 318.842 115.118 314.505 115.161 311.666C115.212 308.828 115.081 306.366 114.769 304.266C114.457 302.167 113.84 300.465 112.932 299.125C112.018 297.786 110.58 296.83 108.678 296.106C105.854 295.034 103.835 295.114 100.692 293.861C89.3802 324.577 88.6033 355.726 86.8899 388.201C96.4008 384.682 113.84 381.822 119.408 387.615C118.791 375.82 100.655 364.039 100.808 352.222C102.18 352.374 102.87 352.439 104.242 352.562V352.577ZM100.016 333.186C100.205 327.089 102.223 314.823 103.175 308.973C103.886 309.19 106.398 310.254 106.442 313.194L105.483 331.579C105.534 333.2 103.262 333.237 102.616 333.128C102.47 333.106 100.205 333.251 100.009 333.186H100.016Z" fill="#FAEFC3"/>
<path d="M61 484.424L198.639 573L307.927 535.696L331 371.975L261.716 441.073L203.67 382.93L169.148 471.847L61 484.424Z" fill="#FAEFC3"/>
<path d="M315.848 398.389L287.221 467.966L267.364 446.83L315.848 398.389Z" fill="#353535" fill-opacity="0.3"/>
<path d="M282.015 473.114L235.158 490.861L212.608 401.951L282.015 473.114Z" fill="#4C3B23" fill-opacity="0.2"/>
<path d="M165.119 505.965L184.758 509.955L228.326 493.446L204.258 399.801L165.119 505.965Z" fill="#4C3B23" fill-opacity="0.2"/>
<path d="M157.96 504.416L166.745 480.579L92.7126 489.08L157.96 504.416Z" fill="#353535" fill-opacity="0.3"/>
<path d="M91.3186 496.19L155.434 511.258L155.39 511.381L182.129 516.812L194.254 562.428L91.3186 496.19Z" fill="#2C2214" fill-opacity="0.2"/>
<path d="M202.472 565.086L189.411 515.936L285.878 479.391L298.815 532.198L202.472 565.086Z" fill="#2C2214" fill-opacity="0.2"/>
<path d="M292.209 474.953L318.476 411.082L303.644 523.401L292.209 474.953Z" fill="#2C2214" fill-opacity="0.2"/>
</svg>
