<svg width="106" height="55" viewBox="0 0 106 55" fill="none" xmlns="http://www.w3.org/2000/svg">
<g clip-path="url(#clip0_499_352)">
<path d="M103.147 13.7397C103.26 14.2398 103.217 14.7443 103.075 15.2339C102.432 17.4508 100.449 18.8815 98.9678 20.3072C97.2756 21.9356 96.1536 24.0148 95.5646 26.4493C94.8735 29.3064 94.9203 32.2863 94.8783 35.2147C94.8378 38.0852 94.5587 40.9549 94.0571 43.7745C93.6549 46.036 93.231 48.3822 92.5818 50.5709C92.2488 51.6928 91.5969 51.4385 91.343 50.5116C91.1513 49.8136 91.1128 49.0739 91.0429 48.349C90.854 46.3857 90.9939 44.3863 91.3206 42.4456C92.1005 37.8125 92.777 33.3715 92.1684 28.655C91.9494 26.9608 91.5388 25.2879 90.7966 23.8028C90.1006 22.4082 89.0856 21.2906 88.186 20.0733C88.1321 19.9998 88.0783 19.9256 88.0244 19.8515C88.6484 19.6077 89.2794 19.388 89.8935 19.1188C90.314 18.9344 90.7302 18.7098 91.1156 18.4413C91.1772 18.4943 91.2401 18.5473 91.3038 18.5989C91.4472 18.7154 91.5955 18.8292 91.7501 18.9401C95.7856 21.836 99.3546 16.0746 102.107 13.5334C102.469 13.1992 102.991 13.0438 103.147 13.7397Z" fill="#0D7601"/>
<path d="M89.8641 14.7733C90.0495 15.6691 89.4052 16.2809 88.6617 16.5861C87.4123 17.0997 86.1455 17.5822 84.9262 18.1665C83.7104 18.7487 82.6528 19.5435 82.1988 20.8603C81.7839 22.0649 81.7077 23.5019 82.1036 24.722C82.2036 25.0321 82.3527 25.3253 82.5401 25.5889C82.8689 26.053 83.3173 26.426 83.8314 26.638C84.9073 27.081 86.044 27.2088 87.1913 27.2597C87.5081 27.2738 87.8334 27.2858 88.1265 27.4144C88.5581 27.6038 88.782 28.1018 88.5728 28.5561C88.1993 29.365 87.1997 29.5014 86.4288 29.5445C85.3081 29.6066 84.1336 29.69 83.3956 30.684C81.6622 33.0204 83.3369 37.0043 84.1798 39.3936C84.929 41.5166 85.7901 43.6127 86.2763 45.8241C86.5967 47.2801 87.4494 49.6122 86.398 50.944C85.9972 51.4519 85.3571 51.6928 84.731 51.784C83.3558 51.9846 81.8441 52.092 80.6773 51.158C79.9673 50.5893 79.5217 49.7239 79.2824 48.8259C78.7879 46.9678 78.9705 44.9904 78.8795 43.0885C78.6718 38.7726 78.6494 34.4517 78.5633 30.1344C78.4836 26.1477 78.5521 21.9646 79.5832 18.0937C80.4975 14.6588 84.2938 13.2105 87.5067 13.2564C87.8859 13.2621 88.2657 13.3122 88.6232 13.4458C89.2129 13.6669 89.7361 14.1515 89.8641 14.7733Z" fill="#0D7601"/>
<path d="M77.065 13.9946C77.3644 14.8417 76.6459 15.5425 76.1353 15.8357C74.965 16.5076 73.4218 17.1081 72.6615 18.5543C72.4978 18.8658 72.3726 19.1894 72.2767 19.5229C72.0452 20.3332 71.9948 21.1986 72.0179 22.0796C72.0438 23.0722 72.1634 24.0839 72.2236 25.0603C72.2333 25.2178 72.2445 25.3761 72.2543 25.5336C72.3138 26.4485 72.3809 27.362 72.4537 28.2755C72.6447 30.7002 72.8664 33.1213 73.0455 35.5481C73.2917 38.8764 73.0385 42.4688 73.6016 45.7243C73.7772 46.7403 74.1738 47.853 74.9412 48.2966C75.214 48.4542 76.1969 48.6902 76.0821 49.3126C76.0003 49.7527 75.27 49.8502 75.0077 49.8785C73.4162 50.0508 71.8115 50.5214 70.2285 50.8675C69.3849 51.0519 68.5238 51.2095 67.6753 51.3706C67.0275 51.4935 66.3441 51.5917 65.6865 51.574C65.4039 51.5663 64.873 51.4553 64.7477 51.0809C64.8702 50.7778 64.9828 50.4705 65.0863 50.1575C65.4885 49.8106 66.1286 49.7068 66.5497 49.6149C68.9099 49.102 69.1107 45.5519 69.0365 42.9916C68.9008 38.2879 69.0365 33.5798 69.3121 28.8895C69.3464 28.3137 69.3821 27.7386 69.4199 27.1635C69.4492 26.7156 69.4926 26.2578 69.5374 25.795C69.6542 24.5735 69.7787 23.3174 69.671 22.1121C69.6367 21.7193 69.5773 21.3322 69.4849 20.9535C69.0932 19.342 68.5154 18.7705 67.2345 19.2169C66.7414 19.3893 65.8523 19.3851 65.1458 19.0311C64.6708 18.7938 64.2784 18.3995 64.1433 17.7941C64.0265 17.2706 64.2126 16.6927 64.5092 16.3161C64.8058 15.9389 65.1961 15.7248 65.5809 15.5369C67.8949 14.4022 70.3712 13.8208 72.8007 13.3164C73.7772 13.1136 74.8349 12.7293 75.8387 12.9956C76.2731 13.1108 76.8607 13.4146 77.065 13.9946Z" fill="#0D7601"/>
<path d="M67.4969 6.54358C67.5067 6.86079 67.3199 7.11725 67.1443 7.30235C66.0216 8.48854 64.4784 9.12861 63.3144 10.2625C61.7223 11.814 61.069 14.5438 61.5915 16.6993C61.9357 18.1172 62.021 19.627 62.4666 21.0131C62.5533 21.2844 62.6632 21.5536 62.8437 21.7726C63.2732 22.2926 64.0622 22.2021 64.6631 22.2382C65.4969 22.2883 66.335 22.2509 67.166 22.2926C67.1226 22.5865 66.6666 25.5933 66.7834 25.6088C66.0293 25.5071 65.1808 25.3835 64.5218 25.7975C64.1734 26.0165 63.4089 26.807 63.3767 27.4591C62.9325 28.8205 63.0003 30.3974 63.1326 31.869C63.3816 34.6568 63.8202 37.3916 64.0077 40.1942C64.1755 42.715 64.1273 45.341 63.574 47.7649C62.3274 48.3591 61.779 49.8576 61.9021 51.3221C61.5306 51.6612 61.1193 51.8322 60.6863 51.734C59.8924 51.5531 59.3474 50.5252 58.9956 49.4139C58.9466 49.2585 58.9011 49.1016 58.8592 48.9455C58.0442 45.897 57.9973 42.4776 57.961 39.1437C57.9204 35.3598 57.8791 31.5765 57.8386 27.7933C57.8323 27.2069 57.805 26.5499 57.5161 26.179C57.2594 25.8483 56.8802 25.8575 56.5367 25.902C56.4325 25.9154 56.3276 25.931 56.222 25.9472C54.5067 26.2129 53.0174 26.7993 51.249 26.4884C50.8174 26.4121 50.3788 26.2927 50.0319 26.0214C49.5821 25.6696 49.3393 25.0896 49.324 24.5159C49.3023 23.6808 49.7059 22.7476 50.4691 22.3293C51.4925 21.7691 52.7796 22.0227 53.8821 22.0983C55.2062 22.1887 56.5794 22.2869 57.9043 22.1951C57.9316 22.193 57.9582 22.1908 57.9862 22.1887C58.2932 22.1619 58.6108 22.0976 58.8634 21.8228C59.2803 21.3713 59.3852 20.52 59.4545 19.7619C59.5342 18.8802 59.614 17.9802 59.5062 17.1169C59.3992 16.2542 59.0704 15.4192 58.5374 15.0914C58.1848 14.8738 57.7847 14.8978 57.3979 14.9246C56.6557 14.9769 55.9128 15.0292 55.1699 15.0815C55.0796 15.0878 54.7495 15.1754 54.4123 15.2122C53.9345 15.2637 53.4427 15.2143 53.5973 14.6865C53.6288 14.5785 53.6883 14.4788 53.7631 14.3877C54.0073 14.0903 54.4235 13.8826 54.6375 13.749C55.2608 13.3619 55.9142 13.1217 56.5493 12.7974C57.707 12.2061 58.9676 11.0248 59.0921 9.19714C59.2229 7.27621 58.0078 5.47467 58.4751 3.65688C58.5738 3.27255 58.7962 2.88963 59.0627 2.92072C59.5272 2.97512 59.5076 3.98963 59.4419 4.69612C59.3111 6.10061 59.5587 7.55386 60.1148 8.64891C60.2764 8.96612 60.4723 9.26426 60.7262 9.38648C61.0109 9.52425 61.3264 9.42251 61.6202 9.29252C63.3515 8.5281 64.8793 6.82829 66.6155 6.09214C66.9666 5.94377 67.4801 5.99817 67.4969 6.54358Z" fill="#0D7601"/>
<path d="M55.9932 40.9032C56.0282 43.0926 56.0254 45.3322 56.3157 47.4707C56.0331 48.0387 55.6826 48.5523 55.2454 48.9861C53.5274 50.6909 51.2302 51.0512 49.1722 51.0957C46.6637 51.1494 44.314 49.9865 42.9016 47.0016C42.4966 46.1461 42.1196 45.258 41.7726 44.3424C40.5666 41.159 39.7272 37.6513 39.3565 34.0786C39.22 32.7631 39.1473 31.4391 39.1431 30.1187C39.1403 29.1325 39.176 28.1483 39.2522 27.1719C39.5572 23.2594 40.5128 19.472 42.2595 16.1599C42.2917 16.0992 42.3238 16.0391 42.3574 15.9791C42.9247 14.9519 43.6082 14.1401 44.5406 13.8328C44.5777 13.8208 44.6134 13.8073 44.6511 13.7968C46.23 13.3545 47.9333 14.0885 49.2358 14.9554C50.8552 16.0342 52.1843 17.4599 53.2497 19.0905C53.0601 19.0996 52.8699 19.1095 52.6803 19.1208C51.1938 19.207 49.7143 19.5617 48.614 20.6384C46.3902 22.8158 46.5895 26.368 49.1407 28.1801C50.5076 29.1508 52.376 29.5938 54.0346 29.5436C54.2626 29.5366 55.7323 29.4998 55.7743 29.1642C55.8142 31.1431 55.8533 33.1213 55.8904 35.1001C55.9268 37.0345 55.9625 38.9689 55.9932 40.9032ZM54.7327 39.7453C54.8747 38.5972 54.8264 37.4238 54.6431 36.2849C54.4529 35.1044 54.0842 33.9683 53.5365 32.9736C52.6992 31.4518 51.4414 30.2614 49.7605 29.7513C48.8595 29.4779 47.8571 29.4786 47.0274 29.9484C45.2492 30.9552 44.6148 33.2894 44.3315 35.2973C43.9992 37.6555 43.7593 40.4249 44.7952 42.608C45.2597 43.5865 46.0117 44.3261 46.8449 44.803C48.2929 45.6303 50.0186 45.6819 51.4967 44.9415C53.4036 43.9856 54.4592 41.9531 54.7327 39.7453Z" fill="#0D7601"/>
<path d="M39.6622 14.2575C39.6461 14.2575 39.0424 15.7404 38.7556 16.4546C38.6807 16.6418 38.6276 16.7768 38.6122 16.8178C38.1932 17.9623 37.8273 19.1259 37.5167 20.305C37.1215 21.8041 36.8144 23.328 36.599 24.8646C36.4961 25.5959 36.5654 26.5312 36.3408 27.2257C36.2114 27.6256 36.1044 27.5239 35.6581 27.5641C35.3055 27.5959 34.946 27.6341 34.6228 27.7923C34.578 27.8142 34.5361 27.839 34.4955 27.8651C33.6735 28.3971 33.7582 29.7648 34.0037 30.6409C34.1128 31.0301 34.2122 31.4222 34.3031 31.8151C35.1097 35.291 35.2531 38.9004 35.4245 42.4929C35.5392 44.8978 35.7833 47.4023 35.0187 49.7012C34.9656 49.8601 34.9082 50.0184 34.8452 50.1752C34.5144 51.0018 33.8764 52.2106 32.9642 51.6772C32.6858 51.5147 32.4445 51.2576 32.2283 50.9651C31.9366 50.5694 31.6911 50.1095 31.4658 49.7266C29.8388 46.9593 28.9602 43.7829 28.4516 40.4935C28.3026 39.5306 28.1858 38.5585 28.0906 37.5842C27.8864 35.4874 27.7856 33.3806 27.6933 31.3368C27.6716 30.867 27.6506 30.4 27.6297 29.9379C27.5975 29.2477 27.5618 28.556 27.5303 27.8644C27.51 27.4087 27.4911 26.953 27.4772 26.4973C27.4457 25.5019 27.4359 24.5065 27.4716 23.5131C27.4988 22.7346 27.5541 21.9575 27.6499 21.1831C27.6779 20.9535 27.7115 20.7197 27.7486 20.4844C28.0634 18.5034 28.709 16.3635 29.9283 14.8417C30.4243 14.2221 31.0147 13.7043 31.717 13.3426C34.11 12.1104 37.4866 12.8233 39.6622 14.2575ZM36.8214 20.9394C37.2817 19.7264 37.6888 18.1947 37.4692 16.8934C37.1663 15.1017 35.0117 15.2041 33.6987 15.6867C33.3874 15.8011 33.072 15.9467 32.7607 16.1198C31.1692 17.0015 29.6821 18.5882 29.3407 20.3198C29.0399 21.8437 29.994 23.1429 31.2567 23.5767C33.705 24.4181 35.9057 23.3556 36.8214 20.9394Z" fill="#0D7601"/>
<path d="M26.5593 14.6602C26.4061 14.9491 26.2613 15.2494 26.127 15.5631C25.7304 16.4886 25.424 17.4445 25.1889 18.4208C24.928 18.4392 24.6622 18.4251 24.4048 18.3933C22.9721 18.2145 21.5696 17.78 20.2692 17.1202C18.9953 16.4737 17.8131 15.0113 16.4281 14.7704C15.5103 14.6107 14.531 14.7238 13.6832 15.135C12.1757 15.8655 11.0858 18.0619 11.9462 19.7193C12.2694 20.3418 12.8346 20.7812 13.4173 21.1323C16.0427 22.7141 19.0534 23.2751 21.9068 24.2557C22.7749 24.5538 23.643 24.864 24.5027 25.1981C24.5034 25.5655 24.509 25.9329 24.5181 26.2996C23.373 25.764 22.2062 25.2801 21.0219 24.8484C18.179 23.8127 15.1452 23.5739 12.2778 22.6315C11.4657 22.3644 10.6584 22.0352 9.97288 21.5025C6.37383 18.7041 10.0946 14.4765 13.1403 13.5651C15.6607 12.8106 18.4301 12.8184 21.0184 13.0734C22.6944 13.2395 24.5642 13.4231 26.0612 14.3098C26.2354 14.4122 26.404 14.5288 26.5593 14.6602Z" fill="#0D7601"/>
<path d="M27.48 47.9859C27.8808 49.0901 28.4236 50.4593 29.1364 51.6949C27.1092 52.0135 25.0309 52.0729 23.0212 52.0538C18.4792 52.0093 13.9463 51.2809 9.64209 49.7316C7.92196 49.1127 6.2445 48.243 4.94968 46.8936C4.03121 45.9371 3.29391 44.6922 3.00781 43.3548C2.75038 42.1552 2.88609 40.8348 3.52126 39.8055C5.34002 36.8608 9.40146 37.2967 12.1604 38.0237C16.5051 39.1682 20.7449 40.8744 25.289 40.808C25.4422 40.8058 25.601 40.8016 25.7633 40.7952C26.1215 43.2439 26.6342 45.6559 27.48 47.9859Z" fill="#0D7601"/>
<path d="M84.7311 51.7841C85.3571 51.6929 85.9972 51.452 86.398 50.944C87.4494 49.6123 86.5967 47.2802 86.2763 45.8241C85.7901 43.6128 84.929 41.5167 84.1798 39.3937C83.3369 37.0044 81.6623 33.0205 83.3957 30.6841C84.1337 29.6901 85.3082 29.6067 86.4288 29.5446C87.1997 29.5015 88.1993 29.3651 88.5729 28.5562C88.782 28.1019 88.5582 27.6038 88.1266 27.4145C87.8335 27.2859 87.5082 27.2739 87.1913 27.2598C86.0441 27.2089 84.9073 27.081 83.8315 26.6381C83.3173 26.4261 82.8689 26.0531 82.5402 25.5889C82.3527 25.3254 82.2037 25.0322 82.1036 24.7221C81.7077 23.502 81.784 22.065 82.1988 20.8604C82.6528 19.5435 83.7105 18.7487 84.9262 18.1666C86.1455 17.5823 87.4123 17.0998 88.6617 16.5862C89.4053 16.281 90.0495 15.6692 89.8642 14.7733C89.7362 14.1516 89.2129 13.667 88.6232 13.4458C88.2658 13.3123 87.8859 13.2622 87.5068 13.2565C84.2939 13.2106 80.4975 14.6589 79.5833 18.0938C78.5522 21.9647 78.4836 26.1478 78.5634 30.1345C78.6494 34.4518 78.6718 38.7727 78.8795 43.0886C78.9705 44.9905 78.7879 46.9679 79.2825 48.826C79.5217 49.7239 79.9673 50.5894 80.6773 51.1581C81.8441 52.0921 83.3558 51.9847 84.7311 51.7841ZM86.4015 51.115C86.3665 51.144 86.3393 51.1666 86.3169 51.185C86.3652 51.1518 86.3994 51.1249 86.4015 51.115ZM43.3682 47.9613C43.3598 47.95 43.3437 47.9245 43.3269 47.897C43.3416 47.9252 43.3556 47.9493 43.3682 47.9613ZM42.9016 47.0019C44.314 49.9868 46.6637 51.1496 49.1722 51.0959C51.2302 51.0514 53.5274 50.6911 55.2454 48.9864C55.6826 48.5526 56.0331 48.039 56.3157 47.471C56.0254 45.3324 56.0282 43.0929 55.9932 40.9035C55.9624 38.9691 55.9268 37.0347 55.8904 35.1004C55.8533 33.1215 55.8141 31.1433 55.7743 29.1645C55.7323 29.5001 54.2626 29.5368 54.0345 29.5439C52.376 29.594 50.5075 29.1511 49.1407 28.1803C46.5895 26.3682 46.3902 22.816 48.6139 20.6386C49.7143 19.5619 51.1938 19.2072 52.6803 19.1211C52.8698 19.1098 53.0601 19.0999 53.2497 19.0907C52.1843 17.4601 50.8552 16.0344 49.2358 14.9556C47.9333 14.0888 46.23 13.3547 44.6511 13.797C44.6134 13.8076 44.5777 13.821 44.5406 13.833C43.6081 14.1403 42.9247 14.9521 42.3574 15.9793C42.3238 16.0394 42.2916 16.0994 42.2595 16.1602C40.5128 19.4722 39.5572 23.2597 39.2522 27.1722C39.176 28.1485 39.1403 29.1327 39.1431 30.1189C39.1473 31.4394 39.22 32.7633 39.3564 34.0788C39.7272 37.6515 40.5666 41.1592 41.7726 44.3426C42.1196 45.2582 42.4966 46.1463 42.9016 47.0019ZM61.2264 51.8773C61.2264 51.8773 61.1571 51.895 61.127 51.9013C61.1655 51.902 61.2012 51.8964 61.2264 51.8773ZM60.6863 51.7339C61.1193 51.8321 61.5307 51.6611 61.9021 51.322C61.779 49.8575 62.3274 48.359 63.574 47.7649C64.1273 45.3409 64.1756 42.7149 64.0077 40.1941C63.8202 37.3915 63.3816 34.6567 63.1326 31.8689C63.0003 30.3973 62.9325 28.8204 63.3767 27.459C63.4089 26.8069 64.1734 26.0164 64.5218 25.7974C65.1808 25.3834 66.0293 25.507 66.7834 25.6087C66.6666 25.5932 67.1226 22.5864 67.166 22.2925C66.335 22.2508 65.4969 22.2882 64.6631 22.2381C64.0622 22.202 63.2732 22.2925 62.8437 21.7725C62.6632 21.5535 62.5534 21.2843 62.4666 21.013C62.021 19.6269 61.9357 18.1171 61.5915 16.6992C61.069 14.5437 61.7223 11.8139 63.3144 10.2624C64.4784 9.12851 66.0216 8.48843 67.1443 7.30224C67.3199 7.11714 67.5067 6.86068 67.4969 6.54347C67.4801 5.99806 66.9667 5.94366 66.6155 6.09203C64.8793 6.82819 63.3515 8.52799 61.6202 9.29241C61.3264 9.42241 61.0109 9.52414 60.7262 9.38637C60.4723 9.26415 60.2764 8.96601 60.1148 8.6488C59.5587 7.55375 59.3111 6.1005 59.4419 4.69601C59.5076 3.98952 59.5272 2.97501 59.0627 2.92061C58.7962 2.88952 58.5738 3.27244 58.4751 3.65677C58.0078 5.47456 59.2229 7.2761 59.0921 9.19704C58.9676 11.0247 57.7071 12.206 56.5493 12.7973C55.9142 13.1216 55.2608 13.3618 54.6375 13.7489C54.4235 13.8825 54.0073 14.0902 53.7631 14.3876C53.6883 14.4787 53.6288 14.5783 53.5973 14.6864C53.4428 15.2142 53.9345 15.2636 54.4123 15.2121C54.7495 15.1753 55.0796 15.0877 55.1699 15.0814C55.9128 15.0291 56.6557 14.9768 57.3979 14.9245C57.7847 14.8977 58.1848 14.8737 58.5374 15.0913C59.0704 15.4191 59.3992 16.2541 59.5062 17.1168C59.614 17.9801 59.5342 18.8801 59.4545 19.7618C59.3852 20.5199 59.2803 21.3712 58.8634 21.8227C58.6108 22.0975 58.2933 22.1618 57.9862 22.1886C57.9582 22.1907 57.9316 22.1929 57.9043 22.195C56.5794 22.2868 55.2063 22.1886 53.8821 22.0982C52.7796 22.0226 51.4925 21.769 50.4691 22.3292C49.7059 22.7475 49.3023 23.6807 49.324 24.5158C49.3393 25.0895 49.5821 25.6695 50.0319 26.0213C50.3788 26.2926 50.8174 26.412 51.249 26.4883C53.0174 26.7992 54.5067 26.2128 56.222 25.9471C56.3276 25.9309 56.4325 25.9153 56.5367 25.9019C56.8802 25.8574 57.2594 25.8482 57.5161 26.1789C57.805 26.5498 57.8323 27.2068 57.8386 27.7932C57.8791 31.5764 57.9204 35.3597 57.961 39.1436C57.9974 42.4775 58.0442 45.8969 58.8592 48.9454C58.9011 49.1015 58.9466 49.2584 58.9956 49.4138C59.3474 50.5251 59.8924 51.553 60.6863 51.7339ZM65.5872 28.7031C65.1311 28.7681 65.1661 28.7215 65.164 29.4626C65.1507 33.3448 65.9474 37.1026 66.1069 40.9649C66.1111 41.0603 66.1146 41.155 66.1174 41.2503C66.1748 42.9113 66.1349 44.5977 65.9362 46.2353C65.96 46.1901 65.9838 46.1442 66.0055 46.0954C66.4644 45.076 66.4063 43.7591 66.3497 42.6209C66.3266 42.1624 66.3077 41.7039 66.293 41.244C66.2671 40.4789 66.251 39.7123 66.2398 38.9472C66.1965 35.9439 66.265 32.9371 66.463 29.9451C66.4728 29.7989 66.5022 29.3616 66.5434 28.766C66.2308 28.7335 65.8964 28.6593 65.5872 28.7031ZM65.185 28.6042C65.185 28.6042 65.1878 28.6021 65.1892 28.6007C65.2004 28.5746 65.2059 28.5491 65.201 28.5322C65.2031 28.5399 65.1941 28.5724 65.185 28.6042ZM104.101 10.054C105.501 10.557 105.89 12.4066 105.838 14.0845C105.82 14.7083 105.739 15.3081 105.628 15.8069C105.156 17.913 103.932 19.7703 102.524 21.1451C100.471 23.1509 98.6663 24.9227 98.0633 28.0779C97.6296 30.3478 97.8457 32.6842 97.752 34.9859C97.6583 37.2933 97.4484 39.5958 97.1252 41.8791C96.8202 44.0332 96.5006 46.1908 95.9948 48.3004C95.5373 50.2114 94.9602 52.5725 93.7206 54.0434C93.2492 54.6022 92.6014 55.0106 91.9292 54.9823C90.6847 54.9308 89.7809 53.8378 89.1632 52.4637C88.8596 53.0762 88.4022 53.6103 87.7292 54.0187C86.0993 55.0071 83.9945 55.0805 82.1603 54.952C80.3346 54.8234 78.6438 53.9826 77.5749 52.5132C76.569 53.2154 75.2756 53.5001 74.248 53.6831C71.708 54.1345 69.1904 54.7513 66.6323 54.971C65.4865 55.0699 64.2812 54.9428 63.2955 54.1579C63.2179 54.0957 63.1438 54.03 63.0724 53.9615C62.8513 54.2002 62.6156 54.4051 62.3645 54.5606C61.4495 55.1257 60.4513 55.1639 59.5664 54.569C58.6577 53.9579 57.9645 52.9759 57.444 51.789C54.5382 55.0134 49.8549 55.4945 46.444 54.6051C44.2503 54.0328 42.4245 52.2136 41.2011 50.3739C40.426 49.2075 39.7894 47.9471 39.3096 46.6281C39.0843 46.0099 38.9374 45.3649 38.7185 44.7482C38.6849 44.6556 38.3533 43.6743 38.2204 43.8248C38.1889 43.8601 38.1854 43.911 38.1833 43.9583C38.1008 45.6899 38.0455 47.43 37.7706 49.1453C37.4041 51.4273 36.4149 54.8142 33.6161 54.9929C32.741 55.0487 31.9646 54.7633 31.2762 54.2631C29.2448 54.7054 27.1434 54.8742 25.1211 54.9604C21.145 55.13 17.1396 54.7513 13.2481 53.8696C9.77987 53.084 6.22559 51.9381 3.46597 49.4823C0.944883 47.2392 -0.617154 43.444 0.385963 39.9836C2.06692 34.1834 8.78445 34.0173 13.3551 35.2622C17.2872 36.3332 21.3444 38.0182 25.4058 37.9284C25.3037 36.9733 25.2142 36.0153 25.1274 35.0573C25.061 34.3211 24.9952 33.5857 24.9337 32.8488C24.8434 31.77 24.7532 30.6905 24.679 29.6103C24.0215 29.2782 23.3569 28.9688 22.6924 28.6805C20.3861 27.6823 18.0042 26.9814 15.5642 26.4636C12.3527 25.7818 8.45987 25.2329 6.62152 21.9541C4.4411 18.0649 6.60823 13.7214 10.0863 11.7573C14.5499 9.2366 20.7491 9.48528 25.4681 10.9739C26.4446 11.2826 27.4093 11.7326 28.2046 12.36C30.1605 10.3309 32.8138 9.49305 35.7469 10.0003C36.2359 10.0851 36.7234 10.1833 37.2082 10.2963C38.6003 10.6213 40.035 11.0742 41.3844 11.7241C42.2546 10.7859 43.2493 10.1331 44.3699 9.94803C45.1506 9.81945 45.9404 9.82793 46.7203 9.9551C48.7147 10.2808 50.6188 11.2762 52.2822 12.8157C52.9629 12.2738 53.7086 11.8767 54.4172 11.4359C55.2384 10.9251 56.0576 10.4037 56.8571 9.81733C57.1362 9.61316 57.6028 9.45702 57.6896 8.92575C57.763 8.47854 57.4944 8.07796 57.3559 7.73531C57.195 7.33474 57.0187 6.94688 56.8648 6.53923C56.564 5.74232 56.3759 4.87828 56.4997 3.9436C56.7018 2.42041 57.4986 1.14521 58.4632 0.515726C59.3866 -0.0869077 60.4184 0.0678125 60.8962 1.43698C61.3215 2.65426 61.3949 4.11386 61.204 5.47032C61.0221 6.76601 61.0774 7.3849 62.0308 6.84514C62.8066 6.40641 63.4823 5.6321 64.2301 5.10012C65.1381 4.45368 66.0783 4.00294 67.0793 3.91887C68.1894 3.82562 69.5941 4.63101 69.4556 6.57032C69.3506 8.04193 68.4335 9.10449 67.5997 9.78413C66.6386 10.5683 65.5529 11.0318 64.6386 11.9156C64.1637 12.3755 63.7418 12.9951 63.5264 13.7595C63.5194 13.7828 63.5138 13.8069 63.5075 13.8309C64.2714 13.2452 65.1332 12.8008 65.8971 12.4292C67.8613 11.4747 70.2299 10.6821 72.3005 10.2963C74.2704 9.92966 76.4144 9.34187 78.166 10.7414C78.6956 11.1646 79.1901 11.6867 79.5567 12.3473C80.1709 11.816 80.8718 11.3744 81.6637 11.0388C84.4114 9.87597 87.4004 9.51849 90.3112 10.1988C92.4223 10.692 94.3131 12.0216 94.1166 14.5232C94.0627 15.2078 93.8431 15.8232 93.515 16.3756C93.9347 16.536 94.395 16.553 94.9077 16.3615C98.0542 15.1859 100.293 8.68695 104.101 10.054ZM103.075 15.234C103.217 14.7444 103.26 14.2399 103.147 13.7397C102.991 13.0439 102.469 13.1993 102.107 13.5335C99.3546 16.0747 95.7856 21.8361 91.7501 18.9402C91.5955 18.8293 91.4472 18.7155 91.3038 18.599C91.2401 18.5474 91.1772 18.4944 91.1156 18.4414C90.7302 18.7099 90.314 18.9345 89.8936 19.1189C89.2794 19.3881 88.6484 19.6078 88.0244 19.8516C88.0783 19.9257 88.1321 19.9999 88.186 20.0734C89.0856 21.2907 90.1006 22.4083 90.7966 23.8029C91.5388 25.288 91.9494 26.9609 92.1684 28.6551C92.777 33.3716 92.1005 37.8126 91.3206 42.4457C90.9939 44.3864 90.854 46.3858 91.0429 48.3491C91.1128 49.074 91.1513 49.8137 91.343 50.5117C91.5969 51.4386 92.2488 51.6929 92.5818 50.571C93.231 48.3823 93.6549 46.0361 94.0571 43.7746C94.5587 40.955 94.8378 38.0853 94.8783 35.2148C94.9203 32.2864 94.8735 29.3065 95.5646 26.4494C96.1536 24.0149 97.2756 21.9357 98.9678 20.3072C100.449 18.8816 102.432 17.4509 103.075 15.234ZM102.796 12.6892C102.816 12.7408 102.842 12.7867 102.871 12.8277C102.851 12.774 102.827 12.7238 102.796 12.6892ZM89.6004 34.5013C89.6347 33.4373 89.6606 32.3804 89.6291 31.3433C88.4064 32.0236 86.8709 32.0413 85.9909 32.5556C84.0693 33.6789 86.1959 36.2689 86.9514 38.0923C87.5522 39.5442 88.0734 40.9706 88.4973 42.4168C88.9191 39.7922 89.5137 37.181 89.6004 34.5013ZM87.9818 24.821C87.9083 24.7009 87.8327 24.5808 87.753 24.4621C87.0731 23.4546 86.3183 22.397 85.6467 21.2829C85.4418 21.4313 85.2508 21.5931 85.0787 21.7725C84.7171 22.1505 84.4429 22.6938 84.5842 23.206C84.8794 24.2784 86.6394 24.5554 87.9818 24.821ZM76.1353 15.8359C76.646 15.5427 77.3644 14.8419 77.065 13.9948C76.8607 13.4148 76.2731 13.111 75.8387 12.9958C74.8349 12.7295 73.7772 13.1138 72.8007 13.3166C70.3712 13.821 67.8949 14.4024 65.5809 15.5371C65.1962 15.725 64.8058 15.939 64.5092 16.3163C64.2126 16.6929 64.0265 17.2708 64.1434 17.7943C64.2784 18.3997 64.6708 18.794 65.1458 19.0313C65.8523 19.3853 66.7414 19.3895 67.2346 19.2171C68.5154 18.7706 69.0932 19.3422 69.4849 20.9537C69.5773 21.3324 69.6367 21.7195 69.671 22.1123C69.7787 23.3176 69.6542 24.5737 69.5374 25.7952C69.4926 26.258 69.4493 26.7158 69.4199 27.1637C69.3821 27.7388 69.3464 28.3139 69.3121 28.8897C69.0365 33.58 68.9008 38.288 69.0365 42.9918C69.1107 45.5521 68.9099 49.1022 66.5497 49.6152C66.1286 49.707 65.4886 49.8108 65.0863 50.1577C64.9828 50.4707 64.8702 50.778 64.7478 51.0811C64.873 51.4555 65.4039 51.5665 65.6865 51.5742C66.3441 51.5919 67.0275 51.4937 67.6753 51.3708C68.5238 51.2097 69.3849 51.0521 70.2285 50.8677C71.8116 50.5216 73.4163 50.0511 75.0077 49.8787C75.27 49.8504 76.0003 49.7529 76.0821 49.3128C76.1969 48.6904 75.214 48.4544 74.9412 48.2968C74.1739 47.8532 73.7772 46.7405 73.6016 45.7245C73.0385 42.469 73.2917 38.8765 73.0455 35.5483C72.8664 33.1215 72.6447 30.7004 72.4537 28.2757C72.381 27.3622 72.3138 26.4487 72.2544 25.5338C72.2446 25.3763 72.2334 25.218 72.2236 25.0605C72.1634 24.0841 72.0438 23.0724 72.0179 22.0798C71.9948 21.1988 72.0452 20.3334 72.2767 19.523C72.3726 19.1896 72.4978 18.866 72.6615 18.5545C73.4219 17.1083 74.965 16.5078 76.1353 15.8359ZM76.036 20.404C76.0619 20.1405 76.1591 19.7866 76.1178 19.5266C76.0828 19.304 75.98 19.3231 75.7765 19.422C75.5029 19.5541 75.2196 19.6841 75.0035 19.9053C74.5775 20.3397 74.4956 20.9078 74.4851 21.4899C74.4432 23.8524 75.007 26.1683 75.2343 28.5096C75.3113 29.3022 75.3791 30.0956 75.4456 30.889C75.4862 31.3708 75.5008 31.8682 75.5638 32.3423C75.5638 30.788 75.5484 29.233 75.6023 27.678C75.6519 26.241 75.7918 24.8069 75.8023 23.3692C75.8023 22.8421 75.8408 22.3193 75.8912 21.7979C75.9352 21.3331 75.9898 20.8696 76.036 20.404ZM57.6658 18.4753C57.6917 18.2139 57.6812 17.932 57.5839 17.7201C57.3608 17.2319 56.4178 17.3216 55.8358 17.3979C56.1303 17.9116 56.408 18.4421 56.6704 18.9868C56.9089 19.0087 57.3958 19.1218 57.542 18.9084C57.6189 18.7968 57.6497 18.6329 57.6658 18.4753ZM49.0476 24.2374C49.0791 24.1802 49.1176 23.9711 49.0651 24.1703C49.0588 24.1929 49.0532 24.2148 49.0476 24.2374ZM48.9749 24.6521C48.9763 24.609 48.9749 24.5674 48.9693 24.5539C48.9679 24.5568 48.9672 24.5582 48.9672 24.5589C48.9686 24.5773 48.9721 24.6182 48.9749 24.6521ZM38.7556 16.4548C39.0424 15.7405 39.646 14.2576 39.6621 14.2576C37.4866 12.8234 34.11 12.1106 31.7169 13.3427C31.0146 13.7044 30.4242 14.2223 29.9283 14.8419C28.709 16.3636 28.0633 18.5036 27.7485 20.4846C27.7115 20.7198 27.6779 20.9537 27.6499 21.1833C27.5541 21.9576 27.4988 22.7347 27.4715 23.5133C27.4359 24.5066 27.4456 25.502 27.4771 26.4975C27.4911 26.9532 27.51 27.4089 27.5303 27.8645C27.5618 28.5562 27.5974 29.2478 27.6296 29.9381C27.6506 30.4001 27.6716 30.8671 27.6933 31.3369C27.7856 33.3808 27.8863 35.4875 28.0906 37.5844C28.1857 38.5586 28.3026 39.5308 28.4516 40.4937C28.9601 43.7831 29.8387 46.9595 31.4658 49.7268C31.6911 50.1097 31.9366 50.5696 32.2283 50.9652C32.4444 51.2577 32.6858 51.5149 32.9642 51.6774C33.8764 52.2108 34.5143 51.002 34.8452 50.1754C34.9082 50.0186 34.9655 49.8603 35.0187 49.7013C35.7833 47.4024 35.5391 44.8979 35.4244 42.4931C35.253 38.9006 35.1096 35.2911 34.3031 31.8152C34.2121 31.4224 34.1128 31.0303 34.0037 30.641C33.7582 29.765 33.6735 28.3972 34.4954 27.8652C34.536 27.8391 34.578 27.8144 34.6228 27.7925C34.9459 27.6342 35.3055 27.5961 35.6581 27.5643C36.1044 27.524 36.2114 27.6257 36.3408 27.2259C36.5653 26.5314 36.4961 25.596 36.5989 24.8648C36.8144 23.3282 37.1215 21.8043 37.5167 20.3051C37.8273 19.126 38.1931 17.9624 38.6121 16.8179C38.6275 16.7769 38.6807 16.642 38.7556 16.4548ZM37.4202 33.9742C37.4936 33.6005 37.4453 33.1392 37.4411 32.8382C37.4327 32.2596 37.3859 31.6831 37.3453 31.1059C37.3201 30.7541 37.3544 30.3464 37.2782 30.0066C37.1851 30.0575 37.0886 30.0935 36.9844 30.1182C36.6038 30.2094 36.2191 30.2814 35.8315 30.3358C35.8231 30.5789 35.9603 30.8911 36.0295 31.1299C36.1141 31.4224 36.2051 31.7121 36.2981 32.001C36.4898 32.5952 36.6591 33.2084 36.8899 33.7877C36.9207 33.8654 37.1564 34.5309 37.274 34.3508C37.3488 34.2363 37.3936 34.1085 37.4202 33.9742ZM29.1364 51.695C28.4236 50.4594 27.8808 49.0902 27.4799 47.986C26.6342 45.656 26.1214 43.244 25.7633 40.7954C25.601 40.8017 25.4422 40.806 25.289 40.8081C20.7449 40.8745 16.5051 39.1683 12.1603 38.0238C9.40143 37.2968 5.33999 36.8609 3.52123 39.8056C2.88606 40.8349 2.75035 42.1554 3.00778 43.355C3.29388 44.6923 4.03118 45.9372 4.94966 46.8938C6.24448 48.2432 7.92193 49.1128 9.64206 49.7317C13.9462 51.281 18.4791 52.0094 23.0212 52.0539C25.0309 52.073 27.1092 52.0137 29.1364 51.695ZM26.127 15.5632C26.2614 15.2495 26.4062 14.9493 26.5593 14.6603C26.4041 14.5289 26.2355 14.4123 26.0613 14.3099C24.5643 13.4232 22.6945 13.2396 21.0184 13.0735C18.4302 12.8185 15.6608 12.8107 13.1404 13.5652C10.0947 14.4766 6.37389 18.7042 9.97294 21.5026C10.6585 22.0353 11.4657 22.3645 12.2779 22.6316C15.1452 23.574 18.1791 23.8128 21.0219 24.8485C22.2062 25.2802 23.373 25.7642 24.5181 26.2997C24.509 25.933 24.5035 25.5656 24.5028 25.1983C23.643 24.8641 22.7749 24.5539 21.9068 24.2558C19.0535 23.2752 16.0427 22.7142 13.4174 21.1324C12.8347 20.7813 12.2695 20.3419 11.9463 19.7194C11.0859 18.062 12.1757 15.8656 13.6832 15.1351C14.531 14.7239 15.5104 14.6108 16.4281 14.7705C17.8132 15.0114 18.9954 16.4739 20.2692 17.1203C21.5696 17.7801 22.9722 18.2146 24.4048 18.3934C24.6622 18.4252 24.9281 18.4393 25.189 18.4209C25.424 17.4446 25.7304 16.4887 26.127 15.5632ZM24.593 22.4062C24.6196 22.0396 24.6524 21.6743 24.693 21.3105C23.72 21.273 22.7386 21.03 21.8089 20.7636C20.0349 20.255 18.342 19.4263 16.829 18.3206C16.5583 18.1235 16.291 17.9151 15.9874 17.7823C15.6839 17.6487 15.3341 17.5965 15.027 17.7187C14.8507 17.7893 14.6856 17.9313 14.6451 18.1263C14.573 18.4746 14.9102 18.7551 15.2124 18.9133C16.1742 19.4178 17.0171 19.9257 18.0315 20.2543C19.0807 20.5941 20.3238 20.9586 21.3696 21.3083C22.444 21.6679 23.5234 22.0261 24.593 22.4062Z" fill="#0B5C01"/>
<path d="M48.5496 33.2225C48.5846 33.1978 48.6189 33.1731 48.6538 33.1483C48.6014 33.1766 48.5601 33.2049 48.5496 33.2225ZM50.276 34.3529C49.757 33.3066 48.9469 32.5026 48.1894 33.6104C47.2233 35.0227 47.0477 37.9108 47.45 39.6198C47.8102 41.1521 49.359 41.6622 50.4383 40.9713C50.8832 40.6866 51.1386 40.2266 51.2673 39.6961C51.4484 38.9521 51.382 38.0697 51.2442 37.3336C51.0525 36.3127 50.7048 35.2183 50.276 34.3529ZM49.5408 33.231C49.5793 33.2614 49.6178 33.2911 49.6563 33.3207C49.6444 33.2903 49.5947 33.2593 49.5408 33.231ZM54.6432 36.2851C54.8264 37.424 54.8747 38.5975 54.7327 39.7455C54.4592 41.9533 53.4036 43.9858 51.4967 44.9417C50.0186 45.6821 48.2929 45.6305 46.8449 44.8033C46.0117 44.3264 45.2597 43.5867 44.7953 42.6082C43.7593 40.4252 43.9992 37.6557 44.3315 35.2975C44.6148 33.2896 45.2493 30.9554 47.0274 29.9487C47.8571 29.4789 48.8595 29.4781 49.7605 29.7516C51.4414 30.2616 52.6992 31.4521 53.5365 32.9738C54.0842 33.9686 54.4529 35.1046 54.6432 36.2851Z" fill="#0B5C01"/>
<path d="M37.4691 16.8933C37.6887 18.1947 37.2816 19.7263 36.8213 20.9394C35.9056 23.3555 33.7049 24.4181 31.2566 23.5767C29.994 23.1429 29.0398 21.8437 29.3406 20.3198C29.682 18.5882 31.1692 17.0014 32.7606 16.1197C33.0719 15.9466 33.3874 15.8011 33.6986 15.6866C35.0117 15.2041 37.1662 15.1017 37.4691 16.8933ZM35.3271 18.9054C35.3285 18.8849 35.3285 18.8651 35.3285 18.8453C35.3187 18.283 34.7724 18.1438 34.2177 18.2646C33.2013 18.485 32.3451 19.1548 31.8652 19.9595C31.6295 20.3551 31.6281 20.7981 32.096 21.0489C32.4157 21.2198 32.8347 21.2163 33.1985 21.1054C33.6161 20.9782 33.9645 20.7324 34.2884 20.4752C34.8235 20.0499 35.295 19.5554 35.3271 18.9054Z" fill="#0B5C01"/>
</g>
<defs>
<clipPath id="clip0_499_352">
<rect width="106" height="55" fill="white"/>
</clipPath>
</defs>
</svg>
