<svg width="104" height="45" viewBox="0 0 104 45" fill="none" xmlns="http://www.w3.org/2000/svg">
<g clip-path="url(#clip0_499_390)">
<path d="M81.863 40.8685C81.6138 41.0083 81.31 41.139 81.0607 40.9986C80.7791 40.8393 80.7383 40.4359 80.7459 40.0986C80.8136 37.0065 81.9348 34.0875 83.1554 31.325C83.1941 31.2374 83.2334 31.1498 83.2728 31.0621C83.6704 30.1768 84.093 29.3081 84.5376 28.452C85.4337 26.7251 86.4154 25.051 87.451 23.4048C87.654 23.0828 87.8659 22.7469 87.9439 22.3345C88.1483 21.2599 87.286 20.1833 86.8186 19.3188C86.2083 18.188 85.6242 17.0418 85.0664 15.881C84.9987 15.7398 84.9325 15.598 84.8655 15.4568C85.9653 15.1737 86.994 14.5972 87.8494 13.6582C87.8956 13.6075 87.9405 13.5553 87.9861 13.5025C88.1393 13.8238 88.2884 14.1479 88.43 14.4748C89.0665 15.9422 90.6365 18.5225 92.1809 16.4611C93.2165 15.0798 93.9027 13.3988 94.8057 11.9223C95.7978 10.2997 96.8099 8.69038 97.8421 7.09563C98.4676 6.1296 100.08 2.44491 101.63 4.14885C102.035 4.59327 102.073 5.27971 102.018 5.89383C101.759 8.79053 100.428 11.5314 99.1207 14.0422C98.0789 16.0424 96.9535 17.9939 95.7502 19.8891C95.2393 20.6945 94.424 21.552 94.2859 22.5445C94.1526 23.5015 94.7664 24.2839 95.1703 25.0775C96.9432 28.5556 98.7064 32.0838 100.209 35.7949C100.65 36.8834 101.242 38.1227 101.092 39.3461C101.043 39.746 100.878 40.1452 100.577 40.3907C100.345 40.5792 100.053 40.6647 99.7655 40.712C97.9719 41.0055 96.647 40.0144 95.7136 38.4885C93.9786 35.6503 93.117 32.4086 91.9123 29.3171C91.3821 27.9561 90.5053 30.0676 90.2637 30.4981C89.9847 30.994 89.7024 31.4982 89.4145 32.0045C88.9029 32.9059 88.3713 33.8142 87.8059 34.6988C86.218 37.1817 84.3553 39.474 81.863 40.8685ZM84.3249 31.14C84.3139 31.1365 84.2504 31.1226 84.2165 31.1185C84.2856 31.1331 84.3159 31.1393 84.3249 31.14Z" fill="#0D7601"/>
<path d="M80.5354 20.2695C80.5347 20.3175 80.5319 20.3655 80.5319 20.4128C80.5085 20.5157 80.4884 20.6186 80.4581 20.7195C80.4374 20.7883 80.4284 20.9886 80.4353 20.7994C80.4353 20.7869 80.4367 20.7765 80.4374 20.7675C80.4415 20.6889 80.4477 20.7167 80.4374 20.7675C80.4325 20.7883 80.4256 20.8127 80.4139 20.8349C80.3552 20.9511 80.291 21.0616 80.2296 21.1757C80.2144 21.2042 80.2061 21.2223 80.2026 21.232C80.1688 21.2689 80.1336 21.303 80.1198 21.319C80.0459 21.4066 79.9644 21.4838 79.8857 21.5666C79.8795 21.5728 79.8754 21.5777 79.8699 21.5833C79.845 21.6006 79.8208 21.6173 79.8132 21.6229C79.7166 21.6918 79.611 21.7418 79.5129 21.8072C79.5109 21.8079 79.5088 21.8079 79.5067 21.8086C79.4204 21.8357 79.3355 21.8705 79.2485 21.8962C79.1995 21.9108 78.8771 21.9762 78.9068 21.9804C78.7949 21.9922 78.6824 22.0006 78.5705 22.0033C78.4263 22.0075 78.282 22.004 78.1377 21.995C78.0472 21.9894 77.9568 21.9755 77.8664 21.9706C77.8581 21.9699 77.8512 21.97 77.8456 21.97C77.8367 21.9679 77.8277 21.9658 77.8159 21.9637C77.1587 21.8315 76.5263 21.6333 75.8967 21.3906C75.4307 21.2119 74.9501 21.0714 74.4627 21.0498C74.2259 21.0394 73.9877 21.0561 73.7482 21.111C73.0364 21.2731 72.4861 21.8183 72.1789 22.511C72.1306 22.6209 72.0878 22.7343 72.0519 22.8504C71.8296 23.5675 71.9173 24.3325 72.0125 25.0628C72.0995 25.7284 72.2183 26.3884 72.3653 27.0414C72.5503 27.8628 72.7823 28.6717 73.064 29.4603C73.3401 30.233 73.6605 30.9703 74.074 31.6337C74.4448 32.227 74.8901 32.7618 75.4507 33.2069C76.6078 34.1257 78.1177 34.2898 79.4018 33.6187C79.5157 33.5589 79.6151 33.474 79.6986 33.3725C79.8347 33.2215 79.9334 33.0338 79.972 32.8084C79.9962 32.6659 80.0383 32.5316 80.0701 32.3918C80.0963 32.3355 80.1219 32.2792 80.1509 32.2249C80.1729 32.1839 80.1971 32.1435 80.2206 32.1039C80.2323 32.0997 80.2454 32.0851 80.2565 32.0691C80.3373 31.9864 80.4919 31.7875 80.5216 31.7568C80.5237 31.7548 80.525 31.7527 80.5264 31.7513L80.5313 31.7464C80.5313 31.7464 80.5361 31.7422 80.5389 31.7402C80.5754 31.7116 80.6176 31.6783 80.6279 31.6713C80.7439 31.5878 80.8654 31.5134 80.9904 31.446C81.0056 31.4383 81.0601 31.4126 81.0994 31.3945C81.1001 31.3945 81.1008 31.3938 81.1022 31.3938C79.8057 34.479 78.4767 38.0642 78.6637 41.5333C77.9533 41.3539 77.2547 41.1209 76.5753 40.833C76.4731 40.7898 76.3661 40.7509 76.266 40.7001C76.3047 40.721 76.3282 40.7342 76.3406 40.7412C76.2943 40.7175 76.1128 40.6222 76.0741 40.6035C75.8117 40.4727 75.5535 40.3343 75.2988 40.1875C74.8307 39.9177 74.3757 39.6207 73.9373 39.2959C73.8828 39.2556 73.3885 38.8334 73.3208 38.8077C73.3187 38.807 73.3174 38.807 73.316 38.8063H73.3153C73.2794 38.775 73.2442 38.7437 73.2083 38.7124C73.0916 38.6081 72.9763 38.5024 72.8631 38.3939C72.4537 38.0044 72.0664 37.5871 71.7053 37.1455C71.6984 37.1371 71.6922 37.1281 71.6853 37.1204C71.5244 36.9215 71.3712 36.7171 71.2179 36.5112C71.2151 36.507 71.2131 36.5036 71.2103 36.4994C71.1744 36.4458 71.1378 36.3937 71.1026 36.3394C71.0101 36.201 70.9203 36.0605 70.8333 35.918C70.5765 35.4993 70.3411 35.066 70.125 34.6216C70.0511 34.4692 69.98 34.3162 69.9103 34.1611C69.8406 34.0054 69.7736 33.8482 69.708 33.6903L69.6707 33.5964C69.6707 33.5964 69.67 33.595 69.67 33.5943C69.67 33.5936 69.67 33.5929 69.6693 33.5922C69.6686 33.5902 69.6673 33.5881 69.6659 33.5846C69.6659 33.5818 69.6638 33.579 69.6624 33.5755L69.6604 33.5714C69.6604 33.5714 69.6583 33.5651 69.6569 33.5616C69.6548 33.5568 69.6528 33.5512 69.65 33.5449C69.6479 33.5394 69.6452 33.5338 69.6424 33.5269C69.6403 33.5213 69.6376 33.515 69.6355 33.5095L69.6314 33.499C69.6314 33.499 69.6286 33.4914 69.6272 33.4886C69.6265 33.4858 69.6258 33.4837 69.6252 33.4817C69.5064 33.159 69.3932 32.8342 69.291 32.5052C69.0853 31.8445 68.9141 31.1712 68.7746 30.4904C68.7083 30.1677 68.6489 29.8436 68.5965 29.5181C68.5682 29.3456 68.5419 29.1731 68.5178 28.9999C68.5067 28.9234 68.4971 28.8462 68.4867 28.769C68.4839 28.7523 68.4826 28.7384 68.4805 28.7252C68.4791 28.7092 68.477 28.6898 68.4743 28.6668C68.3997 27.9706 68.3452 27.273 68.3176 26.5727C68.1912 23.363 68.5419 20.1624 68.9044 16.984C68.9928 16.2099 69.0825 15.4358 69.1757 14.6625C69.1764 14.6569 69.1764 14.6534 69.1771 14.6492C69.1778 14.6416 69.1792 14.6346 69.1805 14.6249C69.1944 14.515 69.2082 14.4044 69.222 14.2939C69.2441 14.1172 69.2675 13.9412 69.2903 13.7646C69.2972 13.7152 69.3041 13.6665 69.3103 13.6178C69.3573 13.2701 69.4049 12.9224 69.456 12.5753C69.5989 11.5975 69.7529 10.6161 69.9662 9.65217C70.0511 9.26687 70.145 8.88366 70.2527 8.50462C70.3314 8.22851 70.417 7.95518 70.5109 7.68464C70.5379 7.60674 70.5675 7.52955 70.5952 7.45165C70.6628 7.29308 70.7277 7.13312 70.7995 6.97594C70.9238 6.70609 71.0591 6.44319 71.2075 6.18795C71.2766 6.06833 71.3491 5.95079 71.4243 5.83534C71.4264 5.83186 71.4892 5.74214 71.5217 5.69485C71.55 5.6566 71.581 5.61556 71.5893 5.60513C71.7806 5.35823 71.9877 5.12664 72.2079 4.91104C72.2845 4.83662 72.3632 4.76498 72.4426 4.69404C72.4613 4.67874 72.482 4.66135 72.4951 4.65162C72.5759 4.59041 72.656 4.52782 72.7381 4.46871C72.9722 4.30109 73.2145 4.14878 73.4644 4.01107C73.5852 3.94431 73.7081 3.8831 73.8317 3.8219C73.8365 3.81982 73.8407 3.81842 73.8455 3.81634C73.9387 3.77739 74.0312 3.73844 74.1251 3.70158C74.674 3.48807 75.2422 3.33436 75.8173 3.23213C75.8456 3.22726 75.898 3.21752 75.9346 3.21126C75.9671 3.20709 75.9995 3.20361 76.032 3.19944C76.1638 3.18344 76.2964 3.16953 76.4283 3.1591C76.7831 3.12989 77.1394 3.11876 77.4949 3.12085C77.9319 3.12363 78.3669 3.14937 78.8018 3.1897C79.0904 3.21613 79.3783 3.24882 79.6662 3.28638C79.6924 3.28985 79.7131 3.29264 79.7311 3.29472C79.8201 3.30794 79.9085 3.32254 79.9976 3.33645C80.1578 3.36218 80.3179 3.38931 80.4781 3.41782C80.5458 3.42965 80.6141 3.44286 80.6818 3.45538C80.9938 3.51171 81.3045 3.57153 81.6152 3.63273C81.774 3.66472 81.9327 3.69532 82.0915 3.72732C82.5879 3.82607 83.0843 3.92901 83.5738 4.06115C83.8783 4.14322 84.1807 4.2378 84.4762 4.35395C84.5155 4.36925 84.5549 4.38594 84.5935 4.40194C84.6191 4.41307 84.7102 4.45271 84.7426 4.46871C84.8897 4.54451 85.034 4.62588 85.1741 4.7156C85.2929 4.79141 85.4082 4.87139 85.5214 4.95763C85.5311 4.96528 85.567 4.99102 85.6008 5.01605C85.6105 5.02509 85.6215 5.03553 85.6339 5.04805C85.7119 5.12177 85.7879 5.19618 85.8625 5.27199C85.9888 5.39996 86.1117 5.53071 86.227 5.6719C86.2677 5.72197 86.3064 5.77413 86.3471 5.82351C86.3554 5.83325 86.3609 5.83951 86.3671 5.84716C86.4424 5.96192 86.5176 6.07528 86.5874 6.19421C86.6364 6.27836 86.6819 6.36321 86.7268 6.44945C86.8104 6.61011 86.8884 6.77425 86.9609 6.94116C86.9609 6.95507 86.9788 6.99819 86.9933 7.02879C87.0078 7.07052 87.0223 7.11295 87.0265 7.12408C87.072 7.26526 87.1134 7.40783 87.1493 7.5525C87.1852 7.69716 87.217 7.84251 87.2425 7.98926C87.2488 8.02334 87.2557 8.13462 87.2688 8.17426C87.2695 8.19026 87.2715 8.20556 87.2729 8.22155C87.2929 8.48654 87.2957 8.75291 87.2798 9.01789C87.2764 9.07839 87.2702 9.13821 87.266 9.19871C87.2343 9.35798 87.2101 9.51794 87.1721 9.67651C87.1383 9.81978 87.0989 9.96097 87.0548 10.1008C87.0403 10.1474 87.0244 10.1933 87.0085 10.2392C86.9905 10.2517 86.9767 10.2788 86.9678 10.3045C86.9243 10.3963 86.8766 10.5507 86.8573 10.5904C86.7952 10.7191 86.7282 10.8456 86.6578 10.9687C86.6488 10.9847 86.6405 11.0014 86.6309 11.0167C86.5667 11.1273 86.4976 11.233 86.4286 11.3387L86.4272 11.3401C86.3768 11.4006 86.3305 11.466 86.2801 11.5265C86.1062 11.7386 85.9163 11.932 85.7182 12.1163C85.7182 12.1163 85.7177 12.1163 85.7168 12.1163C85.7168 12.1163 85.7154 12.117 85.7147 12.1177L85.7119 12.1205C85.7119 12.1205 85.7078 12.1239 85.7057 12.126C85.6671 12.1552 85.6001 12.2088 85.5863 12.2185C85.4751 12.3013 85.3605 12.3785 85.2432 12.4515C85.1251 12.5238 85.0043 12.5871 84.8828 12.6525C84.8662 12.6615 84.851 12.672 84.8393 12.681C84.7709 12.7081 84.6922 12.7248 84.6363 12.745C84.3829 12.8326 84.1227 12.8994 83.8603 12.9453C83.8762 12.9397 83.7975 12.9467 83.7091 12.955C83.6221 12.9634 83.5262 12.9731 83.502 12.9745C83.317 12.9836 83.1326 12.9843 82.9476 12.9766C82.7806 12.9703 82.6149 12.9523 82.4478 12.9383C82.4312 12.937 82.3988 12.9328 82.3712 12.9286C82.3221 12.9203 82.2731 12.9119 82.2248 12.9029C82.0474 12.8695 81.8713 12.8292 81.6959 12.784C81.5454 12.745 81.3949 12.7026 81.2458 12.656C80.9489 12.5628 80.6555 12.455 80.3669 12.334C80.3145 12.3117 80.1239 12.2206 80.1046 12.2137C80.1087 12.2164 80.1225 12.2241 80.1509 12.2387C80.01 12.1671 79.8685 12.0996 79.7297 12.0238C79.1809 11.7282 78.6548 11.3818 78.1577 10.991C78.0969 10.943 77.8173 10.6989 77.9837 10.8505C77.885 10.7615 77.7842 10.6752 77.6875 10.5841C77.4418 10.3546 77.2056 10.1133 76.9799 9.86151C76.73 9.58332 76.5021 9.26548 76.1852 9.07074C75.7627 8.81202 75.2601 8.73135 74.792 8.87809C74.0022 9.12499 73.5093 9.9554 73.2773 10.767C73.0605 11.5258 73.0067 12.3868 72.9273 13.172C72.861 13.8258 72.7982 14.4969 72.8141 15.1577C72.8155 15.2195 72.8168 15.2814 72.8203 15.3433C72.8645 16.2572 73.0985 17.0918 73.6425 17.7984C73.6729 17.8388 73.7047 17.877 73.7378 17.9153C74.1313 18.375 74.6429 18.6803 75.1793 18.9008C76.2281 19.332 77.3555 19.2569 78.4525 19.2715C78.6865 19.2742 78.9213 19.284 79.1546 19.3069C79.1594 19.3076 79.1822 19.3083 79.2098 19.309C79.2395 19.3139 79.2692 19.3188 79.2989 19.325C79.4391 19.3507 79.5771 19.3827 79.7145 19.4238C79.7359 19.43 79.8567 19.462 79.952 19.494C79.9631 19.5017 79.9769 19.51 79.9955 19.5211C80.0425 19.5504 80.0908 19.5747 80.137 19.6046C80.1826 19.6331 80.2247 19.6651 80.2689 19.6943C80.3069 19.734 80.3511 19.784 80.36 19.7931C80.3766 19.8091 80.3897 19.8216 80.4008 19.832C80.4187 19.8633 80.4353 19.8953 80.4415 19.9064C80.4885 19.9913 80.4947 20.1436 80.4857 19.9725C80.4878 19.9836 80.4891 19.9948 80.4919 20.0045C80.5002 20.0414 80.5099 20.0782 80.5188 20.1151C80.5002 20.1791 80.5202 20.2465 80.5361 20.2688L80.5354 20.2695Z" fill="#0D7601"/>
<path d="M55.9803 3.45745C55.9755 3.45606 55.9707 3.45537 55.9665 3.45398C56.0514 3.47136 56.1716 3.4957 56.2116 3.50336C56.3725 3.53326 56.5327 3.56595 56.6921 3.60142C57.0256 3.67445 57.3577 3.75651 57.6877 3.84901C58.2883 4.01802 58.8827 4.21832 59.4682 4.45061C59.774 4.57232 60.0778 4.70238 60.3781 4.84078C60.5148 4.90407 60.6508 4.97014 60.7868 5.03482C60.7972 5.03969 60.8062 5.04386 60.8145 5.04803C60.8945 5.09046 60.9753 5.13149 61.0554 5.17461C62.218 5.79429 63.3316 6.54542 64.3755 7.41686C64.6261 7.6269 64.8822 7.83694 65.119 8.06923C65.1839 8.13252 65.2626 8.20902 65.284 8.22989C65.4207 8.36342 65.5567 8.49835 65.6907 8.63605C66.1836 9.14167 66.6559 9.6772 67.1046 10.2392C67.164 10.3136 67.222 10.3901 67.28 10.4659C67.2765 10.4895 67.2724 10.5132 67.2682 10.5368C66.9893 12.2122 66.7815 13.9016 66.5834 15.5902C65.8605 21.7675 65.0217 28.3726 67.2724 34.3093C67.63 35.2531 68.0546 36.1565 68.5482 37.0071C68.3369 37.2734 68.1188 37.5322 67.8944 37.7818C67.6818 38.0183 67.4636 38.2471 67.2392 38.4683C67.1723 38.5344 67.1046 38.599 67.0369 38.6651C66.9859 38.7145 66.9679 38.7333 66.9679 38.734C66.8692 38.8244 66.7656 38.9085 66.6655 38.9934C66.1505 39.4315 65.6106 39.8287 65.0507 40.1778C64.7877 40.3412 64.5184 40.4887 64.2485 40.6361C64.1725 40.6723 64.0973 40.7091 64.0206 40.7439C63.8611 40.8176 63.7003 40.8872 63.538 40.9526C62.9574 41.1876 62.3616 41.3706 61.7575 41.4971C61.6664 41.5159 61.5746 41.5326 61.4834 41.5507C61.4565 41.5556 61.4351 41.5604 61.4172 41.5639C61.3992 41.566 61.3771 41.5681 61.3488 41.5716C61.1541 41.5952 60.9601 41.6202 60.7647 41.6362C60.336 41.6724 59.9059 41.6821 59.4765 41.6661C59.2804 41.6592 59.0857 41.646 58.8903 41.6279C58.7737 41.6168 58.657 41.6035 58.5403 41.5889C58.5293 41.5869 58.4091 41.5688 58.3456 41.5597C58.2773 41.5472 58.1737 41.5284 58.171 41.5284C58.055 41.5055 57.9404 41.4804 57.8251 41.4533C57.6228 41.406 57.4191 41.3573 57.221 41.2906C57.2189 41.2565 57.2161 41.2231 57.2141 41.189C57.2092 41.1028 57.2044 41.0159 57.1996 40.9296C57.183 40.6466 57.1664 40.3642 57.1506 40.0818C56.931 36.1947 56.7439 32.3049 56.5665 28.4143C56.2033 20.4538 55.8878 12.4897 55.4563 4.53337C55.4349 4.1439 55.4121 3.75443 55.3907 3.36426C55.5889 3.3886 55.7856 3.41781 55.9803 3.45745ZM59.5144 31.3604C60.0281 31.9954 60.7558 32.2889 61.4834 32.172C62.1952 32.0573 62.8249 31.5816 63.3178 30.9668C64.1401 29.9409 64.7041 28.5785 65.0617 27.2355C65.7777 24.5481 65.6382 21.5234 64.6924 18.9473C63.6768 16.1828 61.7237 13.8626 59.6387 12.2102C59.607 12.1823 59.5738 12.1566 59.54 12.1323L59.5089 12.1072C59.3488 11.9827 59.1623 11.9188 58.9711 11.9069C58.8275 11.8909 58.6846 11.9062 58.5527 11.9577C58.5286 11.9667 58.5065 11.9779 58.483 11.9883C58.1993 12.1024 57.9486 12.3284 57.8113 12.6407C57.6704 12.9592 57.6262 13.2958 57.667 13.613C57.6718 13.67 57.6773 13.7277 57.6863 13.7854C57.7422 14.1645 57.7954 14.5442 57.8437 14.9246C57.8637 15.0846 57.8831 15.2453 57.9024 15.4052C57.9031 15.4115 57.9038 15.4171 57.9045 15.4233L57.9065 15.4421C57.9065 15.4421 57.9072 15.4463 57.9072 15.4484C57.9072 15.449 57.9079 15.4504 57.9079 15.4518C57.9079 15.4546 57.9086 15.4581 57.9086 15.4616C57.9093 15.4643 57.9093 15.4664 57.91 15.4692C57.91 15.472 57.9107 15.4748 57.9107 15.4776C57.9107 15.4796 57.9114 15.4817 57.9114 15.4838C57.9114 15.4949 57.9134 15.5061 57.9148 15.52C57.9272 15.6375 57.9397 15.7544 57.9514 15.8719C58.0294 16.6411 58.0922 17.4124 58.144 18.1851C58.2434 19.672 58.3014 21.1625 58.3532 22.6529C58.4071 24.2129 58.4554 25.7736 58.5348 27.3321C58.6052 28.7196 58.6542 30.297 59.5144 31.3604Z" fill="#0D7601"/>
<path d="M53.3589 21.3096C53.3893 21.5537 53.4183 21.7971 53.4466 22.0412C53.8519 25.5451 54.0472 29.0775 54.0334 32.6078C54.03 33.4959 54.0196 34.3847 53.9596 35.2701C53.9451 35.4794 53.9285 35.6881 53.9078 35.8967C53.8974 36.0003 53.885 36.104 53.8746 36.2069C53.8739 36.2152 53.8733 36.2222 53.8726 36.2285C53.8698 36.2452 53.8664 36.2639 53.8629 36.2869C53.7966 36.6993 53.7248 37.1096 53.6268 37.5151C53.5426 37.8636 53.4438 38.2078 53.3299 38.5458C53.285 38.6794 53.2402 38.815 53.1884 38.9457C53.167 38.9937 53.1373 39.0598 53.1276 39.0814C53.089 39.1711 53.0489 39.2594 53.0075 39.3477C52.8756 39.6301 52.73 39.9048 52.5705 40.1705C52.4945 40.2964 52.4152 40.4209 52.3323 40.5419C52.3164 40.5655 52.2999 40.5892 52.284 40.6128C52.2598 40.6476 52.2439 40.6698 52.237 40.6796C52.237 40.6796 52.2368 40.68 52.2363 40.681C52.2363 40.681 52.2343 40.6831 52.2336 40.6844C52.208 40.7123 52.1852 40.7359 52.1756 40.7484C52.0016 40.9626 51.8152 41.1657 51.615 41.3514C51.6081 41.3577 51.5998 41.3646 51.5915 41.3709C51.5805 41.3862 51.5611 41.4071 51.5308 41.4293C51.5183 41.4384 51.5052 41.4474 51.4928 41.4564C51.4873 41.4627 51.4811 41.469 51.4762 41.4752C51.4797 41.4703 51.4831 41.4662 51.4866 41.4613C51.3885 41.5322 51.2905 41.6032 51.1876 41.6672C51.1013 41.72 51.0081 41.7625 50.9218 41.8139C50.839 41.8431 50.7582 41.8751 50.674 41.9002C50.6125 41.9189 50.5504 41.9356 50.4876 41.9509C50.462 41.9572 50.4116 41.9746 50.3702 41.9906C50.2156 42.0212 50.0223 41.9982 49.878 41.9913C49.8151 41.9878 49.7523 41.9815 49.6895 41.9767C49.6853 41.9767 49.6819 41.976 49.6778 41.976C49.6674 41.9732 49.6564 41.9697 49.6432 41.9662C49.4865 41.9238 49.3284 41.8918 49.1738 41.841C49.102 41.8167 48.7216 41.654 48.8548 41.7228C48.6864 41.64 48.5213 41.5524 48.3598 41.4544C48.2058 41.3612 48.0546 41.2617 47.9069 41.1567C47.8468 41.1136 47.7875 41.0704 47.7281 41.0252C47.7122 41.0134 47.5603 40.8917 47.5513 40.8868C47.3221 40.6907 47.1019 40.4841 46.8893 40.2685C46.4895 39.8631 46.1181 39.4277 45.7701 38.9715C45.7287 38.9172 45.6894 38.8602 45.6466 38.8066C45.5665 38.6926 45.4864 38.5792 45.4084 38.4638C45.2234 38.1897 45.0459 37.9108 44.8747 37.6271C44.5323 37.0575 44.2168 36.4698 43.9247 35.8696C43.7791 35.5705 43.6396 35.2687 43.5057 34.9641C43.4304 34.793 43.3565 34.6212 43.2847 34.4487C43.2516 34.3694 43.2198 34.2894 43.1867 34.2102C43.1805 34.1949 43.175 34.1816 43.1701 34.1705C43.1667 34.1615 43.1632 34.151 43.1584 34.1392C42.5971 32.6717 42.1325 31.1688 41.7686 29.6325C41.3813 27.996 41.1349 26.3352 40.8836 24.6709C40.6461 23.0928 40.381 21.5113 39.8549 20.0076C39.8031 19.8588 39.7292 19.7169 39.6388 19.5896C39.4586 19.3031 39.1921 19.0917 38.851 19.0464C38.6847 19.0151 38.5086 19.0242 38.3291 19.0861C38.1972 19.1313 38.0688 19.2022 37.9522 19.2933C37.6608 19.4978 37.4371 19.8101 37.4143 20.1801C37.3895 20.3435 37.3998 20.5132 37.4537 20.6815C37.6291 22.2638 37.7996 23.8467 37.9729 25.4296C38.1572 27.1176 38.3705 28.8055 38.4844 30.5011C38.5431 31.3719 38.5749 32.2461 38.5535 33.1189C38.5321 33.9806 38.4658 34.8403 38.2801 35.6846C38.2566 35.7903 38.2145 35.9141 38.1082 35.9412C37.9784 35.9746 37.8735 35.8397 37.8106 35.7228C37.5434 35.2235 37.2873 34.7019 37.1023 34.167C36.9214 33.6433 36.8144 33.0939 36.6963 32.5542C36.5424 31.8434 36.4216 31.125 36.3201 30.4038C36.298 30.2466 36.2766 30.0901 36.2566 29.9329C36.2455 29.8383 36.2207 29.6276 36.2151 29.5782C36.1703 29.1832 36.1295 28.7874 36.0916 28.3917C35.7526 24.8294 35.5185 21.2525 35.2375 17.6847C35.0932 15.8479 34.9179 14.009 34.8495 12.1667C34.8157 11.2632 34.8123 10.3577 34.8668 9.45498C34.8792 9.2512 34.8944 9.04673 34.9138 8.84295C34.9227 8.74419 34.9324 8.64613 34.9434 8.54737C34.9469 8.51955 34.9545 8.45834 34.9607 8.41522C35.018 8.01949 35.0857 7.62654 35.1733 7.23707C35.2534 6.88306 35.3487 6.53254 35.4633 6.18966C35.4819 6.13542 35.4985 6.07074 35.5192 6.01023C35.5261 5.99493 35.5365 5.97198 35.5524 5.93651C35.6283 5.76263 35.707 5.59015 35.7961 5.42393C35.8637 5.29805 35.9397 5.17982 36.0149 5.0595C36.0184 5.05532 36.0218 5.05254 36.026 5.04837C36.066 5.00594 36.1019 4.95796 36.142 4.91484C36.1703 4.88423 36.2103 4.83416 36.2517 4.79104C36.2642 4.78687 36.2787 4.7813 36.2932 4.77296C36.307 4.766 36.3905 4.72288 36.4478 4.69019C36.4554 4.68741 36.463 4.68463 36.4706 4.68254C36.4685 4.68185 36.4671 4.68115 36.4651 4.67976C36.4671 4.67907 36.4692 4.67767 36.4713 4.67628C36.4775 4.67628 36.4851 4.67628 36.4927 4.67559C36.5258 4.66724 36.55 4.66237 36.5686 4.66029L36.5583 4.65194C36.5583 4.65194 36.5672 4.65681 36.5741 4.65959C36.6038 4.65611 36.6142 4.66168 36.6128 4.66933C36.6791 4.67141 36.7088 4.68115 36.7143 4.6895C36.7302 4.69506 36.7633 4.70828 36.7985 4.72219C36.7744 4.69854 36.7833 4.68741 36.8821 4.75C36.8848 4.7514 36.8883 4.75348 36.891 4.75487C36.909 4.76044 36.9214 4.76322 36.9242 4.76113C36.9207 4.76391 36.9166 4.766 36.9124 4.76739C37.0243 4.82999 37.2176 4.9051 37.2742 5.00942C37.2376 4.97882 37.2003 4.94822 37.163 4.91762C37.21 4.95726 37.2556 4.99899 37.3004 5.04141C37.3584 5.09636 37.415 5.15269 37.4696 5.21111C37.5849 5.33213 37.6857 5.46566 37.7954 5.59224C37.7989 5.59641 37.8017 5.59989 37.8051 5.60337C37.8092 5.60963 37.8127 5.61589 37.8175 5.62284C37.8762 5.71465 37.9377 5.80436 37.9943 5.89756C38.0882 6.05196 38.1772 6.20914 38.2621 6.3691C38.432 6.68902 38.5866 7.01799 38.7288 7.35252C38.7572 7.41789 38.7841 7.48466 38.8117 7.55073C38.8186 7.56673 38.8241 7.57994 38.8296 7.59177C38.8345 7.60568 38.8407 7.62167 38.8476 7.64115C38.9256 7.84979 39.0036 8.05913 39.0768 8.27056C39.3447 9.04047 39.5753 9.82567 39.792 10.6137C40.2622 12.3218 40.693 14.0417 41.139 15.7568C42.0579 19.2885 42.9603 22.8257 43.8971 26.3518C44.2886 27.8263 44.7028 29.3 45.2461 30.7202C45.7632 32.0708 46.3549 33.3964 47.278 34.4932C47.6563 34.9425 48.1209 35.3681 48.638 35.6213C49.2808 35.9364 49.9601 35.8953 50.5048 35.3772C50.8645 35.0343 51.0254 34.5085 51.0958 34.0168C51.3623 32.1543 51.2691 30.2334 51.0558 28.3701C50.6429 24.7627 49.8621 21.2045 49.2684 17.627C48.9694 15.8263 48.6857 14.0229 48.4171 12.2175C48.2348 10.9983 48.0484 9.77977 47.9117 8.55571C47.8199 7.73225 47.6805 6.91575 47.6038 6.09021C47.5272 5.26675 47.4112 4.47111 47.8227 3.71512C48.0388 3.318 48.4088 2.90627 48.7892 3.41258C48.879 3.53221 48.9266 3.67687 48.9742 3.81805C49.4189 5.13878 49.9643 6.42126 50.3951 7.74825C50.8894 9.27206 51.3243 10.8174 51.7082 12.3767C52.1024 13.9784 52.4428 15.5954 52.7334 17.2222C52.8819 18.054 53.0179 18.8886 53.1407 19.7245C53.2001 20.1265 53.2567 20.5292 53.3099 20.9319L53.343 21.1865C53.3458 21.2052 53.3534 21.2623 53.3575 21.295C53.3582 21.3005 53.3589 21.3061 53.3589 21.3096Z" fill="#0D7601"/>
<path d="M21.8619 22.0348C21.8798 22.4681 21.9205 22.9431 22.2292 23.2526C22.5246 23.5489 22.9803 23.6073 23.4001 23.6497C24.2934 23.7394 25.1868 23.8292 26.0802 23.9196C26.9072 24.0023 27.9104 24.1706 28.5877 23.5635C28.9032 23.2804 29.0737 22.8694 29.1427 22.4549C29.2118 22.0411 29.189 21.6175 29.1752 21.1981C29.1379 20.1083 29.1579 19.015 29.131 17.9245C29.1137 17.2206 29.0771 16.5175 28.9929 15.8171C28.7844 14.0812 28.1665 12.4552 27.3864 10.8931C27.0108 10.142 26.5538 9.35746 25.7812 9.00763C24.486 8.42064 23.3379 9.37763 22.8401 10.4925C22.3092 11.6804 22.1608 13.0143 22.0462 14.2947C21.8156 16.8673 21.7542 19.4545 21.8619 22.0348ZM29.035 5.30694C29.1731 5.51628 29.3022 5.73119 29.4244 5.95166C29.6474 6.35226 29.8455 6.76816 30.0257 7.19171C30.0451 7.23761 30.0734 7.30786 30.0879 7.34333C30.0879 7.34472 30.0886 7.34611 30.0893 7.3475C30.0913 7.35237 30.0927 7.35724 30.0941 7.36002C30.0948 7.36211 30.0955 7.3635 30.0955 7.36419C30.0962 7.36419 30.0962 7.36558 30.0962 7.36558C30.1231 7.43374 30.1493 7.5019 30.1749 7.57006C30.2632 7.80791 30.3475 8.04716 30.4269 8.28849C30.741 9.24409 30.9902 10.2226 31.2015 11.2088C31.421 12.2347 31.5998 13.271 31.7565 14.3093C31.8401 14.8581 31.9174 15.4075 31.9892 15.9576C31.9947 15.9994 32.0003 16.0404 32.0051 16.0821C32.0065 16.0884 32.0072 16.0953 32.0078 16.1037C32.0251 16.2477 32.0437 16.3916 32.061 16.5349C32.0935 16.8027 32.1238 17.0711 32.1535 17.3389C32.3979 19.5415 32.5588 21.7545 32.6389 23.9703C32.721 26.2202 32.7203 28.4729 32.6361 30.7228C32.5947 31.8203 32.5374 32.9178 32.4497 34.0125C32.3013 35.8792 31.9568 37.7278 31.6696 39.5778C31.6385 39.7781 31.6054 39.9839 31.4983 40.1578C31.392 40.331 31.1932 40.4659 30.9895 40.4367C30.6961 40.3943 30.5546 40.066 30.4766 39.7836C30.0989 38.4094 30.0112 36.9885 29.9077 35.5746C29.8014 34.1092 29.7261 32.6417 29.6246 31.1763C29.5832 30.5782 29.5804 29.9265 29.2794 29.3944C29.0454 28.982 28.6374 28.6781 28.1845 28.6141C27.8372 28.5654 27.51 28.6329 27.1668 28.692C26.6525 28.7803 26.1368 28.8589 25.6204 28.934C25.5775 28.9403 25.4567 28.9577 25.4188 28.9633L25.135 29.0029L24.3169 29.1156C23.2461 29.2637 22.1753 29.4111 21.1107 29.601C20.8284 29.6511 20.5895 29.8465 20.4272 30.1032C20.2809 30.3035 20.1925 30.5476 20.1987 30.8181C20.1953 30.8925 20.198 30.9663 20.2084 31.0386C20.3734 32.2383 20.2864 33.5284 20.276 34.7365C20.2678 35.722 20.305 36.7054 20.2325 37.6854C20.1559 38.7202 20.1269 39.7579 20.1456 40.7949C20.1511 41.0967 20.1601 41.402 20.0876 41.6948C20.0765 41.7401 20.062 41.7873 20.0296 41.8214C19.9474 41.9084 19.7948 41.8694 19.7044 41.7908C19.5718 41.6754 19.5097 41.5015 19.4565 41.3353C18.8228 39.3378 18.7144 37.2069 18.559 35.1343C18.4755 34.0201 18.421 32.9046 18.3844 31.7883C18.3112 29.5315 18.3112 27.2725 18.3126 25.015C18.3133 22.8833 18.3278 20.7495 18.4361 18.62C18.49 17.5705 18.5659 16.5224 18.6771 15.4777C18.7019 15.2448 18.7289 15.0118 18.7572 14.7795C18.7586 14.7663 18.7599 14.7544 18.7613 14.744C18.7675 14.6974 18.7737 14.6515 18.78 14.6056C18.7979 14.4714 18.8166 14.3378 18.8359 14.2036C18.9104 13.6924 18.9954 13.1833 19.0927 12.677C19.2784 11.7082 19.5083 10.7484 19.7983 9.80814C19.9412 9.34424 20.1028 8.888 20.2753 8.43594C20.2767 8.43246 20.2781 8.42898 20.2795 8.42481C20.2816 8.41994 20.2836 8.41507 20.2857 8.40951C20.3016 8.37126 20.3175 8.33231 20.334 8.29336C20.3755 8.1946 20.4176 8.09584 20.4611 7.99778C20.5605 7.77244 20.664 7.54989 20.7731 7.32942C20.9671 6.93577 21.177 6.55047 21.4041 6.1763C21.5132 5.99686 21.6258 5.81951 21.7431 5.64634C21.7887 5.57888 21.8349 5.51211 21.8819 5.44604C21.9116 5.42726 21.9682 5.32641 21.9868 5.30277C22.2216 4.99814 22.4722 4.70604 22.74 4.43202C22.8678 4.30196 22.9996 4.17608 23.1349 4.05506C23.1453 4.04602 23.2005 3.99525 23.253 3.94935C23.2551 3.94796 23.2558 3.94726 23.2578 3.94587C23.3013 3.91597 23.3421 3.88119 23.3842 3.84989C23.659 3.64612 23.9482 3.46529 24.252 3.31437C24.3134 3.29976 24.3839 3.25664 24.4412 3.23578C24.6117 3.17318 24.7864 3.12172 24.9631 3.08138C25.0156 3.06956 25.126 3.07025 25.1778 3.04243C25.1847 3.04243 25.1916 3.04104 25.1992 3.04104C25.3753 3.02644 25.552 3.02296 25.7287 3.0313C25.7985 3.03478 25.8682 3.04104 25.9379 3.04661C26.1064 3.09807 26.2838 3.11963 26.453 3.17179C26.5282 3.19474 26.6021 3.21978 26.676 3.24691C26.6946 3.25317 26.7126 3.26082 26.7312 3.26847C26.8196 3.32758 27.1855 3.49659 27.22 3.51745C27.3657 3.60369 27.5072 3.69758 27.6453 3.79773C27.6784 3.82138 27.7999 3.91875 27.8296 3.94031C27.8738 3.97995 27.9263 4.02655 27.9435 4.04185C28.259 4.32909 28.5483 4.64831 28.8127 4.98771C28.8286 5.00788 28.8438 5.02875 28.8597 5.04961C28.917 5.13585 28.9784 5.22 29.035 5.30694Z" fill="#0D7601"/>
<path d="M7.65094 9.8404C11.5516 12.3685 14.492 6.56187 16.8752 3.9211C17.1887 3.57406 17.6609 3.38906 17.848 4.05116C17.9826 4.52687 17.9737 5.01719 17.8722 5.49986C17.4158 7.68578 15.674 9.20055 14.394 10.6778C12.9331 12.365 12.0253 14.4494 11.6317 16.8419C11.1692 19.6496 11.3949 22.5261 11.5365 25.3588C11.6745 28.1366 11.5938 30.9283 11.3038 33.6866C11.0711 35.8989 10.8247 38.1947 10.3593 40.3542C10.1212 41.46 9.50395 41.2583 9.2126 40.3799C8.99306 39.7171 8.91228 39.0057 8.8032 38.3095C8.50841 36.4247 8.51462 34.4836 8.69688 32.5856C9.13252 28.0559 9.48393 23.7182 8.63268 19.201C8.32683 17.5784 7.84494 15.9892 7.06963 14.6031C6.24531 13.1308 5.06612 12.0291 4.07955 10.7264C3.06468 9.38694 2.09606 7.51052 2.43504 5.61392C2.46818 5.42823 2.52341 5.24253 2.6318 5.10552C2.7754 4.924 2.99702 4.85167 3.20482 4.87253C3.93457 4.94625 4.38332 5.81283 4.72576 6.49093C5.47828 7.98206 6.36681 9.0079 7.65094 9.8404Z" fill="#0D7601"/>
<path d="M84.3256 31.1403C84.3166 31.1396 84.286 31.1333 84.2166 31.1187C84.2506 31.1229 84.3145 31.1368 84.3256 31.1403Z" fill="#0B5C01"/>
<path d="M80.5368 31.7418C80.5368 31.7418 80.5384 31.741 80.54 31.7402C80.5368 31.7427 80.5344 31.7451 80.5312 31.7475C80.5336 31.7459 80.5352 31.7443 80.5368 31.7418Z" fill="#0B5C01"/>
<path d="M80.5355 20.2539V20.2699C80.5196 20.2477 80.4996 20.1802 80.5182 20.1162L80.5265 20.1517C80.5293 20.1962 80.5355 20.2477 80.5355 20.2539Z" fill="#0B5C01"/>
<path d="M80.4375 20.7672C80.4416 20.6896 80.4477 20.7171 80.4375 20.7672V20.7672Z" fill="#0B5C01"/>
<path d="M80.2234 32.0985C80.2315 32.0931 80.243 32.0829 80.2558 32.0693C80.245 32.0849 80.2322 32.0992 80.2207 32.1033C80.2214 32.1019 80.2227 32.0999 80.2234 32.0985Z" fill="#0B5C01"/>
<path d="M75.5861 16.1025C75.6076 16.1081 75.6423 16.1424 75.6659 16.1711C75.6507 16.1599 75.634 16.148 75.618 16.1368C75.6076 16.1256 75.5965 16.1144 75.5861 16.1025Z" fill="#0B5C01"/>
<path d="M75.4403 15.9458C75.4598 15.964 75.4938 15.999 75.5112 16.0242L75.4993 16.0123C75.4729 15.9864 75.4556 15.9682 75.4438 15.9556C75.4431 15.9528 75.4417 15.9493 75.4403 15.9458Z" fill="#0B5C01"/>
<path d="M75.4411 12.8726C75.4411 12.8726 75.4403 12.8783 75.4403 12.8816C75.4403 12.8792 75.4403 12.8759 75.4411 12.8726Z" fill="#0B5C01"/>
<path d="M75.4391 12.8906C75.4391 12.8906 75.4391 12.8952 75.4382 12.897V12.8942C75.4382 12.8942 75.4391 12.8924 75.4391 12.8906Z" fill="#0B5C01"/>
<path d="M73.3153 38.8057H73.3165C73.3165 38.8057 73.3165 38.8069 73.3153 38.8069V38.8057Z" fill="#0B5C01"/>
<path d="M69.67 33.594C69.67 33.594 69.6692 33.5924 69.6684 33.5916C69.6676 33.5891 69.6667 33.5874 69.6659 33.585C69.6676 33.5891 69.6692 33.5916 69.67 33.594Z" fill="#0B5C01"/>
<path d="M69.6625 33.5757C69.6625 33.5757 69.6658 33.5831 69.6666 33.5864C69.665 33.5831 69.6633 33.579 69.6625 33.5757Z" fill="#0B5C01"/>
<path d="M69.65 33.5454C69.6528 33.5516 69.6549 33.5571 69.657 33.5619C69.6556 33.5605 69.6549 33.5585 69.6542 33.5571C69.6528 33.553 69.6514 33.5495 69.65 33.5454Z" fill="#0B5C01"/>
<path d="M69.6425 33.5269C69.6454 33.5342 69.6484 33.54 69.6506 33.5459C69.6499 33.5444 69.6491 33.5437 69.6484 33.5422C69.6469 33.5371 69.6447 33.532 69.6425 33.5269Z" fill="#0B5C01"/>
<path d="M61.2811 29.2603C61.3409 29.2707 61.3203 29.2714 61.2832 29.2637C61.2825 29.2623 61.2818 29.2616 61.2811 29.2603Z" fill="#0B5C01"/>
<path d="M61.2693 29.2573C61.2693 29.2573 61.2693 29.2585 61.2681 29.2573H61.2693Z" fill="#0B5C01"/>
<path d="M61.1554 29.2482C61.1554 29.2482 61.154 29.2482 61.1534 29.2489C61.1478 29.2496 61.1437 29.2496 61.1389 29.2503C61.1264 29.2566 61.1188 29.2621 61.1209 29.2663C61.123 29.2691 61.1368 29.2607 61.1554 29.2482ZM61.4834 32.172C60.7557 32.2889 60.028 31.9954 59.5144 31.3604C58.6541 30.297 58.6051 28.7196 58.5347 27.3321C58.4553 25.7736 58.407 24.2129 58.3531 22.6529C58.3013 21.1625 58.2434 19.672 58.1439 18.1851C58.0922 17.4124 58.0293 16.6411 57.9513 15.8719C57.9396 15.7544 57.9272 15.6375 57.9147 15.52C57.9134 15.5061 57.912 15.495 57.9113 15.4838C57.9113 15.4817 57.9106 15.4797 57.9106 15.4776C57.9106 15.4748 57.9099 15.472 57.9099 15.4692C57.9092 15.4664 57.9092 15.4643 57.9085 15.4616C57.9085 15.4581 57.9078 15.4546 57.9078 15.4518C57.9078 15.4504 57.9071 15.449 57.9071 15.4484V15.4449C57.9071 15.4449 57.9071 15.4428 57.9064 15.4421C57.9064 15.4393 57.9064 15.4358 57.9064 15.4331C57.9044 15.4143 57.903 15.3997 57.9016 15.3885C57.9023 15.3934 57.9023 15.399 57.903 15.4052C57.8837 15.2453 57.8643 15.0846 57.8443 14.9247C57.796 14.5442 57.7428 14.1645 57.6869 13.7854C57.6779 13.7277 57.6724 13.67 57.6676 13.613C57.6268 13.2958 57.671 12.9592 57.8119 12.6407C57.9493 12.3284 58.1999 12.1024 58.4836 11.9883C58.5071 11.9779 58.5292 11.9667 58.5533 11.9577C58.6852 11.9062 58.8281 11.8909 58.9717 11.9069C59.163 11.9188 59.3494 11.9827 59.5095 12.1072L59.5406 12.1323C59.5744 12.1566 59.6076 12.1823 59.6393 12.2102C61.7243 13.8626 63.6774 16.1828 64.693 18.9474C65.6388 21.5234 65.7783 24.5481 65.0623 27.2355C64.7047 28.5785 64.1407 29.9409 63.3184 30.9668C62.8255 31.5816 62.1958 32.0573 61.4841 32.172H61.4834ZM61.1837 29.2037C61.2017 29.2851 61.2604 29.3331 61.3315 29.2628C61.7243 28.8768 61.9577 28.3003 62.1696 27.8086C62.2601 27.5992 62.3505 27.3899 62.4409 27.1798C62.5217 26.9921 62.5728 26.7924 62.628 26.5949C62.7475 26.1714 62.8414 25.7416 62.9118 25.3083C62.9346 25.1671 62.9525 25.0252 62.9725 24.8833C62.9767 24.8256 62.9829 24.7679 62.9877 24.7102C63.0105 24.4347 63.0236 24.1579 63.0285 23.8818C63.034 23.5654 63.0278 23.2482 63.0098 22.9318C63.0022 22.7941 62.9919 22.6557 62.9801 22.518C62.9781 22.495 62.9781 22.4637 62.9767 22.4317C62.9732 22.4178 62.9691 22.4018 62.967 22.3831C62.8821 21.8065 62.782 21.2369 62.6191 20.6833C62.5859 20.5706 62.5528 20.4559 62.5148 20.3446C62.4948 20.2973 62.4506 20.186 62.4271 20.1283C62.1075 19.3313 61.7008 18.5614 61.2728 17.8165C61.0912 17.5007 60.9186 17.1391 60.6873 16.8553C60.5686 16.71 60.3698 16.5674 60.3932 16.8665C60.4699 17.82 60.6452 18.763 60.7087 19.7207C60.7736 20.6972 60.8006 21.6751 60.8344 22.6529C60.8827 24.0453 60.9262 25.4376 60.9918 26.8286C61.0104 27.2299 61.0312 27.6298 61.0422 28.0304C61.0526 28.4248 61.1002 28.8177 61.1837 29.2037Z" fill="#0B5C01"/>
<path d="M57.9086 15.4619C57.9086 15.4619 57.9094 15.4677 57.9102 15.471C57.9094 15.4677 57.9094 15.4652 57.9086 15.4619Z" fill="#0B5C01"/>
<path d="M57.9075 15.4464V15.4513C57.9075 15.4513 57.9065 15.4454 57.9065 15.4424C57.9075 15.4434 57.9075 15.4454 57.9075 15.4464Z" fill="#0B5C01"/>
<path d="M57.906 15.4336C57.906 15.4336 57.906 15.4402 57.906 15.4431L57.9038 15.4233C57.9038 15.4233 57.9045 15.4299 57.9053 15.4336H57.906Z" fill="#0B5C01"/>
<path d="M57.9046 15.4243C57.9038 15.4177 57.9031 15.4119 57.9023 15.4053C57.9031 15.4111 57.9038 15.4177 57.9046 15.4243Z" fill="#0B5C01"/>
<path d="M30.0922 7.35348C30.0922 7.35348 30.0937 7.35784 30.0944 7.36075C30.0929 7.35784 30.0914 7.35275 30.0892 7.34766C30.0907 7.34984 30.0914 7.35202 30.0922 7.35348Z" fill="#0B5C01"/>
<path d="M30.0879 7.34326C30.0879 7.34326 30.0898 7.34792 30.0898 7.34885C30.0888 7.34699 30.0879 7.34512 30.0879 7.34326Z" fill="#0B5C01"/>
<path d="M26.6939 21.3753C26.7947 21.3774 26.5966 16.3908 26.5289 15.9338C26.533 15.9561 26.5365 15.979 26.5413 16.0013C26.415 15.2133 26.1961 14.4413 25.9144 13.693C25.7729 13.3188 25.6162 12.9495 25.4464 12.5865C25.4036 12.4953 24.9935 11.8506 25.0349 11.77C25.0307 11.7783 25.028 11.7832 25.0273 11.7832C24.5054 13.2096 24.4501 14.9268 24.3638 16.429C24.3397 16.8463 24.1388 21.1034 24.3127 21.1263C25.0238 21.223 25.7329 21.3343 26.4495 21.3677C26.531 21.3712 26.6124 21.3739 26.6939 21.3753ZM29.1752 21.198C29.189 21.6174 29.2118 22.0409 29.1427 22.4547C29.0737 22.8692 28.9031 23.2803 28.5876 23.5633C27.9104 24.1705 26.9072 24.0022 26.0801 23.9194C25.1868 23.829 24.2934 23.7393 23.4 23.6496C22.9803 23.6071 22.5246 23.5487 22.2291 23.2524C21.9205 22.943 21.8798 22.4679 21.8619 22.0346C21.7542 19.4544 21.8156 16.8672 22.0462 14.2946C22.1608 13.0142 22.3092 11.6802 22.8401 10.4923C23.3379 9.37747 24.486 8.42048 25.7812 9.00747C26.5538 9.3573 27.0108 10.1418 27.3864 10.8929C28.1665 12.455 28.7844 14.0811 28.9929 15.817C29.0771 16.5173 29.1137 17.2205 29.131 17.9243C29.1579 19.0148 29.1379 20.1081 29.1752 21.198Z" fill="#0B5C01"/>
<path d="M19.8819 41.9237C19.8819 41.9237 19.8853 41.9293 19.8867 41.9321L19.8881 41.9307C19.8881 41.9307 19.8839 41.9258 19.8819 41.9237ZM7.0696 14.6029C7.84491 15.989 8.3268 17.5782 8.63264 19.2007C9.48389 23.7179 9.13248 28.0557 8.69685 32.5854C8.51458 34.4834 8.50837 36.4245 8.80317 38.3093C8.91225 39.0054 8.99302 39.7169 9.21257 40.3797C9.50391 41.2581 10.1211 41.4598 10.3593 40.354C10.8246 38.1945 11.0711 35.8987 11.3038 33.6864C11.5937 30.928 11.6745 28.1364 11.5364 25.3586C11.3949 22.5259 11.1691 19.6493 11.6317 16.8416C12.0252 14.4492 12.9331 12.3648 14.3939 10.6775C15.6739 9.20033 17.4158 7.68555 17.8721 5.49964C17.9736 5.01697 17.9826 4.52665 17.848 4.05093C17.6609 3.38883 17.1887 3.57383 16.8752 3.92088C14.492 6.56165 11.5516 12.3683 7.65091 9.84017C6.36678 9.00768 5.47825 7.98183 4.72572 6.49071C4.38329 5.8126 3.93453 4.94603 3.20479 4.87231C2.99698 4.85144 2.77537 4.92377 2.63177 5.10529C2.52338 5.2423 2.46814 5.428 2.435 5.6137C2.09602 7.51029 3.06464 9.38671 4.07952 10.7262C5.06608 12.0289 6.24527 13.1305 7.0696 14.6029ZM25.0087 3.05917C25.0135 3.05917 25.0653 3.055 25.1123 3.04943C25.1178 3.04874 25.1233 3.04874 25.1281 3.04804C25.1226 3.04804 25.1178 3.04874 25.1123 3.04943L25.0853 3.05152C25.0356 3.05569 25.0135 3.05778 25.0087 3.05917ZM23.2696 3.93479C23.3069 3.90697 23.3545 3.8708 23.3518 3.86802C23.3497 3.86594 23.3124 3.89723 23.2696 3.93479ZM36.4512 4.67409L36.4519 4.6734C36.4512 4.6734 36.4499 4.6734 36.4492 4.6727C36.4499 4.6734 36.4505 4.6734 36.4512 4.67409ZM21.8861 5.44052C21.9095 5.41479 21.9606 5.33898 21.9648 5.32994C21.962 5.33133 21.9454 5.35428 21.9047 5.4127C21.8978 5.42174 21.8923 5.43148 21.8861 5.44052ZM38.4333 34.8249C38.4333 34.8249 38.4333 34.829 38.4333 34.8297C38.4333 34.8283 38.4333 34.827 38.4333 34.8249ZM38.4361 34.8026C38.4361 34.8075 38.4347 34.8116 38.4347 34.8151C38.4354 34.8116 38.4354 34.8075 38.4361 34.8026ZM28.1845 28.6142C28.6374 28.6781 29.0454 28.9821 29.2795 29.3945C29.5805 29.9265 29.5832 30.5782 29.6247 31.1763C29.7261 32.6417 29.8014 34.1092 29.9077 35.5746C30.0113 36.9885 30.099 38.4094 30.4766 39.7837C30.5546 40.0661 30.6961 40.3943 30.9896 40.4368C31.1932 40.466 31.3921 40.331 31.4984 40.1579C31.6054 39.984 31.6385 39.7781 31.6696 39.5778C31.9568 37.7278 32.3013 35.8792 32.4497 34.0125C32.5374 32.9178 32.5947 31.8204 32.6361 30.7229C32.7204 28.473 32.7211 26.2203 32.6389 23.9704C32.5588 21.7546 32.398 19.5415 32.1536 17.3389C32.1239 17.0712 32.0935 16.8027 32.061 16.5349C32.0438 16.3917 32.0251 16.2477 32.0079 16.1037C32.0072 16.0954 32.0065 16.0884 32.0051 16.0822C32.0003 16.0404 31.9948 15.9994 31.9892 15.9577C31.9174 15.4075 31.8401 14.8581 31.7566 14.3094C31.5999 13.271 31.4211 12.2347 31.2015 11.2089C30.9902 10.2227 30.741 9.24414 30.4269 8.28854C30.3475 8.04721 30.2633 7.80796 30.1749 7.5701C30.1494 7.50194 30.1231 7.43379 30.0962 7.36563C30.0962 7.36354 30.0955 7.36145 30.0941 7.36006C30.0941 7.35728 30.0927 7.3552 30.0921 7.35311C30.0914 7.35172 30.0907 7.34963 30.0893 7.34755C30.0893 7.34755 30.0886 7.34546 30.0879 7.34337C30.0734 7.3079 30.0451 7.23766 30.0258 7.19176C29.8456 6.7682 29.6474 6.3523 29.4244 5.9517C29.3022 5.73123 29.1731 5.51633 29.0351 5.30698C28.9785 5.22005 28.917 5.1359 28.8597 5.04965C28.8438 5.02879 28.8286 5.00793 28.8128 4.98776C28.5483 4.64836 28.2591 4.32913 27.9436 4.04189C27.9263 4.02659 27.8738 3.98 27.8296 3.94035C27.8 3.91879 27.6784 3.82142 27.6453 3.79778C27.5072 3.69763 27.3657 3.60374 27.22 3.5175C27.1855 3.49663 26.8196 3.32763 26.7312 3.26851C26.7126 3.26086 26.6946 3.25321 26.676 3.24695C26.6021 3.21983 26.5283 3.19479 26.453 3.17184C26.2839 3.11968 26.1064 3.09812 25.938 3.04665C25.8682 3.04109 25.7985 3.03483 25.7288 3.03135C25.552 3.023 25.3753 3.02648 25.1993 3.04109C25.1917 3.04109 25.1848 3.04248 25.1779 3.04248C25.1261 3.0703 25.0156 3.0696 24.9631 3.08143C24.7864 3.12176 24.6117 3.17323 24.4412 3.23582C24.3839 3.25669 24.3135 3.29981 24.252 3.31441C23.9483 3.46533 23.659 3.64616 23.3842 3.84994C23.3421 3.88124 23.3014 3.91601 23.2579 3.94592C23.2558 3.94731 23.2551 3.948 23.253 3.94939C23.2006 3.9953 23.1453 4.04607 23.135 4.05511C22.9997 4.17612 22.8678 4.30201 22.7401 4.43206C22.4722 4.70608 22.2216 4.99819 21.9869 5.30281C21.9682 5.32646 21.9116 5.4273 21.8819 5.44608C21.835 5.51215 21.7887 5.57892 21.7432 5.64638C21.6258 5.81956 21.5133 5.99691 21.4042 6.17634C21.177 6.55052 20.9672 6.93582 20.7732 7.32946C20.6641 7.54993 20.5605 7.77249 20.4611 7.99783C20.4176 8.09589 20.3755 8.19465 20.3341 8.29341C20.3175 8.33236 20.3016 8.3713 20.2857 8.40955C20.2837 8.41512 20.2816 8.41999 20.2795 8.42486C20.2781 8.42903 20.2768 8.43251 20.2754 8.43598C20.1028 8.88805 19.9412 9.34429 19.7983 9.80818C19.5084 10.7485 19.2785 11.7083 19.0927 12.6771C18.9954 13.1834 18.9105 13.6925 18.8359 14.2037C18.8166 14.3379 18.798 14.4714 18.78 14.6057C18.7738 14.6516 18.7676 14.6975 18.7614 14.7441C18.76 14.7545 18.7586 14.7663 18.7572 14.7795C18.7289 15.0118 18.702 15.2448 18.6771 15.4778C18.566 16.5224 18.49 17.5705 18.4362 18.62C18.3278 20.7496 18.3133 22.8833 18.3126 25.015C18.3112 27.2726 18.3112 29.5315 18.3844 31.7884C18.421 32.9046 18.4755 34.0202 18.5591 35.1344C18.7144 37.2069 18.8228 39.3379 19.4566 41.3353C19.5097 41.5015 19.5719 41.6754 19.7044 41.7909C19.7949 41.8695 19.9475 41.9084 20.0296 41.8215C20.0621 41.7874 20.0766 41.7401 20.0876 41.6949C20.1601 41.4021 20.1511 41.0968 20.1456 40.7949C20.127 39.758 20.156 38.7203 20.2326 37.6854C20.3051 36.7055 20.2678 35.722 20.2761 34.7365C20.2864 33.5285 20.3734 32.2383 20.2084 31.0386C20.1981 30.9663 20.1953 30.8926 20.1988 30.8182C20.1925 30.5476 20.2809 30.3035 20.4273 30.1032C20.5895 29.8466 20.8284 29.6511 21.1108 29.6011C22.1753 29.4112 23.2461 29.2638 24.3169 29.1156L25.135 29.0029L25.4188 28.9633C25.4568 28.9577 25.5776 28.9403 25.6204 28.9341C26.1368 28.859 26.6525 28.7804 27.1669 28.6921C27.51 28.6329 27.8372 28.5655 28.1845 28.6142ZM52.237 40.6795C52.2439 40.6697 52.2598 40.6475 52.284 40.6127C52.2998 40.5891 52.3164 40.5654 52.3323 40.5418C52.4151 40.4208 52.4945 40.2963 52.5705 40.1704C52.73 39.9047 52.8756 39.63 53.0075 39.3476C53.0489 39.2593 53.089 39.171 53.1276 39.0812C53.1373 39.0597 53.167 38.9936 53.1884 38.9456C53.2402 38.8149 53.285 38.6793 53.3299 38.5457C53.4438 38.2077 53.5425 37.8634 53.6268 37.515C53.7248 37.1095 53.7966 36.6992 53.8629 36.2868C53.8663 36.2638 53.8698 36.245 53.8726 36.2284C53.8732 36.2221 53.8739 36.2151 53.8746 36.2068C53.885 36.1039 53.8974 36.0002 53.9078 35.8966C53.9285 35.688 53.945 35.4793 53.9595 35.27C54.0196 34.3846 54.03 33.4958 54.0334 32.6077C54.0472 29.0774 53.8518 25.545 53.4466 22.0411C53.4183 21.797 53.3893 21.5536 53.3589 21.3095C53.3589 21.306 53.3582 21.3004 53.3575 21.2949C53.3534 21.2622 53.3458 21.2051 53.343 21.1864L53.3099 20.9318C53.2567 20.5291 53.2001 20.1264 53.1407 19.7244C53.0178 18.8885 52.8818 18.0539 52.7334 17.2221C52.4428 15.5953 52.1024 13.9783 51.7082 12.3766C51.3243 10.8173 50.8894 9.27196 50.3951 7.74815C49.9643 6.42116 49.4188 5.13868 48.9742 3.81795C48.9266 3.67676 48.879 3.5321 48.7892 3.41248C48.4088 2.90616 48.0388 3.31789 47.8227 3.71501C47.4112 4.47101 47.5272 5.26665 47.6038 6.0901C47.6804 6.91565 47.8199 7.73215 47.9117 8.55561C48.0484 9.77966 48.2348 10.9982 48.4171 12.2173C48.6856 14.0228 48.9694 15.8262 49.2683 17.6269C49.8621 21.2044 50.6429 24.7626 51.0558 28.37C51.2691 30.2333 51.3623 32.1542 51.0958 34.0167C51.0254 34.5084 50.8645 35.0342 50.5048 35.3771C49.9601 35.8952 49.2808 35.9363 48.638 35.6212C48.1209 35.368 47.6563 34.9424 47.2779 34.4931C46.3549 33.3963 45.7632 32.0707 45.2461 30.7201C44.7028 29.2999 44.2886 27.8262 43.8971 26.3517C42.9602 22.8256 42.0579 19.2884 41.139 15.7567C40.693 14.0416 40.2622 12.3217 39.792 10.6136C39.5753 9.82557 39.3447 9.04036 39.0768 8.27046C39.0036 8.05903 38.9256 7.84969 38.8476 7.64104C38.8407 7.62157 38.8345 7.60557 38.8296 7.59166C38.8241 7.57984 38.8186 7.56662 38.8117 7.55063C38.7841 7.48456 38.7571 7.41779 38.7288 7.35241C38.5866 7.01788 38.432 6.68892 38.2621 6.36899C38.1772 6.20903 38.0882 6.05185 37.9943 5.89745C37.9376 5.80426 37.8762 5.71454 37.8175 5.62274C37.8127 5.61578 37.8092 5.60952 37.8051 5.60326C37.8016 5.59979 37.7989 5.59631 37.7954 5.59213C37.6857 5.46556 37.5849 5.33202 37.4696 5.21101C37.415 5.15259 37.3584 5.09625 37.3004 5.04131C37.2555 4.99888 37.21 4.95716 37.163 4.91751C37.2003 4.94811 37.2376 4.97871 37.2742 5.00932C37.2176 4.90499 37.0243 4.82988 36.9124 4.76729C36.9166 4.7659 36.9207 4.76381 36.9242 4.76103C36.9214 4.76311 36.909 4.76033 36.891 4.75477C36.8883 4.75338 36.8848 4.75129 36.882 4.7499C36.7833 4.68731 36.7743 4.69843 36.7985 4.72208C36.7633 4.70817 36.7302 4.69496 36.7143 4.68939C36.7088 4.68105 36.6791 4.67131 36.6128 4.66922C36.6142 4.66157 36.6038 4.65601 36.5741 4.65949C36.5672 4.6567 36.561 4.65462 36.5582 4.65184L36.5686 4.66018C36.55 4.66227 36.5258 4.66714 36.4927 4.67548C36.4851 4.67618 36.4775 4.67618 36.4713 4.67618C36.4692 4.67757 36.4671 4.67896 36.465 4.67966C36.4671 4.68105 36.4685 4.68174 36.4706 4.68244C36.463 4.68452 36.4554 4.68731 36.4478 4.69009C36.3905 4.72278 36.3069 4.7659 36.2931 4.77285C36.2786 4.7812 36.2641 4.78676 36.2517 4.79093C36.2103 4.83405 36.1702 4.88413 36.1419 4.91473C36.1019 4.95785 36.066 5.00584 36.026 5.04826C36.0218 5.05244 36.0184 5.05522 36.0149 5.05939C35.9397 5.17971 35.8637 5.29794 35.7961 5.42383C35.707 5.59005 35.6283 5.76253 35.5523 5.9364C35.5365 5.97187 35.5261 5.99482 35.5192 6.01012C35.4985 6.07063 35.4819 6.13531 35.4633 6.18956C35.3487 6.53243 35.2534 6.88296 35.1733 7.23696C35.0856 7.62644 35.018 8.01939 34.9607 8.41512C34.9545 8.45824 34.9469 8.51944 34.9434 8.54726C34.9324 8.64602 34.9227 8.74408 34.9137 8.84284C34.8944 9.04662 34.8792 9.25109 34.8668 9.45487C34.8122 10.3576 34.8157 11.2631 34.8495 12.1666C34.9179 14.0089 35.0932 15.8478 35.2375 17.6846C35.5185 21.2524 35.7526 24.8293 36.0915 28.3916C36.1295 28.7873 36.1702 29.1831 36.2151 29.5781C36.2206 29.6275 36.2455 29.8382 36.2565 29.9328C36.2766 30.09 36.298 30.2465 36.3201 30.4037C36.4216 31.1249 36.5424 31.8433 36.6963 32.5541C36.8144 33.0938 36.9214 33.6432 37.1023 34.1669C37.2873 34.7018 37.5434 35.2234 37.8106 35.7227C37.8734 35.8396 37.9784 35.9745 38.1082 35.9411C38.2145 35.914 38.2566 35.7902 38.2801 35.6845C38.4658 34.8402 38.5321 33.9805 38.5535 33.1188C38.5749 32.246 38.5431 31.3718 38.4844 30.501C38.3705 28.8054 38.1572 27.1175 37.9729 25.4295C37.7996 23.8466 37.629 22.2637 37.4537 20.6814C37.3998 20.5131 37.3895 20.3434 37.4143 20.18C37.4371 19.81 37.6608 19.4977 37.9521 19.2932C38.0688 19.2021 38.1972 19.1312 38.3291 19.086C38.5086 19.0241 38.6847 19.015 38.851 19.0463C39.1921 19.0915 39.4586 19.303 39.6388 19.5895C39.7292 19.7168 39.8031 19.8587 39.8549 20.0075C40.3809 21.5111 40.646 23.0927 40.8835 24.6707C41.1348 26.335 41.3813 27.9959 41.7686 29.6324C42.1325 31.1687 42.5971 32.6716 43.1584 34.1391C43.1632 34.1509 43.1667 34.1614 43.1701 34.1704C43.1749 34.1815 43.1805 34.1948 43.1867 34.2101C43.2198 34.2893 43.2516 34.3693 43.2847 34.4486C43.3565 34.6211 43.4304 34.7929 43.5056 34.964C43.6396 35.2686 43.779 35.5704 43.9247 35.8695C44.2168 36.4697 44.5323 37.0574 44.8747 37.627C45.0459 37.9107 45.2233 38.1896 45.4084 38.4637C45.4864 38.5791 45.5665 38.6925 45.6465 38.8065C45.6894 38.8601 45.7287 38.9171 45.7701 38.9714C46.1181 39.4276 46.4895 39.863 46.8893 40.2684C47.1019 40.484 47.3221 40.6906 47.5513 40.8867C47.5603 40.8916 47.7122 41.0133 47.7281 41.0251C47.7875 41.0703 47.8468 41.1135 47.9069 41.1566C48.0546 41.2616 48.2058 41.3611 48.3598 41.4543C48.5213 41.5523 48.6863 41.6399 48.8548 41.7227C48.7215 41.6539 49.102 41.8166 49.1738 41.8409C49.3284 41.8917 49.4865 41.9237 49.6432 41.9661C49.6563 41.9696 49.6674 41.9731 49.6777 41.9759C49.6819 41.9759 49.6853 41.9766 49.6895 41.9766C49.7523 41.9814 49.8151 41.9877 49.878 41.9912C50.0222 41.9981 50.2156 42.0211 50.3702 41.9905C50.4116 41.9745 50.462 41.9571 50.4876 41.9508C50.5504 41.9355 50.6125 41.9188 50.674 41.9001C50.7582 41.875 50.839 41.843 50.9218 41.8138C51.0081 41.7624 51.1013 41.7199 51.1876 41.6671C51.2905 41.6031 51.3885 41.5321 51.4866 41.4612C51.4831 41.4661 51.4797 41.4702 51.4762 41.4751C51.481 41.4689 51.4873 41.4626 51.4928 41.4563C51.5052 41.4473 51.5183 41.4383 51.5307 41.4292C51.5611 41.407 51.5805 41.3861 51.5915 41.3708C51.5998 41.3645 51.6081 41.3576 51.615 41.3513C51.8152 41.1656 52.0016 40.9625 52.1756 40.7483C52.1852 40.7358 52.208 40.7122 52.2336 40.6843C52.2343 40.683 52.2356 40.6823 52.2363 40.6809C52.2363 40.6809 52.2366 40.6804 52.237 40.6795ZM52.2391 40.6774C52.284 40.6287 52.3323 40.5717 52.3282 40.5522C52.2812 40.619 52.2508 40.6607 52.2391 40.6774ZM55.9665 3.45421C55.9706 3.4556 55.9755 3.45629 55.9803 3.45768C55.7856 3.41804 55.5889 3.38883 55.3907 3.36449C55.4121 3.75466 55.4349 4.14413 55.4563 4.5336C55.8878 12.49 56.2033 20.454 56.5665 28.4146C56.7439 32.3051 56.931 36.195 57.1505 40.0821C57.1664 40.3644 57.183 40.6468 57.1995 40.9299C57.2044 41.0161 57.2092 41.103 57.214 41.1893C57.2161 41.2234 57.2189 41.2567 57.2209 41.2908C57.4191 41.3576 57.6228 41.4063 57.825 41.4536C57.9403 41.4807 58.0549 41.5057 58.1709 41.5287C58.1737 41.5287 58.2772 41.5474 58.3456 41.56C58.4091 41.569 58.5292 41.5871 58.5403 41.5892C58.657 41.6038 58.7736 41.617 58.8903 41.6281C59.0857 41.6462 59.2804 41.6594 59.4765 41.6664C59.9059 41.6824 60.336 41.6726 60.7647 41.6365C60.9601 41.6205 61.1541 41.5954 61.3488 41.5718C61.3771 41.5683 61.3992 41.5662 61.4171 41.5641C61.4351 41.5607 61.4565 41.5558 61.4834 41.5509C61.5746 41.5328 61.6664 41.5162 61.7575 41.4974C62.3616 41.3708 62.9574 41.1879 63.538 40.9528C63.7003 40.8874 63.8611 40.8179 64.0206 40.7442C64.0972 40.7094 64.1725 40.6725 64.2484 40.6364C64.5184 40.4889 64.7876 40.3415 65.0507 40.178C65.6106 39.8289 66.1505 39.4318 66.6655 38.9936C66.7656 38.9088 66.8691 38.8246 66.9679 38.7342C66.9679 38.7335 66.9858 38.7147 67.0369 38.6653C67.1046 38.5993 67.1722 38.5346 67.2392 38.4685C67.4636 38.2474 67.6817 38.0185 67.8944 37.7821C68.1188 37.5324 68.3369 37.2737 68.5482 37.0073C68.0546 36.1567 67.63 35.2533 67.2723 34.3095C65.0217 28.3728 65.8605 21.7678 66.5833 15.5905C66.7815 13.9018 66.9893 12.2125 67.2682 10.5371C67.2723 10.5134 67.2765 10.4898 67.2799 10.4661C67.2219 10.3903 67.164 10.3138 67.1046 10.2394C66.6558 9.67743 66.1836 9.1419 65.6907 8.63628C65.5567 8.49858 65.4207 8.36365 65.284 8.23012C65.2626 8.20925 65.1839 8.13275 65.119 8.06946C64.8822 7.83717 64.6261 7.62713 64.3755 7.41709C63.3316 6.54565 62.218 5.79452 61.0554 5.17484C60.9753 5.13172 60.8945 5.09069 60.8144 5.04826C60.8061 5.04409 60.7972 5.03992 60.7868 5.03505C60.6508 4.97037 60.5148 4.9043 60.3781 4.84101C60.0778 4.70261 59.774 4.57255 59.4682 4.45084C58.8827 4.21855 58.2883 4.01825 57.6877 3.84924C57.3576 3.75674 57.0256 3.67468 56.6921 3.60165C56.5326 3.56618 56.3725 3.53349 56.2116 3.50359C56.1716 3.49594 56.0514 3.47159 55.9665 3.45421ZM57.2099 41.2491C57.2099 41.2491 57.2092 41.2658 57.2134 41.288C57.2134 41.288 57.2138 41.2883 57.2147 41.2887C57.2127 41.2755 57.2113 41.2623 57.2099 41.2491ZM55.9168 3.44377C55.912 3.44238 55.9078 3.44169 55.9044 3.44099C55.9085 3.44238 55.9127 3.44308 55.9168 3.44377ZM55.9209 3.44447C55.9327 3.44725 55.9472 3.45073 55.9651 3.45421C55.9486 3.45003 55.9334 3.44725 55.9209 3.44447ZM79.9645 19.4998C80.0087 19.5248 80.0687 19.5575 80.068 19.5513C80.068 19.5394 80.0225 19.52 79.9645 19.4998ZM79.9465 21.5216C79.9458 21.5181 79.9238 21.539 79.8975 21.564C79.9238 21.5445 79.9465 21.5264 79.9465 21.5216ZM79.3279 19.3273C79.3155 19.3169 79.2624 19.3127 79.2182 19.3106L79.3279 19.3273ZM80.26 19.6862C80.2358 19.6605 80.2151 19.641 80.213 19.6438C80.2089 19.6472 80.2324 19.666 80.26 19.6862ZM77.6648 31.3405C77.6448 31.337 77.6248 31.3335 77.6047 31.3307C77.6109 31.3363 77.6358 31.3391 77.6648 31.3405ZM100.849 40.1989C100.836 40.2232 100.823 40.2469 100.809 40.2705C100.82 40.2677 100.835 40.2371 100.849 40.1989ZM81.0608 40.9987C81.3101 41.1392 81.6138 41.0084 81.8631 40.8687C84.3554 39.4742 86.218 37.1819 87.8059 34.699C88.3714 33.8143 88.903 32.906 89.4146 32.0047C89.7024 31.4984 89.9848 30.9941 90.2637 30.4982C90.5054 30.0677 91.3822 27.9562 91.9124 29.3173C93.1171 32.4087 93.9787 35.6504 95.7137 38.4887C96.6471 40.0146 97.9719 41.0057 99.7656 40.7122C100.053 40.6649 100.346 40.5793 100.577 40.3909C100.878 40.1453 101.043 39.7461 101.093 39.3462C101.242 38.1229 100.65 36.8835 100.209 35.7951C98.7065 32.084 96.9433 28.5557 95.1703 25.0776C94.7665 24.2841 94.1527 23.5016 94.2859 22.5446C94.424 21.5522 95.2394 20.6946 95.7503 19.8893C96.9536 17.9941 98.079 16.0425 99.1208 14.0423C100.428 11.5316 101.759 8.79068 102.018 5.89398C102.073 5.27986 102.035 4.59342 101.63 4.149C100.08 2.44505 98.4676 6.12975 97.8421 7.09578C96.81 8.69053 95.7979 10.2999 94.8058 11.9225C93.9028 13.399 93.2165 15.08 92.1809 16.4612C90.6365 18.5226 89.0666 15.9424 88.4301 14.4749C88.2885 14.148 88.1394 13.8239 87.9861 13.5026C87.9406 13.5555 87.8957 13.6076 87.8494 13.6584C86.994 14.5973 85.9654 15.1739 84.8656 15.4569C84.9325 15.5981 84.9988 15.74 85.0665 15.8812C85.6243 17.0419 86.2084 18.1881 86.8187 19.319C87.2861 20.1835 88.1484 21.2601 87.944 22.3346C87.866 22.747 87.6541 23.083 87.4511 23.405C86.4155 25.0512 85.4338 26.7252 84.5376 28.4521C84.093 29.3083 83.6705 30.1769 83.2728 31.0623C83.2335 31.1499 83.1941 31.2375 83.1555 31.3252C81.9349 34.0876 80.8137 37.0066 80.746 40.0987C80.7384 40.4361 80.7791 40.8394 81.0608 40.9987ZM80.494 16.8486C81.8672 17.3111 82.9021 18.4858 83.0098 20.0889C83.0968 21.3943 82.4533 22.7498 81.5462 23.5691C80.3111 24.6854 78.7459 24.846 77.2105 24.5866C76.5339 24.4725 75.8808 24.2514 75.2367 24.0052C75.0958 23.9509 74.9543 23.8974 74.8114 23.8508C74.8798 24.8078 74.895 25.7682 74.8528 26.7245C75.0254 27.4249 75.2319 28.1169 75.4756 28.7922C75.4908 28.8339 75.5059 28.8757 75.5218 28.9174C75.5515 28.9904 75.5805 29.0634 75.6116 29.1365C75.6689 29.2714 75.7289 29.4049 75.7925 29.5371C75.9195 29.7993 76.0631 30.0469 76.2157 30.291C76.2143 30.2882 76.2129 30.2861 76.2129 30.2847C76.2281 30.3028 76.3137 30.4301 76.333 30.4537C76.3772 30.5094 76.4235 30.5629 76.4697 30.6158C76.5167 30.6686 76.565 30.7208 76.614 30.7709C76.6154 30.7723 76.6458 30.8022 76.6782 30.8356C76.7079 30.8578 76.8135 30.951 76.8211 30.9566C76.8743 30.9948 76.9288 31.0324 76.9841 31.0671C77.0269 31.095 77.1408 31.1645 77.1898 31.1958C77.3231 31.2563 77.4763 31.2953 77.6123 31.3266C77.6358 31.3321 77.6593 31.3363 77.6827 31.3412C77.7262 31.3419 77.7718 31.3405 77.7849 31.3398C78.2337 30.1686 79.2037 29.3138 80.2834 28.8465C80.9925 28.539 81.7712 28.3916 82.5569 28.3513C83.0353 27.4534 83.5359 26.5764 84.0371 25.6785C84.8228 24.2715 86.3782 22.7867 85.4345 20.9575C84.5466 19.2383 83.6284 17.4745 82.8766 15.6656C81.8858 15.6329 80.8868 15.4124 79.9458 15.0452C78.6086 14.5243 77.3997 13.7787 76.2868 12.8196C76.0341 12.6013 75.7835 12.3724 75.5439 12.1304C75.528 12.2368 75.5128 12.3425 75.4977 12.4483C75.4818 12.554 75.468 12.6604 75.4535 12.7668C75.4514 12.7786 75.4486 12.8023 75.4459 12.8266C75.4452 12.8356 75.4438 12.844 75.4431 12.853C75.4424 12.8572 75.4424 12.8614 75.4417 12.8655C75.4417 12.8676 75.441 12.869 75.441 12.8711V12.8725C75.441 12.8725 75.4404 12.8781 75.4404 12.8801C75.4397 12.8815 75.4397 12.8829 75.4397 12.8843C75.4397 12.8843 75.439 12.8864 75.4397 12.8871C75.439 12.8878 75.439 12.8885 75.439 12.8892V12.8906C75.439 12.8906 75.4383 12.8927 75.4383 12.8934V12.8954C75.4376 12.8996 75.4376 12.9017 75.4376 12.9017C75.401 13.2481 75.3665 13.5944 75.3423 13.9429C75.3168 14.3115 75.2933 14.6822 75.294 15.0522C75.294 15.1495 75.2961 15.2469 75.3009 15.3443C75.303 15.3818 75.3112 15.4604 75.3154 15.5001C75.3375 15.6037 75.3672 15.7045 75.3879 15.8082C75.3782 15.7532 75.3734 15.7289 75.3734 15.7254C75.3775 15.7323 75.4058 15.8527 75.4404 15.9459C75.4238 15.9306 75.4183 15.9285 75.4438 15.9556C75.468 16.0189 75.4949 16.0669 75.5184 16.053C75.5246 16.0495 75.5204 16.0377 75.5108 16.0238C75.5363 16.0495 75.5612 16.0759 75.586 16.1023C75.5805 16.101 75.5757 16.101 75.5722 16.1044C75.5722 16.1044 75.5929 16.119 75.6178 16.1364C75.6247 16.1441 75.6323 16.1517 75.6392 16.1594C75.7075 16.2324 75.6965 16.2074 75.6654 16.1705C75.6834 16.183 75.6986 16.1935 75.7041 16.1969C75.749 16.2268 75.7952 16.2547 75.8422 16.2811C75.8636 16.2936 75.8863 16.3047 75.9084 16.3166C75.9112 16.3172 75.9126 16.3179 75.9147 16.3186C75.9533 16.3339 75.992 16.3485 76.0313 16.3618C76.0969 16.3847 76.1632 16.4056 76.2302 16.4244C76.3392 16.4556 76.449 16.4814 76.5595 16.5036C76.5616 16.5043 76.5981 16.5141 76.6368 16.5231C76.6527 16.5231 76.672 16.5238 76.6969 16.5266C76.826 16.5412 76.9551 16.5509 77.0849 16.5579C78.2275 16.6198 79.3783 16.4723 80.494 16.8486ZM80.5354 20.2697C80.5479 20.2885 80.5575 20.276 80.5396 20.205C80.5348 20.1876 80.5306 20.1696 80.5265 20.1515C80.5244 20.1264 80.5244 20.1042 80.5265 20.093C80.5223 20.1007 80.5202 20.1084 80.5182 20.116C80.5092 20.0791 80.4995 20.0423 80.4912 20.0054C80.4885 19.9957 80.4871 19.9846 80.485 19.9734C80.494 20.1445 80.4878 19.9922 80.4409 19.9074C80.4346 19.8962 80.4181 19.8642 80.4001 19.8329C80.3891 19.8225 80.376 19.81 80.3594 19.794C80.3504 19.7849 80.3062 19.7349 80.2683 19.6952C80.2241 19.666 80.182 19.634 80.1364 19.6055C80.0901 19.5756 80.0418 19.5513 79.9949 19.5221C79.9762 19.5109 79.9624 19.5026 79.9514 19.4949C79.8561 19.4629 79.7353 19.4309 79.7139 19.4247C79.5765 19.3837 79.4384 19.3517 79.2983 19.3259C79.2686 19.3197 79.2389 19.3148 79.2092 19.3099C79.1816 19.3099 79.1588 19.3085 79.154 19.3078C78.9206 19.2849 78.6859 19.2752 78.4518 19.2724C77.3548 19.2578 76.2274 19.3329 75.1787 18.9017C74.6423 18.6812 74.1307 18.3759 73.7372 17.9162C73.704 17.8779 73.6723 17.8397 73.6419 17.7993C73.0979 17.0927 72.8638 16.2581 72.8196 15.3443C72.8162 15.2824 72.8148 15.2205 72.8134 15.1586C72.7975 14.4979 72.8604 13.8267 72.9266 13.1729C73.006 12.3877 73.0599 11.5267 73.2767 10.768C73.5086 9.95632 74.0016 9.12591 74.7914 8.87901C75.2595 8.73226 75.7621 8.81294 76.1846 9.07166C76.5015 9.2664 76.7293 9.58423 76.9792 9.86243C77.205 10.1142 77.4411 10.3555 77.6869 10.585C77.7835 10.6761 77.8843 10.7624 77.9831 10.8514C77.8167 10.6998 78.0963 10.9439 78.157 10.9919C78.6541 11.3828 79.1802 11.7291 79.7291 12.0247C79.8678 12.1005 80.0094 12.168 80.1502 12.2396C80.1219 12.225 80.1081 12.2173 80.1039 12.2146C80.1233 12.2215 80.3138 12.3126 80.3663 12.3349C80.6549 12.4559 80.9483 12.5637 81.2452 12.6569C81.3943 12.7035 81.5448 12.7459 81.6953 12.7849C81.8707 12.8301 82.0467 12.8704 82.2241 12.9038C82.2725 12.9128 82.3215 12.9212 82.3705 12.9295C82.3981 12.9337 82.4306 12.9379 82.4471 12.9393C82.6142 12.9532 82.7799 12.9713 82.947 12.9775C83.132 12.9852 83.3163 12.9845 83.5014 12.9754C83.5255 12.974 83.6215 12.9643 83.7085 12.956C83.7968 12.9476 83.8755 12.9407 83.8597 12.9462C84.122 12.9003 84.3823 12.8336 84.6357 12.7459C84.6916 12.7258 84.7703 12.7091 84.8386 12.6819C84.8504 12.6729 84.8656 12.6625 84.8821 12.6534C85.0036 12.588 85.1245 12.5248 85.2425 12.4524C85.3599 12.3794 85.4745 12.3022 85.5856 12.2194C85.5995 12.2097 85.6664 12.1561 85.7051 12.1269C85.6733 12.1541 85.6243 12.1993 85.6174 12.2076C85.6222 12.2034 85.6443 12.184 85.6947 12.1381C85.7002 12.1332 85.7058 12.1269 85.7113 12.1221C85.7113 12.1221 85.7134 12.1193 85.7141 12.1186C85.7147 12.1179 85.7154 12.1172 85.7161 12.1172C85.7161 12.1172 85.7166 12.1172 85.7175 12.1172C85.9157 11.9329 86.1055 11.7396 86.2795 11.5274C86.3299 11.4669 86.3761 11.4015 86.4265 11.341L86.4279 11.3396C86.497 11.2339 86.566 11.1282 86.6302 11.0176C86.6399 11.0023 86.6482 10.9856 86.6571 10.9696C86.7276 10.8465 86.7945 10.72 86.8567 10.5913C86.876 10.5517 86.9236 10.3973 86.9671 10.3055C86.9761 10.2797 86.9899 10.2526 87.0079 10.2401C87.0237 10.1942 87.0396 10.1483 87.0541 10.1017C87.0983 9.96188 87.1376 9.8207 87.1715 9.67743C87.2094 9.51886 87.2336 9.3589 87.2654 9.19963C87.2695 9.13912 87.2757 9.07931 87.2792 9.0188C87.2951 8.75382 87.2923 8.48745 87.2723 8.22247C87.2709 8.20647 87.2688 8.19117 87.2681 8.17518C87.255 8.13553 87.2481 8.02425 87.2419 7.99018C87.2163 7.84343 87.1846 7.69807 87.1487 7.55341C87.1128 7.40875 87.0714 7.26617 87.0258 7.12499C87.0217 7.11386 87.0072 7.07144 86.9927 7.02971C86.9782 6.99911 86.9602 6.95599 86.9602 6.94208C86.8877 6.77516 86.8097 6.61102 86.7262 6.45037C86.6813 6.36413 86.6357 6.27928 86.5867 6.19512C86.517 6.07619 86.4417 5.96283 86.3665 5.84807C86.3603 5.84042 86.3547 5.83416 86.3465 5.82443C86.3057 5.77505 86.2671 5.72289 86.2263 5.67281C86.111 5.53163 85.9881 5.40088 85.8618 5.27291C85.7872 5.1971 85.7113 5.12268 85.6333 5.04896C85.6209 5.03644 85.6098 5.02601 85.6001 5.01697C85.5663 4.99193 85.5304 4.9662 85.5208 4.95855C85.4075 4.87231 85.2922 4.79233 85.1735 4.71652C85.0333 4.6268 84.889 4.54543 84.742 4.46962C84.7095 4.45362 84.6184 4.41398 84.5929 4.40285C84.5542 4.38686 84.5149 4.37016 84.4755 4.35486C84.18 4.23872 83.8776 4.14413 83.5732 4.06206C83.0837 3.92992 82.5873 3.82699 82.0909 3.72823C81.9321 3.69624 81.7733 3.66563 81.6145 3.63364C81.3038 3.57244 80.9932 3.51263 80.6811 3.45629C80.6134 3.44377 80.5451 3.43056 80.4774 3.41874C80.3173 3.39022 80.1571 3.3631 79.9969 3.33737C79.9079 3.32346 79.8195 3.30885 79.7304 3.29564C79.7125 3.29355 79.6918 3.29077 79.6655 3.28729C79.3777 3.24973 79.0898 3.21705 78.8012 3.19062C78.3662 3.15028 77.9313 3.12455 77.4943 3.12176C77.1387 3.11968 76.7825 3.13081 76.4276 3.16002C76.2957 3.17045 76.1632 3.18436 76.0313 3.20035C75.9989 3.20453 75.9664 3.208 75.934 3.21218C75.8974 3.21844 75.8449 3.22817 75.8166 3.23304C75.2415 3.33528 74.6733 3.48898 74.1245 3.7025C74.0306 3.73936 73.9381 3.7783 73.8449 3.81725C73.84 3.81934 73.8359 3.82073 73.8311 3.82282C73.7075 3.88402 73.5846 3.94522 73.4638 4.01199C73.2139 4.14969 72.9715 4.30201 72.7375 4.46962C72.6553 4.52874 72.5752 4.59133 72.4945 4.65253C72.4813 4.66227 72.4606 4.67966 72.442 4.69496C72.3626 4.7659 72.2839 4.83753 72.2073 4.91195C71.987 5.12755 71.7799 5.35915 71.5887 5.60604C71.5804 5.61648 71.5493 5.65751 71.521 5.69576C71.4886 5.74306 71.4257 5.83277 71.4237 5.83625C71.3484 5.9517 71.2759 6.06924 71.2069 6.18886C71.0584 6.44411 70.9231 6.707 70.7989 6.97685C70.7271 7.13403 70.6622 7.29399 70.5945 7.45256C70.5669 7.53046 70.5372 7.60766 70.5103 7.68555C70.4164 7.9561 70.3308 8.22942 70.2521 8.50553C70.1444 8.88457 70.0505 9.26779 69.9656 9.65309C69.7522 10.617 69.5983 11.5984 69.4554 12.5762C69.4043 12.9233 69.3566 13.271 69.3097 13.6188C69.3035 13.6674 69.2966 13.7161 69.2897 13.7655C69.2669 13.9422 69.2434 14.1181 69.2213 14.2948C69.2075 14.4054 69.1937 14.5159 69.1799 14.6258C69.1785 14.6356 69.1771 14.6425 69.1764 14.6502C69.1764 14.6543 69.1764 14.6578 69.1751 14.6634C69.0819 15.4368 68.9921 16.2108 68.9037 16.9849C68.5413 20.1633 68.1906 23.3639 68.3169 26.5736C68.3445 27.274 68.3991 27.9715 68.4736 28.6677C68.4764 28.6907 68.4785 28.7101 68.4798 28.7261C68.4819 28.7393 68.4833 28.7533 68.4861 28.77C68.4964 28.8472 68.5061 28.9244 68.5171 29.0009C68.5413 29.174 68.5675 29.3465 68.5958 29.519C68.6483 29.8445 68.7077 30.1686 68.7739 30.4913C68.9134 31.1722 69.0846 31.8454 69.2904 32.5061C69.3925 32.8351 69.5058 33.1599 69.6245 33.4826C69.6245 33.4847 69.6259 33.4867 69.6266 33.4895C69.628 33.4923 69.6293 33.4965 69.6307 33.5L69.6349 33.5104C69.6369 33.516 69.6397 33.5222 69.6418 33.5278C69.6438 33.5326 69.6459 33.5375 69.6473 33.5424C69.6494 33.5473 69.6514 33.5528 69.6535 33.5577C69.6556 33.5633 69.6576 33.5674 69.6597 33.5723L69.6618 33.5765C69.6618 33.5765 69.6639 33.5827 69.6652 33.5855C69.6659 33.5876 69.6666 33.589 69.6673 33.5911L69.6694 33.5952C69.6694 33.5952 69.6694 33.5966 69.6701 33.5973L69.7074 33.6912C69.7729 33.8491 69.8399 34.0063 69.9096 34.1621C69.9794 34.3172 70.0505 34.4702 70.1244 34.6225C70.3404 35.0669 70.5759 35.5002 70.8327 35.9189C70.9197 36.0614 71.0094 36.2019 71.1019 36.3403C71.1371 36.3946 71.1737 36.4467 71.2096 36.5003C71.2124 36.5045 71.2145 36.5079 71.2172 36.5121C71.3705 36.718 71.5238 36.9225 71.6846 37.1214C71.6915 37.129 71.6978 37.1381 71.7047 37.1464C72.0657 37.588 72.453 38.0053 72.8624 38.3948C72.9757 38.5033 73.091 38.609 73.2076 38.7133C73.2435 38.7446 73.2787 38.7759 73.3146 38.8065H73.3119C73.3119 38.8065 73.314 38.8072 73.3146 38.8072H73.3153C73.3264 38.8177 73.3374 38.8274 73.3485 38.8371C73.4852 38.9568 73.3561 38.8253 73.3202 38.8086C73.3878 38.8344 73.8821 39.2565 73.9367 39.2968C74.3751 39.6216 74.83 39.9186 75.2981 40.1885C75.5529 40.3352 75.8111 40.4736 76.0734 40.6044C76.1121 40.6231 76.2937 40.7184 76.3399 40.7421C76.3275 40.7351 76.304 40.7219 76.2654 40.701C76.3655 40.7518 76.4725 40.7908 76.5747 40.8339C77.254 41.1218 77.9527 41.3548 78.6631 41.5342C78.476 38.0651 79.805 34.4799 81.1016 31.3947C81.1002 31.3947 81.0995 31.3954 81.0988 31.3954C81.0594 31.4135 81.0049 31.4392 80.9897 31.4469C80.8648 31.5143 80.7432 31.5888 80.6273 31.6722C80.6169 31.6792 80.5748 31.7126 80.5382 31.7411C80.5637 31.7167 80.5879 31.691 80.5927 31.6847C80.5879 31.6889 80.5706 31.7056 80.5354 31.7425C80.5058 31.7654 80.4802 31.7849 80.4795 31.7842C80.4844 31.7884 80.5044 31.7717 80.5258 31.7522C80.5244 31.7536 80.523 31.7557 80.5209 31.7578C80.4913 31.7884 80.3366 31.9873 80.2558 32.07C80.2924 32.0179 80.3152 31.9414 80.2448 32.0631C80.2372 32.0756 80.2303 32.0874 80.2227 32.0999C80.2186 32.1027 80.2137 32.1055 80.2116 32.1055C80.2144 32.1055 80.2172 32.1055 80.2199 32.1048C80.1965 32.1445 80.1723 32.1848 80.1502 32.2258C80.1212 32.2801 80.0957 32.3364 80.0694 32.3927C80.0377 32.5325 79.9956 32.6668 79.9714 32.8093C79.9327 33.0347 79.834 33.2225 79.698 33.3734C79.6145 33.4749 79.515 33.5598 79.4011 33.6196C78.117 34.2907 76.6071 34.1266 75.45 33.2079C74.8894 32.7627 74.4441 32.2279 74.0734 31.6347C73.6598 30.9712 73.3395 30.234 73.0633 29.4613C72.7817 28.6726 72.5497 27.8637 72.3647 27.0424C72.2176 26.3893 72.0989 25.7293 72.0119 25.0637C71.9166 24.3334 71.8289 23.5684 72.0512 22.8514C72.0871 22.7352 72.1299 22.6218 72.1783 22.512C72.4855 21.8193 73.0357 21.274 73.7475 21.1119C73.9871 21.057 74.2253 21.0403 74.4621 21.0507C74.9495 21.0723 75.43 21.2128 75.896 21.3915C76.5257 21.6343 77.158 21.8325 77.8153 21.9646C77.827 21.9667 77.836 21.9688 77.845 21.9709C77.8505 21.9709 77.8574 21.9709 77.8657 21.9716C77.9561 21.9764 78.0466 21.9903 78.137 21.9959C78.2813 22.0049 78.4256 22.0084 78.5699 22.0042C78.6817 22.0015 78.7943 21.9931 78.9061 21.9813C78.8764 21.9771 79.1988 21.9117 79.2479 21.8971C79.3348 21.8714 79.4198 21.8366 79.5061 21.8095C79.5081 21.8088 79.5102 21.8088 79.5123 21.8081C79.6103 21.7427 79.7159 21.6927 79.8126 21.6238C79.8202 21.6183 79.8444 21.6016 79.8692 21.5842C79.8747 21.5786 79.8789 21.5737 79.8851 21.5675C79.9638 21.4847 80.0453 21.4075 80.1191 21.3199C80.1329 21.3039 80.1682 21.2698 80.202 21.233C80.2054 21.2232 80.2137 21.2051 80.2289 21.1766C80.2904 21.0626 80.3546 20.952 80.4132 20.8358C80.425 20.8136 80.4319 20.7892 80.4367 20.7684C80.436 20.7774 80.4353 20.7878 80.4346 20.8004C80.4277 20.9895 80.4367 20.7892 80.4574 20.7204C80.4878 20.6195 80.5078 20.5166 80.5313 20.4137C80.5313 20.3664 80.5341 20.3184 80.5347 20.2704L80.5354 20.2697ZM101.905 0.503949C103.728 0.606185 103.833 3.97374 103.747 5.81817C103.631 8.3094 102.917 10.7116 101.964 12.8127C101.11 14.6926 100.069 16.391 99.0365 18.0893C98.518 18.942 97.9996 19.7961 97.4797 20.6487C97.2961 20.9492 97.1124 21.2489 96.9281 21.5494C96.7141 21.8985 96.4945 22.2609 96.4338 22.6719C96.3033 23.5545 96.9156 24.3571 97.2857 25.0915C97.7634 26.0381 98.2453 26.9825 98.7155 27.9333C99.6144 29.752 100.484 31.5874 101.28 33.4596C101.967 35.0745 102.562 36.7465 102.928 38.4783C103.244 39.9784 103.461 41.3576 102.249 42.4808C101.51 43.1645 100.543 43.5651 99.5626 43.5929C98.0651 43.6353 96.3916 42.663 95.3512 41.5586C93.9 40.0181 93.171 37.8732 92.4447 35.8855C92.1485 35.0745 91.4319 32.6501 90.3852 34.105C90.3514 34.1523 90.3176 34.2003 90.2838 34.2483C89.5361 35.2999 88.8505 36.3932 88.1435 37.4691C87.4117 38.5812 86.6564 39.6752 85.7817 40.6837C85.5711 40.9264 85.3537 41.1754 85.13 41.425C84.0447 42.6373 82.8061 43.8648 81.3915 44.4977C81.2949 44.5408 81.1961 44.5812 81.0953 44.6159C80.8033 44.7168 80.4982 44.771 80.1985 44.7119C80.0087 44.6737 79.8361 44.5923 79.6814 44.4796C79.1478 44.4038 78.6182 44.3002 78.0977 44.1722C75.7807 43.6026 73.6094 42.4641 71.7371 40.8749C71.1655 40.3895 70.6401 39.8581 70.1554 39.2892C68.0718 41.8514 65.4221 43.7222 62.4589 44.3544C60.5866 44.7543 58.6784 44.7383 56.8198 44.232C55.8008 43.9545 54.9717 43.2298 54.8032 41.9258C54.7818 41.7596 54.7638 41.5927 54.748 41.425C53.7069 43.2097 52.1473 44.6236 50.0657 44.6347C47.0322 44.6514 44.6034 41.8945 43.0203 39.4234C42.1753 38.1034 41.4725 36.6749 40.8856 35.1928C40.8318 35.5816 40.7655 35.9683 40.6813 36.3529C40.4838 37.2632 40.0744 38.2842 39.2225 38.6932C38.258 39.1571 37.3018 38.8357 36.5334 38.1263C35.7118 37.3669 35.1961 36.2506 34.8261 35.1587C34.6169 37.2097 34.2965 39.3713 33.3507 41.1955C32.9082 42.0496 32.1922 42.9808 31.2319 43.1846C30.1777 43.4093 29.2926 42.8424 28.7126 41.9536C28.2701 41.2755 28.0395 40.4221 27.8821 39.6244C27.6943 38.6681 27.5956 37.6896 27.5266 36.7166C27.4465 35.5788 27.3691 34.4403 27.2904 33.3024C27.2518 32.744 27.2131 32.1855 27.1745 31.6277C27.1669 31.5227 27.16 31.4184 27.1531 31.3133C26.997 31.3384 26.8417 31.3634 26.685 31.3871C26.0719 31.4789 25.4575 31.5637 24.843 31.6486C24.551 31.6889 24.2582 31.7286 23.9662 31.7696C23.9351 31.7738 23.8067 31.7918 23.7563 31.7995C23.6259 31.8183 23.4961 31.8364 23.3656 31.8558C23.1529 31.8871 22.941 31.9205 22.729 31.9539C22.7539 32.6883 22.7649 33.4235 22.7636 34.1593C22.7608 35.2742 22.7339 36.3883 22.7035 37.5025C22.6745 38.5728 22.68 39.6509 22.602 40.7184C22.5212 41.8291 22.3438 43.0393 21.5947 43.8912C20.8284 44.762 19.5339 44.8795 18.6247 44.1854C16.9125 42.8793 16.6543 40.2684 16.394 38.2334C16.104 35.9689 15.957 33.6905 15.8914 31.4072C15.8272 29.1775 15.8286 26.9457 15.8313 24.7146C15.8334 22.5829 15.8534 20.4498 15.9708 18.3209C16.0751 16.4292 16.2476 14.5125 16.5756 12.6312C15.3156 14.2141 14.318 15.8541 14.037 18.2479C13.7761 20.4714 14.1192 22.7143 14.1737 24.9455C14.2289 27.1815 14.1765 29.4209 14.0184 31.6493C13.8686 33.751 13.7063 35.8584 13.3694 37.9302C13.0643 39.808 12.6769 42.1282 11.6234 43.6332C11.223 44.2049 10.65 44.6431 10.0279 44.6611C7.66678 44.7286 6.35642 40.4694 6.07751 38.2453C5.52312 33.8192 6.76721 29.4675 6.62222 25.0227C6.509 21.5515 6.31776 18.1631 4.30113 15.4444C2.07807 12.4483 -0.900272 9.00142 0.262346 4.5503C1.05215 1.52979 3.55758 1.31071 5.41818 3.15723C6.79551 4.52526 8.19079 8.18978 10.4056 7.13612C13.2369 5.78896 14.9048 -0.641519 18.5018 0.425359C19.6043 0.752238 20.1159 2.03124 20.2878 3.38953C21.7556 1.559 23.7356 0.167332 26.0691 0.45596C29.5045 0.881598 31.5198 3.95843 32.6589 7.13403C32.9116 5.70063 33.3776 4.2408 34.2965 3.15097C35.4087 1.83163 37.1962 1.71757 38.5266 2.72951C39.9053 3.7783 40.6654 5.40992 41.2798 7.04223C41.8881 8.65854 42.3078 10.3493 42.7441 12.0254C43.2253 13.8768 43.7072 15.7282 44.1884 17.5803C44.6703 19.4316 45.1522 21.283 45.6334 23.1351C46.0656 24.7959 46.4799 26.4644 46.9852 28.1023C47.1122 28.5147 47.2462 28.925 47.3884 29.3319C47.4464 29.4967 47.5051 29.6609 47.5665 29.825C47.6024 29.9217 47.6397 30.0177 47.6763 30.1136C47.6839 30.1338 47.6949 30.1679 47.7039 30.1936C47.8385 30.5657 48.0187 30.9162 48.1347 31.2918C48.1623 31.3808 48.627 32.1994 48.7029 31.9748C48.9694 31.1861 48.7381 30.2465 48.6615 29.4411C48.5697 28.4758 48.4696 27.5104 48.3156 26.5527C48.0774 25.0686 47.7895 23.5934 47.5265 22.1141C46.8651 18.3995 46.2686 14.6717 45.7342 10.9335C45.4947 9.26014 45.2316 7.57775 45.2233 5.88146C45.2157 4.45154 45.3455 2.79141 46.1788 1.6063C46.8009 0.721637 47.7543 0.219494 48.7982 0.492125C49.6729 0.720941 50.3094 1.42199 50.8072 2.18007C51.2884 2.91242 51.6122 3.75674 51.927 4.5809C52.2177 5.34106 52.4835 6.11306 52.7369 6.88852C52.8867 7.34615 53.0303 7.80587 53.1697 8.26698C53.0613 6.10471 52.946 3.94313 52.8204 1.78225C52.7976 1.39278 52.9295 1.04921 53.1414 0.79049C53.3775 0.480998 53.7151 0.280002 54.061 0.295999C54.1321 0.291826 54.2012 0.295998 54.2675 0.308517C54.8522 0.3419 55.4342 0.402407 56.0148 0.492821C60.4968 1.19039 64.7573 3.50567 68.0456 7.18132C68.1029 7.00745 68.1629 6.83497 68.2272 6.66388C68.7408 5.29238 69.4305 3.99182 70.453 2.99449C71.4789 1.99438 72.7154 1.2982 74.0354 0.889944C75.916 0.307126 77.8505 0.337032 79.7684 0.590189C79.863 0.54846 79.9666 0.51925 80.0798 0.506731C80.483 0.461524 80.9379 0.592972 81.426 0.856561C81.89 0.942106 82.3526 1.03391 82.8117 1.12711C84.1552 1.40043 85.5435 1.71618 86.6979 2.56051C87.7611 3.33806 88.6413 4.4265 89.1598 5.70828C89.7211 7.09647 89.9034 8.56604 89.6355 10.0613C89.5837 10.3514 89.5105 10.6386 89.4215 10.9203C89.7294 11.6317 90.0097 12.353 90.4494 13.0109C90.5896 13.2195 90.7891 13.447 91.0273 13.4018C91.211 13.367 91.3297 13.1827 91.427 13.0151C93.2883 9.80401 95.0751 6.40655 97.4597 3.58844C98.7327 2.0834 100.105 0.403103 101.905 0.503949Z" fill="#0B5C01"/>
<path d="M86.931 32.7945C86.9253 32.7862 86.9197 32.7764 86.9133 32.7666" stroke="#0B5C01" stroke-linecap="round" stroke-linejoin="round"/>
</g>
<defs>
<clipPath id="clip0_499_390">
<rect width="104" height="45" fill="white"/>
</clipPath>
</defs>
</svg>
