<svg width="32" height="48" viewBox="0 0 32 48" fill="none" xmlns="http://www.w3.org/2000/svg">
<path d="M23.789 42.3281C23.3941 42.2688 22.9655 42.3987 22.6761 42.8204C22.6137 42.9102 22.5514 42.9968 22.4858 43.0802C19.5148 44.5475 16.0208 44.7191 12.8595 43.7521C12.3942 43.6094 11.9416 43.441 11.5003 43.2502C8.93061 41.4093 6.81186 38.6768 5.15205 36.095C4.0503 34.3808 3.0317 32.4357 2.83022 30.3558C2.62074 28.199 3.47943 26.3934 4.93937 24.8956C7.67855 22.083 11.4907 20.226 15.3588 19.955C19.0254 19.6968 22.6393 20.8851 25.3609 23.4652C28.0025 25.97 29.5312 29.461 29.205 33.1861C28.89 36.7878 26.8016 40.2804 23.885 42.2656C23.8546 42.2864 23.821 42.3073 23.789 42.3281ZM14.8199 40.3557C20.3239 40.824 25.612 38.1829 26.9664 34.384C28.4087 30.3366 25.6072 25.6557 20.2407 23.7828C15.063 21.9755 9.2776 23.8758 7.20203 27.5688C5.17603 31.1736 7.41151 34.9725 11.0254 37.6393C11.2556 38.9334 12.4949 40.1569 14.8199 40.3557Z" fill="#FF9A00"/>
<path d="M22.6763 42.8206C22.9658 42.3988 23.3943 42.2689 23.7893 42.3283C23.8213 42.3074 23.8548 42.2866 23.8852 42.2657C26.8019 40.2805 28.8903 36.7879 29.2053 33.1863C29.5315 29.4612 28.0028 25.9702 25.3612 23.4654C22.6396 20.8852 19.0257 19.697 15.3591 19.9551C11.491 20.2261 7.67881 22.0831 4.93963 24.8958C3.47969 26.3935 2.621 28.1991 2.83048 30.3559C3.03196 32.4358 4.05056 34.3809 5.15231 36.0952C6.81213 38.6769 8.93087 41.4094 11.5006 43.2503C11.9419 43.4411 12.3944 43.6095 12.8597 43.7522C16.0211 44.7192 19.515 44.5476 22.4861 43.0803C22.5516 42.997 22.614 42.9104 22.6763 42.8206ZM29.023 24.2896C31.5271 27.9009 32.1555 32.5865 30.6844 36.7606C29.4451 40.2773 27.0162 43.2022 23.8548 44.9325C23.4359 45.3927 22.9706 45.8016 22.4445 46.1576C18.8562 48.5774 14.1054 47.774 10.6994 45.4424C10.6515 45.4087 10.6035 45.3735 10.5555 45.3398C9.83114 45.0239 9.13076 44.6551 8.46555 44.2301C4.73336 41.8536 2.05014 37.92 0.88283 33.5856C-0.119777 29.8637 -0.398011 24.2207 3.79791 22.4936C3.94022 22.4359 4.08734 22.423 4.23125 22.4455C4.61662 22.1023 5.01479 21.7768 5.41775 21.4657C9.07639 18.6466 13.8432 17.1521 18.4021 17.747C22.6684 18.3019 26.5221 20.6832 29.023 24.2896Z" fill="#FF9A00"/>
<path d="M7.20216 27.5693C9.27773 23.8762 15.0631 21.976 20.2409 23.7832C25.6073 25.6562 28.4088 30.3371 26.9665 34.3845C25.6121 38.1834 20.324 40.8245 14.8201 40.3562C12.495 40.1574 11.2558 38.9338 11.0255 37.6397C7.41163 34.973 5.17615 31.1741 7.20216 27.5693ZM15.6116 34.9008C16.0801 35.1494 16.5774 35.3611 17.1035 35.4252C18.557 35.6032 19.7659 34.431 20.0186 33.0567C20.3976 30.9897 18.8321 28.5539 16.8524 27.959C15.6691 27.6046 14.3275 27.8259 13.3185 28.5411C12.9124 28.8297 12.5782 29.1953 12.495 29.7036C12.3895 30.3547 12.6661 31.0683 12.8164 31.6953C12.9667 32.3207 13.2546 32.8916 13.6655 33.3871C14.1948 34.0237 14.8824 34.5128 15.6116 34.9008Z" fill="#FF9A00"/>
<path d="M1.88201 5.28526C3.34995 5.37185 3.53703 2.42929 2.0659 2.34269C0.597971 2.2561 0.410883 5.19867 1.88201 5.28526Z" fill="#FF9A00"/>
<path d="M6.45379 15.4795C3.9129 13.8038 2.47854 10.7329 2.75038 7.49211C2.90869 5.59989 0.199891 5.44274 0.0415841 7.33336C-0.311807 11.5556 1.61026 15.7521 4.9283 17.9394C6.41222 18.9176 7.94092 16.4593 6.4554 15.4795H6.45379Z" fill="#FF9A00"/>
<path d="M9.29873 5.95534C8.88778 6.18144 8.52319 6.4781 8.20498 6.82768C8.18259 6.73147 8.15701 6.63525 8.13462 6.53743C7.71887 4.70935 5.05484 5.32513 5.47219 7.16604C5.81759 8.68463 6.23494 10.1824 6.71786 11.6512C6.89375 13.6108 7.84199 15.3587 8.86059 16.9591C9.74647 18.3494 11.7645 16.7538 11.0993 15.301C10.4437 13.8706 9.8664 12.4081 9.36429 10.9152C9.32592 10.038 9.57537 9.22824 10.3429 8.67661C10.8386 8.32061 10.7379 8.49059 11.0641 9.04704C11.3807 9.58584 11.6477 10.1679 11.8684 10.7597C12.3353 12.0072 12.5528 13.3671 12.5464 14.7173C12.5368 16.6047 15.2456 16.7763 15.2552 14.876C15.2712 11.7635 13.637 3.57082 9.29554 5.95534H9.29873Z" fill="#FF9A00"/>
<path d="M22.8601 8.72501C21.3474 7.75164 19.7963 8.55503 18.2084 8.20866C17.5272 8.05953 17.5528 7.5512 17.8614 6.92259C18.1685 6.2972 18.8017 5.94761 19.2366 6.58744C20.268 8.10443 22.3068 6.12561 21.2834 4.61985C20.1193 2.90723 17.7463 2.92487 16.3423 4.33121C14.8856 5.78886 14.3227 8.66087 15.9026 10.1987C17.3146 11.573 19.0767 10.9989 20.7797 11.1015C21.3953 11.1384 21.9102 11.4671 21.4785 12.1791C21.034 12.912 20.0058 12.8109 19.3326 12.6907C18.6098 12.5624 17.9318 13.3481 17.8854 14.0826C17.8311 14.9485 18.4227 15.5049 19.1487 15.6332C20.8309 15.9315 22.7705 15.3975 23.7492 13.749C24.7406 12.0813 24.4735 9.76253 22.8633 8.72662L22.8601 8.72501Z" fill="#FF9A00"/>
<path d="M30.3932 6.22678C29.8224 6.12896 29.2515 6.03275 28.6791 5.93494C28.7974 4.45644 28.9173 2.97793 29.0357 1.50104C29.1876 -0.391185 26.4788 -0.549938 26.3269 1.34228C26.2165 2.72136 26.1046 4.09884 25.9942 5.47791C25.134 5.33199 24.2753 5.18446 23.415 5.03854C22.6906 4.91506 22.0142 5.69279 21.9678 6.43044C21.9135 7.29317 22.5051 7.85762 23.2311 7.9811C24.0738 8.12542 24.9165 8.26814 25.7592 8.41246C25.5513 11.0071 25.3418 13.6032 25.134 16.1978C24.982 18.0901 27.6908 18.2488 27.8428 16.3566C28.0426 13.8614 28.2441 11.3663 28.444 8.87109C29.0325 8.97211 29.6209 9.07154 30.2094 9.17256C30.9337 9.29604 31.6101 8.5183 31.6565 7.78065C31.7109 6.91793 31.1192 6.35347 30.3932 6.22999V6.22678Z" fill="#FF9A00"/>
</svg>
