<svg width="282" height="103" viewBox="0 0 282 103" fill="none" xmlns="http://www.w3.org/2000/svg">
<path d="M46.022 22.7009C48.8054 21.6166 51.6849 20.5641 54.6171 19.5577C57.0202 18.7278 58.2546 18.4544 58.3678 18.7664C58.481 19.0778 57.794 19.858 56.3674 21.1219C54.4565 22.8143 52.4785 24.4999 50.4926 26.1757C46.5484 29.5021 42.8951 32.885 39.5168 36.334C37.4861 38.5222 35.5436 40.719 33.8341 42.96C31.1717 46.5463 28.8831 50.1835 26.3379 53.7778C25.0442 55.6044 23.4939 57.4813 21.0066 59.0559C19.0707 60.2818 16.8295 60.8978 14.3132 60.9389C13.0774 60.9591 12.4628 60.9683 11.2442 60.9861C9.33458 70.5726 12.0588 79.6417 21.7028 88.3492C18.1705 87.6075 16.4649 87.211 13.1893 86.367C-16.6994 64.4756 8.49889 39.3264 46.022 22.7003V22.7009ZM37.6401 29.9729C25.7878 38.304 16.6281 46.7657 10.2466 55.7074C10.7678 55.6866 11.2297 55.6528 11.6284 55.6075C13.4064 55.4046 15.0923 54.6513 16.5728 53.3653C19.4286 50.8841 21.404 48.2209 23.7005 45.649C26.3037 42.7877 29.2253 39.9559 32.447 37.1615C34.9935 34.9708 37.9836 32.7422 39.9076 30.5656C40.663 29.7111 39.8708 29.4819 37.6414 29.9729H37.6401Z" fill="#FAEFC3"/>
<path d="M58.5902 93.4664C60.2826 96.6942 62.2225 99.8888 64.8453 103C62.0277 102.608 60.6445 102.395 57.9308 101.932C56.2963 101.653 54.8921 101.189 53.6787 100.558C52.464 99.9268 51.1782 99.0859 49.924 98.0077C47.7104 96.1039 46.1233 94.0855 44.5651 92.0579C40.792 91.2531 38.2401 89.3725 36.2977 87.8494C32.9457 85.2211 30.64 82.2955 29.1371 79.4011C26.555 74.4283 26.5102 69.1521 27.1709 63.9837C28.8028 55.671 32.9259 47.6861 39.1508 39.8036C42.6081 35.7275 46.4865 31.7256 51.2598 27.918C54.6381 25.2229 58.427 22.5884 62.4554 20.0637C65.8153 17.9582 69.362 15.8865 73.2443 13.9594C76.366 12.4105 78.8152 11.3721 80.6642 10.8732C82.8923 10.2719 83.978 10.4736 84.1846 11.4904C84.5136 13.1123 83.4134 14.8567 82.5698 16.4191C81.2354 18.8911 79.435 21.3687 77.6386 23.8039C74.6446 27.8641 71.6269 31.9457 68.8882 36.0549C62.9673 45.3312 58.7349 54.6988 56.4792 64.281C55.4488 69.404 55.0197 74.5209 54.6394 79.6555C54.4894 81.6844 54.2683 83.761 53.2733 85.7372C52.5508 87.1721 51.4598 88.2086 50.0016 88.8387C50.711 90.5684 51.4848 91.6944 52.0863 92.2068C52.6877 92.7192 53.605 93.0324 54.8447 93.1446C56.3318 93.2795 57.0807 93.3438 58.5888 93.4664H58.5902ZM59.9878 31.9457C61.9961 29.5766 64.2136 27.2199 66.1206 24.8533C66.9063 23.8781 66.9484 23.4472 66.2311 23.5734C65.6244 23.6801 64.6979 24.1735 63.5674 25.0433C60.5511 27.3645 58.3717 29.9567 56.1371 32.4642C45.7863 44.7936 39.4996 57.5061 38.735 70.6544C38.7363 73.5022 38.6955 76.4094 39.7339 79.2068C40.13 80.2734 40.7762 80.8348 41.5474 80.8753C42.337 80.917 42.716 80.3224 42.7186 79.0984C42.7265 76.1121 42.512 73.0909 42.6436 70.0813C43.7886 56.982 49.9911 44.2892 59.9878 31.9457Z" fill="#FAEFC3"/>
<path d="M121.418 4.01233C102.941 33.2075 84.902 64.3942 88.1144 94.9361C83.9926 94.8521 81.9514 94.7902 77.9203 94.6296C73.1365 81.3894 73.4589 67.7421 75.8357 54.4124C71.2125 67.5227 68.3106 81.1289 71.985 94.3568C68.1987 94.1601 66.3286 94.0443 62.645 93.7782C51.5507 65.2462 70.4005 34.5235 95.8962 8.41083C99.6851 7.62933 101.589 7.26156 105.409 6.57261C96.7688 19.2195 90.8663 32.1729 87.2866 45.2715C93.4905 31.7874 101.955 18.5269 111.822 5.46808C115.654 4.83981 117.575 4.54866 121.418 4.01172V4.01233Z" fill="#FAEFC3"/>
<path d="M138.913 41.1407C134.121 41.3571 129.332 41.5845 124.547 41.8241C126.752 36.3297 129.057 30.8432 131.439 25.3623C132.685 22.4869 134.187 19.5693 134.887 16.6958C135.154 15.5974 134.776 15.0623 133.834 15.1322C132.768 15.2113 131.74 15.9517 130.812 17.3449C128.837 20.3128 127.525 23.4057 126.109 26.449C119.448 41.1119 113.626 55.8373 109.333 70.67C108.533 73.6164 107.576 76.6033 107.487 79.5552C107.446 80.9111 107.983 81.5859 109.02 81.562C110.014 81.5387 110.854 80.8302 111.481 79.451C112.946 76.2288 113.702 72.8827 114.695 69.6016C115.927 65.5874 117.243 61.5794 118.632 57.575C123.445 57.3807 128.258 57.1821 133.068 56.9804C132.523 58.4889 132.252 59.2428 131.716 60.7482C129.216 67.7475 127.03 74.8601 123.564 81.7244C121.761 85.2961 119.148 88.9431 115.93 92.2549C114.324 93.9092 111.386 96.817 106.794 96.9261C102.499 97.0279 99.4483 94.7888 98.0717 93.1657C95.3396 89.9416 94.6053 86.4037 94.3829 83.0067C93.9433 76.279 95.7555 69.3975 97.7217 62.6588C100.6 53.4149 104.268 44.2379 108.569 35.1007C110.994 30.1022 113.509 25.0687 116.662 20.1872C118.731 16.9857 121.262 13.7561 123.961 10.6687C126.165 8.14767 128.724 5.56901 132.159 3.27292C134.91 1.43285 137.437 0.397587 139.852 0.149344C143.996 -0.277266 146.099 1.84782 146.783 3.22756C148.342 6.38117 148.739 9.75114 148.289 12.9581C147.406 19.2383 144.687 25.7098 142.334 32.0391C141.193 35.0732 140.052 38.1072 138.914 41.1419L138.913 41.1407Z" fill="#FAEFC3"/>
<path d="M176.106 0C179.403 31.0714 166.22 62.0234 154.286 92.5088C150.028 92.8846 145.779 93.2297 141.497 93.5484C143.236 88.0472 145.566 82.576 147.601 77.0939C145.628 77.2054 144.641 77.2588 142.67 77.3617C140.245 82.8758 137.566 88.3849 135.614 93.9352C131.337 94.1797 127.077 94.3949 122.786 94.5812C131.42 62.9459 152.486 32.1392 160.014 0.425998C165.374 0.205951 170.721 0.033712 176.108 0H176.106ZM153.986 60.2287C158.244 46.9235 162.177 33.5986 165.242 20.2297C160.532 33.6936 154.683 47.0669 149.026 60.4591C151.011 60.3684 152.003 60.3224 153.986 60.2287Z" fill="#FAEFC3"/>
<path d="M209.104 1.3037C213.885 14.3778 210.022 27.3698 204.299 40.2766C202.552 56.7318 196.551 72.6953 186.838 88.5976C182.57 89.2179 178.304 89.8045 173.992 90.3653C180.563 77.5866 186.039 64.8588 189.254 51.8264C184.113 65.0776 176.65 77.9845 168.934 90.9801C164.769 91.4515 160.61 91.8934 156.415 92.3096C171.108 62.1232 188.509 31.1364 184.192 0.0361328C188.517 0.101718 190.654 0.165465 194.863 0.354865C198.228 11.8654 197.13 23.2515 194.536 34.7748C199.02 23.3955 202.021 12.1326 199.518 0.596366C203.413 0.825608 205.333 0.967198 209.102 1.30432L209.104 1.3037Z" fill="#FAEFC3"/>
<path d="M211.372 1.51562C216.816 2.08689 222.098 2.75377 227.391 3.5506C232.011 8.59024 235.076 13.6342 236.827 19.0091C233.789 18.8136 232.205 18.7357 229.057 18.5837C230.05 23.844 230.209 29.0651 229.698 34.3376C232.97 34.3107 234.645 34.2868 237.796 34.2892C237.229 39.6549 235.881 44.9539 233.853 50.2522C230.588 50.4244 228.817 50.5415 225.407 50.7333C222.74 57.1411 219.269 63.4342 215.017 69.6758C218.936 69.2326 220.961 68.9819 224.664 68.5474C220.431 74.0253 215.447 79.3266 210.048 84.6035C203.134 85.9434 196.114 87.187 188.971 88.2756C210.359 61.1031 227.632 30.1126 211.375 1.51624L211.372 1.51562Z" fill="#FAEFC3"/>
<path d="M266.718 28.5196C262.712 28.2376 260.657 28.1114 256.454 27.8883C255.993 26.0537 255.429 24.2584 254.731 22.4385C254.064 20.8259 253.259 19.1777 251.925 17.6772C251.315 16.9895 250.649 16.599 250.084 16.5291C249.47 16.4531 249.3 16.846 249.487 17.7275C249.674 18.6089 250.243 19.9966 250.973 21.9114C251.692 23.8017 252.278 25.7172 253.18 27.5916C253.974 29.2447 255.547 30.8034 257.053 32.3542C261.057 36.3996 264.988 40.6516 265.379 45.0844C265.848 50.395 262.329 55.8049 258.156 60.6759C254.772 64.6251 250.408 68.5413 245.146 72.1576C241.648 74.5616 237.559 76.8571 233.244 78.9552C230.261 80.4054 227.134 82.0034 223.232 82.9694C220.515 83.6418 219.219 83.2048 219.426 81.6307C219.74 79.25 221.567 76.8565 223.188 74.5702C226.465 69.9504 229.928 65.2853 232.905 60.5864C233.988 58.7795 235.006 56.975 235.968 55.1558C239.882 54.8799 243.795 54.6016 247.706 54.3197C245.941 57.5665 243.823 60.7844 241.327 63.9393C239.857 65.7855 238.138 67.6415 236.972 69.5005C236.491 70.2679 236.649 70.6087 237.424 70.491C238.199 70.374 239.294 69.7708 240.663 68.6835C242.555 67.1793 244.053 65.5599 245.375 63.9828C247.693 61.2184 250.396 58.0636 250.584 55.1312C250.728 52.9001 249.487 50.5213 248.267 48.2859C246.932 45.8408 245.375 43.3792 244.307 40.9305C243.378 38.7987 243.08 36.5774 242.708 34.402C242.109 30.9064 241.797 27.3556 241.111 23.8808C240.267 19.6006 238.932 15.2603 236.959 11.0335C236.092 9.1744 234.987 7.2473 234.855 5.36188C234.777 4.26042 235.664 3.97846 237.565 4.45533C240.839 5.27607 243.592 6.64662 246.08 7.89886C249.972 9.85845 253.427 11.9743 256.367 14.1852C261.056 17.7115 263.709 21.7312 265.69 25.7662C266.168 26.8591 266.373 27.4102 266.719 28.5202L266.718 28.5196Z" fill="#FAEFC3"/>
<path d="M259.17 11.5758C287.849 25.3548 286.893 43.3288 270.708 59.6712C267.53 60.0812 265.907 60.2866 262.596 60.696C277.426 43.3454 277.534 24.2687 251.453 8.95605C254.681 9.93799 256.229 10.4621 259.169 11.5758H259.17ZM268.135 62.674C262.588 67.2263 256.191 71.4226 248.843 75.4582C245.512 76.4107 243.799 76.8796 240.278 77.7997C247.193 73.4324 253.265 68.9273 258.458 64.1255C262.425 63.5493 264.361 63.2581 268.135 62.6746V62.674Z" fill="#FAEFC3"/>
</svg>
