<svg width="32" height="48" viewBox="0 0 32 48" fill="none" xmlns="http://www.w3.org/2000/svg">
<path d="M8.81296 36.0492C8.68344 36.3007 8.56511 36.5556 8.45478 36.8137C7.47456 39.1353 7.98625 41.5161 7.43458 43.8805C6.96606 45.893 4.8729 47.4122 2.80852 46.332C0.0949187 44.9114 0.0229605 40.0166 0.0245596 37.4829C0.0245596 35.1482 0.227639 32.9712 1.52287 30.9998C2.69498 29.2142 4.27965 27.649 5.78276 26.1692C8.84015 23.1586 12.2541 20.5427 15.9384 18.4299C17.8556 17.33 19.8592 16.4076 22.0004 15.9011C23.7689 15.4819 25.9308 15.2352 27.4755 16.452C28.9419 17.6078 29.8773 19.7042 30.4866 21.4618C31.1598 23.4036 31.5339 25.4392 31.6427 27.4977C31.8649 31.6641 31.1997 35.9094 29.9285 39.8571C28.8283 43.2738 26.7815 46.9042 23.0877 47.5405C21.5255 47.8101 19.7633 47.4698 18.6903 46.1692C17.4655 44.6878 17.4655 42.5306 17.846 40.7171C18.3162 38.476 19.3891 36.5096 20.3645 34.479C21.4743 32.1705 22.4017 29.8275 22.5632 27.2231C22.7247 24.622 20.0831 26.2777 19.3108 27.0439C17.9724 28.3691 16.5124 28.7933 14.9437 29.7354C12.5164 31.1922 10.145 33.453 8.81296 36.0475V36.0492Z" fill="#FF9A00"/>
<path d="M1.41882 5.30416C1.78181 7.04208 2.17358 8.77342 2.59893 10.4965C3.02427 12.2197 3.34409 13.831 4.05886 15.3601C4.59615 16.5094 5.13023 17.7754 6.23678 18.466C7.61836 19.3292 9.33254 19.3127 10.3112 17.8774C11.1986 16.5735 9.11987 15.3404 8.24039 16.6327C8.29156 16.5587 8.08528 16.613 7.97335 16.5768C7.74468 16.5028 7.51282 16.4107 7.32893 16.248C7.0347 15.9898 6.84282 15.5853 6.66692 15.2417C6.16962 14.2766 5.81622 13.3196 5.53479 12.2657C4.86319 9.7435 4.26514 7.20321 3.73105 4.64813C3.40805 3.09765 1.09422 3.75368 1.41882 5.30416Z" fill="#FF9A00"/>
<path d="M3.80618 16.4471C5.06464 15.2172 6.44782 14.1863 7.96693 13.3248C9.31813 12.5586 8.11084 10.4277 6.75644 11.1955C5.06624 12.1541 3.50876 13.3363 2.10959 14.7042C0.988649 15.7993 2.68684 17.5421 3.80618 16.4487V16.4471Z" fill="#FF9A00"/>
<path d="M1.20782 8.46948C2.79888 8.64541 4.38834 8.82955 5.9746 9.02357C7.56086 9.21759 7.70958 8.37904 6.05616 8.17681C4.46989 7.98279 2.88043 7.79864 1.28937 7.62271C-0.375242 7.43856 -0.455197 8.28533 1.20782 8.46948Z" fill="#FF9A00"/>
<path d="M11.7744 14.3654C14.488 14.4969 16.4484 11.5949 15.2827 9.053C14.779 7.95467 13.7172 7.03392 12.5083 6.94184C11.1235 6.83661 10.1225 8.18157 9.56766 9.33087C8.42274 11.6969 8.88807 14.663 11.0724 16.2151C13.1016 17.6571 16.1766 16.9731 17.2431 14.6137C17.8891 13.1832 15.8232 11.9287 15.1724 13.369C14.7422 14.321 13.6852 14.811 12.7178 14.3572C11.6848 13.8738 11.1843 12.6012 11.3634 11.493C11.4641 10.86 11.7488 10.245 12.1389 9.74685C12.1933 9.67779 12.3964 9.38183 12.4811 9.37033C12.3948 9.38183 12.5323 9.47063 12.5515 9.4772C12.737 9.53804 12.9145 9.75836 13.0184 9.9162C13.6708 10.9109 12.8249 11.9484 11.7776 11.8975C10.2345 11.8235 10.2377 14.2898 11.7776 14.3638L11.7744 14.3654Z" fill="#FF9A00"/>
<path d="M16.6675 1.23315C16.1494 5.50807 17.8476 9.58404 18.4216 13.7554C18.5128 14.4131 19.3299 14.7797 19.8976 14.6169C20.5868 14.418 20.8266 13.7652 20.7355 13.0993C20.1902 9.13847 18.5767 5.29104 19.0677 1.23315C19.1476 0.570537 18.4584 0 17.8684 0C17.1536 0 16.749 0.568893 16.6691 1.23315H16.6675Z" fill="#FF9A00"/>
<path d="M24.1414 11.5752C26.5368 12.5354 29.2232 10.5443 29.0681 7.91026C28.9913 6.60312 28.2382 5.21048 26.9989 4.73367C25.7596 4.25685 24.4308 5.15787 23.5465 6.04738C21.714 7.89217 21.2439 10.9109 22.8462 13.073C24.3764 15.1398 27.4738 15.4473 29.2488 13.5153C30.3089 12.3628 28.6156 10.615 27.5522 11.7708C26.8326 12.5535 25.5917 12.5568 24.8754 11.7478C24.0726 10.8419 24.0934 9.49198 24.6947 8.48573C25.0001 7.97274 25.4382 7.54854 25.9371 7.23943L26.1434 7.1194C26.3753 6.99609 26.4248 6.97142 26.2889 7.04377C26.1466 6.96813 26.3993 7.26244 26.4057 7.27395C26.5096 7.4729 26.6135 7.63239 26.6567 7.86093C26.8774 9.03654 25.7101 9.56761 24.7794 9.19602C24.1718 8.95268 23.4698 9.46403 23.3035 10.0576C23.11 10.7531 23.5401 11.3335 24.1414 11.5752Z" fill="#FF9A00"/>
</svg>
