<svg width="32" height="48" viewBox="0 0 32 48" fill="none" xmlns="http://www.w3.org/2000/svg">
<path d="M16.2289 32.9224C16.1873 32.8374 16.1394 32.7476 16.0834 32.6562C15.8116 32.2088 15.4086 31.8544 14.9913 31.5385C12.2968 29.4955 8.40475 28.7418 5.14907 29.6414C1.40248 30.6774 -0.930536 34.2085 0.369496 38.0524C1.548 41.5354 4.71733 44.3016 7.93942 45.8427C12.8981 48.2161 23.5958 49.4332 23.9508 41.4649C24.0803 38.5752 22.9721 35.9933 21.9647 33.3666C21.2851 31.5914 20.7638 29.7553 20.4105 27.8887C20.0363 25.9178 19.4094 22.956 22.155 22.5887C22.8218 22.4989 23.5078 22.4268 24.1602 22.5936C26.0791 23.0811 28.7447 27.3964 30.7723 26.346C32.0356 25.6917 31.7957 23.87 31.0666 22.9319C29.9088 21.4406 27.7613 20.3036 26.1878 19.2869C23.0153 17.2359 18.6771 14.5611 14.7466 15.9081C14.1438 16.115 13.5505 16.4517 13.2291 17.0018C12.8229 17.6929 12.9285 18.5749 13.1875 19.3334C13.6672 20.7302 14.2253 22.1093 14.7354 23.4964C16.0003 26.9393 17.4202 30.3631 18.5412 33.8541C19.2991 36.2162 17.7976 39.2856 15.3446 39.911C13.5601 40.3648 10.0997 39.4844 8.74535 38.2496C8.41434 37.9481 8.19687 37.4799 8.3152 37.0469C8.38076 36.8096 8.53747 36.6091 8.71656 36.4407C9.23146 35.9597 9.92865 35.7239 10.6242 35.6149C12.041 35.392 17.4698 35.5267 16.2257 32.9208L16.2289 32.9224Z" fill="#FF9A00"/>
<path d="M2.23078 1.80925C2.49783 6.17428 3.26697 10.5137 4.64856 14.6301C4.95397 15.541 5.28978 16.4807 6.04134 17.0676C6.7849 17.6481 7.74753 17.754 8.58223 17.3483C10.2277 16.5464 10.5267 14.3655 9.84229 12.7363C9.57685 12.1028 8.74214 11.9617 8.22884 12.2776C7.6292 12.6481 7.54285 13.4018 7.80669 14.0256C7.90103 14.2485 7.91703 14.7841 7.70755 14.9573C7.35895 15.2459 7.18146 14.6542 7.06473 14.3687C6.54824 13.1035 6.21243 11.6987 5.88463 10.3661C5.19383 7.56301 4.76529 4.70377 4.58939 1.80925C4.49025 0.176774 2.13164 0.163945 2.23238 1.80925H2.23078Z" fill="#FF9A00"/>
<path d="M7.72189 7.2934C5.57436 7.50347 3.54356 8.25556 1.7862 9.62504C1.26491 10.0308 1.02665 10.7331 1.36405 11.373C1.65668 11.9294 2.461 12.2325 2.9775 11.8316C4.38626 10.7331 5.98692 10.0195 7.72349 9.84795C9.2218 9.70042 9.2362 7.14426 7.72349 7.29179L7.72189 7.2934Z" fill="#FF9A00"/>
<path d="M0.753157 4.535C2.60167 4.71781 4.41659 5.08985 6.20434 5.62866C7.17976 5.92212 7.59711 4.27842 6.62169 3.98496C4.69962 3.40605 2.74078 3.0276 0.753157 2.83036C-0.254248 2.73093 -0.247852 4.43557 0.753157 4.535Z" fill="#FF9A00"/>
<path d="M9.28895 8.01039C9.88859 10.2538 10.4882 12.4957 11.0863 14.7391C11.5084 16.3187 13.8255 15.6468 13.4001 14.0592C12.8005 11.8158 12.2008 9.57391 11.6028 7.33046C11.1806 5.7509 8.8636 6.42282 9.28895 8.01039Z" fill="#FF9A00"/>
<path d="M8.95476 4.81592C10.4994 4.81592 10.501 2.25977 8.95476 2.25977C7.40847 2.25977 7.40847 4.81592 8.95476 4.81592Z" fill="#FF9A00"/>
<path d="M11.2463 2.74892C12.3224 6.32016 13.2579 9.9363 14.0526 13.5909C14.4012 15.1929 16.7166 14.5146 16.3664 12.911C15.5717 9.25637 14.6363 5.64183 13.5601 2.06898C13.09 0.508668 10.7713 1.17577 11.2463 2.74892Z" fill="#FF9A00"/>
<path d="M13.6512 10.1703C15.4566 11.2655 17.038 12.6366 18.4196 14.2883C19.4494 15.5183 21.1428 13.7062 20.1162 12.4811C18.6083 10.6802 16.8302 9.15679 14.8617 7.9637C13.5169 7.14906 12.3064 9.35564 13.6496 10.1703H13.6512Z" fill="#FF9A00"/>
<path d="M15.4229 9.44402C17.1467 8.67268 18.5363 7.51166 19.6204 5.884C19.9946 5.32113 19.7148 4.46159 19.1903 4.13606C18.5891 3.76081 17.9238 4.03022 17.5481 4.59469C16.8621 5.62581 15.8835 6.49016 14.7865 6.98087C14.1901 7.24867 13.7599 7.82597 13.9486 8.5524C14.1037 9.15216 14.8233 9.71502 15.4245 9.44562L15.4229 9.44402Z" fill="#FF9A00"/>
<path d="M20.1752 1.6134C20.4599 3.64838 20.9876 5.62243 21.2098 7.67345C21.4369 9.76295 21.5488 11.8637 21.6608 13.9628C21.7487 15.5985 24.1489 15.6097 24.0609 13.9628C23.9426 11.7562 23.8243 9.54807 23.5732 7.35273C23.3254 5.18304 22.7881 3.08712 22.4875 0.93347C22.3931 0.251935 21.5808 -0.129726 21.0115 0.0402568C20.3255 0.245519 20.0777 0.923845 20.1736 1.61179L20.1752 1.6134Z" fill="#FF9A00"/>
<path d="M19.4046 9.84842C21.4834 9.77465 23.5478 9.57099 25.609 9.26951C26.2502 9.1749 26.6052 8.29933 26.4469 7.69798C26.2534 6.96031 25.6185 6.71015 24.9709 6.80476C23.1256 7.07577 21.2659 7.22651 19.4046 7.29226C17.8647 7.34679 17.8567 9.90294 19.4046 9.84842Z" fill="#FF9A00"/>
<path d="M30.8314 1.46431C29.1956 -1.20249 24.5775 0.00983948 24.2146 3.20423C23.9731 5.32581 25.5194 7.10261 27.2384 7.21166C28.8214 7.31269 30.6076 6.08913 31.1465 4.27545C31.4231 3.34214 31.3256 2.27093 30.8314 1.46431ZM27.9228 4.2578C27.1568 4.57051 25.9096 3.74305 26.8322 2.88191C27.7964 1.98228 29.88 3.46081 27.9228 4.2578Z" fill="#FF9A00"/>
<path d="M24.9086 10.6708C25.0637 12.2471 25.2668 13.8155 25.5242 15.3774C25.7225 16.5801 27.6702 16.6154 27.8381 15.3774C28.0124 14.1025 28.9958 13.1323 29.645 12.1012C30.435 10.8488 31.0586 9.51617 31.6023 8.12584C31.8533 7.4844 31.3304 6.72589 30.7644 6.5543C30.0752 6.34423 29.5363 6.81248 29.2884 7.44751C28.7527 8.81379 28.0508 10.1175 27.2432 11.3202C26.5317 12.3786 25.7065 13.3616 25.5242 14.699H27.8381C27.6174 13.3632 27.4399 12.0226 27.3072 10.6724C27.24 9.98603 26.8035 9.3943 26.1063 9.3943C25.5099 9.3943 24.8383 9.98122 24.9054 10.6724L24.9086 10.6708Z" fill="#FF9A00"/>
<path d="M27.0864 13.8152C27.9435 14.2193 28.7286 14.7357 29.4194 15.4124C30.5547 16.5237 32.2561 14.7213 31.116 13.6051C30.2781 12.7841 29.3394 12.0994 28.2969 11.6086C27.7052 11.3296 27.008 11.4242 26.6546 12.0673C26.3556 12.6109 26.4899 13.5362 27.0848 13.8152H27.0864Z" fill="#FF9A00"/>
</svg>
