<svg width="32" height="48" viewBox="0 0 32 48" fill="none" xmlns="http://www.w3.org/2000/svg">
<path d="M31.1643 39.9815C31.5193 40.4676 31.7464 40.9697 31.5753 41.5981C31.3882 42.2857 30.6926 42.807 30.2305 43.2867C29.7348 43.7984 29.2407 44.3101 28.7466 44.8218C28.2173 45.3703 27.688 45.9204 27.1571 46.4688C26.6918 46.9518 26.2328 47.4427 25.5676 47.5866C24.1685 47.892 23.2682 46.3729 22.515 45.4055C21.6196 44.2525 20.7513 43.0772 19.9102 41.8812C18.5686 39.9703 17.3069 37.9986 16.1236 35.9774C16.4466 35.5825 16.7808 35.1987 17.1262 34.8261C16.5234 34.7446 15.9221 34.663 15.3193 34.5815C15.5831 35.05 15.8502 35.5153 16.1236 35.9774C14.08 38.464 12.4874 41.3503 11.496 44.47C11.2449 45.2632 11.1378 46.2945 10.4997 46.867C9.66184 47.6218 8.76476 47.0781 7.93485 46.6319C6 45.5894 4.06515 44.5484 2.13029 43.5074C1.20763 43.0101 1.50026 41.8428 2.21184 41.4286C2.16547 41.4958 2.11909 41.5645 2.07272 41.6317C1.21083 42.895 3.20485 44.1006 4.05875 42.8486C4.22665 42.6023 4.39455 42.3561 4.56405 42.1114C5.26444 42.4872 5.96482 42.8646 6.66521 43.242C7.25046 43.557 7.83571 43.8704 8.42097 44.1854C8.61765 44.2909 8.83353 44.4332 9.05579 44.5644C9.0526 44.574 9.05099 44.5836 9.0478 44.5932C8.99982 44.7643 8.95186 44.9353 8.90708 45.108C8.8783 45.2935 8.98703 45.2232 9.23329 44.9002H9.84573C9.59308 44.8602 9.32124 44.7211 9.05579 44.5644C9.12775 44.3181 9.20131 44.0735 9.27806 43.8288C9.46675 43.2371 9.67622 42.6535 9.90329 42.0778C10.3302 40.9921 10.8068 39.9319 11.3552 38.9085C12.4858 36.801 13.8945 34.8549 15.5 33.1199C16.0181 32.5603 16.9343 32.7042 17.3053 33.3646C18.527 35.5361 19.8334 37.6533 21.2326 39.7032C21.9154 40.7058 22.6174 41.6925 23.3449 42.6599C23.7255 43.1636 24.1109 43.6641 24.5011 44.1582C24.7233 44.4396 24.952 44.8074 25.2286 45.0777L25.2142 45.0921C25.1823 45.1464 25.1551 45.188 25.1311 45.2184C25.1007 45.2088 25.0719 45.2008 25.0415 45.1928C25.0351 45.2967 25.0655 45.3063 25.1311 45.2184C25.2942 45.2648 25.4589 45.3095 25.622 45.3575C25.4797 45.2919 25.3502 45.1944 25.2286 45.0777C25.2942 45.0105 25.3598 44.9417 25.4253 44.873C25.638 44.6539 25.8491 44.4348 26.0617 44.2142C26.4503 43.8128 26.8373 43.4098 27.2258 43.0069C27.6144 42.6055 28.003 42.2026 28.3916 41.8012C28.6042 41.5805 28.8153 41.3615 29.028 41.1424C29.0552 41.1136 29.0823 41.0864 29.1095 41.0576C29.2343 41.1984 29.3494 41.3423 29.3814 41.435V40.7938C29.4853 40.6659 29.4725 40.6723 29.3446 40.813L29.1095 41.0576C28.9928 40.9233 28.8697 40.7906 28.8041 40.7043C28.6202 40.4596 28.4363 40.2133 28.254 39.9687C27.8255 39.3946 27.3969 38.8222 26.97 38.2497C26.1353 37.1352 25.3182 36.003 24.4643 34.9061C23.7095 33.937 22.9116 33.2063 21.8674 32.6018C20.916 32.0518 19.9534 31.5065 19.2498 30.6142C18.9443 30.2288 18.7509 29.6116 19.0691 29.1543C22.0289 24.896 25.3182 20.9111 28.9352 17.2557C29.1975 17.5627 29.4549 17.8729 29.7076 18.188V16.4834C29.4485 16.7392 29.1911 16.9967 28.9352 17.2557C27.7983 15.9125 26.5926 14.6381 25.3214 13.4324C25.5612 13.1541 25.8171 12.8871 26.0905 12.6376H24.4643C24.7537 12.8983 25.0383 13.1637 25.3214 13.4324C23.7191 15.2825 22.7565 17.7018 21.6899 19.9037C21.0023 21.3237 20.3163 22.7437 19.6287 24.1636C19.2626 24.92 18.8964 25.6779 18.5302 26.4343C18.236 27.0419 17.9817 27.7311 17.486 28.1948C16.1492 29.4453 14.6989 28.1213 13.6307 27.2194C12.441 26.2136 11.2513 25.2078 10.0616 24.202C7.91567 22.3887 5.77133 20.5769 3.627 18.7636C3.82049 18.3431 4.02837 17.9289 4.25223 17.5212C3.64939 17.6027 3.04815 17.6843 2.4453 17.7658C2.83867 18.0984 3.23363 18.431 3.627 18.7636C3.16647 19.7646 2.7923 20.8008 2.51566 21.8834C2.4501 22.1408 2.22143 22.6797 2.29179 22.9387C2.31098 23.0107 2.41652 23.0619 2.58602 23.1498C3.21125 23.4744 3.90524 23.6903 4.54966 23.9669C7.5239 25.2446 10.4102 26.7205 13.1925 28.4027C13.8753 28.8153 13.8977 29.7155 13.426 30.296C10.3206 34.1097 7.36559 38.0482 4.56405 42.1114C4.1403 41.8812 3.71495 41.6541 3.2912 41.4254C2.89623 41.2127 2.51566 41.2511 2.21184 41.4286C4.94462 37.4342 7.82132 33.5485 10.8371 29.7843C11.2369 30.0114 11.6351 30.2448 12.0316 30.4847C11.9549 29.8531 11.8765 29.223 11.7998 28.5914C11.4768 28.988 11.1554 29.3845 10.8371 29.7843C7.95404 28.1357 4.9766 26.7685 1.92721 25.4605C1.20763 25.1502 0.55202 24.7441 0.203426 23.9845C-0.157961 23.1914 0.0355272 22.3263 0.230612 21.514C0.670352 19.6895 1.37234 17.9337 2.26621 16.3043C2.66597 15.5735 3.50867 15.5847 4.07154 16.0612C6.37258 18.0041 8.67362 19.9485 10.9731 21.893C12.0844 22.8316 13.1957 23.7703 14.3055 24.7089C14.5837 24.944 14.8604 25.179 15.1386 25.4141C15.3625 25.6028 15.7926 25.8378 15.9413 26.0921C16.0037 26.1129 16.0533 26.1337 16.0884 26.1576C16.0884 26.1592 16.0868 26.1608 16.0868 26.1624C16.0421 26.2552 15.9925 26.3447 15.9381 26.4327C16.17 26.3303 16.2196 26.2392 16.0884 26.1576C16.2116 25.8362 16.3939 25.526 16.5442 25.2174C17.8266 22.5678 19.1091 19.9181 20.3915 17.2669C21.4932 14.9882 22.5982 12.6424 24.4643 10.933C24.9616 10.4773 25.5964 10.4853 26.0905 10.933C27.9774 12.6376 29.7268 14.4893 31.3338 16.4834C31.7256 16.9679 31.8135 17.7162 31.3338 18.188C27.7775 21.6931 24.5075 25.51 21.5892 29.6116C21.3301 29.4085 21.0903 29.1799 20.876 28.9096C20.9352 29.3957 20.9959 29.8834 21.0551 30.3712C21.2326 30.1169 21.4101 29.8643 21.5892 29.6116C22.3407 30.2001 23.2362 30.5742 24.0197 31.1387C25.2494 32.0214 26.1273 33.2431 27.0356 34.4583C27.9534 35.6864 28.8713 36.9129 29.7875 38.141C30.2465 38.7534 30.7118 39.3626 31.1643 39.9815Z" fill="#FF9A00"/>
<path d="M29.7076 16.4834V18.188C29.455 17.873 29.1975 17.5628 28.9353 17.2557C29.1912 16.9967 29.4486 16.7392 29.7076 16.4834Z" fill="#FF9A00"/>
<path d="M29.3447 40.8152C29.4726 40.6744 29.4854 40.668 29.3815 40.796V41.4372C29.3495 41.3444 29.2343 41.2005 29.1096 41.0598L29.3447 40.8152Z" fill="#FF9A00"/>
<path d="M29.1096 41.0579C29.0824 41.0867 29.0553 41.1139 29.0281 41.1426C28.8154 41.3617 28.6043 41.5808 28.3916 41.8014C28.0031 42.2028 27.6145 42.6058 27.2259 43.0071C26.8374 43.4101 26.4504 43.813 26.0618 44.2144C25.8491 44.4351 25.6381 44.6542 25.4254 44.8732C25.3598 44.942 25.2943 45.0107 25.2287 45.0779C24.9521 44.8077 24.7234 44.4399 24.5011 44.1584C24.111 43.6643 23.7256 43.1638 23.345 42.6601C22.6175 41.6927 21.9155 40.7061 21.2327 39.7035C19.8335 37.6535 18.5271 35.5363 17.3054 33.3648C16.9344 32.7044 16.0182 32.5605 15.5001 33.1202C13.8946 34.8552 12.4858 36.8012 11.3553 38.9087C10.8068 39.9321 10.3303 40.9923 9.90336 42.0781C9.6763 42.6537 9.46682 43.2374 9.27813 43.829C9.20138 44.0737 9.12782 44.3183 9.05587 44.5646C8.8336 44.4335 8.61772 44.2912 8.42104 44.1856C7.83579 43.8706 7.25053 43.5572 6.66528 43.2422C5.96489 42.8648 5.26451 42.4874 4.56412 42.1117C7.36567 38.0485 10.3207 34.11 13.4261 30.2962C13.8978 29.7158 13.8754 28.8155 13.1926 28.403C10.4103 26.7208 7.52397 25.2448 4.54973 23.9672C3.90531 23.6906 3.21132 23.4747 2.58609 23.1501C2.41659 23.0621 2.31105 23.011 2.29186 22.939C2.2215 22.6799 2.45017 22.1411 2.51573 21.8836C2.79237 20.8011 3.16654 19.7649 3.62707 18.7639C5.7714 20.5772 7.91574 22.3889 10.0617 24.2023C11.2514 25.2081 12.4411 26.2139 13.6308 27.2197C14.6989 28.1215 16.1493 29.4456 17.4861 28.1951C17.9818 27.7314 18.236 27.0422 18.5303 26.4345C18.8965 25.6782 19.2626 24.9202 19.6288 24.1639C20.3164 22.7439 21.0024 21.324 21.69 19.904C22.7566 17.7021 23.7192 15.2827 25.3215 13.4326C26.5927 14.6383 27.7984 15.9128 28.9353 17.256C25.3183 20.9114 22.029 24.8962 19.0692 29.1545C18.7509 29.6119 18.9444 30.2291 19.2498 30.6145C19.9534 31.5067 20.9161 32.052 21.8675 32.6021C22.9117 33.2065 23.7096 33.9373 24.4644 34.9063C25.3183 36.0033 26.1354 37.1354 26.9701 38.2499C27.397 38.8224 27.8256 39.3949 28.2541 39.9689C28.4364 40.2136 28.6203 40.4598 28.8042 40.7045C28.8698 40.7908 28.9929 40.9236 29.1096 41.0579Z" fill="#FF9A00"/>
<path d="M24.4644 12.6377H26.0906C25.8172 12.8871 25.5613 13.1542 25.3214 13.4324C25.0384 13.1638 24.7538 12.8983 24.4644 12.6377Z" fill="#FF9A00"/>
<path d="M25.6219 45.3599C25.4588 45.3119 25.2941 45.2672 25.131 45.2208C25.155 45.1904 25.1822 45.1488 25.2141 45.0945L25.2285 45.0801C25.3501 45.1968 25.4796 45.2944 25.6219 45.3599Z" fill="#FF9A00"/>
<path d="M21.5893 29.6121C21.4102 29.8648 21.2327 30.1174 21.0552 30.3717C20.996 29.884 20.9353 29.3963 20.8761 28.9102C21.0904 29.1804 21.3302 29.4091 21.5893 29.6121Z" fill="#FF9A00"/>
<path d="M15.3193 34.5835C15.9222 34.665 16.5234 34.7466 17.1263 34.8282C16.7809 35.2007 16.4467 35.5845 16.1237 35.9795C15.8502 35.5174 15.5832 35.052 15.3193 34.5835Z" fill="#FF9A00"/>
<path d="M16.0883 26.1577C16.2194 26.2393 16.1699 26.3304 15.938 26.4328C15.9924 26.3448 16.0419 26.2553 16.0867 26.1625C16.0867 26.1609 16.0883 26.1593 16.0883 26.1577Z" fill="#FF9A00"/>
<path d="M11.7998 28.5918C11.8765 29.2234 11.9549 29.8535 12.0317 30.4851C11.6351 30.2452 11.2369 30.0118 10.8372 29.7847C11.1554 29.3849 11.4768 28.9884 11.7998 28.5918Z" fill="#FF9A00"/>
<path d="M9.84575 44.9066H9.23331C8.98706 45.2296 8.87832 45.3 8.90711 45.1145C8.95188 44.9418 8.99985 44.7707 9.04782 44.5996C9.05102 44.59 9.05262 44.5804 9.05582 44.5708C9.32126 44.7275 9.5931 44.8666 9.84575 44.9066Z" fill="#FF9A00"/>
<path d="M3.29117 41.4298C3.71492 41.6585 4.14027 41.8855 4.56402 42.1158C4.39452 42.3605 4.22662 42.6067 4.05872 42.853C3.20482 44.105 1.2108 42.8993 2.07269 41.6361C2.11906 41.5689 2.16543 41.5002 2.2118 41.433C2.51562 41.2555 2.8962 41.2171 3.29117 41.4298Z" fill="#FF9A00"/>
<path d="M2.44531 17.7661C3.04816 17.6846 3.6494 17.603 4.25224 17.5215C4.02838 17.9292 3.8205 18.3434 3.62701 18.7639C3.23364 18.4313 2.83868 18.0987 2.44531 17.7661Z" fill="#FF9A00"/>
<path d="M2.22775 1.15472C2.49479 5.2499 3.26394 9.32269 4.64392 13.1844C4.94934 14.0399 5.28514 14.921 6.0351 15.4727C6.78505 16.0243 7.73969 16.1171 8.5744 15.7349C10.2198 14.9833 10.5172 12.9366 9.83445 11.4063C9.56901 10.813 8.7359 10.6787 8.22261 10.9761C7.62456 11.3231 7.53821 12.0315 7.80046 12.6167C7.8932 12.8262 7.91079 13.3283 7.70131 13.4898C7.35272 13.7601 7.17523 13.2052 7.0585 12.9382C6.542 11.7517 6.2078 10.4324 5.87839 9.18197C5.1876 6.55153 4.76065 3.86832 4.58316 1.15312C4.48402 -0.378772 2.12701 -0.389966 2.22775 1.15312V1.15472Z" fill="#FF9A00"/>
<path d="M7.71581 6.30039C5.56988 6.49707 3.54068 7.20385 1.78492 8.48789C1.26522 8.86847 1.02696 9.52728 1.36276 10.1285C1.65539 10.6514 2.45972 10.936 2.97461 10.5587C4.38338 9.52888 5.98244 8.85728 7.71741 8.69737C9.21572 8.55985 9.22852 6.15967 7.71741 6.29879L7.71581 6.30039Z" fill="#FF9A00"/>
<path d="M0.751957 3.71342C2.59887 3.88611 4.41219 4.23471 6.19834 4.74001C7.17376 5.01664 7.58951 3.47356 6.61569 3.19852C4.69362 2.65484 2.73638 2.29985 0.751957 2.11436C-0.253848 2.02002 -0.247452 3.62067 0.751957 3.71342Z" fill="#FF9A00"/>
<path d="M9.12622 6.54377C10.4438 8.44505 11.2162 10.6038 11.9629 12.7833C12.4107 14.0881 14.1584 13.8179 14.2768 12.4651C14.4895 10.0153 14.9196 7.60075 15.54 5.22296H13.2678C14.2944 7.8534 13.5572 11.0451 15.8535 13.1175C16.4163 13.626 17.3006 13.5716 17.7036 12.8744C18.3192 11.8111 18.1177 10.4695 18.2312 9.28616C18.3608 7.94455 18.6662 6.62853 19.0707 5.34768C19.5361 3.87496 17.2622 3.24333 16.7985 4.70966C16.4195 5.91055 16.1477 7.13063 15.9814 8.37949C15.9014 8.97914 15.8391 9.58038 15.8087 10.1848C15.7863 10.6166 15.8934 11.2754 15.6696 11.6624L17.5197 11.4193C15.7127 9.78826 16.3667 6.70368 15.54 4.58334C15.1371 3.55035 13.5924 3.34407 13.2678 4.58334C12.593 7.16741 12.1516 9.79945 11.9214 12.4619L14.2352 12.1437C13.4261 9.78026 12.5898 7.39127 11.1618 5.33009C10.2951 4.07803 8.25154 5.27573 9.12782 6.54058L9.12622 6.54377Z" fill="#FF9A00"/>
<path d="M19.7103 7.84687C19.9374 9.26523 20.1644 10.6852 20.3915 12.1036C20.6665 13.8273 22.9388 13.0966 22.6638 11.3792C22.4367 9.96082 22.2096 8.54086 21.9826 7.1225C21.7075 5.39871 19.4353 6.12948 19.7103 7.84687Z" fill="#FF9A00"/>
<path d="M20.4764 4.7687C21.9923 4.7687 21.9955 2.37012 20.4764 2.37012C18.9573 2.37012 18.9573 4.7687 20.4764 4.7687Z" fill="#FF9A00"/>
<path d="M23.7128 0.966346C23.9303 3.9198 24.5619 6.85726 25.6909 9.64281C25.9403 10.26 26.2154 10.8949 26.831 11.293C27.4386 11.6864 28.227 11.7584 28.9098 11.4833C30.2562 10.9412 30.5008 9.46532 29.9412 8.36197C29.7237 7.93343 29.0409 7.83748 28.6219 8.05176C28.131 8.30121 28.0607 8.8129 28.2765 9.23505C28.3533 9.38537 28.3661 9.74835 28.195 9.86508C27.9104 10.0602 27.7633 9.6604 27.6689 9.46692C27.2468 8.61142 26.9717 7.65999 26.7031 6.75812C26.137 4.86164 25.7868 2.92518 25.6429 0.967941C25.5613 -0.137005 23.6313 -0.145001 23.7128 0.967941V0.966346Z" fill="#FF9A00"/>
<path d="M29.4084 5.37465C27.2625 5.54895 25.2333 6.17258 23.4775 7.30791C22.9579 7.64371 22.7196 8.22737 23.0554 8.75825C23.348 9.22038 24.1523 9.47143 24.6672 9.13883C26.076 8.22897 27.6751 7.63572 29.41 7.495C30.9083 7.37347 30.9211 5.25313 29.41 5.37625L29.4084 5.37465Z" fill="#FF9A00"/>
</svg>
