<svg width="32" height="48" viewBox="0 0 32 48" fill="none" xmlns="http://www.w3.org/2000/svg">
<path d="M30.5704 25.3948C31.7058 25.7268 31.9664 28.0888 30.903 28.7799C24.9674 32.6445 19.1948 36.788 13.6444 41.2443C12.2565 42.3587 10.8829 43.494 9.52368 44.6486C8.41234 45.5931 7.17468 47.652 5.58841 47.6264C3.66635 47.5943 3.34174 44.9019 3.26818 43.4042C3.11787 40.2789 0.917571 36.2396 2.95637 33.5184C3.7415 32.4697 4.38112 31.368 4.00695 29.9938C3.50804 28.1513 1.5524 27.0609 0.860008 25.2794C0.330721 23.9212 -1.14681 14.8147 1.68032 15.9404C11.1883 19.7279 20.8834 22.5694 30.5704 25.3948ZM6.22963 42.0188C12.6195 36.6421 19.2443 31.7224 26.0707 27.2902C18.3025 25.1174 10.5471 22.8629 2.902 20.0679C3.55921 27.4843 4.67695 34.8221 6.22963 42.0188Z" fill="#FF9A00"/>
<path d="M26.0707 27.2902C19.2443 31.7224 12.6194 36.6421 6.22961 42.0188C4.67693 34.8221 3.55919 27.4843 2.90198 20.0679C10.5471 22.8628 18.3025 25.1174 26.0707 27.2902Z" fill="#FF9A00"/>
<path d="M7.56954 7.01177C7.58553 7.04865 7.60312 7.08393 7.62231 7.11921C7.89095 10.4017 8.15799 13.6841 8.42664 16.9666C8.57215 18.7577 11.3561 18.7738 11.209 16.9666C10.9372 13.6376 10.6653 10.3087 10.3935 6.9781C10.4191 6.92037 10.443 6.86264 10.4622 6.80331C11.5976 5.47718 12.5522 3.97306 13.2782 2.33103C14.0601 0.563923 11.6615 -0.991513 10.8764 0.78361C10.3295 2.01834 9.6659 3.13921 8.87117 4.16388C7.87656 3.11676 6.94751 1.99429 6.1176 0.785215C5.66507 0.126159 4.91671 -0.217003 4.21473 0.235196C3.62467 0.615236 3.26009 1.66877 3.71582 2.33263C4.87673 4.02598 6.14798 5.59264 7.57114 7.01177H7.56954Z" fill="#FF9A00"/>
<path d="M13.5932 12.1158C11.887 12.693 12.6145 15.6532 14.3335 15.0711C14.6022 14.9797 14.8692 14.8899 15.1378 14.7985C15.48 16.6987 16.1788 18.5604 17.4661 19.8128C21.1727 23.4159 29.3518 18.5187 26.651 12.9913C25.8019 11.253 23.3986 12.8005 24.2493 14.5387C25.0312 16.1406 23.0228 17.3241 21.9274 17.7025C21.2047 17.9511 20.2932 18.2012 19.5912 17.7538C18.9276 17.3305 18.5166 16.3892 18.2496 15.6371C18.0481 15.0679 17.9026 14.4874 17.8003 13.8989C18.9916 13.4964 20.1829 13.0923 21.3742 12.6898C23.0803 12.1125 22.3528 9.15241 20.6338 9.7345C19.628 10.0744 18.6222 10.4144 17.6164 10.756C17.666 9.31276 17.861 7.85353 18.0545 6.41355C18.8205 6.53061 19.5864 6.64607 20.354 6.76313C22.0969 7.02771 22.8421 5.23174 21.0943 4.96716C20.1621 4.82605 19.2298 4.68333 18.2976 4.54222C18.3535 4.06436 18.4015 3.59132 18.4383 3.12308C18.587 1.15714 15.803 1.16836 15.6559 3.12308C15.6304 3.45822 15.6 3.79176 15.5648 4.1269C15.552 4.1253 15.5392 4.1237 15.528 4.12049C13.785 3.8559 13.0399 5.65187 14.7877 5.91646C14.9731 5.94532 15.1586 5.97258 15.3441 6.00145C15.1043 7.89202 14.8452 9.781 14.8596 11.6892C14.4375 11.8319 14.0169 11.9746 13.5948 12.1174L13.5932 12.1158Z" fill="#FF9A00"/>
</svg>
